<svg width="16" height="16" viewBox="0 0 16 16" xmlns="http://www.w3.org/2000/svg">
    <defs>
        <linearGradient x1="10.867%" y1="95.706%" x2="125.397%" y2="28.582%" id="n32158assa">
            <stop stop-color="#E878AD" offset="0%"/>
            <stop stop-color="#95A5EA" offset="57.87%"/>
            <stop stop-color="#67E5D8" offset="100%"/>
        </linearGradient>
    </defs>
    <path d="M30.5 16a8 8 0 1 1 0-16 8 8 0 0 1 0 16zm0-1.6a6.4 6.4 0 1 0 0-12.8 6.4 6.4 0 0 0 0 12.8zm-2.4-5.6h-.8V7.2h.8v-.8a2.8 2.8 0 0 1 5.397-1.049l-1.589.397A1.2 1.2 0 0 0 29.7 6.4v.8h2.4v1.6h-2.4v1.6h4V12h-6.4v-1.6h.8V8.8z" transform="translate(-22.5)" fill="url(#n32158assa)" fill-rule="evenodd"/>
</svg>
