<?xml version="1.0" encoding="UTF-8"?>
<svg width="11.4375px" height="12px" viewBox="0 0 11.4375 12" version="1.1" xmlns="http://www.w3.org/2000/svg" xmlns:xlink="http://www.w3.org/1999/xlink">
    <title>icons/home</title>
    <g id="Page-1" stroke="none" stroke-width="1" fill="none" fill-rule="evenodd">
        <g id="icons/home" fill="#28BE89" fill-rule="nonzero">
            <path d="M4.8157895,0 L9.20899344,1.368 C9.46047839,1.44625209 9.63169334,1.67840903 9.63157897,1.941 L9.63157897,3 L10.8355263,3 C11.1679872,3 11.4375,3.26862915 11.4375,3.6 L11.4375,8.4 C11.4375,8.73137085 11.1679872,9 10.8355263,9 L8.89717108,9.0006 C8.66420726,9.3066 8.38127963,9.5766 8.05440792,9.7986 L4.8157895,12 L1.57717109,9.7992 C0.590282523,9.12853369 -0.000123713625,8.01493192 1.94444594e-08,6.8244 L1.94444594e-08,1.941 C0.000149007425,1.67863057 0.171312759,1.44678606 0.422585564,1.3686 L4.8157895,0 Z M4.8157895,1.2564 L1.20394734,2.382 L1.20394734,6.8244 C1.20377283,7.56888268 1.55024037,8.27129333 2.1418224,8.7258 L2.25559543,8.8074 L4.8157895,10.548 L7.09245397,9 L4.21381582,9 C3.88135494,9 3.61184214,8.73137085 3.61184214,8.4 L3.61184214,3.6 C3.61184214,3.26862915 3.88135494,3 4.21381582,3 L8.4276316,3 L8.4276316,2.382 L4.8157895,1.2564 Z M4.8157895,6 L4.8157895,7.8 L10.2335527,7.8 L10.2335527,6 L4.8157895,6 Z M4.8157895,4.8 L10.2335527,4.8 L10.2335527,4.2 L4.8157895,4.2 L4.8157895,4.8 Z" id="Shape"></path>
        </g>
    </g>
</svg>