<svg width="12" height="12" viewBox="0 0 12 12" xmlns="http://www.w3.org/2000/svg">
    <path d="M5.336 7.076v1.09c-1.822 0-3.299 1.461-3.299 3.265h-1.1c0-2.405 1.97-4.355 4.4-4.355zm0-.544c-1.822 0-3.299-1.461-3.299-3.266C2.037 1.462 3.514 0 5.337 0c1.822 0 3.298 1.462 3.298 3.266 0 1.805-1.476 3.266-3.299 3.266zm0-1.089c1.216 0 2.2-.974 2.2-2.177a2.188 2.188 0 0 0-2.2-2.177c-1.215 0-2.2.974-2.2 2.177s.985 2.177 2.2 2.177zm3.3 5.716L7.018 12l.309-1.781L6.02 8.957l1.807-.26.807-1.62.809 1.62 1.806.26-1.307 1.262.308 1.781-1.616-.841z" fill="#636888" fill-rule="nonzero"/>
</svg>
