<svg xmlns="http://www.w3.org/2000/svg" viewBox="0 0 22 22" height="22" width="22">
    <path fill-rule="nonzero" fill="#2d4190" d="M13.215 0c-.611 0-1.107.493-1.107 1.1v4.4c0 .607.496 1.1 1.107 1.1h2.216v2.2H9.892V7.7c0-.607-.496-1.1-1.107-1.1H2.139c-.612 0-1.108.493-1.108 1.1v4.4c0 .607.496 1.1 1.108 1.1h6.646c.611 0 1.107-.493 1.107-1.1V11h5.539v6.6H9.892v-1.1c0-.607-.496-1.1-1.107-1.1H2.139c-.612 0-1.108.493-1.108 1.1v4.4c0 .607.496 1.1 1.108 1.1h6.646c.611 0 1.107-.493 1.107-1.1v-1.1h6.646c.612 0 1.108-.493 1.108-1.1V6.6h2.215c.612 0 1.108-.493 1.108-1.1V1.1c0-.607-.496-1.1-1.108-1.1h-6.646zM3.247 17.6h4.43v2.2h-4.43v-2.2zm0-8.8h4.43V11h-4.43V8.8zm11.076-6.6h4.43v2.2h-4.43V2.2z"></path>
</svg>
