<svg width="18" height="18" viewBox="0 0 18 18" xmlns="http://www.w3.org/2000/svg">
    <path d="M7.952 10.517C9.113 9.849 9.908 9.61 11 9.806c1.628.277 2.613 1.336 3.026 2.77l.013.045.006.047.18 1.332.005.043v.194l-.012.062a3.797 3.797 0 0 1-.232.753 3.864 3.864 0 0 1-.792 1.21c-.955.981-2.399 1.398-4.345 1.059-1.765-.308-3.21-1.27-4.357-2.668a10.225 10.225 0 0 1-1.208-1.859 7.665 7.665 0 0 1-.385-.87l-.469-1.337 1.324.521c1.575.62 2.392.46 3.893-.414l.306-.177zm2.822.566c-.725-.13-1.25.027-2.17.556l-.3.174c-1.31.763-2.303 1.098-3.51.927l-.061-.01.048.083c.182.3.384.594.607.879l.113.141c.964 1.174 2.147 1.963 3.572 2.211 1.534.268 2.54-.023 3.182-.683a2.58 2.58 0 0 0 .526-.807c.062-.147.102-.273.131-.39l.012-.05-.165-1.225-.011-.037c-.288-.922-.883-1.553-1.887-1.753l-.087-.016zM13.16.87c.472-.054.96-.03 1.448.097 1.329.35 2.397 1.399 3.04 3.254.707 2.076.301 4.172-.789 6.126-.245.44-.508.838-.771 1.189-.161.213-.29.367-.368.453l-.959 1.053-.172-1.41c-.196-1.61-.736-2.279-2.1-3.089a44.665 44.665 0 0 0-.194-.114l-.084-.05c-1.295-.76-1.877-1.295-2.254-2.388-.533-1.561-.079-2.918.986-3.973l.036-.035.04-.03 1.1-.799.1-.073.12-.03.068-.018.037-.013c.169-.054.376-.103.613-.136L13.16.87zM1.126 9.107c-.16-.157-.33-.359-.501-.621a3.82 3.82 0 0 1-.552-1.33c-.27-1.332.204-2.744 1.589-4.137a6.74 6.74 0 0 1 2.727-1.647c1.468-.474 3.01-.5 4.443-.266.325.054.566.108.707.147l1.383.382-1.2.784C8.823 3.007 8.34 3.61 8.098 4.32c-.141.417-.19.763-.25 1.58-.116 1.57-.325 2.3-1.162 3.14-1.182 1.17-2.6 1.38-4.027.91l-.049-.016-.045-.023-1.212-.622-.09-.047-.073-.072-.064-.064zm13.15-6.885a2.606 2.606 0 0 0-.965-.063 2.397 2.397 0 0 0-.5.108l-.02.006-.96.698-.026.025c-.677.7-.945 1.517-.642 2.494l.028.084c.248.72.635 1.074 1.683 1.69l.284.167c1.221.726 1.974 1.444 2.391 2.576l.001.002.005-.007.083-.14.081-.142c.928-1.664 1.265-3.405.695-5.08-.505-1.455-1.246-2.184-2.139-2.418zm-6.53.06c-.985-.07-2 .015-2.954.323a5.438 5.438 0 0 0-2.205 1.327C1.5 5.027 1.17 6.007 1.351 6.899c.064.32.194.615.368.881.116.178.228.31.326.408l-.002-.003 1.071.55.035.011c.935.286 1.79.154 2.55-.56l.064-.062c.551-.552.69-1.036.785-2.319.068-.923.127-1.344.315-1.897.195-.577.503-1.1.95-1.584l.032-.034-.1-.008z" fill="#2D4190" fill-rule="nonzero"/>
</svg>
