<?xml version="1.0" encoding="UTF-8"?>
<svg width="16px" height="16px" viewBox="0 0 16 16" version="1.1" xmlns="http://www.w3.org/2000/svg" xmlns:xlink="http://www.w3.org/1999/xlink">
    <title>FA686E9F-B32C-4258-B19B-737D1ECB15C7</title>
    <g id="Page-1" stroke="none" stroke-width="1" fill="none" fill-rule="evenodd">
        <g id="organizational-structure-unit-details" transform="translate(-750.000000, -132.000000)" fill="#9CA0B0" fill-rule="nonzero">
            <g id="Group-8" transform="translate(725.000000, 107.000000)">
                <g transform="translate(16.000000, 16.000000)" id="icons/close">
                    <g transform="translate(9.000000, 9.000000)">
                        <path d="M8,16 C3.5816,16 0,12.4184 0,8 C0,3.5816 3.5816,0 8,0 C12.4184,0 16,3.5816 16,8 C16,12.4184 12.4184,16 8,16 Z M8,14.4 C11.5346224,14.4 14.4,11.5346224 14.4,8 C14.4,4.4653776 11.5346224,1.6 8,1.6 C4.4653776,1.6 1.6,4.4653776 1.6,8 C1.6,11.5346224 4.4653776,14.4 8,14.4 Z M8,6.8688 L10.2624,4.6056 L11.3944,5.7376 L9.1312,8 L11.3944,10.2624 L10.2624,11.3944 L8,9.1312 L5.7376,11.3944 L4.6056,10.2624 L6.8688,8 L4.6056,5.7376 L5.7376,4.6056 L8,6.8688 Z" id="Shape"></path>
                    </g>
                </g>
            </g>
        </g>
    </g>
</svg>