<svg width="18" height="18" viewBox="0 0 18 18" xmlns="http://www.w3.org/2000/svg">
    <path d="m7.786 0 6.59 2.052a.9.9 0 0 1 .634.86V4.5h1.806c.498 0 .903.403.903.9v7.2c0 .497-.405.9-.903.9h-2.908a5.4 5.4 0 0 1-1.264 1.198L7.786 18l-4.858-3.301a5.395 5.395 0 0 1-2.365-4.462V2.912a.9.9 0 0 1 .633-.86L7.786 0zm0 1.885L2.368 3.573v6.664c0 1.116.52 2.17 1.407 2.852l.17.122 3.841 2.611 3.415-2.322H6.883a.901.901 0 0 1-.903-.9V5.4c0-.497.405-.9.903-.9h6.32v-.927L7.787 1.885zm0 7.115v2.7h8.127V9H7.786zm0-1.8h8.127v-.9H7.786v.9z" fill="#0A143A" fill-rule="nonzero"/>
</svg>
