<svg width="14" height="14" viewBox="0 0 14 14" xmlns="http://www.w3.org/2000/svg">
    <path d="M0 14a5.333 5.333 0 1 1 10.667 0H9.333a4 4 0 1 0-8 0H0zm5.333-6c-2.21 0-4-1.79-4-4s1.79-4 4-4 4 1.79 4 4-1.79 4-4 4zm0-1.333a2.666 2.666 0 1 0 0-5.334 2.666 2.666 0 1 0 0 5.334zm5.523 2.468A5.335 5.335 0 0 1 14 14h-1.333a4 4 0 0 0-2.358-3.649l.546-1.216h.001zm-.459-7.526A3.667 3.667 0 0 1 12.667 5a3.666 3.666 0 0 1-3.334 3.652V7.31a2.333 2.333 0 0 0 .694-4.406l.37-1.295z" fill="#636888" fill-rule="nonzero"/>
</svg>
