<svg width="14" height="14" viewBox="0 0 14 14" xmlns="http://www.w3.org/2000/svg">
    <g fill-rule="nonzero" fill="none">
        <path fill="#CC172C" d="M0 0h14v4.749H0z"/>
        <path fill="#FFF" d="M0 9.47h14V4.75H0z"/>
        <path fill="#000" d="M0 9.463h14V14H0z"/>
        <path d="m6.919 8.115-.1.23v.004l.1-.234zM5.987 8.897a.097.097 0 0 1-.015.01c-.03.014-.057.049-.08.09a.363.363 0 0 1 .1-.093l-.002-.003c-.003 0-.003-.004-.003-.004zM8.121 8.987a.237.237 0 0 0-.046-.09l-.01-.01-.001.003c-.005.018-.02.036-.043.057.016-.003.027-.007.034-.007.028-.003.05.018.066.047zM6.961 7.893l-.1.223v-.001zM6.356 8.66l-.123.145c.06.011.116.02.166.027l-.043-.172zM7.592 7.125l.028.656.072.218-.042-1.072a1.369 1.369 0 0 1-.058.198zM7.656 8.652l-.052.17c.047-.007.097-.015.153-.026l-.101-.144zM7.48 8.703l-.043.138c.036-.002.076-.006.122-.013l-.079-.125z" fill="#FFF"/>
        <path d="M6.915 7.893c-.026-.026-.051-.053-.074-.08-.008.007-.084.072-.089.07a1.219 1.219 0 0 1 .008-.158s-.015.155-.008.158c.007.002.081-.063.09-.07a2.097 2.097 0 0 1-.317-.472l.012.034c-.033.009-.106.277-.136.394l.043.159.173-.181-.025-.274.025.274.098-.09-.098.09.016.293.118-.144.046.243.064-.022.042-.222.012-.002zM7.878 8.09l.026.177-.22-.196-.076.228-.163-.176-.073.313-.18-.236.182.235.073-.314.163.176.076-.228.22.198-.028-.176-.027-.023-.003-.07-.089-.217.002.032-.005-.016-.061.135-.223-.187-.017.299s-.154-.176-.163-.177c-.008-.003-.11.308-.11.308s.102-.311.11-.308L7.19 7.82c-.03.03-.06.054-.085.075h.014l.219.952c.045 0 .107-.001.188-.007l.054-.138.1.126.06-.006.066-.17.131.146.168-.026-.212-.66-.005-.01-.009-.012zm.136.398-.1-.193-.11.34-.16-.222-.083.235-.185-.203-.063.258.063-.258.185.203.083-.235.16.222.11-.34.1.193z" fill="#FFF"/>
        <path d="m7.173 7.82.082.045v-.141.141c.006.003.128.178.128.178l.013-.299-.096-.081.096.081.03-.273c-.086.144-.18.264-.253.349zM7.503 7.416l.1.243a2.37 2.37 0 0 0-.1-.243zM6.535 8.717l-.112.118c.061.008.114.013.158.017l-.046-.135zM6.363 6.801l-.046 1.224.071-.236.03-.724a1.764 1.764 0 0 1-.055-.264z" fill="#FFF"/>
        <path d="M7.503 7.416a.19.19 0 0 0-.022-.041c-.018.033-.036.066-.056.098l-.03.274.174.186.048-.134-.036-.139-.078-.244z" fill="#FFF"/>
        <path d="m5.652 8.736-.17.179v.013l.68-.69.075-1.733.12.068.004-.046c.362.041.655-.206.655-.206.08.114.357.208.648.208a.163.163 0 0 1 .003.026l.104-.059.076 1.736-.126-.133.004.01.81.818v-.015l-.179-.187s-.104-2.633-.077-2.628c.022.004.12.071.153.094l-.003-.084c0-.135-.16-.26-.393-.186-.221.072-.33.239-.644.223.027.05.048.07.048.07-.09.025-.167-.034-.167-.034l-.002.075c-.115.028-.163-.11-.186-.09-.022.02-.082.12-.082.12L6.92 6.16c-.039.061-.183.14-.183.14l.01-.13c-.122.086-.192.066-.192.066a.782.782 0 0 0 .064-.081c-.012.001-.156.025-.28-.046-.128-.073-.356-.224-.495-.213-.139.01-.217.017-.256.272v.025a.744.744 0 0 1 .141-.085c.027-.005-.077 2.628-.077 2.628zm2.54-2.621.09 2.554-.167-.173-.076-2.215.153-.166zm-.225.218.07 2.088-.148-.15-.046-1.831.124-.107zm-1.927.008.124.108-.047 1.831-.148.15.071-2.089zm-.072-.053-.076 2.215-.167.173.09-2.555.153.167z" fill="#FFF"/>
        <path d="m6.438 8.66.058.172c.01.001.021.003.032.003l.15-.118.065.135c.083.005.146.005.19.007l.128-.512a.922.922 0 0 1-.01-.123c.005-.008-.171.193-.171.193l-.08-.296-.179.171-.068-.21-.257.205.257-.206.068.211.18-.17.079.295.17-.193a.922.922 0 0 0 .011.123l.058-.231-.086.021-.063-.242-.158.144-.022-.294-.233.182-.058-.159c-.01.033-.018.053-.018.053l.002-.033-.095.236-.002.052-.027.021V8.1v-.002l-.098.079.093-.07-.22.646-.015.03.158.022.161-.144zm-.095-.33.1.303.166-.218.084.238.178-.204.095.254-.095-.254-.178.204-.084-.238-.165.218-.1-.302-.087.058.086-.058z" fill="#FFF"/>
        <path d="m7.452 5.54.413-.433-.516.24c-.213.1-.336.286-.435.605l-.049.155h.243l.033-.078.018-.038.025-.051c.04-.08.086-.158.136-.232a1.3 1.3 0 0 1 .132-.167z" fill="#BF921F"/>
        <path d="M6.623 5.982c.305-.856.67-1.026.984.102l.016.06-.074.145a2.088 2.088 0 0 0-.031-.1l-.019-.054-.04-.107-.016-.045c-.241-.624-.49-.474-.737.13l-.018.043-.065-.174z" fill="#BF921F"/>
        <path d="M7.027 5.115h.016l.01.002a.77.77 0 0 1 .038.004l.014.003.015.002.023.005.008.001c.15.028.239.1.278.2a.361.361 0 0 1 .02.187l-.002.008-.001.006-.002.009v.01c.001.19.027.338.07.454l.005.014.005.014a.69.69 0 0 0 .05.099l.003.005.01.016-.026-.002-.038-.002h-.136l-.195.003-.191.003-.197.003H6.61l.008-.01c.083-.1.147-.221.195-.354l.004-.014.005-.014.003-.007.004-.014.004-.014.002-.007.004-.013.004-.014.004-.013.003-.013.004-.012.003-.013.002-.012.003-.01.002-.012.002-.01.002-.01.002-.01V5.58l.001-.008a.275.275 0 0 0-.023-.15l-.003-.007.015-.005.002.004.004.007a.13.13 0 0 1 .013.029v.002l.004-.008.01-.02.002-.006.002-.003.002-.003.002-.003c.003-.006.006-.007.011-.007h.003l.01.002.032.002.028.002.012.001a.785.785 0 0 0-.008-.01l-.007-.008a.85.85 0 0 0-.063-.066.405.405 0 0 0-.122-.084.14.14 0 0 0-.052-.01c-.068 0-.12.04-.118.111v.004l.002.034-.018-.03c-.028-.051-.032-.107.002-.175.017-.035.073-.048.154-.046h.011l.012.002h.018l.013.002-.002.013a.728.728 0 0 0-.12 0c-.042.005-.066.03-.076.07a.161.161 0 0 0-.002.013l-.001.007.001-.003c.035-.07.099-.08.189-.052l.005.002.004.002.01.003.008.003.008.003.009.003.02.009a.692.692 0 0 1 .182.115l.006.006h.001c.005.004.008.004.02-.001l.006-.003.008-.005.015-.008.065-.037.005-.003a.16.16 0 0 1 .033-.014.211.211 0 0 1 .161.025l.005.003-.005-.006-.01-.012-.015-.017-.011-.012-.008-.008a.307.307 0 0 0-.15-.073.994.994 0 0 0-.088-.018l-.014-.002H7.07l-.046-.007.002-.013zm-.215.08c-.09-.03-.146-.022-.178.045l-.007.024-.006.018v.004-.003c.02-.04.063-.063.114-.067H6.744a.16.16 0 0 1 .06.012.42.42 0 0 1 .126.087.864.864 0 0 1 .064.067l.008.01a.823.823 0 0 1 .004.004l.008.01.005.006.008.012-.044-.004-.055-.004-.014-.001-.002.002-.002.004-.002.005-.006.011-.004.01-.005.01-.002.004-.002.004a.08.08 0 0 1-.005.007v.001l-.002.001.001.006a.277.277 0 0 1 .006.07v.008l-.001.007-.001.007-.002.009-.001.009a.64.64 0 0 1 0 .005l-.003.01-.002.01-.002.011-.001.006-.003.012-.003.012-.003.012-.003.013-.006.02-.004.013-.002.007-.004.014-.004.014-.005.014-.004.014-.005.015-.003.007c-.043.121-.1.234-.173.328l-.008.01-.007.008h.165l.191-.002V6.14a.242.242 0 0 0 .006-.014l.003-.008.003-.01.003-.008.003-.01.002-.01.003-.012.001-.005.003-.012.003-.012.004-.02.002-.014.003-.014.004-.022.002-.015.004-.021.002-.013.002-.014c.008-.058.015-.12.021-.18l.003-.029.016.002v.003c-.005.054-.012.11-.019.165l-.003.028-.003.02-.003.02-.004.022-.004.023-.002.014-.003.015-.002.014-.003.013-.003.013-.002.012-.003.011-.002.006-.002.01-.003.011-.003.01a.45.45 0 0 1-.003.009l-.003.008-.003.008a.244.244 0 0 1-.003.008l.18-.003.18-.002a.443.443 0 0 1-.066-.158l-.002-.01a.984.984 0 0 1-.019-.122v-.006a1.392 1.392 0 0 1-.006-.097v-.078h.016v.038c0 .055.002.108.008.158l.001.01.004.028.002.014.002.01.002.012.001.007c.015.078.04.144.075.192l.001.001.12-.001.032.002.017.001a.93.93 0 0 1-.119-.37l-.002-.02a1.788 1.788 0 0 1-.011-.184V5.54l.001-.004.002-.008v-.007l.001-.003a.35.35 0 0 0-.024-.196l-.003-.006v-.002h-.002l-.005-.003-.002-.002-.006-.004a.283.283 0 0 0-.032-.018.193.193 0 0 0-.138-.02.141.141 0 0 0-.03.013l-.085.049-.008.004h-.002c-.02.011-.033.012-.044.003l-.002-.002-.002-.002a.673.673 0 0 0-.175-.113l-.006-.002-.02-.009-.013-.004-.01-.005-.005-.001-.006-.002z" fill="#BF921F"/>
        <path d="m7.88 6.139-.92.026-.008.027c-.01.03-.014.042-.021.05l-.02.022.503.875.06-.108.038-.065.115-.198.051-.086.042-.069.027-.043.038-.06.023-.035.021-.031.02-.028.017-.024a.831.831 0 0 1 .009-.01l.014-.019.021-.024-.005-.022a.593.593 0 0 1-.004-.023l-.005-.028-.005-.033a2.25 2.25 0 0 1-.002-.018l-.005-.04-.004-.036zm-.868.105.804-.023.003.025.005.035.006.034-.01.012-.018.025-.021.03-.012.016-.024.035-.025.04-.028.043-.03.048-.03.05-.028.046c-.038.063-.077.128-.115.195l-.076.132-.412-.715V6.27a.187.187 0 0 0 .008-.018l.003-.009z" fill="#BF921F"/>
        <path d="m7.906 6.16-.01-.023-.822.022.007.081.004.05.004.042.005.037.004.031.013.08.04-.055c.004-.006.015-.001.035.025l.012.017.015.022.121.202.033.054.013.02c.198.302.4.436.656.344L8.06 7.1l.014-.621-.01-.016a2.032 2.032 0 0 1-.158-.303zm-.043.078.01.023c.04.09.08.167.124.238l.012.019-.012.502-.017.005c-.211.055-.382-.068-.555-.33l-.02-.032-.063-.105-.081-.136-.012-.018c-.036-.052-.066-.082-.094-.083h-.002l-.003-.027-.003-.038.716-.018z" fill="#BF921F"/>
        <path d="m7.521 6.204.018-.062-.433.017-.364.016h-.011l-.035.113-.025.08-.016.053-.016.048-.01.029-.014.041-.01.027-.014.04a3.978 3.978 0 0 1-.005.013l-.047.122.041-.007.004.002.01.002.007.002c.11.023.25-.06.428-.334l.012-.019-.023.755.035-.045.022-.03.022-.03.023-.032c.057-.08.114-.167.167-.255.056-.094.105-.186.144-.272.03-.068.054-.131.071-.191l.006-.02.007-.034.005-.023.001-.006zm-.414.034.373-.015-.001.007v-.002a1.31 1.31 0 0 1-.07.193 2.615 2.615 0 0 1-.141.265 4.026 4.026 0 0 1-.165.252l-.023.032-.025.034.024-.765.028-.001zm-.36.015.326-.014-.036.06c-.175.284-.312.377-.417.366l-.007-.001.008-.02.01-.03.016-.042.01-.03.01-.031.017-.051.018-.057.02-.065.026-.085z" fill="#BF921F"/>
        <path d="M7.731 6.138h-.503l.03.109c.054.196.102.332.159.443l.009.015.019.031.016.026c.034.052.074.104.117.152.19.212.395.291.6.158l.05-.033-.039-.087-.01-.024-.013-.036-.015-.044a2.972 2.972 0 0 1-.008-.025l-.018-.055a6.888 6.888 0 0 1-.141-.55l-.008-.035-.245-.045zm-.004.14.213.04-.008-.035c.046.213.092.39.137.537l.019.063.018.055.008.025-.018.008c-.167.07-.335-.009-.493-.185a1.247 1.247 0 0 1-.111-.144L7.465 6.6l-.012-.02-.013-.026a1.828 1.828 0 0 1-.097-.256l-.005-.019h.39zM6.713 5.332c-.06.05-.1.1-.1.1s.03-.05.1-.1zM6.77 5.346c.042.04.072.07.09.091a.404.404 0 0 0-.1-.1l.01.01z" fill="#BF921F"/>
        <path d="m6.852 5.41.083.007s-.12-.193-.219-.193c-.048 0-.107.035-.103.123l.014-.016.001-.002c.027-.025.083-.065.132.007a.29.29 0 0 1 .044.076c.021.044.015.05.017.057.004.015.026-.06.031-.06zM6.876 5.227a.294.294 0 0 0-.1-.086c.054.036.099.1.099.1l.001-.014zM7 5.16c-.014-.01-.023-.02-.031-.02-.026-.03-.049.01-.069.06.023-.04.057-.05.1-.04z" fill="#BF921F"/>
        <path d="M6.716 5.206c-.134.056-.107.702-.107.702l.018-.236c.064-.497.208-.28.307-.13.098.149.197.428.23.546.025.087.04.018.167-.248.13-.267.275.149.275.149s.012 0-.084-.385c-.087-.348-.309-.435-.39-.478-.032-.006-.056 0-.073.025a.773.773 0 0 0-.035.149H7.02v.006s-.07-.056-.15-.087c-.051-.031-.105-.037-.154-.013zm.434.51c0-.075.023-.13.05-.13.029 0 .05.055.05.13v.018c0 .068-.024.13-.05.13-.03 0-.05-.055-.05-.13v-.019z" fill="#BF921F"/>
        <path d="M7.009 5.321c.029 0 .05-.02.05-.046v-.007c0-.027-.024-.047-.05-.047-.03 0-.05.02-.05.047v.007c0 .026.023.046.05.046z" fill="#FFF"/>
        <path d="m5.588 6.193-.021.016-.104 2.727.02-.02c.006-.193.1-2.364.105-2.723z" fill="#BF921F"/>
        <path d="M5.652 8.736s.104-2.633.077-2.63c-.021.005-.101.06-.141.086-.005.359-.099 2.53-.107 2.721l.171-.177zM5.892 8.504l.076-2.216-.153-.165-.09 2.554zM6.164 6.45 6.04 6.34 5.97 8.43l.147-.15zM6.16 8.276l.1-.1-.1.094zM6.39 8.096l.006-.07-.1.1zM6.317 8.025l.046-1.224a1.31 1.31 0 0 1-.008-.226l-.12-.068-.075 1.732.063-.063.073-.079.021-.072zM6.536 7.375l-.012-.034a1.873 1.873 0 0 1-.107-.276l-.029.724.013-.046-.013.046-.001.034.013-.054-.001-.006.001.006c.03-.117.103-.386.136-.394zM8.545 8.928l-.104-2.727-.01-.008c.013.458.094 2.527.102 2.722l.012.013z" fill="#BF921F"/>
        <path d="m8.355 8.728.178.187c-.008-.195-.088-2.264-.102-2.722a.91.91 0 0 0-.154-.093c-.026-.005.078 2.628.078 2.628zM8.281 8.67l-.089-2.555-.153.165.076 2.216zM8.037 8.421l-.07-2.088-.124.108.046 1.83zM7.734 8.138l.07.025-.09-.1z" fill="#BF921F"/>
        <path fill="#BF921F" d="m7.688 7.999.011.075.089.025-.011-.03z"/>
        <path d="m7.648 6.927.04 1.072.02.064-.001-.015.001.015.012.037.125.133-.076-1.736-.104.059c.016.127.008.25-.017.37zM7.505 7.364c-.006.008-.019.013-.025.018a.446.446 0 0 1 .1.082l-.075-.1z" fill="#BF921F"/>
        <path d="m7.485 7.364.016.052c.026.059.055.157.078.243l.038.122-.026-.656a1.68 1.68 0 0 1-.106.239z" fill="#BF921F"/>
        <path d="m7.67 7.799.007-.008-.007.008.01.016-.003-.032-.097-.123c.04.06.077.113.09.139zM7.03 7.97c-.018.014-.034.005-.034.005a2.339 2.339 0 0 1-.081-.082h-.012l-.04.223.002-.001-.002.001-.043.235v.004-.004l-.075.41s.047.062.052.062c.006 0 .079-.06.079-.06l.061-.567s.014-.008.014.004l-.023.57c0 .009.079.1.079.1l.073-.098-.01-.575s.013-.004.017.007c.004.01.05.567.05.567l.086.056.052-.066-.155-.866h-.01a1.644 1.644 0 0 1-.08.076z" fill="#BF921F"/>
        <path d="m7.017 6.313.004.006c.033.046.1.089.186.123l.013.005c.015.006.03.012.047.017l.014.004a1.1 1.1 0 0 0 .014.004l.014.004.022.006.015.004.016.004a1.3 1.3 0 0 0 .054.011l.016.003c.072.012.148.02.224.02h.014v.007l.001.003v.004l.001.01v.005l.001.002.001.004-.033.02.014.346v.002a1.38 1.38 0 0 1-.052.186l-.005.013-.011.032-.004-.094-.104.298.003.004.002.001.001.002.003.004-.01.019-.01.019-.013.02-.016.03-.01.014-.006.012c-.07.114-.146.218-.233.322l-.013.015-.006.008a2.611 2.611 0 0 1-.021.024l-.014.015-.013.015a1.851 1.851 0 0 1-.007.006l-.008.01-.198-.003-.008-.01-.013-.014-.022-.023-.032-.036-.01-.01a2.103 2.103 0 0 1-.3-.45l-.007-.014-.094-.27-.002.03-.011-.036a1.553 1.553 0 0 1-.053-.25l-.002-.015.01-.213-.015-.01v-.02l.001-.01.001-.007v-.006l.002-.007V6.52h.007a.851.851 0 0 0 .486-.1 1.06 1.06 0 0 0 .13-.078l.01-.007.009-.006.01-.008.005-.004.005-.005zm-.001.02h-.001l-.006.004-.004.003-.01.007a.879.879 0 0 1-.141.087.868.868 0 0 1-.484.102h-.003v.004l-.001.006v.003l-.001.01v.012l.015.01-.01.22c.007.066.02.13.036.196l.004.016.003.011v-.02l.117.333c.073.152.17.302.294.446l.011.014.01.01.034.038.018.02.014.015.005.005.07.001-.004-.004a2.19 2.19 0 0 1-.208-.231l-.004-.004-.004-.005-.006-.008-.015-.02-.018-.026-.015-.02a1.601 1.601 0 0 1-.294-.772l-.003-.035-.003-.044.002.002v-.101l.001-.005a.14.14 0 0 1 .001-.007v-.004c.003-.01.005-.014.01-.015h.029c.059.003.112 0 .17-.008a.873.873 0 0 0 .346-.146l.01-.006a.757.757 0 0 0 .004-.003l.008-.006a.627.627 0 0 0 .004-.003l.008-.007.005-.004.006-.004.004.005c.022.03.06.06.109.085l.01.005a.734.734 0 0 0 .083.034l.012.004.013.004.006.002.013.004.013.004.013.003.02.006.013.003.007.001.014.003.014.003.014.003.028.005.015.002c.048.007.098.012.149.013h.036v.006c.015.1.013.206-.005.314l-.002.012a1.556 1.556 0 0 1-.135.391 2.367 2.367 0 0 1-.303.45l-.015.016-.007.008-.01.012-.015.015-.01.011-.013.014-.012.013-.008.009-.01.01-.007.006-.006.006-.005.004-.001.001.065.001.004-.005.013-.014.013-.014.014-.016.014-.016.006-.007c.088-.104.165-.208.235-.32l.01-.016.006-.011.026-.045.01-.017.012-.021.006-.012-.001-.002h-.01l.132-.377.004.094.002-.006c.016-.047.028-.091.037-.134l.003-.013.002-.011-.013-.354.032-.019-.001-.006v-.009h-.004c-.074 0-.149-.007-.22-.02l-.016-.002-.015-.003a1.324 1.324 0 0 1-.015-.003l-.016-.003-.007-.002-.015-.003a1.211 1.211 0 0 1-.044-.012l-.015-.004a1.038 1.038 0 0 1-.067-.022l-.013-.005a.47.47 0 0 1-.194-.121l-.002-.004zm-.002.086-.006.004-.003.002-.008.006a.728.728 0 0 1-.005.003l-.009.007a.85.85 0 0 1-.114.068.886.886 0 0 1-.241.083.861.861 0 0 1-.162.009L6.433 6.6h-.002V6.6l-.002.008v.011l-.001.007v.008l-.001.009V6.735l.004.05c.02.245.108.51.292.775l.035.048.011.016.008.01.005.006.002.003c.057.074.126.15.207.23l.01.01h.002a.023.023 0 0 0 .021-.002l.002-.002h.002l.003-.004.006-.005.009-.009.008-.008.005-.004.01-.011.012-.012.011-.012.012-.013.019-.021.013-.015a2.356 2.356 0 0 0 .311-.459 1.544 1.544 0 0 0 .133-.378l.002-.01c.019-.107.022-.21.009-.31v-.005h-.003a1.22 1.22 0 0 1-.077-.003l-.015-.002-.016-.001a1.25 1.25 0 0 1-.068-.008l-.014-.003a1.218 1.218 0 0 1-.022-.003L7.36 6.58l-.014-.003-.014-.003-.008-.002-.014-.003a1.095 1.095 0 0 1-.02-.005l-.014-.004-.006-.002-.014-.003-.013-.004-.012-.005a.902.902 0 0 1-.02-.006l-.011-.004-.012-.005a.761.761 0 0 1-.024-.01l-.01-.004a.37.37 0 0 1-.141-.098z" fill="#BF921F"/>
        <path d="m7.346 6.634-.92-.07-.02.045c-.121.278-.069.594.257.954l.422-.002.261-.927zm-.536.023.103.008-.116.414-.007-.025a.672.672 0 0 1 .01-.366l.01-.031z" fill="#BF921F"/>
        <path d="m7.41 7.99-.973-.985-.026.174.002.006c.228.272.526.547.896.82l.102-.015zM8.488 6.571l-.022-.023-.838.06.294.94.21-.12c.5-.286.628-.574.356-.857zm-.228.027.005.006c.192.222.135.447-.156.671l-.017.013-.208-.663.376-.027z" fill="#BF921F"/>
        <path d="m8.464 7.324-.04-.33-.96.955.038.007a.19.19 0 0 1 .05.014l.046.025.04-.028.01-.006.017-.01.01-.006c.302-.2.565-.405.786-.614l.003-.007zm-.116-.152.018.15-.044.042a5.753 5.753 0 0 1-.733.565l-.006.004.765-.761z" fill="#BF921F"/>
        <path d="m7.897 7.916-1-.03.423.941c.009.016.017.025.027.034.048.04.103.033.156-.05l.017-.028.008-.016.017-.032.013-.028.04-.089.051-.113.034-.078.05-.114.078-.188.042-.1.044-.109zm-.855.106.722.022-.048.114-.037.088-.053.122-.047.107-.044.097-.027.059-.016.031-.01.02-.003.004c-.041.072-.078.08-.11.052l-.005-.004-.006-.006-.001-.002-.315-.704z" fill="#BF921F"/>
        <path d="M7.033 6.407 7.03 6.4l-.007.006-.01.006-.007.006-.008.006a.782.782 0 0 1-.005.003l-.009.006a.987.987 0 0 1-.11.064l-.01.005a.9.9 0 0 1-.225.075l-.011.002.002.013.01-.001c.054-.01.1-.02.14-.036l.004-.002v1.095l-.004.003c.062.078.137.158.226.242h.001c.001.002.003.002.005.003.01.004.023.003.035-.005l.003-.002.007-.007.01-.01.009-.008c.1-.097.213-.23.312-.383l-.011-.007-.007.01a1.984 1.984 0 0 1-.13.172l-.007.009V6.544l.011.003c.125.037.228.054.311.058h.067l.005-.001V6.59h-.031l-.101-.007-.015-.002a1.313 1.313 0 0 1-.038-.005l-.015-.002a1.279 1.279 0 0 1-.03-.005l-.014-.003-.014-.002-.015-.003-.007-.002-.014-.003a1.09 1.09 0 0 1-.06-.016l-.013-.004a.956.956 0 0 1-.013-.004l-.012-.004a.784.784 0 0 1-.064-.025l-.01-.005a.324.324 0 0 1-.127-.092zm-.007.013a.424.424 0 0 0 .182.113l.01.004V7.69l-.001.002a2.145 2.145 0 0 1-.152.165l-.012.012-.012.01-.002.003a.024.024 0 0 1-.023.004h-.001l-.001-.001-.01-.01a2.27 2.27 0 0 1-.198-.21l-.01-.011V6.546l.01-.003A1.006 1.006 0 0 0 7 6.439l.01-.006.007-.006.008-.006h.001zM8.27 6.595l-.43.004c.334.403.24.712-.258.99l.425.006c.653-.346.762-.676.262-1z" fill="#BF921F"/>
        <path d="m8.342 7.031.118.015c-.196.302-.469.605-.824.928l-.06.054-.005.003-.11-.022.016-.016c.03-.03.058-.06.086-.094l.12-.12.132-.137.072-.076.067-.07.062-.069.058-.064.054-.062.034-.04.033-.04.031-.038.03-.038.044-.057.042-.057zM6.462 6.786l-.043.002c.067.319.355.658.964.998l.036-.01c-.482-.278-.853-.615-.957-.99zM6.817 7.665l-.1-.1c.05.052.087.087.1.1zM6.627 6.59c-.103.11-.191.05-.199.06.07.06.137.03.199-.06z" fill="#BF921F"/>
        <path d="M6.477 6.785c-.07-.12.02-.192.02-.192-.09.002-.05.143-.05.143l.03.05z" fill="#BF921F"/>
        <path d="M6.425 6.785a1.747 1.747 0 0 0 .359.867v-1.11a.564.564 0 0 1-.157.042.752.752 0 0 1-.199.008c0 .001-.012.073-.003.193zM7.459 7.31zM7.661 6.92a.629.629 0 0 1-.1.113.358.358 0 0 0 .1-.113z" fill="#BF921F"/>
        <path d="M7.207 6.535v1.149s.074-.085.152-.205a1.835 1.835 0 0 0 .118-.223 2.41 2.41 0 0 0 .084-.221c.011-.038.019-.075.027-.114.015-.086.017-.186.008-.324.001-.001-.135.018-.39-.062z" fill="#BF921F"/>
    </g>
</svg>
