<svg width="14" height="14" viewBox="0 0 14 14" xmlns="http://www.w3.org/2000/svg">
    <path d="M7 0a7 7 0 1 1 0 14A7 7 0 0 1 7 0zm0 1.2a5.8 5.8 0 0 0-5.22 8.33l4.58-.001 2.871-2.721-1.388 2.721 4.378.001A5.8 5.8 0 0 0 7 1.2zm.248 2.574v.58l.12.004c.86.03 1.72.159 2.587.387l.016.004.027-.088.019-.058.018-.058.102-.327.497.155-.12.386-.02.058-.102.328-.076.242-.244-.07a10.937 10.937 0 0 0-6.18 0l-.243.07-.076-.242-.121-.386-.018-.058-.103-.328.496-.156.094.3.045.144.027.085.016-.001a11.695 11.695 0 0 1 2.586-.387l.132-.004v-.58h.52z" fill="#636888" fill-rule="evenodd"/>
</svg>
