<?xml version="1.0" encoding="UTF-8"?>
<svg width="14px" height="14px" viewBox="0 0 14 14" version="1.1" xmlns="http://www.w3.org/2000/svg" xmlns:xlink="http://www.w3.org/1999/xlink">
    <title>1BCF92F8-495F-4094-8FC1-EF4D49E45271</title>
    <g id="Page-1" stroke="none" stroke-width="1" fill="none" fill-rule="evenodd">
        <g id="organizational-structure-unit-details" transform="translate(-1055.000000, -231.000000)" fill="#9CA0B0" fill-rule="nonzero">
            <g id="Group-8" transform="translate(725.000000, 107.000000)">
                <g id="Group-10" transform="translate(91.000000, 121.000000)">
                    <g id="Group-3" transform="translate(188.000000, 0.000000)">
                        <g id="icons/truck-merchants" transform="translate(51.000000, 3.000000)">
                            <path d="M5.06863636,10.3189964 C4.91223419,11.4269001 3.97234194,12.25 2.86363636,12.25 C1.75493078,12.25 0.815038533,11.4269001 0.658636364,10.3189964 L0,10.3189964 L0,2.61107664 C0,2.25632943 0.284909705,1.96875 0.636363636,1.96875 L9.54545455,1.96875 C9.89690848,1.96875 10.1818182,2.25632943 10.1818182,2.61107664 L10.1818182,3.89572993 L12.0909091,3.89572993 L14,6.5010068 L14,10.3189964 L12.705,10.3189964 C12.5485978,11.4269001 11.6087056,12.25 10.5,12.25 C9.39129442,12.25 8.45140217,11.4269001 8.295,10.3189964 L5.06863636,10.3189964 Z M8.90909091,3.25340329 L1.27272727,3.25340329 L1.27272727,8.42413278 C1.7823369,7.89900208 2.51410323,7.65851526 3.23233083,7.78013098 C3.95055843,7.9017467 4.56451648,8.37010174 4.87645455,9.03434309 L8.48718182,9.03434309 C8.59409091,8.80760178 8.73727273,8.60141493 8.90909091,8.42413278 L8.90909091,3.25340329 Z M10.1818182,7.10736316 L12.7272727,7.10736316 L12.7272727,6.92430006 L11.4494545,5.18038322 L10.1818182,5.18038322 L10.1818182,7.10736316 Z M10.5,10.961323 C11.0273566,10.961323 11.4548636,10.5298101 11.4548636,9.99751189 C11.4548636,9.4652137 11.0273566,9.03370076 10.5,9.03370076 C9.97264338,9.03370076 9.54513636,9.4652137 9.54513636,9.99751189 C9.54513636,10.5298101 9.97264338,10.961323 10.5,10.961323 Z M3.81818182,9.99783306 C3.81818182,9.65361124 3.63624649,9.33553716 3.3409091,9.16342625 C3.0455717,8.99131534 2.68170102,8.99131534 2.38636363,9.16342625 C2.09102624,9.33553716 1.90909091,9.65361124 1.90909091,9.99783306 C1.90909091,10.5299539 2.33645547,10.961323 2.86363636,10.961323 C3.39081726,10.961323 3.81818182,10.5299539 3.81818182,9.99783306 L3.81818182,9.99783306 Z" id="Shape"></path>
                        </g>
                    </g>
                </g>
            </g>
        </g>
    </g>
</svg>