<svg width="18" height="18" viewBox="0 0 18 18" xmlns="http://www.w3.org/2000/svg">
    <path d="M2.278 4.408V15.4l4.345-1.86 5.147 2.572 4.233-1.815V3.305l1.118-.478a.43.43 0 0 1 .598.394v12.207L11.714 18l-5.147-2.572-5.407 2.316a.43.43 0 0 1-.597-.395V5.142l1.715-.734zM12.78 8.779l-3.64 3.637L5.5 8.779a5.14 5.14 0 0 1 .001-7.273 5.15 5.15 0 0 1 7.279 0 5.14 5.14 0 0 1 0 7.273zM9.14 9.991l2.427-2.424A3.427 3.427 0 0 0 9.14 1.713a3.427 3.427 0 0 0-2.426 5.854L9.14 9.99z" fill="#E35C9C" fill-rule="nonzero"/>
</svg>
