<svg width="12" height="12" viewBox="0 0 12 12" xmlns="http://www.w3.org/2000/svg">
    <path d="M1.09 6A1.91 1.91 0 0 1 3 4.09c.656 0 1.102.238 1.472.608.396.396.702.938 1.051 1.567l.019.033c.327.59.7 1.26 1.214 1.775C7.306 8.623 8.02 9 9 9a3 3 0 1 0-2.268-4.964c.244.357.445.713.612 1.013A1.908 1.908 0 1 1 9 7.91c-.656 0-1.102-.237-1.472-.607-.396-.396-.702-.938-1.051-1.567l-.019-.033c-.327-.59-.7-1.26-1.214-1.775A3.039 3.039 0 0 0 3 3a3 3 0 1 0 2.268 4.964 12.86 12.86 0 0 1-.612-1.013A1.908 1.908 0 0 1 1.091 6z" fill="#636888" fill-rule="nonzero"/>
</svg>
