<svg width="18" height="18" viewBox="0 0 18 18" xmlns="http://www.w3.org/2000/svg">
    <path d="M8.127 0a8.984 8.984 0 0 0-2.87.77l.996 1.72a7.019 7.019 0 0 1 1.874-.499V0M1.996 9.85A7.063 7.063 0 0 0 9 16.022a7.063 7.063 0 0 0 7.004-6.172H18C17.56 14.417 13.692 18 9 18S.44 14.417 0 9.85h1.996zM13.257 4.73 10.575 8.35A1.695 1.695 0 0 1 9 10.672a1.695 1.695 0 0 1-1.697-1.693A1.696 1.696 0 0 1 9.63 7.407l3.626-2.676zM.771 5.245l1.725.993a6.978 6.978 0 0 0-.5 1.87H0a8.93 8.93 0 0 1 .771-2.863zm16.458 0c.406.887.673 1.85.771 2.862h-1.996a6.977 6.977 0 0 0-.5-1.869zM3.373 4.73a7.106 7.106 0 0 1 1.37-1.367l-.997-1.721a9.106 9.106 0 0 0-2.1 2.094l1.727.994M12.743.77A8.984 8.984 0 0 0 9.873 0v1.991c.656.081 1.286.25 1.874.5l.996-1.722m.514 2.595c.517.392.979.852 1.37 1.367l1.726-.994a9.1 9.1 0 0 0-2.1-2.094l-.996 1.721" fill="#2D4190" fill-rule="evenodd"/>
</svg>
