<svg width="14" height="14" viewBox="0 0 14 14" xmlns="http://www.w3.org/2000/svg">
    <path d="M13.64 7.445c.199 0 .36.163.36.365v5.826a.362.362 0 0 1-.36.364H7.147c-.199 0-.36-.163-.36-.364V7.81c0-.202.161-.365.36-.365h6.491zm-7.396.852v1.31a3.737 3.737 0 0 0-3.412.474 3.76 3.76 0 0 0-1.583 3.068H0c0-1.55.714-3.012 1.936-3.961a4.984 4.984 0 0 1 4.308-.89zm6.75 2.206h-5.2v2.625h5.2v-2.625zm-.655 1.093v.729h-1.443v-.729h1.443zm.654-3.35H7.794v1.312h5.2V8.246zM4.995 0a3.75 3.75 0 0 1 3.746 3.757 3.75 3.75 0 0 1-3.746 3.757 3.75 3.75 0 0 1-3.746-3.757A3.75 3.75 0 0 1 4.995 0zm0 1.252a2.5 2.5 0 0 0-2.498 2.505 2.5 2.5 0 0 0 2.498 2.505 2.5 2.5 0 0 0 2.497-2.505 2.5 2.5 0 0 0-2.497-2.505z" fill="#9CA0B0" fill-rule="nonzero"/>
</svg>
