<svg width="18" height="18" viewBox="0 0 18 18" xmlns="http://www.w3.org/2000/svg">
    <path d="M1.75 0h14.5c.5 0 .906.403.906.9v16.2c0 .497-.405.9-.906.9H1.75a.903.903 0 0 1-.906-.9V.9c0-.497.405-.9.906-.9zm.906 2.362v13.275c0 .311.252.563.563.563H14.78c.31 0 .563-.252.563-.563V2.364a.562.562 0 0 0-.563-.563H3.22a.563.563 0 0 0-.563.562zM5.031 3.6h7.938c.31 0 .562.252.562.562v2.476c0 .31-.252.562-.562.562H5.03a.563.563 0 0 1-.562-.563V4.163c0-.311.252-.563.562-.563zm0 5.4h.688c.31 0 .562.252.562.563v.675c0 .31-.252.562-.562.562H5.03a.562.562 0 0 1-.562-.563v-.675c0-.31.252-.562.562-.562zm0 3.6h.688c.31 0 .562.252.562.563v.675c0 .31-.252.562-.562.562H5.03a.562.562 0 0 1-.562-.563v-.675c0-.31.252-.562.562-.562zM8.656 9h.688c.31 0 .562.252.562.563v.675c0 .31-.252.562-.562.562h-.688a.562.562 0 0 1-.562-.563v-.675c0-.31.252-.562.562-.562zm0 3.6h.688c.31 0 .562.252.562.563v.675c0 .31-.252.562-.562.562h-.688a.562.562 0 0 1-.562-.563v-.675c0-.31.252-.562.562-.562zM12.281 9h.688c.31 0 .562.252.562.563v4.274c0 .311-.252.563-.562.563h-.688a.562.562 0 0 1-.562-.563V9.564c0-.311.252-.563.562-.563z" fill="#2D4190" fill-rule="nonzero"/>
</svg>
