<svg width="18" height="18" viewBox="0 0 18 18" xmlns="http://www.w3.org/2000/svg">
    <path d="M7.44 6.994c-.033.63.29 1.226.835 1.541a1.672 1.672 0 0 0 1.75-.047c.323.33.61.705.85 1.124.243.419.423.856.547 1.3a1.678 1.678 0 0 0-.001 2.99 5.588 5.588 0 0 1-1.396 2.425 1.672 1.672 0 0 0-1.75-.046 1.678 1.678 0 0 0-.835 1.541 5.565 5.565 0 0 1-2.794 0 1.678 1.678 0 0 0-.835-1.542 1.672 1.672 0 0 0-1.75.047 5.6 5.6 0 0 1-1.397-2.424 1.678 1.678 0 0 0 .001-2.99 5.588 5.588 0 0 1 1.396-2.425 1.672 1.672 0 0 0 1.75.047c.545-.316.868-.912.835-1.542a5.565 5.565 0 0 1 2.794.001zm-1.815.96a2.79 2.79 0 0 1-3.223 1.864 4.47 4.47 0 0 0-.418.726c.458.512.711 1.176.71 1.864 0 .704-.262 1.362-.71 1.864.117.254.257.497.419.726a2.79 2.79 0 0 1 3.222 1.864c.278.026.558.027.836 0a2.79 2.79 0 0 1 3.223-1.864c.162-.228.302-.472.418-.726a2.795 2.795 0 0 1-.71-1.864c0-.705.262-1.363.71-1.864a4.546 4.546 0 0 0-.419-.726 2.79 2.79 0 0 1-3.222-1.864 4.448 4.448 0 0 0-.836 0zm.418 2.776c.925 0 1.674.751 1.674 1.678 0 .926-.75 1.677-1.674 1.677a1.676 1.676 0 0 1-1.674-1.677c0-.927.75-1.678 1.674-1.678zm0 1.119a.559.559 0 1 0 .001 1.117.559.559 0 0 0-.001-1.117zM13.918.15a1.418 1.418 0 0 0 .701 1.3c.458.266 1.025.25 1.468-.04.27.279.511.595.713.949.203.353.355.721.458 1.097-.47.241-.767.729-.768 1.26 0 .533.296 1.02.767 1.262a4.722 4.722 0 0 1-1.17 2.046 1.395 1.395 0 0 0-1.468-.039 1.418 1.418 0 0 0-.7 1.301c-.769.2-1.575.2-2.344-.001a1.418 1.418 0 0 0-.7-1.3 1.395 1.395 0 0 0-1.468.04A4.747 4.747 0 0 1 8.235 5.98c.472-.241.768-.729.768-1.261 0-.532-.296-1.02-.766-1.262a4.722 4.722 0 0 1 1.17-2.046c.443.29 1.01.306 1.468.04.457-.267.728-.77.7-1.301a4.64 4.64 0 0 1 2.343 0zM12.396.96a2.352 2.352 0 0 1-1.053 1.307 2.321 2.321 0 0 1-1.65.266 3.777 3.777 0 0 0-.35.613c.384.432.596.992.596 1.572 0 .595-.22 1.15-.596 1.573.098.215.215.42.35.613a2.321 2.321 0 0 1 1.65.266c.499.29.874.755 1.053 1.306.233.023.468.023.701.001a2.352 2.352 0 0 1 1.054-1.307 2.321 2.321 0 0 1 1.65-.266 3.75 3.75 0 0 0 .35-.613 2.366 2.366 0 0 1-.596-1.573c0-.594.22-1.15.596-1.572a3.841 3.841 0 0 0-.35-.613 2.321 2.321 0 0 1-1.65-.266A2.352 2.352 0 0 1 13.098.96a3.709 3.709 0 0 0-.702 0zm.35 2.343a1.41 1.41 0 0 1 1.405 1.415 1.41 1.41 0 0 1-1.404 1.416 1.41 1.41 0 0 1-1.404-1.416 1.41 1.41 0 0 1 1.404-1.415zm0 .944a.47.47 0 0 0-.467.471c0 .261.21.472.468.472a.47.47 0 0 0 .468-.472.47.47 0 0 0-.468-.471z" fill="#636888" fill-rule="nonzero"/>
</svg>
