<svg xmlns="http://www.w3.org/2000/svg" width="51.267" height="57.618" viewBox="0 0 51.267 57.618"><defs><style>.a{fill:#fdd762;}.b{fill:#f2c53c;}.c{fill:#fff;}.d{fill:#00b51c;font-size:32px;font-family:FontAwesome5FreeSolid, 'Font Awesome \35  Free';}</style></defs><g transform="translate(-748.744 -219.897)"><g transform="translate(731.199 180.938)"><path class="a" d="M324.943,273.161h-3.33a9.505,9.505,0,0,0-9.49,9.472v10.444a5.723,5.723,0,0,0,5.705,5.695h7.114v-25.61Z" transform="translate(-272.131 -204.193)"/><path class="a" d="M157.982,234.766H146.394a9.473,9.473,0,0,0-9.462,9.462v19.158a1.892,1.892,0,0,0,1.892,1.892h26.727a1.892,1.892,0,0,0,1.892-1.892V244.228A9.473,9.473,0,0,0,157.982,234.766Z" transform="translate(-119.387 -170.718)"/><path class="b" d="M152.252,234.766h-5.858a9.473,9.473,0,0,0-9.462,9.462v19.158a1.892,1.892,0,0,0,1.892,1.892h13.428V234.766Z" transform="translate(-119.387 -170.718)"/><path class="a" d="M178.569,38.96a11.379,11.379,0,1,0,11.379,11.379A11.392,11.392,0,0,0,178.569,38.96Z" transform="translate(-145.768)"/><path class="b" d="M178.569,38.96a11.379,11.379,0,1,0,0,22.758Z" transform="translate(-145.768)"/></g><g transform="translate(43.011 -7)"><circle class="c" cx="15" cy="15" r="15" transform="translate(726 253.516)"/><text class="d" transform="translate(725 280.516)"><tspan x="0" y="0"></tspan></text></g></g></svg>