<svg xmlns="http://www.w3.org/2000/svg" width="61" height="61" viewBox="0 0 61 61"><defs><style>.a{fill:#00931c;}.b{fill:#fff;}</style></defs><circle class="a" cx="28.108" cy="28.108" r="28.108" transform="translate(2.392 2.392)"/><path class="a" d="M30.5,61A30.5,30.5,0,1,1,61,30.5,30.535,30.535,0,0,1,30.5,61Zm0-56.275A25.775,25.775,0,1,0,56.275,30.5,25.8,25.8,0,0,0,30.5,4.725Z"/><path class="b" d="M143.284,184.546a2.389,2.389,0,0,1-1.705-.715l-8.826-8.97a2.392,2.392,0,1,1,3.411-3.353l7.051,7.166L157.8,162.608a2.392,2.392,0,1,1,3.54,3.217l-16.289,17.939a2.392,2.392,0,0,1-1.722.785A.333.333,0,0,0,143.284,184.546Z" transform="translate(-116.516 -142.685)"/></svg>