<?xml version="1.0" encoding="UTF-8"?>
<svg width="64px" height="64px" viewBox="0 0 64 64" version="1.1" xmlns="http://www.w3.org/2000/svg" xmlns:xlink="http://www.w3.org/1999/xlink">
    <title>icons/view</title>
    <g id="icons/view" stroke="none" stroke-width="1" fill="none" fill-rule="evenodd">
        <rect id="bounding-box" x="0" y="0" width="64" height="64"></rect>
        <path d="M32,6 C46.8550417,6 57.3756882,14.2031963 63.5619394,30.6095888 L63.7563227,31.1302426 C64.0812258,32.0149485 64.0812258,32.9850515 63.7563227,33.8697574 C57.5966952,50.6231959 47.0114106,59 32,59 C17.1449583,59 6.62431182,50.7968037 0.438060579,34.3904112 L0.243677306,33.8697574 C-0.0812257688,32.9850515 -0.0812257688,32.0149485 0.243677306,31.1302426 C6.40330479,14.3768041 16.9885894,6 32,6 Z M32,53.1111132 C42.5429695,53.1094036 50.9736985,46.8343401 57.2921869,34.2859223 L57.2942288,34.2869326 C57.8591654,33.1622949 57.8587349,31.8395481 57.2930663,30.7152729 C50.9686567,18.1813422 42.5381417,11.9139998 32,11.9139998 C21.4618583,11.9139998 13.0313433,18.1813422 6.70845491,30.7160268 L6.70716839,30.7153891 C6.14135653,31.839722 6.14087287,33.1626014 6.70586243,34.2873416 C13.0263015,46.8379077 21.4570305,53.1128199 32,53.1111132 Z M32,45.75 C24.5932967,45.75 18.5889773,39.8177729 18.5889773,32.5 C18.5889773,25.1822271 24.5932967,19.25 32,19.25 C39.4067033,19.25 45.4110227,25.1822271 45.4110227,32.5 C45.4110227,39.8177729 39.4067033,45.75 32,45.75 Z M39.4505681,32.5 C39.4505681,28.4345706 36.1148352,25.1388889 32,25.1388889 C27.8851648,25.1388889 24.5494319,28.4345706 24.5494319,32.5 C24.5494319,36.5654294 27.8851648,39.8611111 32,39.8611111 C36.1148352,39.8611111 39.4505681,36.5654294 39.4505681,32.5 Z" id="Shape" fill="#0A143A" fill-rule="nonzero"></path>
    </g>
</svg>