<?xml version="1.0" encoding="UTF-8"?>
<svg width="64px" height="64px" viewBox="0 0 64 64" version="1.1" xmlns="http://www.w3.org/2000/svg" xmlns:xlink="http://www.w3.org/1999/xlink">
    <title>icons/view-off</title>
    <g id="icons/view-off" stroke="none" stroke-width="1" fill="none" fill-rule="evenodd">
        <rect id="bounding-box" x="0" y="0" width="64" height="64"></rect>
        <path d="M49.3994082,54.1698231 C44.3671999,57.3733916 38.3994203,59.2286519 32.0000887,59.2286519 C16.0507717,59.2286519 2.78189752,47.7062591 0,32.5000742 C1.29163859,25.4396314 4.84402923,19.1735024 9.87579389,14.4861117 L2.03278848,6.61136212 C1.2555452,5.83097298 1.25554419,4.56904581 2.03278622,3.78865543 L3.39312468,2.42280669 C4.17259299,1.64018102 5.43892036,1.63762147 6.22154603,2.41708977 C6.22345468,2.41899073 6.22535949,2.42089554 6.22726045,2.42280419 L61.9673199,58.3884502 C62.7445439,59.1688197 62.7445674,60.4307086 61.9673723,61.211107 L60.6069959,62.5770904 C59.8275553,63.3597436 58.561228,63.3623479 57.7785748,62.5829073 C57.7766485,62.580989 57.7747262,62.5790667 57.7728078,62.5771405 L49.3994082,54.1698231 L49.3994082,54.1698231 Z M14.0615512,18.6888242 C10.1309389,22.2836694 7.26497902,27.0563539 6.03740769,32.5000742 C8.75106737,44.5335769 19.4714784,53.288968 32.0000887,53.288968 C36.7308911,53.288968 41.2040637,52.0404464 45.0856643,49.8386056 L39.0862355,43.8148751 C37.0343676,45.1129931 34.604485,45.8643631 32.0000887,45.8643631 C24.6488585,45.8643631 18.6895975,39.8807255 18.6895975,32.5000742 C18.6895975,29.8848314 19.43767,27.4451062 20.7306692,25.3849863 L14.0615512,18.6888242 Z M34.7023902,39.4132724 L25.1146624,29.7868266 C24.7858666,30.6272919 24.6053188,31.5423002 24.6053188,32.5000742 C24.6053188,36.600535 27.9161705,39.9246792 32.0000887,39.9246792 C32.953703,39.9246792 33.8653157,39.7432218 34.7023902,39.4132724 Z M58.0484886,46.1384795 L53.8163816,41.8892296 C55.7564424,39.1127244 57.186568,35.9403392 57.9624148,32.5000742 C55.2488735,20.4662152 44.5284033,11.7110617 32.0000887,11.7110617 C29.4980344,11.7110617 27.0681519,12.060226 24.7598078,12.7149277 L20.092215,8.02842799 C23.7801052,6.57154231 27.7969687,5.77137779 32.0000887,5.77137779 C47.9491692,5.77137779 61.2181321,17.2936518 64,32.5000742 C63.0765559,37.5476176 60.9974757,42.1894806 58.0484886,46.1384795 Z M31.1795782,19.160643 C31.450814,19.1440713 31.7244161,19.1356666 32.0000887,19.1356666 C39.350964,19.1356666 45.3104617,25.1190666 45.3104617,32.5000742 C45.3104617,32.7765665 45.3018839,33.0512769 45.2856156,33.3236114 L31.1795782,19.160643 Z" id="Shape" fill="#0A143A" fill-rule="nonzero"></path>
    </g>
</svg>