
<svg xmlns="http://www.w3.org/2000/svg" width="532.682" height="229.603" viewBox="0 0 532.682 229.603"><defs><style>.a{fill:#d3d0ff;}.b{fill:#a9a2ff;}.c{fill:#847ce2;}.d{fill:#2f2790;}.e{fill:#413a90;}.f{fill:#2f2a71;}.g{fill:#403657;}.h{fill:#6259a4;}.i{fill:#ffa681;}.j{fill:#fff;}.k{fill:#7846d1;}.l{fill:#9c78ed;}.m{fill:#f97853;}.n{fill:#ea5143;}.o{fill:#534a9b;}.p{fill:#6020bd;}.q{fill:#e0d5f8;}.r{fill:#1a0b42;}.s{fill:#614c6e;}.t{fill:#5b23a9;}.u{opacity:0.5;}.v{fill:#d6d3ff;}.w{fill:#8981bd;}</style></defs><g transform="translate(81.888 -103.072)"><g transform="translate(36.1 108.374)"><path class="a" d="M62.63,286c-5.519-9.961-15.943-9.529-19.661,1.026-1.229,3.489-1.671,8-.61,13.819,4.038,22.17,17.281,29.95,26.273,17.255C74.182,310.264,68.1,295.871,62.63,286Z" transform="translate(-41.761 -159.806)"/><path class="b" d="M441.466,295.16c-1.036,5.42,3.44,9.26,8.512,7.171a10.731,10.731,0,0,0,4.871-4.361c5.73-8.914,2.828-16.559-5.15-15.775C444.774,282.679,442.491,289.788,441.466,295.16Z" transform="translate(-158.697 -160.781)"/></g><g transform="translate(22.419 188.865)"><g transform="translate(266.758 104.445)"><path class="b" d="M440.58,400.918a5.671,5.671,0,0,0,5.083-1.576,4.65,4.65,0,0,0,1.414-3.044v-.045c-.024-7.561,9.265-7.058,12.247-16.3s-8.8-10.023-15.534-4.315c-4.84,4.1-10.648-1.629-17.683,3.158-6.108,4.153-2.706,14.383-12.725,11.185a9.072,9.072,0,0,0-8.481,1.777,14.343,14.343,0,0,0-5.35,8.2l.8.564C420.109,412.627,429.013,398.986,440.58,400.918Z" transform="translate(-399.55 -372.022)"/><g transform="translate(18.657 10.287)"><path class="c" d="M428.719,404.77l26.2-16.816a.754.754,0,1,0-.816-1.27L425.926,404.77Z" transform="translate(-425.926 -386.565)"/></g></g><g transform="translate(275.053 0)"><g transform="translate(10.836 6.425)"><path class="d" d="M427.5,309.928c-1.106-16.483-1.288-33.767-.061-45.228,1.6-14.972,5.228-25.395,10.776-30.978a.945.945,0,0,1,1.34,1.332c-9.7,9.76-13.185,35.964-10.1,75.834Z" transform="translate(-426.597 -233.445)"/></g><path class="e" d="M428.34,253.183s-7.9-.013-7.332-13.9C421.008,239.287,433.09,242.734,428.34,253.183Z" transform="translate(-414.117 -228.73)"/><path class="e" d="M430.45,265.68s-.427-7.885,13.466-8.094C443.917,257.586,441.147,269.841,430.45,265.68Z" transform="translate(-416.888 -234.086)"/><path class="e" d="M438.862,236.483s-3.032-7.292,10-12.121C448.859,224.362,450.334,236.839,438.862,236.483Z" transform="translate(-419.261 -224.362)"/><path class="e" d="M423.144,284.9s-7.436,2.66-11.6-10.6C411.544,274.3,424.08,273.456,423.144,284.9Z" transform="translate(-411.355 -238.973)"/><path class="e" d="M428.517,295.455s-1.785-7.693,11.863-10.3C440.381,285.154,439.772,297.7,428.517,295.455Z" transform="translate(-416.3 -242.154)"/><path class="e" d="M423.076,309.777s-7.384,2.8-11.8-10.374C411.277,299.4,423.795,298.323,423.076,309.777Z" transform="translate(-411.277 -246.316)"/></g><g transform="translate(33.843 50.203)"><path class="e" d="M94.114,364.777l-2.152-.085-1.141-.046-3.233-.129S57.712,313.8,76.429,297.257c5.762-5.092,15.835-.87,13.608,22.533C87.973,341.484,94.114,364.777,94.114,364.777Z" transform="translate(-70.265 -295.337)"/><g transform="translate(9.777 14.962)"><path class="d" d="M96.008,370.883l-1.141-.046c-5.216-12.289-7.849-25.49-9.156-34.756a160.577,160.577,0,0,1-1.624-19.071A.516.516,0,0,1,85.12,317a159.286,159.286,0,0,0,1.616,18.952C88.051,345.264,90.712,358.574,96.008,370.883Z" transform="translate(-84.087 -316.49)"/></g></g><g transform="translate(0 43.572)"><path class="b" d="M86.047,372.195l-2.922,1.085-1.55.574-4.392,1.629S9,324.357,24.793,291.827c4.862-10.015,20.675-9.986,30.739,22.526C64.863,344.492,86.047,372.195,86.047,372.195Z" transform="translate(-22.419 -285.962)"/><g transform="translate(14.698 20.933)"><path class="c" d="M89.206,381.941l-1.55.574C73.839,369,62.965,352.828,56.055,341.174a232.233,232.233,0,0,1-12.8-24.578.747.747,0,0,1,1.375-.586,230.81,230.81,0,0,0,12.72,24.423C64.3,352.143,75.271,368.445,89.206,381.941Z" transform="translate(-43.199 -315.557)"/></g></g><g transform="translate(259.293 53.935)"><path class="e" d="M426.394,379.375a19.164,19.164,0,0,0-.43-3.55c-2.452-11.222,4.216-13.338,13.01-16.882s9.836-14.072,3.611-22.819,4.961-15.781.841-28.948-18.426-4.409-21.556,7.73c-2.249,8.728-13.687,6.84-17.922,18.159-3.679,9.825,8.652,18.9-5.59,23.4-4.549,1.437-7.063,4.928-8.381,9.014a20.376,20.376,0,0,0,.513,13.892Z" transform="translate(-388.997 -300.612)"/><g transform="translate(17.664 19.377)"><path class="f" d="M416.283,387.393l11.652-28.767,11.806-29.145a1.072,1.072,0,1,0-1.987-.8L413.97,387.393Z" transform="translate(-413.97 -328.007)"/></g></g></g><g transform="translate(45.794 133.084)"><path class="g" d="M132.241,158.9s.493-10.426-5.848-12.429c-9.874-3.119-12.622,2-14.147,5.386-1.953,4.337-1.12,12.843,4.771,13.664C125.812,166.747,131.7,161.811,132.241,158.9Z" transform="translate(-71.806 -145.501)"/><path class="g" d="M138.155,197.139a10.845,10.845,0,0,0,10.616-8.62,57.275,57.275,0,0,0,1.5-8.62v-.047c.046-.569.071-1.137.076-1.7.067-8.227-5-23.253-22.845-20.864,0,0-14.8,1.689-16.488,16.155,0,0-.7,6.674-1.168,11.506l-.025.255a10.842,10.842,0,0,0,10.792,11.932Z" transform="translate(-71.355 -148.877)"/><g transform="translate(76.575 65.457)"><path class="h" d="M175.128,238.041s3.154,24.991,6.758,37.82c0,0,5.12-2.385,11.82-5.622,7.266-3.51,17.711-9.914,17.711-9.914l2.64,6.36s-26.981,25.465-35.918,26.906-14.415-30.56-14.415-30.56Z" transform="translate(-163.724 -238.041)"/><path class="i" d="M230.3,264.851s-.741-3.55.847-5.954,4.008-6.9,6.848-7.84c2.377-.786-1.13,3.225-1.234,5.77a40.015,40.015,0,0,0,6.084-1.272c2.242-.729,6.679-1.637,8.737-2.042a.567.567,0,0,1,.492.976c-.7.608-2.169,1.373-5.2,2.1,0,0,7.391-1.4,8.158-.267s-8.506,2.711-8.506,2.711,7.194-.426,7.382.7c.114.687-7.339,2.261-7.339,2.261s6.8.182,5.156,1.256c-.479.313-13.647,1.795-18.231,7.208C233.49,270.465,230.406,267.277,230.3,264.851Z" transform="translate(-183.157 -241.821)"/></g><g transform="translate(0 9.583)"><path class="h" d="M97.948,220.332s-15.095,4.451-28.094,7.385c0,0-.337-5.637-.678-13.072-.369-8.061.295-20.295.295-20.295l-6.849.7s-9.564,35.846-6.581,44.393,40.868-3.425,40.868-3.425Z" transform="translate(-55.465 -169.381)"/><path class="i" d="M71.075,184.861s3.476-1.037,4.834-3.578,5.109-7.657,2.794-9.551c-.845-.691-1.455,2.326-3.643,3.629a39.993,39.993,0,0,1-1.776-5.956c-.426-2.319-1.737-6.654-2.36-8.656a.567.567,0,0,0-1.092.032c-.2.906-.176,2.56.623,5.575,0,0-2.285-7.167-3.645-7.3s1.661,8.772,1.661,8.772-3.048-6.53-4.129-6.158c-.659.226,1.5,7.531,1.5,7.531s-3.4-5.9-3.558-3.938c-.047.57,4.913,12.857,2.333,19.465C64.619,184.723,68.89,185.918,71.075,184.861Z" transform="translate(-57.461 -159.05)"/></g><g transform="translate(28.968 56.951)"><g transform="translate(2.847)"><path class="b" d="M156.044,331.469l.12.534c-11.754,7.957-55.72,2.524-55.72,2.524.075-.922.173-1.886.3-2.885.137-1.113.307-2.264.5-3.455.531-3.2,1.243-6.661,2.043-10.222.257-1.121.514-2.258.785-3.4.794-3.4,1.638-6.846,2.437-10.2.277-1.154.548-2.292.811-3.424.366-1.571.713-3.117,1.045-4.615.433-1.993.819-3.907,1.143-5.71.218-1.213.408-2.376.554-3.48.168-1.169.282-2.273.352-3.3-.7-2.583-1.35-5.113-1.957-7.567-.3-1.249-.6-2.471-.888-3.678-.9-3.866-1.7-7.544-2.39-10.991-.246-1.252-.489-2.471-.71-3.659-.769-4.064-1.389-7.742-1.889-10.952-.193-1.28-.375-2.474-.534-3.6-.176-1.232-.327-2.373-.458-3.407-.59-4.55-.794-7.131-.794-7.131.1-.083.212-.159.324-.24a23.908,23.908,0,0,1,5.736-2.63c2.446-.839,5.152-1.568,7.536-2.144.361-.087.716-.17,1.062-.252,3.133-.732,5.475-1.157,5.475-1.157,10.661,2.233,13.7.8,13.7.8l5.42,1.6.637.224,3.95,1.386.16.059,7.083,2.493,4.724,1.657-1.834,8.455-.8,3.693-2.415,11.131-.794,3.678-2.4,11.092-.791,3.642-1.99,9.191.4,1.755.777,3.407,1.233,5.418,1.12,4.9.772,3.4,2.32,10.217.775,3.376,2.3,10.1Z" transform="translate(-100.444 -226.136)"/><path class="i" d="M146.9,228.926c-1.135,6.664-4.366,13.367-11.083,14.092-8.115.878-12.322-9.3-14.152-15.554,3.133-.732,6.381-1.448,6.381-1.448,10.661,2.233,12.718.873,12.718.873l5.5,1.814Z" transform="translate(-106.656 -226.016)"/><g transform="translate(17.776 0.297)"><path class="j" d="M136.14,237.543c-8.5,0-10.538-10.5-10.558-10.611a.419.419,0,0,1,.825-.152c.078.422,2.007,10.333,10.227,9.913,7.194-.364,7.617-8.349,7.632-8.688a.419.419,0,0,1,.837.035c0,.091-.465,9.089-8.427,9.491Q136.4,237.543,136.14,237.543Z" transform="translate(-125.575 -226.436)"/></g><path class="k" d="M117.225,237.184a2.076,2.076,0,1,1-2.076-2.075A2.076,2.076,0,0,1,117.225,237.184Z" transform="translate(-104.14 -228.677)"/><path class="k" d="M111.347,251.5a2.076,2.076,0,1,1-2.076-2.075A2.076,2.076,0,0,1,111.347,251.5Z" transform="translate(-102.42 -232.868)"/><path class="k" d="M130.085,258.274a2.076,2.076,0,1,1-2.075-2.076A2.075,2.075,0,0,1,130.085,258.274Z" transform="translate(-107.904 -234.849)"/><path class="k" d="M117.076,266.6a2.076,2.076,0,1,1-2.7-1.158A2.075,2.075,0,0,1,117.076,266.6Z" transform="translate(-104.14 -237.511)"/><path class="k" d="M142.456,271.7a2.076,2.076,0,1,1-2.076-2.076A2.076,2.076,0,0,1,142.456,271.7Z" transform="translate(-111.524 -238.779)"/><path class="k" d="M161.174,277.748a2.076,2.076,0,1,1-2.076-2.076A2.076,2.076,0,0,1,161.174,277.748Z" transform="translate(-117.002 -240.549)"/><path class="k" d="M164.94,240.119a2.076,2.076,0,1,1-2.075-2.076A2.076,2.076,0,0,1,164.94,240.119Z" transform="translate(-118.105 -229.536)"/><path class="k" d="M143.643,290.441a2.076,2.076,0,1,1-2.076-2.075A2.076,2.076,0,0,1,143.643,290.441Z" transform="translate(-111.872 -244.264)"/><path class="k" d="M125.563,299.541a2.076,2.076,0,1,1-2.076-2.075A2.076,2.076,0,0,1,125.563,299.541Z" transform="translate(-106.58 -246.927)"/><path class="k" d="M123.457,282.969a2.076,2.076,0,1,1-2.076-2.076A2.076,2.076,0,0,1,123.457,282.969Z" transform="translate(-105.964 -242.077)"/><path class="k" d="M152.37,259.042a2.076,2.076,0,1,1-2.076-2.076A2.075,2.075,0,0,1,152.37,259.042Z" transform="translate(-114.426 -235.074)"/><path class="k" d="M168.6,255.339a2.076,2.076,0,1,1-2.076-2.075A2.076,2.076,0,0,1,168.6,255.339Z" transform="translate(-119.175 -233.991)"/><path class="k" d="M158.239,295.3a2.076,2.076,0,1,1-2.076-2.076A2.076,2.076,0,0,1,158.239,295.3Z" transform="translate(-116.144 -245.685)"/><path class="k" d="M159.026,318.517a2.076,2.076,0,1,1-2.075-2.075A2.075,2.075,0,0,1,159.026,318.517Z" transform="translate(-116.374 -252.481)"/><path class="k" d="M144.149,309.147a2.076,2.076,0,1,1-2.7-1.158A2.075,2.075,0,0,1,144.149,309.147Z" transform="translate(-112.063 -249.963)"/><path class="k" d="M124.17,317.747a2.076,2.076,0,1,1-2.7-1.158A2.076,2.076,0,0,1,124.17,317.747Z" transform="translate(-106.216 -252.48)"/></g><path class="l" d="M159.265,401.332l-.43-2.587-1.675-10.033-.575-3.437-1.6-9.59-2.907.131-38.543,1.748-14.269.644-.917,7.458-.429,3.475-1.266,10.3-.233,1.888Z" transform="translate(-96.42 -269.819)"/><g transform="translate(0 69.961)"><path class="g" d="M159.262,386.476l-.394-2.337-.033-.245-.278-1.652-.278-1.635-1.128-6.754-.327-2-.245-1.439-.033-.213-1.455-8.749-.1-.621-.131-.54-.115-.475-.654-2.894-1.292-5.658-.376-1.619-.637-2.829-.769-3.385-.523-2.322-.376-1.619-1.422-6.263-.523-2.29-.245-1.112-.114-.507-1-4.4c-15.666,4.628-32.264,1.881-39.623.229-.327,1.488-.687,3.042-1.047,4.612q-.122.515-.245,1.03-.2.81-.392,1.619c-.05.262-.115.506-.18.769-.6,2.567-1.243,5.183-1.864,7.783-.131.54-.245,1.079-.376,1.6-.066.278-.131.54-.2.818-.262,1.144-.523,2.289-.785,3.4-.327,1.488-.638,2.943-.932,4.382-.115.54-.229,1.063-.327,1.587-.295,1.456-.556,2.878-.785,4.252-.2,1.194-.36,2.338-.491,3.467-.049.344-.081.687-.131,1.014-.049.556-.114,1.1-.163,1.635,0,.081-.016.147-.016.228l-.916,7.457-.147,1.161-.2,1.619-.082.687-1.014,8.16-.2,1.635-.065.523-.226,1.879Z" transform="translate(-96.419 -324.924)"/></g></g><g transform="translate(41.108 15.209)"><g transform="translate(2.921)"><g transform="translate(26.437 15.146)"><path class="m" d="M158.056,190.032s2.549-3.229,4.443-.559-.784,10.555-5.424,8.63Z" transform="translate(-155.669 -188.416)"/><g transform="translate(2.028 2.827)"><path class="n" d="M158.346,196.836a.391.391,0,0,0,.378-.272,5.931,5.931,0,0,1,3.4-3.431.368.368,0,0,0,.227-.48.4.4,0,0,0-.505-.217,6.609,6.609,0,0,0-3.878,3.927.371.371,0,0,0,.272.459A.425.425,0,0,0,158.346,196.836Z" transform="translate(-157.954 -192.412)"/></g><g transform="translate(3.405 4.29)"><path class="n" d="M161.595,196.216a.4.4,0,0,0,.212-.059.362.362,0,0,0,.117-.515,3.538,3.538,0,0,0-1.472-1.127.4.4,0,0,0-.518.187.365.365,0,0,0,.2.492,2.816,2.816,0,0,1,1.132.85A.4.4,0,0,0,161.595,196.216Z" transform="translate(-159.901 -194.482)"/></g><g transform="translate(0 8.255)"><path class="j" d="M156.327,201.467a2.75,2.75,0,1,0,2.653-.858.5.5,0,0,1,.1-.523,3.307,3.307,0,1,1-3.257,1.154Z" transform="translate(-155.087 -200.086)"/></g></g><path class="i" d="M130.69,214.02v9.673s4.5,3.469,8,3.771,4.714-3.83,4.714-3.83v-9Z" transform="translate(-121.51 -180.763)"/><path class="m" d="M130.69,215.36v3.859c2.353,2.611,6.532,3.537,12.717,2.624v-5.871Z" transform="translate(-121.51 -181.155)"/><path class="i" d="M148.54,188c-.112.934-.243,1.884-.412,2.831-1.111,6.29-5.09,13.084-10.113,14.225-10.848,2.462-15.353-6.058-17.088-12.344-.192-.7.168-1.5.016-2.324a63.04,63.04,0,0,1-1.331-6.379c-.124-1.521-.212-3.021-.275-4.376a8.887,8.887,0,0,1,5.5-8.708c4.987-1.983,12.56-3.554,19.733.653a8.965,8.965,0,0,1,4.371,7.58A67.236,67.236,0,0,1,148.54,188Z" transform="translate(-118.184 -167.564)"/><g transform="translate(15.955 18.348)"><path class="m" d="M140.911,199.9a.421.421,0,0,1-.069-.837l1.447-.243-1.994-5.309a.421.421,0,1,1,.789-.3l2.353,6.268-2.456.413A.467.467,0,0,1,140.911,199.9Z" transform="translate(-140.268 -192.942)"/></g><path class="g" d="M148.516,192.153c0,.929.478,1.681,1.068,1.681s1.069-.753,1.069-1.681-.478-1.681-1.069-1.681S148.516,191.225,148.516,192.153Z" transform="translate(-126.727 -173.872)"/><path class="g" d="M131.817,192.153c0,.929.478,1.681,1.069,1.681s1.068-.753,1.068-1.681-.478-1.681-1.068-1.681S131.817,191.225,131.817,192.153Z" transform="translate(-121.84 -173.872)"/><path class="g" d="M152.29,186.455a20.511,20.511,0,0,0-4.447-.379c-.487.018-.877.384-.81.772l0,.01a.683.683,0,0,0,.775.488,23.372,23.372,0,0,1,6.1.383.8.8,0,0,0-.323-.665A2.575,2.575,0,0,0,152.29,186.455Z" transform="translate(-126.291 -172.582)"/><path class="g" d="M129.516,186.718a20.557,20.557,0,0,1,4.441-.439c.487.011.882.372.821.76l0,.01a.683.683,0,0,1-.767.5,23.349,23.349,0,0,0-6.089.466.8.8,0,0,1,.313-.669A2.583,2.583,0,0,1,129.516,186.718Z" transform="translate(-120.696 -172.643)"/><path class="j" d="M144.513,206.327a4.789,4.789,0,0,1-4.848,4.2c-3.506,0-4.489-2.483-4.827-4.2Z" transform="translate(-122.724 -178.512)"/><g transform="translate(14.778 33.219)"><path class="m" d="M140.817,215.3a4.127,4.127,0,0,0,1.938-.567.413.413,0,0,0-.434-.7h0a3.33,3.33,0,0,1-1.5.443,3.5,3.5,0,0,1-1.587-.446.413.413,0,0,0-.427.707A4.309,4.309,0,0,0,140.817,215.3Z" transform="translate(-138.604 -213.967)"/></g><path class="g" d="M148.506,186.455c-.1.085-.2.055-.29-.11-1.433-2.526-.086-7.566-4.327-9.5a8.989,8.989,0,0,1-4.389-4.5,9.133,9.133,0,0,1-2.662,2.423,76.324,76.324,0,0,1-9.947,4.843,16.753,16.753,0,0,0-3.331,1.676l.091.025a7.6,7.6,0,0,0-.377,5.824c1.027,3.542-.294,9.388-2.574,10.737.041-.1,1.751-4.141.784-7.439-.557-1.891-.552-4.9-1.079-6.7-.584-.4-1.935-1.081-2.393-1.353-.13-1.55-.224-3.079-.29-4.46a9.047,9.047,0,0,1,5.8-8.878c5.256-2.021,13.238-3.621,20.8.667a9.089,9.089,0,0,1,4.61,7.726A66.3,66.3,0,0,1,148.506,186.455Z" transform="translate(-117.711 -167.003)"/></g><g transform="translate(0 14.794)"><path class="i" d="M119.341,189.86s-2.963-3.6-4.712-1,.833,10.54,5.114,8.671Z" transform="translate(-113.726 -187.917)"/><g transform="translate(0 7.729)"><path class="j" d="M119.316,200.854a2.749,2.749,0,1,1-2.367-1.477.634.634,0,0,0,.031-.531,3.306,3.306,0,1,0,2.879,1.91Z" transform="translate(-113.582 -198.845)"/></g><g transform="translate(1.254 2.658)"><path class="m" d="M119.073,195.971a.362.362,0,0,1-.348-.264,5.6,5.6,0,0,0-3.137-3.332.362.362,0,0,1,.256-.676,6.229,6.229,0,0,1,3.578,3.813.361.361,0,0,1-.349.459Z" transform="translate(-115.355 -191.675)"/></g><g transform="translate(2.139 4.079)"><path class="m" d="M116.967,195.368a.355.355,0,0,1-.2-.058.361.361,0,0,1-.108-.5,3.305,3.305,0,0,1,1.357-1.094.362.362,0,0,1,.3.661,2.611,2.611,0,0,0-1.045.825A.362.362,0,0,1,116.967,195.368Z" transform="translate(-116.605 -193.684)"/></g></g></g></g><g transform="translate(132.793 132.987)"><path class="i" d="M328.839,296.822c-6.9,4.949-17.683,8.345-17.683,8.345l-2.209-7.945-1.724-6.2-1.216-4.369-12.365-.008c.671,2.317,1.362,4.684,2.057,7.015.892,3.007,1.782,5.952,2.628,8.666,1.193,3.821,2.294,7.18,3.18,9.581.208.56.448,1.171.718,1.821,1.653,4.465,2.987,9.306,9.3,6.268,5.553-2.674,13.083-6.382,16.845-8.842Z" transform="translate(-212.171 -186.713)"/><g transform="translate(80.674 63.588)"><path class="m" d="M296.551,295.474c.892,3.006,1.781,5.952,2.628,8.666a17.568,17.568,0,0,0,10.62-5.106l-1.723-6.2Z" transform="translate(-293.696 -252.112)"/><path class="o" d="M292.745,235.262s12.9,30.761,18.446,40.728c0,0-7.774,6.609-15.347,6.79C295.844,282.78,291.479,249.007,292.745,235.262Z" transform="translate(-292.515 -235.262)"/></g><g transform="translate(25.29 168.285)"><path class="l" d="M239.63,403.576c.129-2.152.252-4.2.364-6.1.457-7.765.75-13.065.75-13.065l-3.042-.136-1.714-.077-20.675-.918s-.376,5.927-.82,14.632c-.091,1.781-.185,3.68-.279,5.666Z" transform="translate(-214.215 -383.278)"/><path class="k" d="M237.817,384.273l3.042.136s-.294,5.3-.75,13.065a184.668,184.668,0,0,1-25.5.435c.444-8.7.82-14.632.82-14.632l20.675.918Z" transform="translate(-214.33 -383.278)"/><g transform="translate(20.684 0.919)"><path class="k" d="M245.174,403.956c.48-8.294.874-15.4,1.087-19.3l-1.715-.077c-.214,3.919-.609,11.057-1.09,19.379Z" transform="translate(-243.457 -384.577)"/></g></g><g transform="translate(56.253 168.285)"><path class="l" d="M259.1,403.576h25.415c-.094-1.986-.188-3.885-.279-5.666-.444-8.7-.82-14.632-.82-14.632l-20.675.918-1.714.077-3.042.136s.294,5.3.75,13.065C258.852,399.374,258.975,401.423,259.1,403.576Z" transform="translate(-257.99 -383.278)"/><path class="k" d="M261.032,384.273l-3.042.136s.294,5.3.75,13.065a184.669,184.669,0,0,0,25.5.435c-.444-8.7-.82-14.632-.82-14.632l-20.675.918Z" transform="translate(-257.99 -383.278)"/><g transform="translate(3.04 0.919)"><path class="k" d="M265.093,403.956c-.481-8.322-.876-15.459-1.09-19.379l-1.715.077c.214,3.9.607,11.008,1.087,19.3Z" transform="translate(-262.288 -384.577)"/></g></g><g transform="translate(21.899 51.205)"><path class="h" d="M209.423,320.094c0,.426,0,.846,0,1.26.009,7.561.047,13.421.084,16.3a120.9,120.9,0,0,0,21.912,3.847l.992.075c.178.013.354.025.532.034.392.028.787.053,1.176.071.436.028.868.05,1.306.072a116.523,116.523,0,0,0,14.914-.268c1-.083,2-.18,3.008-.289l.192-.018c.255-.028.51-.059.768-.09l.464-.057a122.483,122.483,0,0,0,17.349-3.378c.016-1.306.022-3.244.022-5.686,0-.454,0-.921,0-1.409v0c0-3.493-.025-7.842-.062-12.755,0-.42-.006-.843-.01-1.272-.028-3.272-.062-6.777-.105-10.432-.006-.423-.009-.846-.016-1.272-.047-3.747-.1-7.641-.168-11.595-.04-2.414-.083-4.849-.134-7.288-.05-2.469-.1-4.942-.161-7.4-.013-.535-.025-1.07-.04-1.6-.567-23.237-1.546-44.6-3.167-46.978-1.123-1.649-3.7-3.586-6.725-5.54q-.555-.354-1.129-.715c-1.291-.806-11.819-4.383-13.156-5.169l-11.128-.778c-.069.041-10.709,3.63-10.777,3.668-.458.261-.921.526-1.378.79a63.069,63.069,0,0,0-10.068,6.73,10.944,10.944,0,0,0-.868.877,6.184,6.184,0,0,0-.519.666,3.5,3.5,0,0,0-.389.977c-1.347,4.893-2.053,24.12-2.4,45.04q-.037,2.248-.069,4.519-.014.994-.028,1.994c-.01.457-.016.917-.019,1.374l-.009.688q-.023,1.707-.038,3.4-.014,1.254-.028,2.5C209.445,301.522,209.414,311.755,209.423,320.094Z" transform="translate(-209.422 -217.755)"/></g><g transform="translate(0 63.803)"><g transform="translate(0 8.32)"><path class="i" d="M180.462,358.627c-.274,2.97,3.344,1.359,2.32-4.659s1.879-11.468,3.129-11.293-1.036,6.572.078,8.876,2.547-2.174,3.978-4.889c1.483-2.821,1.4-8.976.721-13.369s7.287-31.077,7.327-38.81l.97-3.278,3.552-12,5.561-18.8s-3.331-14.226-8.948-13c0,0-2.973,9.909-6.152,21.085-.538,1.9-1.082,3.832-1.62,5.76-2.264,8.1-4.392,16.1-5.381,20.849-2.613,12.531-2.815,38.579-2.815,38.579s-4.61,9.571-4.718,13.829C178.35,352.046,180.732,355.657,180.462,358.627Z" transform="translate(-178.461 -247.329)"/><path class="m" d="M196.724,283l7.607,16.958,3.552-12-9.539-10.715C197.806,279.14,197.262,281.075,196.724,283Z" transform="translate(-183.806 -256.084)"/></g><path class="h" d="M196.191,265.754c3.337,5.723,6.73,11.415,10.111,17.116,1.113-3.729,2.267-7.309,3.35-10.6,0-.009.006-.016.009-.025.432-1.316.855-2.585,1.26-3.8a.4.4,0,0,1,.022-.062c.139-.426.277-.846.417-1.256v0a90,90,0,0,0,3.222-11.02c.964-6.087-1.664-18.012-5.365-20.363h0c-.1.215-.388-.448-.562-.043-.65,1.5-3.537,5.213-4.965,8.827-.183.46-.37.939-.563,1.428C201.058,251.27,198.529,258.184,196.191,265.754Z" transform="translate(-183.65 -235.566)"/></g><g transform="translate(19.842 54.873)"><g transform="translate(25.977 1.257)"><path class="p" d="M251.107,230.922c4.819,0,8.216-4.4,8.359-4.584a.652.652,0,0,0-.084-.875.557.557,0,0,0-.818.09c-.044.058-3.207,4.125-7.456,4.125-4.2,0-6.759-4.6-6.785-4.65a.562.562,0,0,0-.8-.224.646.646,0,0,0-.211.85C243.433,225.868,246.231,230.922,251.107,230.922Z" transform="translate(-243.238 -224.719)"/></g><g transform="translate(51.532 43.893)"><path class="p" d="M282.056,290.692a.556.556,0,0,0,.264-.068.649.649,0,0,0,.258-.843l-2.1-4.441a.568.568,0,0,0-.788-.276.647.647,0,0,0-.259.842l2.1,4.441A.583.583,0,0,0,282.056,290.692Z" transform="translate(-279.367 -284.996)"/></g><g transform="translate(58.324 39.833)"><path class="p" d="M289.246,285.374a.564.564,0,0,0,.258.092.6.6,0,0,0,.636-.569l.412-4.958a.616.616,0,0,0-.532-.68.6.6,0,0,0-.636.569l-.412,4.958A.641.641,0,0,0,289.246,285.374Z" transform="translate(-288.97 -279.255)"/></g><g transform="translate(46.723 32.098)"><path class="p" d="M273.155,274.485a.6.6,0,0,0,.579-.525l.759-4.911a.625.625,0,0,0-.483-.721.592.592,0,0,0-.674.517l-.76,4.911a.624.624,0,0,0,.483.721A.563.563,0,0,0,273.155,274.485Z" transform="translate(-272.568 -268.319)"/></g><g transform="translate(25.472 34.553)"><path class="p" d="M245.482,277.329a.546.546,0,0,0,.3-.088.65.65,0,0,0,.206-.859l-2.37-4.283a.565.565,0,0,0-.8-.221.652.652,0,0,0-.206.859l2.371,4.283A.578.578,0,0,0,245.482,277.329Z" transform="translate(-242.524 -271.791)"/></g><g transform="translate(51.037 16.936)"><path class="p" d="M279.254,250.842a.557.557,0,0,0,.318-.1l3.908-2.7a.655.655,0,0,0,.174-.867.565.565,0,0,0-.811-.186l-3.908,2.7a.655.655,0,0,0-.174.867A.578.578,0,0,0,279.254,250.842Z" transform="translate(-278.667 -246.884)"/></g><g transform="translate(31.526 55.102)"><path class="p" d="M253.772,306.537a.551.551,0,0,0,.264-.068.649.649,0,0,0,.259-.843l-2.1-4.441a.569.569,0,0,0-.788-.276.648.648,0,0,0-.258.842l2.1,4.441A.583.583,0,0,0,253.772,306.537Z" transform="translate(-251.083 -300.841)"/></g><g transform="translate(38.918 20.339)"><path class="p" d="M266.064,255.591a.579.579,0,0,0,.5-.294.653.653,0,0,0-.186-.864l-3.945-2.641a.565.565,0,0,0-.809.2.653.653,0,0,0,.186.864l3.945,2.641A.559.559,0,0,0,266.064,255.591Z" transform="translate(-261.534 -251.696)"/></g><g transform="translate(52.83 2.28)"><path class="p" d="M281.2,229.651a.628.628,0,0,0,.066.339.583.583,0,0,0,.477.33.6.6,0,0,0,.625-.581l.186-2.858c-.37-.236-.745-.476-1.129-.715Z" transform="translate(-281.201 -226.165)"/></g><g transform="translate(53.559 29.122)"><path class="p" d="M286.764,268.008a.577.577,0,0,0,.5-.294.654.654,0,0,0-.185-.864l-3.945-2.642a.566.566,0,0,0-.808.2.653.653,0,0,0,.186.864l3.945,2.641A.56.56,0,0,0,286.764,268.008Z" transform="translate(-282.233 -264.113)"/></g><g transform="translate(23.794 6.439)"><path class="p" d="M242.988,236.95a.555.555,0,0,0,.322-.1.653.653,0,0,0,.167-.869l-2.249-3.651a.563.563,0,0,0-.812-.179.655.655,0,0,0-.167.869l2.249,3.651A.577.577,0,0,0,242.988,236.95Z" transform="translate(-240.152 -232.044)"/></g><g transform="translate(24.028 69.57)"><path class="p" d="M241.068,326.142a.568.568,0,0,0,.423-.193l3.223-3.59a.659.659,0,0,0-.017-.887.559.559,0,0,0-.829.018l-3.223,3.59a.658.658,0,0,0,.017.886A.564.564,0,0,0,241.068,326.142Z" transform="translate(-240.482 -321.297)"/></g><g transform="translate(35.872 68.824)"><path class="p" d="M257.813,325.086a.567.567,0,0,0,.424-.193l3.223-3.59a.657.657,0,0,0-.016-.886.559.559,0,0,0-.829.018l-3.224,3.591a.658.658,0,0,0,.017.886A.563.563,0,0,0,257.813,325.086Z" transform="translate(-257.227 -320.241)"/></g><g transform="translate(41.826 92.605)"><path class="p" d="M268.793,359.2a.666.666,0,0,0-.02-.492l-2.012-4.489a.57.57,0,0,0-.782-.294.647.647,0,0,0-.275.837l2.012,4.489a.57.57,0,0,0,.782.294A.609.609,0,0,0,268.793,359.2Z" transform="translate(-265.645 -353.862)"/></g><g transform="translate(7.836 107.415)"><path class="p" d="M220.739,380.136a.663.663,0,0,0-.021-.492l-2.012-4.489a.571.571,0,0,0-.782-.294.647.647,0,0,0-.275.837l2.012,4.489a.57.57,0,0,0,.782.294A.609.609,0,0,0,220.739,380.136Z" transform="translate(-217.591 -374.8)"/></g><g transform="translate(25.579 116.738)"><path class="p" d="M242.676,391.428c.393.028.786.053,1.176.071l.41-2.8a.621.621,0,0,0-.489-.715.592.592,0,0,0-.668.522Z" transform="translate(-242.676 -387.98)"/></g><g transform="translate(19.976 105.676)"><path class="p" d="M235.676,378.4a.628.628,0,0,0,.243-.417l.721-4.918a.623.623,0,0,0-.489-.717.592.592,0,0,0-.67.523l-.721,4.917a.623.623,0,0,0,.489.717A.55.55,0,0,0,235.676,378.4Z" transform="translate(-234.754 -372.341)"/></g><g transform="translate(46.279 65.053)"><path class="p" d="M274.859,320.473a.555.555,0,0,0,.293-.084.652.652,0,0,0,.214-.857l-2.331-4.308a.566.566,0,0,0-.8-.228.651.651,0,0,0-.214.857l2.331,4.308A.58.58,0,0,0,274.859,320.473Z" transform="translate(-271.941 -314.911)"/></g><g transform="translate(41.766 54.169)"><path class="p" d="M266.146,305.2a.582.582,0,0,0,.521-.339l2.134-4.424a.649.649,0,0,0-.253-.845.568.568,0,0,0-.79.27l-2.133,4.423a.649.649,0,0,0,.252.845A.556.556,0,0,0,266.146,305.2Z" transform="translate(-265.559 -299.522)"/></g><g transform="translate(60.754 55.513)"><path class="p" d="M292.543,305.109a.61.61,0,0,0,.221.174.561.561,0,0,0,.6-.1l2.4-2.155c-.012-.535-.023-1.07-.038-1.6l-3.117,2.8A.662.662,0,0,0,292.543,305.109Z" transform="translate(-292.405 -301.423)"/></g><g transform="translate(41.796 7.237)"><path class="p" d="M266.189,238.851a.584.584,0,0,0,.522-.34l2.133-4.424a.648.648,0,0,0-.253-.845.569.569,0,0,0-.79.27l-2.133,4.424a.649.649,0,0,0,.253.845A.551.551,0,0,0,266.189,238.851Z" transform="translate(-265.603 -233.173)"/></g><g transform="translate(27.237 22.98)"><path class="p" d="M246.488,261.571a.55.55,0,0,0,.112-.011.627.627,0,0,0,.465-.734l-.883-4.888a.589.589,0,0,0-.687-.5.626.626,0,0,0-.465.734l.883,4.888A.6.6,0,0,0,246.488,261.571Z" transform="translate(-245.02 -255.43)"/></g><g transform="translate(34.852 27.271)"><path class="p" d="M257.253,267.638a.552.552,0,0,0,.112-.011.628.628,0,0,0,.465-.735L256.947,262a.591.591,0,0,0-.687-.5.626.626,0,0,0-.465.735l.882,4.887A.6.6,0,0,0,257.253,267.638Z" transform="translate(-255.785 -261.496)"/></g><g transform="translate(30.279 11.831)"><path class="p" d="M249.906,245.124a.578.578,0,0,0,.5-.291l2.494-4.2a.654.654,0,0,0-.181-.866.564.564,0,0,0-.809.193l-2.494,4.2a.653.653,0,0,0,.18.866A.555.555,0,0,0,249.906,245.124Z" transform="translate(-249.32 -239.668)"/></g><g transform="translate(50.726 55.076)"><path class="p" d="M281.246,306.353a.659.659,0,0,0,.1-.7l-2-4.492a.571.571,0,0,0-.782-.3.647.647,0,0,0-.277.837l2,4.492a.567.567,0,0,0,.957.158Z" transform="translate(-278.227 -300.805)"/></g><g transform="translate(38.07 41.701)"><path class="p" d="M260.921,287.786a.588.588,0,0,0,.546-.4l1.7-4.635a.641.641,0,0,0-.332-.812.574.574,0,0,0-.76.355l-1.7,4.635a.642.642,0,0,0,.332.813A.544.544,0,0,0,260.921,287.786Z" transform="translate(-260.335 -281.896)"/></g><g transform="translate(17.333 70.525)"><path class="p" d="M233.706,328.342a.554.554,0,0,0,.265-.068.649.649,0,0,0,.258-.843l-2.1-4.441a.568.568,0,0,0-.788-.276.647.647,0,0,0-.258.842l2.1,4.441A.582.582,0,0,0,233.706,328.342Z" transform="translate(-231.017 -322.646)"/></g><g transform="translate(50.907 105.217)"><path class="p" d="M278.483,374.616a.657.657,0,0,0,.066.282.567.567,0,0,0,.79.268l4.133-2.29a.649.649,0,0,0,.25-.845.567.567,0,0,0-.79-.268l-4.133,2.29A.634.634,0,0,0,278.483,374.616Z" transform="translate(-278.483 -371.693)"/></g><g transform="translate(62.125 109.135)"><path class="p" d="M294.343,379.085a.646.646,0,0,0,.064.283.569.569,0,0,0,.791.267l1.8-1c0-.454,0-.921,0-1.409l-2.332,1.291A.633.633,0,0,0,294.343,379.085Z" transform="translate(-294.343 -377.231)"/></g><g transform="translate(44.705 115.631)"><path class="p" d="M269.771,387.309l1.413,3.228c.256-.028.512-.059.77-.091l.463-.056-1.585-3.614a.567.567,0,0,0-.779-.3A.642.642,0,0,0,269.771,387.309Z" transform="translate(-269.715 -386.415)"/></g><g transform="translate(11.807 58.729)"><path class="p" d="M223.793,312.135a.6.6,0,0,0,.578-.525l.759-4.911a.624.624,0,0,0-.483-.721.592.592,0,0,0-.674.517l-.759,4.911a.623.623,0,0,0,.483.721A.554.554,0,0,0,223.793,312.135Z" transform="translate(-223.206 -305.969)"/></g><g transform="translate(8.952 23.12)"><path class="p" d="M222.127,261.165a.554.554,0,0,0,.3-.088.651.651,0,0,0,.206-.859l-2.371-4.284a.565.565,0,0,0-.8-.22.65.65,0,0,0-.206.859l2.37,4.284A.581.581,0,0,0,222.127,261.165Z" transform="translate(-219.17 -255.627)"/></g><g transform="translate(18.946 42.11)"><path class="p" d="M233.885,286.431a.557.557,0,0,0,.318-.1l3.908-2.7a.655.655,0,0,0,.174-.867.564.564,0,0,0-.811-.186l-3.909,2.7a.656.656,0,0,0-.174.868A.578.578,0,0,0,233.885,286.431Z" transform="translate(-233.298 -282.474)"/></g><g transform="translate(58.223 69.57)"><path class="p" d="M291.515,326.992a.554.554,0,0,0,.265-.068.648.648,0,0,0,.258-.842l-2.1-4.441a.569.569,0,0,0-.788-.277.648.648,0,0,0-.258.843l2.1,4.441A.581.581,0,0,0,291.515,326.992Z" transform="translate(-288.826 -321.296)"/></g><g transform="translate(8.344 48.918)"><path class="p" d="M222.84,296a.577.577,0,0,0,.5-.294.654.654,0,0,0-.185-.864l-3.946-2.641a.564.564,0,0,0-.808.2.653.653,0,0,0,.185.864l3.945,2.641A.562.562,0,0,0,222.84,296Z" transform="translate(-218.309 -292.1)"/></g><g transform="translate(20.923 53.205)"><path class="p" d="M237.5,304.052a.557.557,0,0,0,.552.145.633.633,0,0,0,.412-.77l-1.222-4.8a.583.583,0,0,0-.72-.441.633.633,0,0,0-.412.77l1.221,4.8A.642.642,0,0,0,237.5,304.052Z" transform="translate(-236.093 -298.161)"/></g><g transform="translate(5.683 7.521)"><path class="p" d="M214.547,234.451l1.021,1.654a.581.581,0,0,0,.492.28.539.539,0,0,0,.32-.1.654.654,0,0,0,.168-.868l-1.134-1.841A11.156,11.156,0,0,0,214.547,234.451Z" transform="translate(-214.547 -233.574)"/></g><g transform="translate(1.222 17.891)"><path class="p" d="M208.24,249.662l1.085,1.76a.565.565,0,0,0,.814.18.658.658,0,0,0,.166-.871l-1.538-2.5C208.6,248.694,208.42,249.173,208.24,249.662Z" transform="translate(-208.24 -248.234)"/></g><g transform="translate(51.361 85.928)"><path class="p" d="M279.712,349.268a.566.566,0,0,0,.422-.193l3.224-3.591a.658.658,0,0,0-.017-.886.56.56,0,0,0-.83.018l-3.223,3.591a.657.657,0,0,0,.016.886A.564.564,0,0,0,279.712,349.268Z" transform="translate(-279.125 -344.422)"/></g><g transform="translate(29.915 98.481)"><path class="p" d="M249.391,367.015a.565.565,0,0,0,.423-.193l3.223-3.59a.657.657,0,0,0-.017-.887.559.559,0,0,0-.829.018l-3.223,3.59a.659.659,0,0,0,.017.887A.566.566,0,0,0,249.391,367.015Z" transform="translate(-248.805 -362.17)"/></g><g transform="translate(22.917 92.38)"><path class="p" d="M240.535,359.5a.655.655,0,0,0,.126-.473l-.581-4.939a.6.6,0,0,0-.655-.544.618.618,0,0,0-.509.7l.581,4.939a.594.594,0,0,0,.654.544A.574.574,0,0,0,240.535,359.5Z" transform="translate(-238.912 -353.544)"/></g><g transform="translate(36.17 107.415)"><path class="p" d="M258.234,379.645a.565.565,0,0,0,.423-.193l3.223-3.59a.658.658,0,0,0-.017-.886.559.559,0,0,0-.829.018l-3.223,3.59a.659.659,0,0,0,.017.887A.566.566,0,0,0,258.234,379.645Z" transform="translate(-257.648 -374.8)"/></g><g transform="translate(2.058 98.672)"><path class="p" d="M209.423,362.439c0,.426,0,.846,0,1.259l3.638.327a.6.6,0,0,0,.634-.572.616.616,0,0,0-.535-.678Z" transform="translate(-209.422 -362.439)"/></g><g transform="translate(44.081 78.378)"><path class="p" d="M269.419,338.593a.568.568,0,0,0,.423-.193l3.223-3.591a.658.658,0,0,0-.017-.886.559.559,0,0,0-.829.018L269,337.532a.657.657,0,0,0,.017.887A.563.563,0,0,0,269.419,338.593Z" transform="translate(-268.832 -333.748)"/></g><g transform="translate(29.158 80.994)"><path class="p" d="M247.737,338.115a.64.64,0,0,0,.208.439l3.562,3.2a.56.56,0,0,0,.826-.076.657.657,0,0,0-.071-.883l-3.562-3.2a.56.56,0,0,0-.826.076A.65.65,0,0,0,247.737,338.115Z" transform="translate(-247.736 -337.447)"/></g><g transform="translate(9.269 93.722)"><path class="p" d="M222.535,361a.556.556,0,0,0,.294-.084.652.652,0,0,0,.214-.857l-2.332-4.308a.565.565,0,0,0-.8-.228.65.65,0,0,0-.214.857l2.331,4.308A.579.579,0,0,0,222.535,361Z" transform="translate(-219.617 -355.441)"/></g><g transform="translate(7.565 80.8)"><path class="p" d="M217.795,342.851a.582.582,0,0,0,.521-.339l2.134-4.424a.649.649,0,0,0-.253-.845.568.568,0,0,0-.79.27l-2.133,4.424a.648.648,0,0,0,.253.845A.552.552,0,0,0,217.795,342.851Z" transform="translate(-217.209 -337.172)"/></g><g transform="translate(13.93 30.574)"><path class="p" d="M226.793,271.844a.583.583,0,0,0,.522-.34l2.133-4.424a.649.649,0,0,0-.252-.845.569.569,0,0,0-.79.27l-2.134,4.424a.648.648,0,0,0,.253.845A.551.551,0,0,0,226.793,271.844Z" transform="translate(-226.207 -266.165)"/></g><g transform="translate(10.718 11.547)"><path class="p" d="M223.133,245.407a.55.55,0,0,0,.112-.011.626.626,0,0,0,.465-.735l-.882-4.887a.591.591,0,0,0-.688-.5.628.628,0,0,0-.465.735l.883,4.887A.6.6,0,0,0,223.133,245.407Z" transform="translate(-221.665 -239.265)"/></g><g transform="translate(0 28.412)"><path class="p" d="M207.981,269.25a.545.545,0,0,0,.112-.011.627.627,0,0,0,.465-.735l-.883-4.887a.59.59,0,0,0-.687-.5.627.627,0,0,0-.465.735l.883,4.887A.6.6,0,0,0,207.981,269.25Z" transform="translate(-206.513 -263.108)"/></g><g transform="translate(18.332 15.838)"><path class="p" d="M233.9,251.474a.551.551,0,0,0,.112-.011.626.626,0,0,0,.465-.735l-.883-4.887a.59.59,0,0,0-.687-.5.627.627,0,0,0-.465.735l.883,4.887A.6.6,0,0,0,233.9,251.474Z" transform="translate(-232.43 -245.332)"/></g><g transform="translate(15.853)"><path class="p" d="M229.379,227.9a.546.546,0,0,0,.325-.018.612.612,0,0,0,.378-.448l.986-4.489-1.379.79-.747,3.409A.628.628,0,0,0,229.379,227.9Z" transform="translate(-228.926 -222.941)"/></g><g transform="translate(2.302 36.653)"><path class="p" d="M210.354,280.216a.578.578,0,0,0,.5-.291l2.494-4.2a.653.653,0,0,0-.18-.866.565.565,0,0,0-.81.194l-2.494,4.2a.654.654,0,0,0,.181.866A.56.56,0,0,0,210.354,280.216Z" transform="translate(-209.768 -274.759)"/></g><g transform="translate(16.526 81.707)"><path class="p" d="M232.9,344a.662.662,0,0,0,.1-.7l-2-4.492a.57.57,0,0,0-.782-.3.645.645,0,0,0-.277.836l2,4.492a.571.571,0,0,0,.782.3A.6.6,0,0,0,232.9,344Z" transform="translate(-229.876 -338.455)"/></g><g transform="translate(60.306 94.449)"><path class="p" d="M292.262,357.718l3.917.678c0-.419-.006-.842-.012-1.272l-3.716-.647a.593.593,0,0,0-.672.52A.624.624,0,0,0,292.262,357.718Z" transform="translate(-291.771 -356.47)"/></g><g transform="translate(61.498 82.975)"><path class="p" d="M293.947,341.493l2.609.451c-.006-.423-.009-.846-.014-1.273l-2.4-.417a.592.592,0,0,0-.672.519A.62.62,0,0,0,293.947,341.493Z" transform="translate(-293.457 -340.247)"/></g><g transform="translate(3.87 68.332)"><path class="p" d="M212.57,325.436a.589.589,0,0,0,.547-.4l1.7-4.635a.642.642,0,0,0-.332-.813.574.574,0,0,0-.76.356l-1.7,4.635a.642.642,0,0,0,.333.812A.544.544,0,0,0,212.57,325.436Z" transform="translate(-211.984 -319.546)"/></g></g><g transform="translate(22.144 94.849)"><path class="p" d="M209.767,299.08c1.1-4.55,2.486-9.608,3.857-13.965l.009-.025c.423-1.347.846-2.625,1.26-3.8a.358.358,0,0,1,.022-.062c.127-.37.258-.728.385-1.076a.635.635,0,0,0,.031-.18v0a.517.517,0,0,0-1-.171c-1.406,3.832-3.067,9.35-4.492,14.761Q209.8,296.809,209.767,299.08Z" transform="translate(-209.767 -279.458)"/></g><g transform="translate(35.398 0)"><path class="g" d="M232.345,171.984s-4.083-4.5-2.542-9.737,5.758-5.178,5.758-5.178,2.46-5.57,6.65-5.753,8.139-7.625,11.951-5.6-.412,6.43-.412,6.43,6.532-6.889,8.685-4.869-2.991,7.441-2.991,7.441,5.489-3.859,7.291-2.389-4.3,7.808-4.3,7.808,3.949,7.119-.025,10.312Z" transform="translate(-228.783 -145.364)"/><g transform="translate(31.091 26.383)"><path class="m" d="M273.464,184.407s2.612-3.482,4.553-.6-.8,11.383-5.558,9.308Z" transform="translate(-272.46 -182.664)"/><g transform="translate(0.636 3.049)"><path class="n" d="M273.762,191.745a.4.4,0,0,0,.386-.294,6.216,6.216,0,0,1,3.484-3.7.4.4,0,0,0-.284-.751,6.917,6.917,0,0,0-3.973,4.235.4.4,0,0,0,.278.5A.412.412,0,0,0,273.762,191.745Z" transform="translate(-273.36 -186.974)"/></g><g transform="translate(2.047 4.627)"><path class="n" d="M277.091,191.075a.4.4,0,0,0,.337-.619,3.661,3.661,0,0,0-1.507-1.216.4.4,0,1,0-.328.734,2.9,2.9,0,0,1,1.16.917A.4.4,0,0,0,277.091,191.075Z" transform="translate(-275.354 -189.205)"/></g></g><g transform="translate(0 26.383)"><path class="m" d="M233.688,184.407s-2.611-3.482-4.553-.6.8,11.383,5.558,9.308Z" transform="translate(-228.505 -182.664)"/><g transform="translate(1.02 3.049)"><path class="n" d="M234.076,191.745a.4.4,0,0,1-.387-.294,6.214,6.214,0,0,0-3.484-3.7.4.4,0,0,1,.284-.751,6.918,6.918,0,0,1,3.973,4.235.4.4,0,0,1-.278.5A.416.416,0,0,1,234.076,191.745Z" transform="translate(-229.947 -186.974)"/></g><g transform="translate(2.002 4.627)"><path class="n" d="M231.737,191.075a.4.4,0,0,1-.337-.619,3.672,3.672,0,0,1,1.508-1.216.4.4,0,0,1,.328.734,2.9,2.9,0,0,0-1.161.917A.4.4,0,0,1,231.737,191.075Z" transform="translate(-231.336 -189.205)"/></g></g><path class="i" d="M245.768,207.632v8.457s2.522,4.307,5.933,4.6,6.435-3.708,6.435-3.708v-8.755Z" transform="translate(-233.557 -163.588)"/><path class="m" d="M245.768,207.632v3.752c2.289,2.539,6.353,3.174,12.368,2.286v-5.444Z" transform="translate(-233.557 -163.588)"/><path class="i" d="M233.161,172.533a81.658,81.658,0,0,0,1.1,10.681v.009a.12.12,0,0,0,.006.032l0,.006c.155.8.328,1.556.518,2.235.114.4.237.815.376,1.241,2.005,6.289,6.649,15.391,18.321,11.227,4.916-1.752,7.477-6.829,8.78-12.335.076-.328.149-.653.211-.966.044-.209.086-.411.123-.61l.057-.294c.01-.05.016-.085.019-.108a.073.073,0,0,0,0-.018,60.352,60.352,0,0,0,.83-11.574,8.827,8.827,0,0,0-4.48-7.51c-7.353-4.171-15.116-2.614-20.228-.651A8.792,8.792,0,0,0,233.161,172.533Z" transform="translate(-229.865 -150.207)"/><path class="g" d="M234.709,191.976l0,.009a.12.12,0,0,0,.006.032l0,.006c.076.274.487,1.78.893,3.476,2.005,6.289,6.649,15.391,18.321,11.227,4.916-1.752,7.477-6.829,8.78-12.335.076-.328.149-.653.212-.966.044-.209.086-.411.123-.61l.057-.294c.01-.05.016-.085.019-.108a.073.073,0,0,0,0-.018l-1.717-.347a13.114,13.114,0,0,1-1.945,4.518c-1.452-3.479-8.821-1.169-8.821-1.169l-.035.013a4.557,4.557,0,0,1-2.784-.013s-7.281-2.412-8.789.906a46.374,46.374,0,0,1-2.532-4.455l-1.793.127Zm14.51,5c8.332-1.123,7.022,3.363,7.022,3.363a13.974,13.974,0,0,1-2.34,1.778A9.6,9.6,0,0,1,249,203.449c-1.278-.054-1.629.208-4.862-1.541a8.153,8.153,0,0,1-1.715-1.3h0v0C242.277,199.726,240.866,195.537,249.219,196.973Z" transform="translate(-230.321 -158.969)"/><path class="g" d="M244.55,184.9c0,.9.465,1.635,1.039,1.635s1.039-.731,1.039-1.635-.465-1.635-1.039-1.635S244.55,184,244.55,184.9Z" transform="translate(-233.201 -156.456)"/><path class="g" d="M262.915,184.9c0,.9.465,1.635,1.039,1.635s1.04-.731,1.04-1.635-.465-1.635-1.04-1.635S262.915,184,262.915,184.9Z" transform="translate(-238.576 -156.456)"/><path class="g" d="M240.7,177.434s4.294-1.7,7.6-.269l-.33,1.839s-4.853-.41-7.3.581A3.188,3.188,0,0,1,240.7,177.434Z" transform="translate(-232.017 -154.504)"/><path class="g" d="M266.486,177.444s-4.326-1.71-7.657-.271l.333,1.853s4.888-.413,7.352.585A3.216,3.216,0,0,0,266.486,177.444Z" transform="translate(-237.38 -154.505)"/><g transform="translate(16.796 27.888)"><path class="m" d="M253.954,192.65a4.267,4.267,0,0,1-1.454-.306.4.4,0,0,1,.3-.743,2.414,2.414,0,0,0,1.611.152.437.437,0,0,0,.2-.374,60.972,60.972,0,0,0-.243-6.153.4.4,0,0,1,.8-.066,59.486,59.486,0,0,1,.241,6.3,1.227,1.227,0,0,1-.584.981A1.7,1.7,0,0,1,253.954,192.65Z" transform="translate(-252.25 -184.791)"/></g><path class="j" d="M257.991,200.229c-.3,1.534-1.318,4.358-4.734,4.358s-4.383-2.58-4.713-4.358Z" transform="translate(-234.37 -161.421)"/><path class="g" d="M233.159,172.532a82.356,82.356,0,0,0,1.1,10.683l1.8-.127s-.435-2.775-.636-4.583-.542-5.187,1-5.609.636-4.272,2.777-5.944,6.931-2.135,10.089-.19,6.716-.147,8.17.19,3.436,2.342,2.9,4.219,1.069,3.013,1.458,4.953-.856,7.163-.856,7.163l1.715.346a60.234,60.234,0,0,0,.832-11.571,8.829,8.829,0,0,0-4.48-7.513c-7.356-4.17-15.118-2.615-20.228-.651A8.8,8.8,0,0,0,233.159,172.532Z" transform="translate(-229.864 -150.207)"/></g></g><g transform="translate(161.279 182.901)"><g transform="translate(36.581 0)"><g transform="translate(0 60.195)"><path class="h" d="M318.006,303.743c-1.092,9.961-7.6,32.213-12.1,36.572-5.862,5.675-25.155,17.623-35.2,23.748-1.813,1.1,6.7,8.464,6.7,8.464s26.682-11.41,36.872-20.406c2.882-2.545,8.736-10.572,15.344-25.861,2-4.636,6.858-13.985,6.606-20.081C335.937,299.165,324.791,300.319,318.006,303.743Z" transform="translate(-270.45 -301.032)"/></g><path class="i" d="M302,385.756s-7.257,2.756-9.829,5.787-5.971,5.6-5.144,6.8,4.593-2.3,4.593-2.3,1.033,3.838,4.685,4.252,10.564-6.732,10.564-6.732Z" transform="translate(-275.265 -265.633)"/><g transform="translate(37.182)"><g transform="translate(0 49.955)"><path class="b" d="M384.205,327.317c0,.63,0,1.376-.015,2.221s-.029,1.78-.055,2.807c-.02.7-.042,1.448-.068,2.228q-.036.987-.077,2.047-.047,1.083-.1,2.234c-.505,10.432-1.727,24.835-4.413,36.382H323.017c1.883-8.393,4.764-21.63,7.049-38.8q.143-1.083.284-2.188t.278-2.231c.049-.4.1-.8.145-1.2.038-.332.077-.663.114-.99q.157-1.389.284-2.73.108-1.118.2-2.2c.968-11.547.626-20.2,2.017-25.383,1.62-6.034,20.515-12.951,20.515-12.951l11.837.62s11.286,3.685,17.32,8.982.988,21.108,1.135,30.084C384.2,326.549,384.2,326.909,384.205,327.317Z" transform="translate(-323.017 -286.555)"/><g transform="translate(8.155 38.333)"><path class="q" d="M387.564,345.4a131.875,131.875,0,0,1-15.743.869,233.7,233.7,0,0,1-37.275-3.317q.108-1.118.2-2.2c4.545.8,30.848,5.155,52.832,2.429C387.581,343.808,387.576,344.554,387.564,345.4Z" transform="translate(-334.546 -340.749)"/></g><g transform="translate(7.612 43.266)"><path class="q" d="M387.284,350.247c-.02.7-.042,1.448-.068,2.228a132.264,132.264,0,0,1-15.62.853,233.392,233.392,0,0,1-37.818-3.412c.049-.4.1-.8.145-1.2.038-.332.077-.663.114-.99C336.653,348.2,364.31,353.08,387.284,350.247Z" transform="translate(-333.778 -347.723)"/></g><g transform="translate(7.049 47.691)"><path class="q" d="M386.907,356.353q-.047,1.083-.1,2.234a130.411,130.411,0,0,1-16.3.937,233.636,233.636,0,0,1-37.525-3.358q.143-1.083.284-2.188C337.342,354.7,364.513,359.284,386.907,356.353Z" transform="translate(-332.983 -353.978)"/></g><g transform="translate(33.35 4.14)"><path class="k" d="M371.118,299.624c5.886,0,11.316-6.256,11.551-6.531a.415.415,0,0,0-.63-.54c-.057.066-5.744,6.618-11.428,6.223a.415.415,0,0,0-.057.829C370.741,299.618,370.93,299.624,371.118,299.624Z" transform="translate(-370.167 -292.408)"/></g><g transform="translate(17.068 52.232)"><path class="k" d="M369.483,389.879a.415.415,0,0,0,.047-.828c-15.2-1.75-21.5-28.067-21.563-28.332a.415.415,0,0,0-.809.188c.258,1.108,6.5,27.153,22.278,28.97Z" transform="translate(-347.147 -360.398)"/></g><g transform="translate(23.443 60.219)"><path class="k" d="M366.067,385.221a.415.415,0,0,0,.219-.769c-8.087-4.985-9.289-12.335-9.3-12.408a.415.415,0,0,0-.821.124c.047.315,1.256,7.794,9.685,12.992A.416.416,0,0,0,366.067,385.221Z" transform="translate(-356.159 -371.691)"/></g></g><g transform="translate(17.537)"><circle class="g" cx="16.655" cy="16.655" r="16.655" transform="translate(3.879 5.943)"/><path class="g" d="M351.961,235.543s-4.716-1.3-4.095-5.879c.529-3.9,5.106-1.371,4.7-4.416s-1.3-5.813,2.643-6.575c3.445-.666,3.5,1.7,8.028-1.73,5.345-4.047,9.451,5.325,14.222,5.606,7.037.414,7.925,4.395,8.617,7.578s-2.017,5.416-2.017,5.416Z" transform="translate(-347.81 -215.931)"/><g transform="translate(1.441 25.499)"><path class="m" d="M355.084,253.74s-2.638-3.518-4.6-.609.811,11.5,5.615,9.4Z" transform="translate(-349.848 -251.98)"/><g transform="translate(1.03 3.08)"><path class="n" d="M355.476,261.154a.405.405,0,0,1-.39-.3,6.28,6.28,0,0,0-3.52-3.738.406.406,0,0,1,.288-.759,6.992,6.992,0,0,1,4.014,4.278.407.407,0,0,1-.282.5A.422.422,0,0,1,355.476,261.154Z" transform="translate(-351.303 -256.334)"/></g><g transform="translate(2.023 4.675)"><path class="n" d="M353.112,260.477a.406.406,0,0,1-.341-.625,3.706,3.706,0,0,1,1.524-1.228.406.406,0,1,1,.332.741,2.941,2.941,0,0,0-1.173.927A.405.405,0,0,1,353.112,260.477Z" transform="translate(-352.707 -258.589)"/></g></g><path class="i" d="M379.132,277.2v8.543s-3.513,3.766-6.958,4.062-5.536-3.788-5.536-3.788V277.8Z" transform="translate(-353.32 -233.863)"/><path class="m" d="M379.132,277.2v3.791c-2.312,2.566-6.418,3.206-12.494,2.309v-5.5Z" transform="translate(-353.32 -233.863)"/><path class="i" d="M384.348,241.743a83.186,83.186,0,0,1-1.108,10.793c-.158.828-.337,1.607-.535,2.305-1.8,6.3-6.3,17.092-18.886,12.595-5.56-1.985-8.138-8.179-9.287-14.478a60.91,60.91,0,0,1-.84-11.689,8.918,8.918,0,0,1,4.526-7.59c7.432-4.214,15.273-2.643,20.436-.658A8.89,8.89,0,0,1,384.348,241.743Z" transform="translate(-349.528 -220.345)"/><g transform="translate(4.663 25.355)"><g transform="translate(15.051 0.306)"><path class="g" d="M375.682,253.982v.673a5.041,5.041,0,0,0,5.028,5.048h.164A4.546,4.546,0,0,0,384,258.319a4.955,4.955,0,0,0,1.453-3.54v-.8a1.8,1.8,0,0,0-.519-1.253,1.763,1.763,0,0,0-1.253-.519h-6.231a1.767,1.767,0,0,0-1.6,1.009,1.717,1.717,0,0,0-.171.716A.257.257,0,0,0,375.682,253.982Zm.735,0a1.038,1.038,0,0,1,1.037-1.037h6.231a1.036,1.036,0,0,1,1.037,1.037v.8a4.21,4.21,0,0,1-1.233,3.014,3.837,3.837,0,0,1-2.629,1.176h-.149a4.3,4.3,0,0,1-4.294-4.313Z" transform="translate(-375.682 -252.21)"/></g><g transform="translate(2.574 0.306)"><path class="g" d="M358.042,253.982v.673a5.029,5.029,0,0,0,1.492,3.588,4.979,4.979,0,0,0,3.536,1.461h.166a4.54,4.54,0,0,0,3.127-1.385,4.957,4.957,0,0,0,1.456-3.54v-.8a.14.14,0,0,0,0-.035,1.706,1.706,0,0,0-.149-.678,1.768,1.768,0,0,0-1.62-1.059h-6.234a1.774,1.774,0,0,0-1.362.639,1.733,1.733,0,0,0-.341.657A1.609,1.609,0,0,0,358.042,253.982Zm.736,0a1.037,1.037,0,0,1,1.036-1.037h6.234a1.037,1.037,0,0,1,1.036,1.037v.8a4.221,4.221,0,0,1-1.232,3.014,3.838,3.838,0,0,1-2.629,1.176h-.152a4.307,4.307,0,0,1-4.293-4.313Z" transform="translate(-358.042 -252.21)"/></g><g transform="translate(24.41)"><path class="g" d="M393.77,251.786a8.786,8.786,0,0,0-4.226.816c-.167.081-.613.371-.632.383l.35.624s.492-.294.683-.382a7.7,7.7,0,0,1,3.824-.709Z" transform="translate(-388.913 -251.777)"/></g><g transform="translate(11.561 1.041)"><path class="g" d="M374.732,254.314l.241-.695a7.494,7.494,0,0,0-2.208-.37,4.96,4.96,0,0,0-2.017.386l.321.661a4.312,4.312,0,0,1,1.7-.313A6.856,6.856,0,0,1,374.732,254.314Z" transform="translate(-370.748 -253.249)"/></g><g transform="translate(0 0.186)"><path class="g" d="M354.4,252.04v.737a9.5,9.5,0,0,1,2.949.814l.324-.659A9.96,9.96,0,0,0,354.4,252.04Z" transform="translate(-354.403 -252.04)"/></g></g><path class="g" d="M365.329,255.363c0,.912-.47,1.651-1.05,1.651s-1.05-.739-1.05-1.651.47-1.652,1.05-1.652S365.329,254.45,365.329,255.363Z" transform="translate(-352.323 -226.988)"/><path class="g" d="M382.709,255.363c0,.912-.47,1.651-1.05,1.651s-1.05-.739-1.05-1.651.47-1.652,1.05-1.652S382.709,254.45,382.709,255.363Z" transform="translate(-357.41 -226.988)"/><path class="g" d="M359.838,248.522s4.37-1.727,7.735-.273l-.281,1.562a14.192,14.192,0,0,0-7.213.517C359.857,249.608,359.554,249.263,359.838,248.522Z" transform="translate(-351.297 -225.219)"/><path class="g" d="M384.957,248.522s-4.37-1.727-7.735-.273l.282,1.562a14.189,14.189,0,0,1,7.212.517C384.938,249.608,385.242,249.263,384.957,248.522Z" transform="translate(-356.418 -225.219)"/><g transform="translate(17.238 27.355)"><path class="m" d="M373.691,262.544a4.32,4.32,0,0,0,1.469-.31.406.406,0,0,0-.307-.751,2.435,2.435,0,0,1-1.628.153.44.44,0,0,1-.2-.378,61.375,61.375,0,0,1,.245-6.216.406.406,0,1,0-.809-.066,60.19,60.19,0,0,0-.243,6.366,1.24,1.24,0,0,0,.59.991A1.715,1.715,0,0,0,373.691,262.544Z" transform="translate(-372.181 -254.604)"/></g><path class="j" d="M367.2,268.743c.332,1.669,1.434,4.739,5.149,4.739s4.767-2.806,5.126-4.739Z" transform="translate(-353.485 -231.387)"/><g transform="translate(16.718 42.906)"><path class="m" d="M373.543,277.9a4.242,4.242,0,0,0,1.978-.555.406.406,0,0,0-.421-.695,3.446,3.446,0,0,1-1.558.438,3.294,3.294,0,0,1-1.478-.436.406.406,0,0,0-.427.69A4.062,4.062,0,0,0,373.543,277.9Z" transform="translate(-371.446 -276.59)"/></g><path class="g" d="M355.788,250.312a16.978,16.978,0,0,1-.389-4.941c.395-1.96,2.018-3.112,1.477-5s1.456-3.927,2.929-4.265,4.905.391,8.289-1.215c3.228-1.535,8.841-.436,9.757,1.635,1.106,2.509-.4,2.747,2.621,5.459,1.2,1.082-.224,3.89-.428,5.717a12.184,12.184,0,0,0-.072,2.154l.012.458H383.6c.4-2.833.626-5.956.75-8.569a8.893,8.893,0,0,0-5.7-8.721c-5.164-1.985-13-3.557-20.438.658a8.913,8.913,0,0,0-4.523,7.589,64.674,64.674,0,0,0,.438,9.044Z" transform="translate(-349.528 -220.345)"/><g transform="translate(32.467 25.484)"><path class="i" d="M393.712,258a15.152,15.152,0,0,1,.221-2.822c.226-1.273.6-2.428,1.9-2.96a2.224,2.224,0,0,1,2.964.746c1.962,2.909-.223,11.96-5.026,9.864Z" transform="translate(-393.71 -251.959)"/><g transform="translate(0.502 2.764)"><path class="m" d="M394.905,261.34a.407.407,0,0,0,.325-.368,6.275,6.275,0,0,1,2.72-4.354.406.406,0,0,0-.43-.688,6.989,6.989,0,0,0-3.1,4.981.407.407,0,0,0,.374.436A.44.44,0,0,0,394.905,261.34Z" transform="translate(-394.419 -255.868)"/></g><g transform="translate(1.427 4.786)"><path class="m" d="M397.747,260.323a.406.406,0,0,0,.212-.68,3.692,3.692,0,0,0-1.734-.906.406.406,0,0,0-.18.792,2.93,2.93,0,0,1,1.331.679A.406.406,0,0,0,397.747,260.323Z" transform="translate(-395.728 -258.726)"/></g></g></g></g><g transform="translate(24.911 57.703)"><path class="h" d="M375.582,297.509c-5.932,8.991-28.634,40.075-33.757,43.686-6.668,4.7-24.846,11.385-35.283,18.354-3.546,2.368,4.832,9.069,4.832,9.069s25.44-7.152,36.9-14.466c3.241-2.069,16.722-15.573,25.316-27.55,2.945-4.1,7.734-9.8,8.427-15.863C382.813,303.763,380.621,300.03,375.582,297.509Z" transform="translate(-305.668 -297.509)"/></g></g><g transform="translate(0 80.751)"><path class="r" d="M2.313,0H71.681a2.314,2.314,0,0,1,2.314,2.314V6.595a2.313,2.313,0,0,1-2.313,2.313H2.313A2.313,2.313,0,0,1,0,6.595V2.313A2.313,2.313,0,0,1,2.313,0Z" transform="translate(14.052 48.978)"/><path class="g" d="M232.8,387.98l-13.908-52.087a4.608,4.608,0,0,1,4.452-5.8h30.6a4.607,4.607,0,0,1,4.436,3.362L273.7,387.98Z" transform="translate(-218.734 -330.094)"/><path class="r" d="M272.958,333.458l15.188,54.073h3.5l-15.188-54.073a4.614,4.614,0,0,0-4.438-3.365h-3.5A4.614,4.614,0,0,1,272.958,333.458Z" transform="translate(-233.304 -330.093)"/><path class="s" d="M258.453,371.736c.8,3.436-1.346,6.221-4.782,6.221a8.306,8.306,0,0,1-7.66-6.221c-.8-3.436,1.346-6.221,4.782-6.221A8.306,8.306,0,0,1,258.453,371.736Z" transform="translate(-226.668 -340.46)"/></g></g><g transform="translate(37.402 103.072)"><g transform="translate(242.025 17.278)"><g transform="translate(3.803)"><path class="k" d="M395.814,136.841a4.671,4.671,0,1,1,4.671-4.671A4.677,4.677,0,0,1,395.814,136.841Zm0-7.877a3.206,3.206,0,1,0,3.2,3.206A3.209,3.209,0,0,0,395.814,128.964Z" transform="translate(-391.143 -127.499)"/></g><g transform="translate(20.617 16.386)"><path class="l" d="M419.586,160.007a4.671,4.671,0,1,1,4.671-4.671A4.676,4.676,0,0,1,419.586,160.007Zm0-7.876a3.205,3.205,0,1,0,3.206,3.206A3.209,3.209,0,0,0,419.586,152.131Z" transform="translate(-414.915 -150.665)"/></g><g transform="translate(25.791 36.209)"><g transform="translate(4.535)"><path class="k" d="M429.374,183.387a.733.733,0,0,1-.733-.733v-3.231a.732.732,0,1,1,1.465,0v3.231A.732.732,0,0,1,429.374,183.387Z" transform="translate(-428.641 -178.69)"/><g transform="translate(0 5.654)"><path class="k" d="M429.374,191.38a.732.732,0,0,1-.733-.732v-3.231a.732.732,0,1,1,1.465,0v3.231A.732.732,0,0,1,429.374,191.38Z" transform="translate(-428.641 -186.684)"/></g></g><g transform="translate(0 4.443)"><g transform="translate(6.168)"><path class="k" d="M434.584,186.437h-2.9a.733.733,0,0,1,0-1.466h2.9a.733.733,0,0,1,0,1.466Z" transform="translate(-430.949 -184.971)"/></g><path class="k" d="M425.864,186.437h-2.9a.733.733,0,0,1,0-1.466h2.9a.733.733,0,0,1,0,1.466Z" transform="translate(-422.229 -184.971)"/></g></g><g transform="translate(0 18.104)"><g transform="translate(4.535)"><path class="t" d="M392.912,157.791a.733.733,0,0,1-.733-.733v-3.231a.733.733,0,1,1,1.466,0v3.231A.733.733,0,0,1,392.912,157.791Z" transform="translate(-392.179 -153.094)"/><g transform="translate(0 5.654)"><path class="t" d="M392.912,165.785a.733.733,0,0,1-.733-.733v-3.231a.733.733,0,1,1,1.466,0v3.231A.733.733,0,0,1,392.912,165.785Z" transform="translate(-392.179 -161.088)"/></g></g><g transform="translate(0 4.443)"><g transform="translate(6.168)"><path class="t" d="M398.123,160.841h-2.9a.733.733,0,1,1,0-1.466h2.9a.733.733,0,0,1,0,1.466Z" transform="translate(-394.487 -159.375)"/></g><path class="t" d="M389.4,160.841h-2.9a.733.733,0,0,1,0-1.466h2.9a.733.733,0,0,1,0,1.466Z" transform="translate(-385.767 -159.375)"/></g></g></g><g transform="translate(322.025 129.034)"><g transform="translate(0)"><g transform="translate(23.182)"><path class="k" d="M395.814,136.841a4.671,4.671,0,1,0-4.671-4.671A4.677,4.677,0,0,0,395.814,136.841Zm0-7.877a3.206,3.206,0,1,1-3.2,3.206A3.209,3.209,0,0,1,395.814,128.964Z" transform="translate(-391.143 -127.499)"/></g><g transform="translate(6.368 16.386)"><path class="l" d="M419.586,160.007a4.671,4.671,0,1,0-4.671-4.671A4.676,4.676,0,0,0,419.586,160.007Zm0-7.876a3.205,3.205,0,1,1-3.206,3.206A3.209,3.209,0,0,1,419.586,152.131Z" transform="translate(-414.915 -150.665)"/></g><g transform="translate(0 36.209)"><g transform="translate(4.535)"><g transform="translate(0)"><path class="k" d="M429.373,183.387a.733.733,0,0,0,.733-.733v-3.231a.732.732,0,1,0-1.465,0v3.231A.732.732,0,0,0,429.373,183.387Z" transform="translate(-428.641 -178.69)"/></g><g transform="translate(0 5.654)"><path class="k" d="M429.373,191.38a.732.732,0,0,0,.733-.732v-3.231a.732.732,0,1,0-1.465,0v3.231A.732.732,0,0,0,429.373,191.38Z" transform="translate(-428.641 -186.684)"/></g></g><g transform="translate(0 4.443)"><g transform="translate(0)"><path class="k" d="M431.682,186.437h2.9a.733.733,0,0,0,0-1.466h-2.9a.733.733,0,0,0,0,1.466Z" transform="translate(-430.949 -184.971)"/></g><g transform="translate(6.168)"><path class="k" d="M422.962,186.437h2.9a.733.733,0,0,0,0-1.466h-2.9a.733.733,0,0,0,0,1.466Z" transform="translate(-422.229 -184.971)"/></g></g></g><g transform="translate(25.791 18.104)"><g transform="translate(4.535)"><g transform="translate(0)"><path class="t" d="M392.912,157.791a.733.733,0,0,0,.733-.733v-3.231a.733.733,0,1,0-1.466,0v3.231A.733.733,0,0,0,392.912,157.791Z" transform="translate(-392.179 -153.094)"/></g><g transform="translate(0 5.654)"><path class="t" d="M392.912,165.785a.733.733,0,0,0,.733-.733v-3.231a.733.733,0,1,0-1.466,0v3.231A.733.733,0,0,0,392.912,165.785Z" transform="translate(-392.179 -161.088)"/></g></g><g transform="translate(0 4.443)"><g transform="translate(0)"><path class="t" d="M395.219,160.841h2.9a.733.733,0,1,0,0-1.466h-2.9a.733.733,0,0,0,0,1.466Z" transform="translate(-394.487 -159.375)"/></g><g transform="translate(6.168)"><path class="t" d="M386.5,160.841h2.9a.733.733,0,0,0,0-1.466h-2.9a.733.733,0,0,0,0,1.466Z" transform="translate(-385.767 -159.375)"/></g></g></g></g></g><g transform="translate(0)"><g transform="translate(33.736 0.504)"><path class="k" d="M91.3,108.456a4.671,4.671,0,1,1,4.671,4.671A4.676,4.676,0,0,1,91.3,108.456Zm1.466,0a3.205,3.205,0,1,0,3.2-3.206A3.209,3.209,0,0,0,92.762,108.456Z" transform="translate(-91.296 -103.785)"/></g><g transform="translate(14.979 18.307)"><path class="l" d="M64.778,133.625a4.671,4.671,0,1,1,4.671,4.671A4.676,4.676,0,0,1,64.778,133.625Zm1.465,0a3.206,3.206,0,1,0,3.206-3.206A3.209,3.209,0,0,0,66.243,133.625Z" transform="translate(-64.778 -128.954)"/></g><g transform="translate(0 24.837)"><g transform="translate(4.535)"><path class="k" d="M50.746,142.881a.733.733,0,0,0,.733-.733v-3.231a.733.733,0,0,0-1.466,0v3.231A.733.733,0,0,0,50.746,142.881Z" transform="translate(-50.013 -138.185)"/><g transform="translate(0 5.654)"><path class="k" d="M50.746,150.875a.733.733,0,0,0,.733-.733v-3.231a.733.733,0,1,0-1.466,0v3.231A.733.733,0,0,0,50.746,150.875Z" transform="translate(-50.013 -146.178)"/></g></g><g transform="translate(0 4.442)"><path class="k" d="M44.335,145.931h2.9a.733.733,0,0,0,0-1.466h-2.9a.733.733,0,0,0,0,1.466Z" transform="translate(-43.602 -144.465)"/><g transform="translate(6.168)"><path class="k" d="M53.055,145.931h2.9a.733.733,0,1,0,0-1.466h-2.9a.733.733,0,1,0,0,1.466Z" transform="translate(-52.322 -144.465)"/></g></g></g><g transform="translate(16.882)"><g transform="translate(4.535)"><path class="t" d="M74.613,107.768a.733.733,0,0,0,.733-.733V103.8a.732.732,0,0,0-1.465,0v3.231A.733.733,0,0,0,74.613,107.768Z" transform="translate(-73.881 -103.072)"/><g transform="translate(0 5.654)"><path class="t" d="M74.613,115.762a.733.733,0,0,0,.733-.733V111.8a.732.732,0,1,0-1.465,0v3.231A.733.733,0,0,0,74.613,115.762Z" transform="translate(-73.881 -111.065)"/></g></g><g transform="translate(0 4.442)"><path class="t" d="M68.2,110.818h2.9a.733.733,0,0,0,0-1.466H68.2a.733.733,0,0,0,0,1.466Z" transform="translate(-67.469 -109.352)"/><g transform="translate(6.168)"><path class="t" d="M76.922,110.818h2.9a.733.733,0,0,0,0-1.466h-2.9a.733.733,0,0,0,0,1.466Z" transform="translate(-76.189 -109.352)"/></g></g></g></g><g transform="translate(-72.055 197.132) rotate(-90)"><g transform="translate(33.736 0.504)"><path class="k" d="M91.3,108.456a4.671,4.671,0,1,1,4.671,4.671A4.676,4.676,0,0,1,91.3,108.456Zm1.466,0a3.205,3.205,0,1,0,3.2-3.206A3.209,3.209,0,0,0,92.762,108.456Z" transform="translate(-91.296 -103.785)"/></g><g transform="translate(14.979 18.307)"><path class="l" d="M64.778,133.625a4.671,4.671,0,1,1,4.671,4.671A4.676,4.676,0,0,1,64.778,133.625Zm1.465,0a3.206,3.206,0,1,0,3.206-3.206A3.209,3.209,0,0,0,66.243,133.625Z" transform="translate(-64.778 -128.954)"/></g><g transform="translate(0 24.837)"><g transform="translate(4.535)"><path class="k" d="M50.746,142.881a.733.733,0,0,0,.733-.733v-3.231a.733.733,0,0,0-1.466,0v3.231A.733.733,0,0,0,50.746,142.881Z" transform="translate(-50.013 -138.185)"/><g transform="translate(0 5.654)"><path class="k" d="M50.746,150.875a.733.733,0,0,0,.733-.733v-3.231a.733.733,0,1,0-1.466,0v3.231A.733.733,0,0,0,50.746,150.875Z" transform="translate(-50.013 -146.178)"/></g></g><g transform="translate(0 4.442)"><path class="k" d="M44.335,145.931h2.9a.733.733,0,0,0,0-1.466h-2.9a.733.733,0,0,0,0,1.466Z" transform="translate(-43.602 -144.465)"/><g transform="translate(6.168)"><path class="k" d="M53.055,145.931h2.9a.733.733,0,1,0,0-1.466h-2.9a.733.733,0,1,0,0,1.466Z" transform="translate(-52.322 -144.465)"/></g></g></g><g transform="translate(16.882)"><g transform="translate(4.535)"><path class="t" d="M74.613,107.768a.733.733,0,0,0,.733-.733V103.8a.732.732,0,0,0-1.465,0v3.231A.733.733,0,0,0,74.613,107.768Z" transform="translate(-73.881 -103.072)"/><g transform="translate(0 5.654)"><path class="t" d="M74.613,115.762a.733.733,0,0,0,.733-.733V111.8a.732.732,0,1,0-1.465,0v3.231A.733.733,0,0,0,74.613,115.762Z" transform="translate(-73.881 -111.065)"/></g></g><g transform="translate(0 4.442)"><path class="t" d="M68.2,110.818h2.9a.733.733,0,0,0,0-1.466H68.2a.733.733,0,0,0,0,1.466Z" transform="translate(-67.469 -109.352)"/><g transform="translate(6.168)"><path class="t" d="M76.922,110.818h2.9a.733.733,0,0,0,0-1.466h-2.9a.733.733,0,0,0,0,1.466Z" transform="translate(-76.189 -109.352)"/></g></g></g></g><g transform="translate(175.563 6.728)"><path class="b" d="M330.16,115.99v14.222a3.406,3.406,0,0,1-3.406,3.405H300.931l-7.8,2.8a.992.992,0,0,1-1.26-1.292l2.95-7.616V115.99a3.407,3.407,0,0,1,3.407-3.406h28.524A3.407,3.407,0,0,1,330.16,115.99Z" transform="translate(-291.805 -112.584)"/><g class="u" transform="translate(8.281 5.55)"><path class="v" d="M328.142,122.309H304.451a.939.939,0,0,1-.939-.939h0a.939.939,0,0,1,.939-.94h23.691a.94.94,0,0,1,.94.94h0A.939.939,0,0,1,328.142,122.309Z" transform="translate(-303.512 -120.43)"/><path class="v" d="M328.142,127.66H304.451a.939.939,0,0,1-.939-.94h0a.939.939,0,0,1,.939-.94h23.691a.94.94,0,0,1,.94.94h0A.94.94,0,0,1,328.142,127.66Z" transform="translate(-303.512 -121.996)"/><path class="v" d="M328.142,133.01H304.451a.939.939,0,0,1-.939-.94h0a.939.939,0,0,1,.939-.939h23.691a.94.94,0,0,1,.94.939h0A.94.94,0,0,1,328.142,133.01Z" transform="translate(-303.512 -123.562)"/></g></g></g><g transform="translate(-81.888 321.548)"><rect class="e" width="532.682" height="11.127" rx="5.564" transform="translate(0)"/><path class="w" d="M581.954,417.253v.254H49.272v-.254c0-2.932,4.424-5.309,9.886-5.309H572.066C577.527,411.944,581.954,414.321,581.954,417.253Z" transform="translate(-49.272 -411.944)"/></g></g></svg>