<svg xmlns="http://www.w3.org/2000/svg" width="72.821" height="62.5" viewBox="0 0 72.821 62.5"><defs><style>.a{opacity:0.449;}.b{fill:#8981bd;opacity:0.182;}.c,.d,.e{fill:#6259a4;}.c,.d{stroke:#6259a4;}.d{stroke-width:0.4px;}</style></defs><g transform="translate(0.242 0.5)"><g class="a" transform="translate(2 7)"><path class="b" d="M22.526,0a27.824,27.824,0,0,0-9.7,1.759A26.353,26.353,0,0,0,7.633,4.337H23.16c0,.041.189,5.111,0,8.616-.13,2.427-.018,5.213.072,7.452a20.414,20.414,0,0,1-.072,4.985c-.576,1.367-1.958,1.479-3.176,1.577a3.729,3.729,0,0,0-1.53.311,15.523,15.523,0,0,1-3.2,1.184h-.005a11.854,11.854,0,0,0-2.057-.468c-.1,0-.162.018-.172.055-.02.071.135.21.461.415.631.395.932.661.895.792-.02.07-.138.085-.234.085a1.29,1.29,0,0,1-.181-.014,2.345,2.345,0,0,0-.392,1.651,1.028,1.028,0,0,0,.661.643.358.358,0,0,1,.222.185c.062.149-.023.342-.122.565a1.031,1.031,0,0,0-.1.947.843.843,0,0,1,.168.694c-.078.2-.32.271-.534.335s-.405.121-.383.289c.117.889-2.524,2.326-2.551,2.34a42.048,42.048,0,0,0-4.854,2.25c-.039,1.052-.658,1.231-1.893,1.588a19.309,19.309,0,0,0-1.877.623c-.065,0-.129,0-.19,0a1.514,1.514,0,0,0-1.144.335.533.533,0,0,0-.134.422l-.093.136,0,0A4.635,4.635,0,0,1,0,43.277,27.73,27.73,0,0,0,9.635,51.8a27.505,27.505,0,1,0,23.6-49.636A27.327,27.327,0,0,0,22.526,0Z" transform="translate(50.026 55) rotate(180)"/></g><g transform="translate(6.568 0)"><path class="c" d="M12.7,1.984a.133.133,0,0,1,.131.133V6.349a.132.132,0,1,1-.264,0h0V2.117a.133.133,0,0,1,.132-.133Z" transform="translate(-1.984 -1.984)"/><path class="c" d="M12.7,18.918a.133.133,0,0,1,.131.133v4.232a.132.132,0,1,1-.264,0h0V19.051a.132.132,0,0,1,.132-.133Z" transform="translate(-1.984 -1.984)"/><path class="c" d="M23.283,12.568a.133.133,0,0,1,.133.132h0a.133.133,0,0,1-.133.131H19.051a.132.132,0,1,1,0-.264h4.233Z" transform="translate(-18.918 -1.984)"/><path class="c" d="M6.349,12.568a.133.133,0,0,1,.133.132h0a.133.133,0,0,1-.133.131H2.116a.132.132,0,1,1,0-.264H6.349Z" transform="translate(14.95 -1.984)"/><path class="c" d="M15.866,3.4a.133.133,0,0,1,.123.067l2.117,3.666a.132.132,0,0,1-.048.181h0a.132.132,0,0,1-.181-.048h0L15.761,3.6a.131.131,0,0,1,.046-.181h0A.123.123,0,0,1,15.866,3.4Z" transform="translate(-10.45 -1.984)"/><path class="c" d="M7.4,18.066a.133.133,0,0,1,.123.067L9.641,21.8a.132.132,0,0,1-.048.181h0a.132.132,0,0,1-.181-.048h0L7.293,18.265a.133.133,0,0,1,.048-.181h0A.123.123,0,0,1,7.4,18.066Z" transform="translate(6.482 -1.984)"/><path class="c" d="M21.857,15.742a.133.133,0,0,1,.075.248h0l-3.666,2.117a.132.132,0,0,1-.181-.048h0a.132.132,0,0,1,.047-.181h0L21.8,15.76A.123.123,0,0,1,21.857,15.742Z" transform="translate(-16.648 -1.984)"/><path class="c" d="M7.193,7.275a.133.133,0,0,1,.075.248h0L3.6,9.64a.132.132,0,0,1-.181-.048h0a.133.133,0,0,1,.048-.182h0L7.134,7.293A.123.123,0,0,1,7.193,7.275Z" transform="translate(12.68 -1.984)"/><path class="c" d="M18.212,7.277a.136.136,0,0,1,.053.016L21.931,9.41a.133.133,0,0,1,.05.181h0a.133.133,0,0,1-.181.049h0L18.132,7.523a.133.133,0,0,1-.049-.181h0A.132.132,0,0,1,18.212,7.277Z" transform="translate(-16.648 -1.984)"/><path class="c" d="M3.55,15.744a.127.127,0,0,1,.051.016l3.666,2.117a.132.132,0,0,1,.05.18h0a.133.133,0,0,1-.181.05h0L3.468,15.99a.133.133,0,0,1-.049-.181h0A.131.131,0,0,1,3.55,15.744Z" transform="translate(12.68 -1.984)"/><path class="c" d="M18,18.068a.137.137,0,0,1,.052.016.133.133,0,0,1,.05.181h0l-2.117,3.666a.133.133,0,0,1-.181.05h0a.132.132,0,0,1-.047-.181h0l2.115-3.666A.132.132,0,0,1,18,18.068Z" transform="translate(-10.45 -1.984)"/><path class="c" d="M9.538,3.4a.124.124,0,0,1,.053.018.132.132,0,0,1,.05.18h0L7.523,7.267a.133.133,0,0,1-.181.05h0a.133.133,0,0,1-.049-.181h0L9.41,3.469A.132.132,0,0,1,9.538,3.4Z" transform="translate(6.483 -1.984)"/></g><g transform="translate(18.736 59.894) rotate(180)"><path class="d" d="M.247,0A.246.246,0,0,1,.421.072L1.776,1.427a.247.247,0,0,1-.349.349L.072.421A.247.247,0,0,1,.247,0Z" transform="translate(9.453 14.556)"/><path class="d" d="M.212,0,.247,0A.247.247,0,0,1,.491.212L.8,2.372a.247.247,0,0,1-.488.076V2.442L0,.282A.247.247,0,0,1,.212,0Z" transform="translate(7.002 16.081)"/><path class="d" d="M1.776,1.776a.247.247,0,0,1-.349,0L.072.421A.247.247,0,1,1,.421.072L1.776,1.427a.247.247,0,0,1,0,.349Z" transform="translate(2.331 7.435)"/><path class="d" d="M2.652.592A.247.247,0,0,1,2.373.8h0L.212.491A.247.247,0,0,1,.247,0L.282,0l2.161.31a.247.247,0,0,1,.209.279Z" transform="translate(0 10.93)"/><path class="d" d="M1.611.072A.247.247,0,1,1,1.96.421h0L.419,1.963A.247.247,0,0,1,.07,1.614Z" transform="translate(2.392 14.297)"/><path class="d" d="M9.256,5.6l3.033,2.428a.674.674,0,0,1,.255.6.656.656,0,0,1-.452.548L7.71,10.578a.247.247,0,0,1-.15-.47l4.381-1.394a.165.165,0,0,0,.052-.285L8.733,5.818a.247.247,0,0,1-.039-.347l.018-.02,3.644-3.668L11.065.493,7.4,4.137a.247.247,0,0,1-.174.072H7.209a.247.247,0,0,1-.179-.092L4.421.856a.165.165,0,0,0-.285.053L.494,12.356l7.379-2.343a.247.247,0,0,1,.15.47L.644,12.826a.494.494,0,0,1-.621-.62L3.665.759A.658.658,0,0,1,4.806.547L7.244,3.594,10.717.143a.494.494,0,0,1,.7,0L12.7,1.435a.494.494,0,0,1,0,.7Z" transform="translate(5.886)"/></g><g transform="translate(28 16.746)"><path class="e" d="M11.715,43.535h2.248a2.214,2.214,0,0,1,2.113-1.624h2.4V36.043a.619.619,0,0,1,.3-.547L35.7,25.718a.625.625,0,0,1,.628,0L53.266,35.5a.63.63,0,0,1,.314.547V55.6a.632.632,0,0,1-.316.547L36.33,65.921a.632.632,0,0,1-.316.085.664.664,0,0,1-.325-.085l-8.911-5.14V64.5a2.675,2.675,0,0,1-2.668,2.682H11.715A2.69,2.69,0,0,1,9,64.514c0-.006,0-.011,0-.017V46.259A2.725,2.725,0,0,1,11.715,43.535Zm4.339-.361a.917.917,0,0,0-.917.917h0v.061a.917.917,0,0,0,.917.917h3.671a.917.917,0,0,0,.917-.917h0v-.061a.917.917,0,0,0-.917-.917H16.053Zm19.96-16.179-7.037,4.063L44.647,40.1l7.037-4.063Zm.6,37.285,15.7-9.048v-18.1l-15.7,9.048Zm-.6-19.191,7.37-4.255-15.67-9.047-7.37,4.255Zm-9.236,1.17V59.322l8.573,4.958v-18.1L19.739,37.135v4.775h-.02a2.214,2.214,0,0,1,2.113,1.624H24.08A2.711,2.711,0,0,1,26.778,46.259ZM10.263,64.5A1.425,1.425,0,0,0,11.7,65.916H24.08a1.41,1.41,0,0,0,1.434-1.386c0-.011,0-.021,0-.032V46.259a1.446,1.446,0,0,0-1.431-1.46H21.808a2.161,2.161,0,0,1-2.089,1.534H16.076A2.161,2.161,0,0,1,13.987,44.8H11.715a1.461,1.461,0,0,0-1.451,1.46Z" transform="translate(-9 -25.634)"/><path class="e" d="M340.614,282.241h-.661a.632.632,0,1,1,0-1.263h.025v-1.715h-1.742a.608.608,0,0,1-.6.427.633.633,0,0,1-.635-.63v-.425a.64.64,0,0,1,.639-.635h2.976a.63.63,0,0,1,.627.634h0v2.976a.627.627,0,0,1-.623.631Z" transform="translate(-326.261 -255.226)"/><path class="e" d="M340.61,346.241h-2.978a.632.632,0,0,1-.632-.632v-2.978a.632.632,0,0,1,.632-.632h2.978a.632.632,0,0,1,.632.632v2.978A.632.632,0,0,1,340.61,346.241Zm-.632-2.978h-1.715v1.715h1.715Z" transform="translate(-326.261 -313.45)"/><path class="e" d="M339.952,408.978h.025v-1.715h-1.708a.635.635,0,0,1-1.27,0v-.609a.659.659,0,0,1,.639-.656h2.976a.649.649,0,0,1,.627.656v2.976a.609.609,0,0,1-.609.61h-.68a.632.632,0,0,1,0-1.263Z" transform="translate(-326.261 -371.675)"/><path class="e" d="M355.433,284.724l1.85,1.85.563-.563a.632.632,0,0,1,.893.893l-1.01,1.009a.632.632,0,0,1-.893,0h0l-2.3-2.3a.632.632,0,1,1,.893-.893Z" transform="translate(-345.51 -261.174)"/><path class="e" d="M355.433,413.973l1.85,1.85.563-.563a.632.632,0,1,1,.893.893l-1.01,1.009a.632.632,0,0,1-.893,0h0l-2.3-2.3a.632.632,0,1,1,.893-.893Z" transform="translate(-345.51 -378.759)"/><path class="e" d="M414.523,295h3.968a.632.632,0,0,1,0,1.263h-3.968a.632.632,0,0,1,0-1.263Z" transform="translate(-411.081 -270.692)"/><path class="e" d="M414.523,359h3.968a.632.632,0,0,1,0,1.263h-3.968a.632.632,0,0,1,0-1.263Z" transform="translate(-411.081 -328.916)"/><path class="e" d="M414.523,423h3.968a.632.632,0,0,1,0,1.263h-3.968a.632.632,0,0,1,0-1.263Z" transform="translate(-411.081 -387.14)"/></g></g></svg>