<svg xmlns="http://www.w3.org/2000/svg" width="63.514" height="62.5" viewBox="0 0 63.514 62.5"><defs><style>.a{opacity:0.449;}.b{fill:#8981bd;opacity:0.182;}.c,.d,.f,.g{fill:#6259a4;}.c,.d,.g{stroke:#6259a4;}.d{stroke-width:0.4px;}.e{fill:#fff;}.g{stroke-miterlimit:10;stroke-width:0.5px;}</style></defs><g transform="translate(0.242 0.5)"><g class="a" transform="translate(2 7)"><path class="b" d="M27.5,0a27.5,27.5,0,0,0,0,55,27.839,27.839,0,0,0,9.7-1.759A27.5,27.5,0,0,0,27.5,0Z" transform="translate(0 0)"/></g><g transform="translate(6.568 0)"><path class="c" d="M12.7,1.984a.133.133,0,0,1,.131.133V6.349a.132.132,0,1,1-.264,0h0V2.117a.133.133,0,0,1,.132-.133Z" transform="translate(-1.984 -1.984)"/><path class="c" d="M12.7,18.918a.133.133,0,0,1,.131.133v4.232a.132.132,0,1,1-.264,0h0V19.051a.132.132,0,0,1,.132-.133Z" transform="translate(-1.984 -1.984)"/><path class="c" d="M23.283,12.568a.133.133,0,0,1,.133.132h0a.133.133,0,0,1-.133.131H19.051a.132.132,0,1,1,0-.264h4.233Z" transform="translate(-18.918 -1.984)"/><path class="c" d="M6.349,12.568a.133.133,0,0,1,.133.132h0a.133.133,0,0,1-.133.131H2.116a.132.132,0,1,1,0-.264H6.349Z" transform="translate(14.95 -1.984)"/><path class="c" d="M15.866,3.4a.133.133,0,0,1,.123.067l2.117,3.666a.132.132,0,0,1-.048.181h0a.132.132,0,0,1-.181-.048h0L15.761,3.6a.131.131,0,0,1,.046-.181h0A.123.123,0,0,1,15.866,3.4Z" transform="translate(-10.45 -1.984)"/><path class="c" d="M7.4,18.066a.133.133,0,0,1,.123.067L9.641,21.8a.132.132,0,0,1-.048.181h0a.132.132,0,0,1-.181-.048h0L7.293,18.265a.133.133,0,0,1,.048-.181h0A.123.123,0,0,1,7.4,18.066Z" transform="translate(6.482 -1.984)"/><path class="c" d="M21.857,15.742a.133.133,0,0,1,.075.248h0l-3.666,2.117a.132.132,0,0,1-.181-.048h0a.132.132,0,0,1,.047-.181h0L21.8,15.76A.123.123,0,0,1,21.857,15.742Z" transform="translate(-16.648 -1.984)"/><path class="c" d="M7.193,7.275a.133.133,0,0,1,.075.248h0L3.6,9.64a.132.132,0,0,1-.181-.048h0a.133.133,0,0,1,.048-.182h0L7.134,7.293A.123.123,0,0,1,7.193,7.275Z" transform="translate(12.68 -1.984)"/><path class="c" d="M18.212,7.277a.136.136,0,0,1,.053.016L21.931,9.41a.133.133,0,0,1,.05.181h0a.133.133,0,0,1-.181.049h0L18.132,7.523a.133.133,0,0,1-.049-.181h0A.132.132,0,0,1,18.212,7.277Z" transform="translate(-16.648 -1.984)"/><path class="c" d="M3.55,15.744a.127.127,0,0,1,.051.016l3.666,2.117a.132.132,0,0,1,.05.18h0a.133.133,0,0,1-.181.05h0L3.468,15.99a.133.133,0,0,1-.049-.181h0A.131.131,0,0,1,3.55,15.744Z" transform="translate(12.68 -1.984)"/><path class="c" d="M18,18.068a.137.137,0,0,1,.052.016.133.133,0,0,1,.05.181h0l-2.117,3.666a.133.133,0,0,1-.181.05h0a.132.132,0,0,1-.047-.181h0l2.115-3.666A.132.132,0,0,1,18,18.068Z" transform="translate(-10.45 -1.984)"/><path class="c" d="M9.538,3.4a.124.124,0,0,1,.053.018.132.132,0,0,1,.05.18h0L7.523,7.267a.133.133,0,0,1-.181.05h0a.133.133,0,0,1-.049-.181h0L9.41,3.469A.132.132,0,0,1,9.538,3.4Z" transform="translate(6.483 -1.984)"/></g><g transform="translate(18.736 59.894) rotate(180)"><path class="d" d="M.247,0A.246.246,0,0,1,.421.072L1.776,1.427a.247.247,0,0,1-.349.349L.072.421A.247.247,0,0,1,.247,0Z" transform="translate(9.453 14.556)"/><path class="d" d="M.212,0,.247,0A.247.247,0,0,1,.491.212L.8,2.372a.247.247,0,0,1-.488.076V2.442L0,.282A.247.247,0,0,1,.212,0Z" transform="translate(7.002 16.081)"/><path class="d" d="M1.776,1.776a.247.247,0,0,1-.349,0L.072.421A.247.247,0,1,1,.421.072L1.776,1.427a.247.247,0,0,1,0,.349Z" transform="translate(2.331 7.435)"/><path class="d" d="M2.652.592A.247.247,0,0,1,2.373.8h0L.212.491A.247.247,0,0,1,.247,0L.282,0l2.161.31a.247.247,0,0,1,.209.279Z" transform="translate(0 10.93)"/><path class="d" d="M1.611.072A.247.247,0,1,1,1.96.421h0L.419,1.963A.247.247,0,0,1,.07,1.614Z" transform="translate(2.392 14.297)"/><path class="d" d="M9.256,5.6l3.033,2.428a.674.674,0,0,1,.255.6.656.656,0,0,1-.452.548L7.71,10.578a.247.247,0,0,1-.15-.47l4.381-1.394a.165.165,0,0,0,.052-.285L8.733,5.818a.247.247,0,0,1-.039-.347l.018-.02,3.644-3.668L11.065.493,7.4,4.137a.247.247,0,0,1-.174.072H7.209a.247.247,0,0,1-.179-.092L4.421.856a.165.165,0,0,0-.285.053L.494,12.356l7.379-2.343a.247.247,0,0,1,.15.47L.644,12.826a.494.494,0,0,1-.621-.62L3.665.759A.658.658,0,0,1,4.806.547L7.244,3.594,10.717.143a.494.494,0,0,1,.7,0L12.7,1.435a.494.494,0,0,1,0,.7Z" transform="translate(5.886)"/></g><g transform="translate(26.717 19.016)"><path class="e" d="M0,3.753V35.479l24.659.294s.093-27.628,0-31.095A4.852,4.852,0,0,1,25.331,2a3.78,3.78,0,0,0-.208,1.281c-.022,3.274,0,18.708,0,18.708h9.993V3.281S34.056.113,31.078.113h-.289A9.731,9.731,0,0,0,26.466.7,4.8,4.8,0,0,1,27.585,0S8.889.067,4.851,0h-.1A4.847,4.847,0,0,0,0,3.753Z" transform="translate(35.957 36.154) rotate(180)"/><path class="f" d="M21.779,63.146H36.685a.457.457,0,1,1,0,.914H21.779a.457.457,0,1,1,0-.914Z" transform="translate(-5.704 -38.865)"/><path class="f" d="M21.779,69.343H36.685a.457.457,0,0,1,0,.914H21.779a.457.457,0,0,1,0-.914Z" transform="translate(-5.704 -42.23)"/><path class="f" d="M21.779,75.539H36.685a.457.457,0,1,1,0,.914H21.779a.457.457,0,1,1,0-.914Z" transform="translate(-5.704 -45.595)"/><path class="f" d="M10.577,23.611H20.663V10.457A.456.456,0,0,1,21.119,10h25.1a.456.456,0,0,1,.457.457V41.932a4.638,4.638,0,0,1-4.648,4.619H14.768a4.639,4.639,0,0,1-4.648-4.619V24.068A.456.456,0,0,1,10.577,23.611Zm31.45,22.026a3.724,3.724,0,0,0,3.734-3.7V10.914H21.576V41.464a.41.41,0,0,1,0,.053,5.005,5.005,0,0,1-2.171,4.119Zm-30.993-3.7a3.723,3.723,0,0,0,3.734,3.7h1.639a.463.463,0,0,1,.127-.018,4.123,4.123,0,0,0,4.132-4.035.424.424,0,0,1,0-.048V24.525H11.034Z" transform="translate(-10.12 -10)"/><g transform="translate(16.703 9.015)"><g transform="translate(0 0)"><path class="g" d="M33.8,30.533l3.385-3.385a.225.225,0,0,1,.316.32l-3,3h7.531a.226.226,0,0,1,.228.224.229.229,0,0,1-.228.228H34.5l3,3a.221.221,0,0,1,0,.316.212.212,0,0,1-.16.068.21.21,0,0,1-.156-.068L33.8,30.85A.228.228,0,0,1,33.8,30.533Z" transform="translate(-33.734 -27.084)"/></g><g transform="translate(4.76 2.146)"><path class="g" d="M28.809,34.437l-3.385,3.385a.225.225,0,1,1-.316-.32l3-3H20.574a.226.226,0,0,1-.228-.224.229.229,0,0,1,.228-.228H28.1l-3-3a.221.221,0,0,1,0-.316.212.212,0,0,1,.16-.068.21.21,0,0,1,.156.068l3.385,3.382A.228.228,0,0,1,28.809,34.437Z" transform="translate(-20.346 -30.671)"/></g></g></g></g></svg>