<svg xmlns="http://www.w3.org/2000/svg" width="75.447" height="62.5" viewBox="0 0 75.447 62.5"><defs><style>.a{opacity:0.449;}.b{fill:#8981bd;opacity:0.182;}.c,.d,.e{fill:#6259a4;}.c,.d,.f{stroke:#6259a4;}.d{stroke-width:0.4px;}.f{fill:none;stroke-linecap:round;stroke-width:1.6px;}</style></defs><g transform="translate(0.242 0.5)"><g class="a" transform="translate(1.999 7)"><path class="b" d="M25.392,0a27.833,27.833,0,0,0-9.7,1.759c-.4.146-.8.3-1.2.471l8.563.7A19.407,19.407,0,0,1,26.4,2.567a4.586,4.586,0,0,1,2.077.361c.59.306.675,1.218.731,1.821l0,.008h0a2.494,2.494,0,0,0,.069.483,2.865,2.865,0,0,1-.317,2.429A4.04,4.04,0,0,0,28.481,9.2l-3.06,2.413H24.176l-.278.827a9.609,9.609,0,0,1,.457,1.088l0,.013a4.154,4.154,0,0,0,.261.624A5.117,5.117,0,0,0,27.7,15.591a2.735,2.735,0,0,1,.785.215,1.7,1.7,0,0,1,.908,1.236,2.207,2.207,0,0,0,.326.831c.274.421-.124.734-.443.986a1.232,1.232,0,0,0-.339.331,10.266,10.266,0,0,0-.61,2.328,3.1,3.1,0,0,1-.109.528,1.157,1.157,0,0,0,.012.569,2.954,2.954,0,0,1-.922,2.862c-2.027,2.124-3.008,2.535-3.767,2.664-.139.024-.28.051-.416.076l-.013,0A7.969,7.969,0,0,1,21.6,28.4a5.2,5.2,0,0,1-2.844-.935A8.348,8.348,0,0,1,17.2,25.844c-.181-.245-.271-.368-.425-.368h-.039c-.25,0-.47-.894-.724-1.93a13.73,13.73,0,0,0-.916-2.871l-.07-.127c-.6-1.075-1.339-2.413-.953-3.022a4.641,4.641,0,0,1,1.39-2.355,2.86,2.86,0,0,0,.862-1.264,1.556,1.556,0,0,1,1.618-1.065,3.1,3.1,0,0,1,.811.111l1.639-1.668-1.638.331-2.008-1.573-.762,1.573q-.054,0-.107,0c-.763,0-1.107.643-1.335,1.068l0,.005a1.782,1.782,0,0,1-.162.269,3.574,3.574,0,0,1-.806.6c-.14.08-.224.129-.225.184s.049.092.171.169a.226.226,0,0,1,.118.257c-.114.5-1.555,1.274-2.35,1.362l-.062,0A1.056,1.056,0,0,1,10.436,15c-.066-.092-.122-.181-.179-.273l0-.005c-.093-.148-.16-.255-.21-.255-.017,0-.031.012-.043.038l.444,2.082-1.3.481a1.684,1.684,0,0,1-.288,1.681l0,.013a22.011,22.011,0,0,0,1.585,3.286c.106.165.216.338.327.515l.02.031A7.036,7.036,0,0,0,12.5,24.786l1.021,1.694.554,4.015c.474.808-.08,1.31-.484,1.676-.212.192-.4.358-.375.516.113.858-1.264,3.252-1.422,3.522l-.006,0A3.373,3.373,0,0,0,10.1,35.43c-.6,0-.925.485-.96,1.443-.027.758-.474,1.209-1.29,1.775a6.054,6.054,0,0,1-3.564.878c-.266,0-.556-.007-.888-.021A4.895,4.895,0,0,1,0,38.078,27.515,27.515,0,1,0,25.392,0Z" transform="translate(52.892 55.001) rotate(180)"/></g><g transform="translate(6.568 0)"><path class="c" d="M12.7,1.984a.133.133,0,0,1,.131.133V6.349a.132.132,0,1,1-.264,0h0V2.117a.133.133,0,0,1,.132-.133Z" transform="translate(-1.984 -1.984)"/><path class="c" d="M12.7,18.918a.133.133,0,0,1,.131.133v4.232a.132.132,0,1,1-.264,0h0V19.051a.132.132,0,0,1,.132-.133Z" transform="translate(-1.984 -1.984)"/><path class="c" d="M23.283,12.568a.133.133,0,0,1,.133.132h0a.133.133,0,0,1-.133.131H19.051a.132.132,0,1,1,0-.264h4.233Z" transform="translate(-18.918 -1.984)"/><path class="c" d="M6.349,12.568a.133.133,0,0,1,.133.132h0a.133.133,0,0,1-.133.131H2.116a.132.132,0,1,1,0-.264H6.349Z" transform="translate(14.95 -1.984)"/><path class="c" d="M15.866,3.4a.133.133,0,0,1,.123.067l2.117,3.666a.132.132,0,0,1-.048.181h0a.132.132,0,0,1-.181-.048h0L15.761,3.6a.131.131,0,0,1,.046-.181h0A.123.123,0,0,1,15.866,3.4Z" transform="translate(-10.45 -1.984)"/><path class="c" d="M7.4,18.066a.133.133,0,0,1,.123.067L9.641,21.8a.132.132,0,0,1-.048.181h0a.132.132,0,0,1-.181-.048h0L7.293,18.265a.133.133,0,0,1,.048-.181h0A.123.123,0,0,1,7.4,18.066Z" transform="translate(6.482 -1.984)"/><path class="c" d="M21.857,15.742a.133.133,0,0,1,.075.248h0l-3.666,2.117a.132.132,0,0,1-.181-.048h0a.132.132,0,0,1,.047-.181h0L21.8,15.76A.123.123,0,0,1,21.857,15.742Z" transform="translate(-16.648 -1.984)"/><path class="c" d="M7.193,7.275a.133.133,0,0,1,.075.248h0L3.6,9.64a.132.132,0,0,1-.181-.048h0a.133.133,0,0,1,.048-.182h0L7.134,7.293A.123.123,0,0,1,7.193,7.275Z" transform="translate(12.68 -1.984)"/><path class="c" d="M18.212,7.277a.136.136,0,0,1,.053.016L21.931,9.41a.133.133,0,0,1,.05.181h0a.133.133,0,0,1-.181.049h0L18.132,7.523a.133.133,0,0,1-.049-.181h0A.132.132,0,0,1,18.212,7.277Z" transform="translate(-16.648 -1.984)"/><path class="c" d="M3.55,15.744a.127.127,0,0,1,.051.016l3.666,2.117a.132.132,0,0,1,.05.18h0a.133.133,0,0,1-.181.05h0L3.468,15.99a.133.133,0,0,1-.049-.181h0A.131.131,0,0,1,3.55,15.744Z" transform="translate(12.68 -1.984)"/><path class="c" d="M18,18.068a.137.137,0,0,1,.052.016.133.133,0,0,1,.05.181h0l-2.117,3.666a.133.133,0,0,1-.181.05h0a.132.132,0,0,1-.047-.181h0l2.115-3.666A.132.132,0,0,1,18,18.068Z" transform="translate(-10.45 -1.984)"/><path class="c" d="M9.538,3.4a.124.124,0,0,1,.053.018.132.132,0,0,1,.05.18h0L7.523,7.267a.133.133,0,0,1-.181.05h0a.133.133,0,0,1-.049-.181h0L9.41,3.469A.132.132,0,0,1,9.538,3.4Z" transform="translate(6.483 -1.984)"/></g><g transform="translate(18.736 59.894) rotate(180)"><path class="d" d="M.247,0A.246.246,0,0,1,.421.072L1.776,1.427a.247.247,0,0,1-.349.349L.072.421A.247.247,0,0,1,.247,0Z" transform="translate(9.453 14.556)"/><path class="d" d="M.212,0,.247,0A.247.247,0,0,1,.491.212L.8,2.372a.247.247,0,0,1-.488.076V2.442L0,.282A.247.247,0,0,1,.212,0Z" transform="translate(7.002 16.081)"/><path class="d" d="M1.776,1.776a.247.247,0,0,1-.349,0L.072.421A.247.247,0,1,1,.421.072L1.776,1.427a.247.247,0,0,1,0,.349Z" transform="translate(2.331 7.435)"/><path class="d" d="M2.652.592A.247.247,0,0,1,2.373.8h0L.212.491A.247.247,0,0,1,.247,0L.282,0l2.161.31a.247.247,0,0,1,.209.279Z" transform="translate(0 10.93)"/><path class="d" d="M1.611.072A.247.247,0,1,1,1.96.421h0L.419,1.963A.247.247,0,0,1,.07,1.614Z" transform="translate(2.392 14.297)"/><path class="d" d="M9.256,5.6l3.033,2.428a.674.674,0,0,1,.255.6.656.656,0,0,1-.452.548L7.71,10.578a.247.247,0,0,1-.15-.47l4.381-1.394a.165.165,0,0,0,.052-.285L8.733,5.818a.247.247,0,0,1-.039-.347l.018-.02,3.644-3.668L11.065.493,7.4,4.137a.247.247,0,0,1-.174.072H7.209a.247.247,0,0,1-.179-.092L4.421.856a.165.165,0,0,0-.285.053L.494,12.356l7.379-2.343a.247.247,0,0,1,.15.47L.644,12.826a.494.494,0,0,1-.621-.62L3.665.759A.658.658,0,0,1,4.806.547L7.244,3.594,10.717.143a.494.494,0,0,1,.7,0L12.7,1.435a.494.494,0,0,1,0,.7Z" transform="translate(5.886)"/></g><g transform="translate(24.509 21.542)"><path class="e" d="M176.588,386.03a.725.725,0,0,1,.725.725v3.819a.725.725,0,0,1-1.45,0v-3.819a.725.725,0,0,1,.725-.725Z" transform="translate(-144.751 -354.798)"/><path class="e" d="M321.492,386.03a.725.725,0,0,1,.725.725v3.819a.725.725,0,0,1-1.45,0v-3.819a.725.725,0,0,1,.725-.725Z" transform="translate(-303.692 -354.798)"/><path class="e" d="M19.473,92.324,21.9,91.35v-.62a4.812,4.812,0,0,1-1.265-1.016,4.357,4.357,0,0,1-4.5-6.063l1.09-2.514a2.32,2.32,0,0,0,.168-.592,6.86,6.86,0,0,1,13.581,0,2.322,2.322,0,0,0,.168.592l1.09,2.514a4.362,4.362,0,0,1-3.976,6.1,4.476,4.476,0,0,1-.523-.031,4.767,4.767,0,0,1-1.137.944v.69l2.428.974a4.937,4.937,0,0,1,.463.215,6.331,6.331,0,0,1,1.975-2.194l3.163-2.175a1.331,1.331,0,0,1,.467-1.078L36.375,86a1.329,1.329,0,0,1,.4-.235V84.3a6.5,6.5,0,0,1-2.6-4.206H34.1a2.505,2.505,0,0,1-1.959-4.07l-.518-3.685a4.917,4.917,0,0,1,4.135-5.533l.1-.015A6.4,6.4,0,0,1,39.6,63.959l.19-.054a7.39,7.39,0,0,1,6.135.971,11.82,11.82,0,0,1,2.2,2.339c.622,1.054-.868-.1-.868-.1s.041,1.3-.346.787a24.953,24.953,0,0,0-1.8-1.824,5.942,5.942,0,0,0-4.933-.781l-.19.054a5.011,5.011,0,0,0-3.635,5.117l.492-.423a1.227,1.227,0,0,1,1.571-.024l.645.521h3.681a4.337,4.337,0,0,1,4.332,4.332v.2a2.5,2.5,0,0,1,.559.065,8.463,8.463,0,0,0-.644-7.035.725.725,0,1,1,1.255-.727,9.921,9.921,0,0,1,.66,8.5,2.506,2.506,0,0,1-1.84,4.208H46.99a6.5,6.5,0,0,1-2.6,4.206v1.468a1.328,1.328,0,0,1,.4.235l1.285,1.091a1.33,1.33,0,0,1,.467,1.078L49.7,90.345a6.331,6.331,0,0,1,1.62,1.615,5.834,5.834,0,0,1,.873-.393l2.147-.761v-.572a4.551,4.551,0,0,1-2.1-3.118h-.325a2.306,2.306,0,0,1-1.753-3.8l-.129-1.533a6.285,6.285,0,0,1,8.7-6.3l1.445.608A4.415,4.415,0,0,1,63.6,81L63.275,83.3a2.306,2.306,0,0,1-1.747,3.812H61.2a4.548,4.548,0,0,1-1.89,2.981v.709l2.147.76a5.89,5.89,0,0,1,.88.4.725.725,0,1,1-.7,1.269,4.428,4.428,0,0,0-.663-.3l-1.855-.657a2.484,2.484,0,0,1-4.584,0l-1.855.657a4.371,4.371,0,0,0-.675.306,6.331,6.331,0,0,1,.442,2.324l.165,5.027c0,.4-.657.3-1.057.3s-.558.1-.558-.3V95.565a4.883,4.883,0,0,0-2.117-4.024l-3.02-2.077-1.238,1.655a1.39,1.39,0,0,1-1.515.5l-1.8-.548v9.1a.725.725,0,0,1-1.45,0v-9.1l-1.8.548a1.39,1.39,0,0,1-1.515-.5L35.3,89.463l-3.02,2.077a4.883,4.883,0,0,0-2.117,4.024v4.984c0,.4-.325.043-.725.043s-.725.358-.725-.043V95.565a6.334,6.334,0,0,1,.224-1.67,3.473,3.473,0,0,0-.458-.224l-2.106-.845a2.345,2.345,0,0,1-4.257,0l-2.106.845a3.476,3.476,0,0,0-2.192,3.241v3.638c0,.4-.372.043-.773.043s-.678.358-.678-.043V96.911a4.92,4.92,0,0,1,3.1-4.587ZM48.125,77.585a1.058,1.058,0,0,0-1.048-1.057v2.113A1.058,1.058,0,0,0,48.125,77.585Zm3.8,8.081h.262V83.952h-.262a.857.857,0,0,0,0,1.714Zm10.464-.857a.858.858,0,0,0-.857-.857h-.262v1.714h.262a.858.858,0,0,0,.857-.857Zm-2-4.543a4.6,4.6,0,0,1,.855,2.235h.288a2.314,2.314,0,0,1,.39.034l.244-1.738a2.962,2.962,0,0,0-2.34-3.309.728.728,0,0,1-.137-.042l-1.509-.634a4.834,4.834,0,0,0-6.693,4.847l.074.872a2.31,2.31,0,0,1,.364-.029h.268a1.222,1.222,0,0,1,1.214-1.1h1.791a5.919,5.919,0,0,0,3.556-1.2l.205-.156a1.011,1.011,0,0,1,1.43.213Zm-1.175.851h0Zm.6,1.867a3.163,3.163,0,0,0-.368-1.488,7.381,7.381,0,0,1-4.253,1.359H53.634v3.513a3.091,3.091,0,1,0,6.182,0Zm-2.987,9.368a1.035,1.035,0,0,0,1.034-1.034v-.553a4.551,4.551,0,0,1-2.068.049v.5A1.035,1.035,0,0,0,56.829,92.353ZM34.088,78.642V76.529a1.057,1.057,0,0,0,0,2.113Zm-1.032-6.506.425,3.019a2.5,2.5,0,0,1,.608-.077v-.059A5.652,5.652,0,0,1,35.1,71.786a6.385,6.385,0,0,1,.02-3.308A3.466,3.466,0,0,0,33.056,72.136Zm12.571,6.9V74.877A2.885,2.885,0,0,0,42.745,72H38.808a.725.725,0,0,1-.456-.161l-.7-.565-.65.558a4.2,4.2,0,0,0-1.465,3.192v4.02a5.044,5.044,0,1,0,10.089,0Zm-5.044,6.495a6.461,6.461,0,0,1-2.354-.443v.929l2.354,1.154,2.354-1.154v-.929A6.462,6.462,0,0,1,40.583,85.534Zm2.907,4.68,1.562-2.089-1.141-.968-2.6,1.276V89.55Zm-5.814,0,2.182-.664V88.434l-2.6-1.276-1.141.968Zm-7.143-3.052a2.872,2.872,0,0,0,.365-2.934l-1.09-2.514a3.765,3.765,0,0,1-.273-.963,5.41,5.41,0,0,0-10.71,0,3.768,3.768,0,0,1-.273.963l-1.09,2.514a2.913,2.913,0,0,0,2.3,4.046,6.148,6.148,0,0,1-.313-1.486c-.033-.4.167-.165.567-.2s.851-.281.884.118a3.453,3.453,0,0,0,3.284,3.166,3.287,3.287,0,0,0,3.284-3.284V83.111a4,4,0,0,0-.645-2.174,5.673,5.673,0,0,1-3.277,1.157l-2.646.07V86.59c0,.4-1.45.4-1.45,0V81.967a1.242,1.242,0,0,1,1.216-1.248l2.842-.075a4.213,4.213,0,0,0,2.534-.938l.187-.152a1.06,1.06,0,0,1,1.5.16,5.456,5.456,0,0,1,1.192,3.4V86.59a4.706,4.706,0,0,1-.31,1.682,2.869,2.869,0,0,0,1.928-1.11Zm-6.286,5.574a.9.9,0,0,0,.9-.9v-.615a4.737,4.737,0,0,1-.963.1,4.66,4.66,0,0,1-.829-.075v.592A.9.9,0,0,0,24.248,92.736Z" transform="translate(-15.764 -63.624)"/><path class="e" d="M1.146,376.158a5.724,5.724,0,0,1,2.264,2.481A5.809,5.809,0,0,1,4,381.19v3.477c0,.4-.378,0-.778,0s-.672.4-.672,0V381.19a4.369,4.369,0,0,0-.441-1.919A4.351,4.351,0,0,0,.442,377.4c-1.308-.888.7-.21.7-.21S-.384,375.349,1.146,376.158Z" transform="translate(45.603 -347.726)"/><line class="f" x1="49.822" transform="translate(0.075 37.625)"/></g></g></svg>