<svg width="12" height="12" viewBox="0 0 12 12" xmlns="http://www.w3.org/2000/svg">
    <path d="M4.345 8.845a1.915 1.915 0 0 1-1.89 1.655c-.95 0-1.756-.706-1.89-1.655H0V2.238c0-.304.244-.55.545-.55h7.637c.301 0 .545.246.545.55V3.34h1.637L12 5.572v3.273h-1.11A1.915 1.915 0 0 1 9 10.5c-.95 0-1.756-.706-1.89-1.655H4.345zm3.291-6.056H1.091V7.22a1.898 1.898 0 0 1 3.089.523h3.095c.091-.195.214-.371.361-.523V2.789zm1.091 3.303h2.182v-.157L9.814 4.44H8.727v1.652zM9 9.395c.452 0 .818-.37.818-.826A.822.822 0 0 0 9 7.743a.822.822 0 0 0-.818.826c0 .457.366.826.818.826zM3.273 8.57a.827.827 0 0 0-.41-.716.812.812 0 0 0-.818 0 .827.827 0 0 0 .41 1.541c.451 0 .818-.37.818-.825z" fill="#2D4190" fill-rule="nonzero"/>
</svg>
