<svg width="12" height="12" viewBox="0 0 12 12" xmlns="http://www.w3.org/2000/svg">
    <path d="M6 1.125a6.095 6.095 0 0 1 6 4.969 6.095 6.095 0 0 1-6 4.968 6.095 6.095 0 0 1-6-4.968 6.095 6.095 0 0 1 6-4.969zm0 8.833a4.99 4.99 0 0 0 4.868-3.864A4.99 4.99 0 0 0 6 2.234a4.99 4.99 0 0 0-4.868 3.86A4.99 4.99 0 0 0 6 9.958zm0-1.38a2.49 2.49 0 0 1-2.496-2.484A2.49 2.49 0 0 1 6 3.609a2.49 2.49 0 0 1 2.496 2.485A2.49 2.49 0 0 1 6 8.578zm0-1.104c.766 0 1.386-.618 1.386-1.38 0-.763-.62-1.38-1.386-1.38-.766 0-1.386.617-1.386 1.38 0 .762.62 1.38 1.386 1.38z" fill="#2D4190" fill-rule="nonzero"/>
</svg>
