<svg width="12" height="12" viewBox="0 0 12 12" xmlns="http://www.w3.org/2000/svg">
    <path d="M6.955.563c.303 0 .594.12.808.335l2.76 2.763c.214.215.334.506.334.81v4.105H12V9.72H7.357a2.287 2.287 0 0 1-4.427 0H.57A.572.572 0 0 1 0 9.148v-7.44C0 1.074.511.562 1.143.562h5.812zm-1.812 7.44C4.51 8.003 4 8.516 4 9.148a1.143 1.143 0 1 0 2.286 0c0-.632-.512-1.145-1.143-1.145zm1.812-6.296H1.143v6.869h1.786a2.287 2.287 0 0 1 2.214-1.717c1.065 0 1.96.73 2.214 1.717h2.357V4.47L6.955 1.707zm-.098 1.145v3.434H2.286V2.852h4.571zM5.714 3.997H3.43V5.14h2.285V3.997z" fill="#2D4190" fill-rule="nonzero"/>
</svg>
