<svg width="12" height="12" viewBox="0 0 12 12" xmlns="http://www.w3.org/2000/svg">
    <path d="m5.19 0 4.394 1.368a.6.6 0 0 1 .423.573V3h1.204c.332 0 .601.269.601.6v4.8c0 .331-.269.6-.601.6H9.272a3.6 3.6 0 0 1-.843.799L5.191 12 1.952 9.8A3.597 3.597 0 0 1 .375 6.823V1.941a.6.6 0 0 1 .423-.572L5.19 0zm0 1.256L1.58 2.382v4.442c0 .745.346 1.447.938 1.902l.114.081 2.56 1.741L7.467 9H4.59a.601.601 0 0 1-.602-.6V3.6c0-.331.27-.6.602-.6h4.214v-.618L5.19 1.256zM5.19 6v1.8h5.419V6H5.19zm0-1.2h5.419v-.6H5.19v.6z" fill="#2D4190" fill-rule="nonzero"/>
</svg>
