<svg width="12" height="12" viewBox="0 0 12 12" xmlns="http://www.w3.org/2000/svg">
    <path d="M11.69 6.382c.172 0 .31.14.31.312v4.994a.31.31 0 0 1-.31.312H6.128a.31.31 0 0 1-.309-.312V6.694a.31.31 0 0 1 .31-.312h5.563zm-6.338.73v1.122a3.203 3.203 0 0 0-2.925.407 3.223 3.223 0 0 0-1.357 2.63H0c0-1.329.612-2.582 1.66-3.396a4.272 4.272 0 0 1 3.692-.763zm5.785 1.89H6.681v2.25h4.456v-2.25zm-.56.938v.624H9.34V9.94h1.236zm.56-2.872H6.681v1.125h4.456V7.068zM4.281 0a3.215 3.215 0 0 1 3.211 3.22c0 1.78-1.436 3.22-3.21 3.22A3.215 3.215 0 0 1 1.07 3.22C1.07 1.441 2.507 0 4.281 0zm0 1.073c-1.182 0-2.14.961-2.14 2.147s.958 2.147 2.14 2.147c1.183 0 2.141-.96 2.141-2.147a2.143 2.143 0 0 0-2.14-2.147z" fill="#2D4190" fill-rule="nonzero"/>
</svg>
