<svg xmlns="http://www.w3.org/2000/svg" width="56" height="56" viewBox="0 0 56 56">
  <g id="Icon" transform="translate(0 0.225)">
    <circle id="Ellipse_1" data-name="Ellipse 1" cx="28" cy="28" r="28" transform="translate(0 -0.225)" fill="#f5f7fc"/>
    <g id="Group_162060" data-name="Group 162060" transform="translate(15.319 13.448)">
      <path id="Path_1278" data-name="Path 1278" d="M33.206,50.348a1.164,1.164,0,0,0-.6-.846l-5.833-2.9c-.786,1.6-1.813,3.6-3.2,6.014a3.632,3.632,0,0,1-3.173,1.844,3.68,3.68,0,0,1-3.2-1.844c-1.269-2.176-2.236-3.989-2.962-5.5l-3.264.544a1.133,1.133,0,0,0-.816.6L7.668,53.853a1.066,1.066,0,0,0,.453,1.39l12,6.588a.993.993,0,0,0,.514.121.514.514,0,0,0,.212-.03L31.09,59.807a1.05,1.05,0,0,0,.756-.574,1.128,1.128,0,0,0,.03-.937l-1.995-4.473,2.992-2.569A.9.9,0,0,0,33.206,50.348Z" transform="translate(-7.568 -33.302)" fill="#413a90"/>
      <path id="Path_1279" data-name="Path 1279" d="M36.437,20.854c1.874-3.264,5.138-9.278,5.138-11.817a6.437,6.437,0,0,0-12.875,0c0,2.539,3.264,8.553,5.138,11.817A1.5,1.5,0,0,0,36.437,20.854ZM32.145,9.007A2.992,2.992,0,1,1,35.137,12,3,3,0,0,1,32.145,9.007Z" transform="translate(-22.313 -2.6)" fill="#413a90"/>
    </g>
  </g>
</svg>
