<svg xmlns="http://www.w3.org/2000/svg" width="56" height="56" viewBox="0 0 56 56">
  <g id="Icon" transform="translate(-0.098 0.127)">
    <circle id="Ellipse_1" data-name="Ellipse 1" cx="28" cy="28" r="28" transform="translate(0.098 -0.127)" fill="#f5f7fc"/>
    <g id="Group_162061" data-name="Group 162061" transform="translate(13.732 16.183)">
      <g id="Group_161624" data-name="Group 161624">
        <path id="Path_1280" data-name="Path 1280" d="M17.456,11H4.029A1.535,1.535,0,0,0,2.5,12.529V32.85a1.535,1.535,0,0,0,1.529,1.529H16.917a1.754,1.754,0,0,0,.39-.06,3.434,3.434,0,0,1-.48-2.038l.18-2.4v-.06a6.031,6.031,0,0,1,1.439-3.237V12.019A.968.968,0,0,0,17.456,11ZM9.334,13.907a.269.269,0,0,1,.27-.27h1.828a.29.29,0,0,1,.27.27v1.738a.269.269,0,0,1-.27.27H9.6a.269.269,0,0,1-.27-.27Zm0,4.616a.269.269,0,0,1,.27-.27h1.828a.29.29,0,0,1,.27.27v1.738a.269.269,0,0,1-.27.27H9.6a.269.269,0,0,1-.27-.27Zm0,4.616a.269.269,0,0,1,.27-.27h1.828a.29.29,0,0,1,.27.27v1.738a.269.269,0,0,1-.27.27H9.6a.269.269,0,0,1-.27-.27ZM4.868,13.907a.269.269,0,0,1,.27-.27H6.966a.269.269,0,0,1,.27.27v1.738a.269.269,0,0,1-.27.27H5.138a.269.269,0,0,1-.27-.27Zm0,4.616a.269.269,0,0,1,.27-.27H6.966a.269.269,0,0,1,.27.27v1.738a.269.269,0,0,1-.27.27H5.138a.269.269,0,0,1-.27-.27Zm0,6.354V23.139a.269.269,0,0,1,.27-.27H6.966a.269.269,0,0,1,.27.27v1.738a.269.269,0,0,1-.27.27H5.138A.269.269,0,0,1,4.868,24.877Zm4.975,6.864a.269.269,0,0,1-.27.27H7.146a.269.269,0,0,1-.27-.27V27.754a.269.269,0,0,1,.27-.27H9.573a.269.269,0,0,1,.27.27Zm4.256,0a.269.269,0,0,1-.27.27H11.4a.29.29,0,0,1-.27-.27V27.754a.269.269,0,0,1,.27-.27h2.428a.269.269,0,0,1,.27.27Zm2.008-6.864a.269.269,0,0,1-.27.27H14.009a.269.269,0,0,1-.27-.27V23.139a.269.269,0,0,1,.27-.27h1.828a.269.269,0,0,1,.27.27Zm0-4.616a.269.269,0,0,1-.27.27H14.009a.269.269,0,0,1-.27-.27V18.523a.269.269,0,0,1,.27-.27h1.828a.269.269,0,0,1,.27.27Zm0-4.616a.269.269,0,0,1-.27.27H14.009a.269.269,0,0,1-.27-.27V13.907a.269.269,0,0,1,.27-.27h1.828a.269.269,0,0,1,.27.27Z" transform="translate(-2.5 -11)" fill="#413a90"/>
        <path id="Path_1281" data-name="Path 1281" d="M68.173,65.016a4.508,4.508,0,0,0-3.447-3.836l-1.8,3.776-.39-2.548h.27a.269.269,0,0,0,.27-.27V61.27a.269.269,0,0,0-.27-.27H61.4a.269.269,0,0,0-.27.27v.869a.269.269,0,0,0,.27.27h.27l-.39,2.548-1.8-3.776a4.439,4.439,0,0,0-3.417,3.836l-.18,2.428a1.8,1.8,0,0,0,1.8,1.948h8.842a1.819,1.819,0,0,0,1.828-1.978Z" transform="translate(-39.879 -46.014)" fill="#413a90"/>
        <circle id="Ellipse_65" data-name="Ellipse 65" cx="3.986" cy="3.986" r="3.986" transform="translate(18.253 6.234)" fill="#413a90"/>
      </g>
    </g>
  </g>
</svg>
