<svg xmlns="http://www.w3.org/2000/svg" width="56" height="56" viewBox="0 0 56 56">
  <g id="Icon" transform="translate(-0.146 0.01)">
    <circle id="Ellipse_1" data-name="Ellipse 1" cx="28" cy="28" r="28" transform="translate(0.146 -0.01)" fill="#f5f7fc"/>
    <g id="Group_162058" data-name="Group 162058" transform="translate(15.684 15.616)">
      <path id="Union_11" data-name="Union 11" d="M4.523,11.727H.45A.452.452,0,0,1,0,11.272V.452A.451.451,0,0,1,.408,0H3.951V4.177a.452.452,0,0,0,.7.378L5.859,3.76l1.212.795a.451.451,0,0,0,.7-.378V0h3.5a.453.453,0,0,1,.45.452v5.78L11.7,6.226a.5.5,0,0,1,.019.137v4.864a.5.5,0,0,1-.5.5ZM6.111,2.839a.452.452,0,0,0-.5,0l-.756.5V0H6.865V3.337Z" transform="translate(5.862)" fill="#413a90" stroke="rgba(0,0,0,0)" stroke-width="1"/>
      <path id="Union_12" data-name="Union 12" d="M4.523,11.727H.45A.452.452,0,0,1,0,11.272V.452A.451.451,0,0,1,.408,0H3.951V4.177a.452.452,0,0,0,.7.378L5.859,3.76l1.212.795a.451.451,0,0,0,.7-.378V0h3.5a.453.453,0,0,1,.45.452v5.78L11.7,6.226a.5.5,0,0,1,.019.137v4.864a.5.5,0,0,1-.5.5ZM6.111,2.839a.452.452,0,0,0-.5,0l-.756.5V0H6.865V3.337Z" transform="translate(0 12.707)" fill="#413a90" stroke="rgba(0,0,0,0)" stroke-width="1"/>
      <path id="Union_13" data-name="Union 13" d="M4.523,11.727H.45A.452.452,0,0,1,0,11.272V.452A.451.451,0,0,1,.408,0H3.951V4.177a.452.452,0,0,0,.7.378L5.859,3.76l1.212.795a.451.451,0,0,0,.7-.378V0h3.5a.453.453,0,0,1,.45.452v5.78L11.7,6.226a.5.5,0,0,1,.019.137v4.864a.5.5,0,0,1-.5.5ZM6.111,2.839a.452.452,0,0,0-.5,0l-.756.5V0H6.865V3.337Z" transform="translate(12.707 12.707)" fill="#413a90" stroke="rgba(0,0,0,0)" stroke-width="1"/>
    </g>
  </g>
</svg>
