<svg xmlns="http://www.w3.org/2000/svg" width="71.81" height="62.5" viewBox="0 0 71.81 62.5"><defs><style>.a{opacity:0.449;}.b{fill:#8981bd;opacity:0.182;}.c,.d,.e{fill:#6259a4;}.c,.d{stroke:#6259a4;}.d{stroke-width:0.4px;}</style></defs><g transform="translate(-542.432 -426.5)"><g class="a" transform="translate(156 18)"><path class="b" d="M-4331.122,37a27.824,27.824,0,0,1-9.7-1.759,26.354,26.354,0,0,1-5.195-2.578h13.365c0-.035.187-4.444,0-7.89a61.627,61.627,0,0,1,.078-6.612v-.015a12.461,12.461,0,0,0-.079-3.813,1.976,1.976,0,0,1,.157-2.054c.1-.16.169-.274.128-.357-.049-.1-.25-.153-.716-.195a.816.816,0,0,1-.751-.419c-.3-.7.722-2.018.751-2.055h0c-.116-.044-.7-.287-.742-.693-.034-.3.217-.617.747-.948a.849.849,0,0,0,.452-.58c.06-.431-.362-.9-.734-1.31-.322-.357-.625-.693-.565-.946.029-.122.137-.217.332-.293.379-.147.237-.687.086-1.26a1.959,1.959,0,0,1-.086-1.291.559.559,0,0,0,.093-.537c-.143-.277-.673-.324-1.142-.366-.333-.03-.621-.055-.7-.158a.1.1,0,0,1-.022-.081h-2.589l-.365-2.2a16.886,16.886,0,0,0,.825-5.44c-.026-.7-.941-1.529-2.449-2.23a12.383,12.383,0,0,0-5.031-1.145c-.128,0-.256,0-.38.008a40.865,40.865,0,0,0-5.557.636,27.408,27.408,0,0,1,8.859-6.152A27.313,27.313,0,0,1-4331.122-18a27.327,27.327,0,0,1,10.7,2.161,27.41,27.41,0,0,1,8.741,5.894,27.411,27.411,0,0,1,5.894,8.741,27.335,27.335,0,0,1,2.161,10.7,27.335,27.335,0,0,1-2.161,10.7,27.411,27.411,0,0,1-5.894,8.741,27.41,27.41,0,0,1-8.741,5.894A27.327,27.327,0,0,1-4331.122,37Z" transform="translate(4759.622 434)"/></g><g transform="translate(584.016 425.016)"><path class="c" d="M12.7,1.984a.133.133,0,0,0-.131.133V6.349a.132.132,0,1,0,.264,0h0V2.117a.133.133,0,0,0-.132-.133Z"/><path class="c" d="M12.7,18.918a.133.133,0,0,0-.131.133v4.232a.132.132,0,1,0,.264,0h0V19.051a.132.132,0,0,0-.132-.133Z"/><path class="c" d="M19.051,12.568a.133.133,0,0,0-.133.132h0a.133.133,0,0,0,.133.131h4.232a.132.132,0,1,0,0-.264H19.051Z"/><path class="c" d="M2.117,12.568a.133.133,0,0,0-.133.132h0a.133.133,0,0,0,.133.131H6.35a.132.132,0,1,0,0-.264H2.117Z"/><path class="c" d="M18,3.4a.133.133,0,0,0-.123.067L15.76,7.135a.132.132,0,0,0,.048.181h0a.132.132,0,0,0,.181-.048h0L18.1,3.6a.131.131,0,0,0-.046-.181h0A.123.123,0,0,0,18,3.4Z"/><path class="c" d="M9.533,18.066a.133.133,0,0,0-.123.067L7.293,21.8a.132.132,0,0,0,.048.181h0a.132.132,0,0,0,.181-.048h0l2.118-3.666a.133.133,0,0,0-.048-.181h0A.123.123,0,0,0,9.533,18.066Z"/><path class="c" d="M18.207,15.742a.133.133,0,0,0-.075.248h0L21.8,18.107a.132.132,0,0,0,.181-.048h0a.132.132,0,0,0-.047-.181h0L18.266,15.76A.123.123,0,0,0,18.207,15.742Z"/><path class="c" d="M3.543,7.275a.133.133,0,0,0-.075.248h0L7.135,9.64a.132.132,0,0,0,.181-.048h0a.133.133,0,0,0-.048-.182h0L3.6,7.293A.123.123,0,0,0,3.543,7.275Z"/><path class="c" d="M21.852,7.277a.136.136,0,0,0-.053.016L18.133,9.41a.133.133,0,0,0-.05.181h0a.133.133,0,0,0,.181.049h0l3.666-2.117a.133.133,0,0,0,.049-.181h0A.132.132,0,0,0,21.852,7.277Z"/><path class="c" d="M7.186,15.744a.127.127,0,0,0-.051.016L3.469,17.877a.132.132,0,0,0-.05.18h0a.133.133,0,0,0,.181.05h0L7.268,15.99a.133.133,0,0,0,.049-.181h0A.131.131,0,0,0,7.186,15.744Z"/><path class="c" d="M15.861,18.068a.137.137,0,0,0-.052.016.133.133,0,0,0-.05.181h0l2.117,3.666a.133.133,0,0,0,.181.05h0a.132.132,0,0,0,.047-.181h0L15.99,18.133A.132.132,0,0,0,15.861,18.068Z"/><path class="c" d="M7.395,3.4a.124.124,0,0,0-.053.018.132.132,0,0,0-.05.18h0L9.41,7.267a.133.133,0,0,0,.181.05h0a.133.133,0,0,0,.049-.181h0L7.523,3.469A.132.132,0,0,0,7.395,3.4Z"/></g><g transform="translate(567.048 440.005)"><path class="d" d="M258.3,86.745a.246.246,0,0,0,.175-.072l1.355-1.355a.247.247,0,0,0-.349-.349l-1.355,1.355a.247.247,0,0,0,.174.421Z" transform="translate(-220.386 -54.412)"/><path class="d" d="M198.687,30.806l.035,0a.247.247,0,0,0,.244-.212l.31-2.161a.247.247,0,0,0-.488-.076v.006l-.31,2.161a.247.247,0,0,0,.209.279Z" transform="translate(-163.257 0)"/><path class="d" d="M86.673,258.126a.247.247,0,0,0-.349,0l-1.355,1.355a.247.247,0,1,0,.349.349l1.355-1.354a.247.247,0,0,0,0-.349Z" transform="translate(-54.35 -220.447)"/><path class="d" d="M30.867,198.686a.247.247,0,0,0-.279-.209h0l-2.161.31a.247.247,0,0,0,.035.491l.035,0,2.161-.31a.247.247,0,0,0,.209-.279Z" transform="translate(0 -163.318)"/><path class="d" d="M87.983,88.676a.247.247,0,1,0,.349-.349h0l-1.541-1.541a.247.247,0,0,0-.349.349Z" transform="translate(-55.765 -56.156)"/><path class="d" d="M180.6,178.575l3.033-2.428a.674.674,0,0,0,.255-.6.656.656,0,0,0-.452-.548l-4.381-1.394a.247.247,0,0,0-.15.47l4.381,1.394a.165.165,0,0,1,.052.285l-3.261,2.61a.247.247,0,0,0-.039.347l.018.02L183.7,182.4l-1.291,1.291-3.668-3.644a.247.247,0,0,0-.174-.072h-.014a.247.247,0,0,0-.179.092l-2.61,3.261a.165.165,0,0,1-.285-.053l-3.641-11.447,7.379,2.343a.247.247,0,0,0,.15-.47l-7.38-2.343a.494.494,0,0,0-.621.62l3.642,11.447a.658.658,0,0,0,1.141.212l2.438-3.046,3.473,3.451a.494.494,0,0,0,.7,0l1.291-1.291a.494.494,0,0,0,0-.7Z" transform="translate(-137.241 -137.29)"/></g><g transform="translate(534.432 429.723)"><path class="e" d="M50.7,53.826H48.954V25.07a2.614,2.614,0,0,0-2.614-2.614H43.726V14.614A2.614,2.614,0,0,0,41.112,12H18.456a2.614,2.614,0,0,0-2.614,2.614v13.07H13.228A2.614,2.614,0,0,0,10.614,30.3V53.826H8.871a.871.871,0,1,0,0,1.743H50.7a.871.871,0,0,0,0-1.743ZM47.211,25.07V53.826H33.27V30.3a2.614,2.614,0,0,0-2.614-2.614H26.3V25.07a.871.871,0,0,1,.871-.871H46.34A.871.871,0,0,1,47.211,25.07ZM17.585,14.614a.871.871,0,0,1,.871-.871H41.112a.871.871,0,0,1,.871.871v7.842H27.17a2.614,2.614,0,0,0-2.614,2.614v2.614H17.585ZM12.357,30.3a.871.871,0,0,1,.871-.871H30.655a.871.871,0,0,1,.871.871V53.826H12.357Z"/><path class="e" d="M80.871,204a.871.871,0,0,0-.871.871v1.743a.871.871,0,1,0,1.743,0v-1.743A.871.871,0,0,0,80.871,204Z" transform="translate(-64.158 -171.087)"/><path class="e" d="M128.871,204a.871.871,0,0,0-.871.871v1.743a.871.871,0,1,0,1.743,0v-1.743A.871.871,0,0,0,128.871,204Z" transform="translate(-106.93 -171.087)"/><path class="e" d="M176.871,204a.871.871,0,0,0-.871.871v1.743a.871.871,0,1,0,1.743,0v-1.743A.871.871,0,0,0,176.871,204Z" transform="translate(-149.701 -171.087)"/><path class="e" d="M80.871,252a.871.871,0,0,0-.871.871v1.743a.871.871,0,1,0,1.743,0v-1.743A.871.871,0,0,0,80.871,252Z" transform="translate(-64.158 -213.859)"/><path class="e" d="M128.871,252a.871.871,0,0,0-.871.871v1.743a.871.871,0,1,0,1.743,0v-1.743A.871.871,0,0,0,128.871,252Z" transform="translate(-106.93 -213.859)"/><path class="e" d="M176.871,252a.871.871,0,0,0-.871.871v1.743a.871.871,0,1,0,1.743,0v-1.743A.871.871,0,0,0,176.871,252Z" transform="translate(-149.701 -213.859)"/><path class="e" d="M80.871,300a.871.871,0,0,0-.871.871v1.743a.871.871,0,1,0,1.743,0v-1.743A.871.871,0,0,0,80.871,300Z" transform="translate(-64.158 -256.631)"/><path class="e" d="M128.871,300a.871.871,0,0,0-.871.871v1.743a.871.871,0,1,0,1.743,0v-1.743A.871.871,0,0,0,128.871,300Z" transform="translate(-106.93 -256.631)"/><path class="e" d="M176.871,300a.871.871,0,0,0-.871.871v1.743a.871.871,0,1,0,1.743,0v-1.743A.871.871,0,0,0,176.871,300Z" transform="translate(-149.701 -256.631)"/><path class="e" d="M272.871,156a.871.871,0,0,0-.871.871v1.743a.871.871,0,0,0,1.743,0v-1.743A.871.871,0,0,0,272.871,156Z" transform="translate(-235.245 -128.315)"/><path class="e" d="M320,156.871v1.743a.871.871,0,1,0,1.743,0v-1.743a.871.871,0,1,0-1.743,0Z" transform="translate(-278.017 -128.315)"/><path class="e" d="M272.871,204a.871.871,0,0,0-.871.871v1.743a.871.871,0,0,0,1.743,0v-1.743A.871.871,0,0,0,272.871,204Z" transform="translate(-235.245 -171.087)"/><path class="e" d="M320.871,204a.871.871,0,0,0-.871.871v1.743a.871.871,0,1,0,1.743,0v-1.743A.871.871,0,0,0,320.871,204Z" transform="translate(-278.017 -171.087)"/><path class="e" d="M272.871,252a.871.871,0,0,0-.871.871v1.743a.871.871,0,1,0,1.743,0v-1.743A.871.871,0,0,0,272.871,252Z" transform="translate(-235.245 -213.859)"/><path class="e" d="M320.871,252a.871.871,0,0,0-.871.871v1.743a.871.871,0,1,0,1.743,0v-1.743A.871.871,0,0,0,320.871,252Z" transform="translate(-278.017 -213.859)"/><path class="e" d="M272.871,300a.871.871,0,0,0-.871.871v1.743a.871.871,0,1,0,1.743,0v-1.743A.871.871,0,0,0,272.871,300Z" transform="translate(-235.245 -256.631)"/><path class="e" d="M320.871,300a.871.871,0,0,0-.871.871v1.743a.871.871,0,1,0,1.743,0v-1.743A.871.871,0,0,0,320.871,300Z" transform="translate(-278.017 -256.631)"/><path class="e" d="M128.871,52a.871.871,0,0,0-.871.871v1.743a.871.871,0,1,0,1.743,0V52.871A.871.871,0,0,0,128.871,52Z" transform="translate(-106.93 -35.643)"/><path class="e" d="M128.871,108a.871.871,0,0,0-.871.871v1.743a.871.871,0,1,0,1.743,0v-1.743A.871.871,0,0,0,128.871,108Z" transform="translate(-106.93 -85.544)"/><path class="e" d="M176.871,55.485a.871.871,0,0,0,.871-.871V52.871a.871.871,0,1,0-1.743,0v1.743A.871.871,0,0,0,176.871,55.485Z" transform="translate(-149.701 -35.643)"/><path class="e" d="M224.871,55.485a.871.871,0,0,0,.871-.871V52.871a.871.871,0,1,0-1.743,0v1.743A.871.871,0,0,0,224.871,55.485Z" transform="translate(-192.473 -35.643)"/><path class="e" d="M272.871,55.485a.871.871,0,0,0,.871-.871V52.871a.871.871,0,1,0-1.743,0v1.743A.871.871,0,0,0,272.871,55.485Z" transform="translate(-235.245 -35.643)"/></g></g></svg>