<svg xmlns="http://www.w3.org/2000/svg" width="62.572" height="62.5" viewBox="0 0 62.572 62.5"><defs><style>.a{opacity:0.449;}.b{fill:#8981bd;opacity:0.182;}.c,.d,.f{fill:#6259a4;}.c,.d{stroke:#6259a4;}.d{stroke-width:0.4px;}.e{fill:#fff;}</style></defs><g transform="translate(-551.669 -426.5)"><g class="a" transform="translate(156 18)"><path class="b" d="M27.5,0a27.5,27.5,0,0,1,0,55,27.839,27.839,0,0,1-9.7-1.759A27.5,27.5,0,0,1,27.5,0Z" transform="translate(401 416)"/></g><g transform="translate(584.016 425.016)"><path class="c" d="M12.7,1.984a.133.133,0,0,0-.131.133V6.349a.132.132,0,1,0,.264,0h0V2.117a.133.133,0,0,0-.132-.133Z"/><path class="c" d="M12.7,18.918a.133.133,0,0,0-.131.133v4.232a.132.132,0,1,0,.264,0h0V19.051a.132.132,0,0,0-.132-.133Z"/><path class="c" d="M19.051,12.568a.133.133,0,0,0-.133.132h0a.133.133,0,0,0,.133.131h4.232a.132.132,0,1,0,0-.264H19.051Z"/><path class="c" d="M2.117,12.568a.133.133,0,0,0-.133.132h0a.133.133,0,0,0,.133.131H6.35a.132.132,0,1,0,0-.264H2.117Z"/><path class="c" d="M18,3.4a.133.133,0,0,0-.123.067L15.76,7.135a.132.132,0,0,0,.048.181h0a.132.132,0,0,0,.181-.048h0L18.1,3.6a.131.131,0,0,0-.046-.181h0A.123.123,0,0,0,18,3.4Z"/><path class="c" d="M9.533,18.066a.133.133,0,0,0-.123.067L7.293,21.8a.132.132,0,0,0,.048.181h0a.132.132,0,0,0,.181-.048h0l2.118-3.666a.133.133,0,0,0-.048-.181h0A.123.123,0,0,0,9.533,18.066Z"/><path class="c" d="M18.207,15.742a.133.133,0,0,0-.075.248h0L21.8,18.107a.132.132,0,0,0,.181-.048h0a.132.132,0,0,0-.047-.181h0L18.266,15.76A.123.123,0,0,0,18.207,15.742Z"/><path class="c" d="M3.543,7.275a.133.133,0,0,0-.075.248h0L7.135,9.64a.132.132,0,0,0,.181-.048h0a.133.133,0,0,0-.048-.182h0L3.6,7.293A.123.123,0,0,0,3.543,7.275Z"/><path class="c" d="M21.852,7.277a.136.136,0,0,0-.053.016L18.133,9.41a.133.133,0,0,0-.05.181h0a.133.133,0,0,0,.181.049h0l3.666-2.117a.133.133,0,0,0,.049-.181h0A.132.132,0,0,0,21.852,7.277Z"/><path class="c" d="M7.186,15.744a.127.127,0,0,0-.051.016L3.469,17.877a.132.132,0,0,0-.05.18h0a.133.133,0,0,0,.181.05h0L7.268,15.99a.133.133,0,0,0,.049-.181h0A.131.131,0,0,0,7.186,15.744Z"/><path class="c" d="M15.861,18.068a.137.137,0,0,0-.052.016.133.133,0,0,0-.05.181h0l2.117,3.666a.133.133,0,0,0,.181.05h0a.132.132,0,0,0,.047-.181h0L15.99,18.133A.132.132,0,0,0,15.861,18.068Z"/><path class="c" d="M7.395,3.4a.124.124,0,0,0-.053.018.132.132,0,0,0-.05.18h0L9.41,7.267a.133.133,0,0,0,.181.05h0a.133.133,0,0,0,.049-.181h0L7.523,3.469A.132.132,0,0,0,7.395,3.4Z"/></g><g transform="translate(567.048 440.005)"><path class="d" d="M258.3,86.745a.246.246,0,0,0,.175-.072l1.355-1.355a.247.247,0,0,0-.349-.349l-1.355,1.355a.247.247,0,0,0,.174.421Z" transform="translate(-220.386 -54.412)"/><path class="d" d="M198.687,30.806l.035,0a.247.247,0,0,0,.244-.212l.31-2.161a.247.247,0,0,0-.488-.076v.006l-.31,2.161a.247.247,0,0,0,.209.279Z" transform="translate(-163.257 0)"/><path class="d" d="M86.673,258.126a.247.247,0,0,0-.349,0l-1.355,1.355a.247.247,0,1,0,.349.349l1.355-1.354a.247.247,0,0,0,0-.349Z" transform="translate(-54.35 -220.447)"/><path class="d" d="M30.867,198.686a.247.247,0,0,0-.279-.209h0l-2.161.31a.247.247,0,0,0,.035.491l.035,0,2.161-.31a.247.247,0,0,0,.209-.279Z" transform="translate(0 -163.318)"/><path class="d" d="M87.983,88.676a.247.247,0,1,0,.349-.349h0l-1.541-1.541a.247.247,0,0,0-.349.349Z" transform="translate(-55.765 -56.156)"/><path class="d" d="M180.6,178.575l3.033-2.428a.674.674,0,0,0,.255-.6.656.656,0,0,0-.452-.548l-4.381-1.394a.247.247,0,0,0-.15.47l4.381,1.394a.165.165,0,0,1,.052.285l-3.261,2.61a.247.247,0,0,0-.039.347l.018.02L183.7,182.4l-1.291,1.291-3.668-3.644a.247.247,0,0,0-.174-.072h-.014a.247.247,0,0,0-.179.092l-2.61,3.261a.165.165,0,0,1-.285-.053l-3.641-11.447,7.379,2.343a.247.247,0,0,0,.15-.47l-7.38-2.343a.494.494,0,0,0-.621.62l3.642,11.447a.658.658,0,0,0,1.141.212l2.438-3.046,3.473,3.451a.494.494,0,0,0,.7,0l1.291-1.291a.494.494,0,0,0,0-.7Z" transform="translate(-137.241 -137.29)"/></g><g transform="translate(383.169 407.153)"><g transform="translate(168.5 37.975)"><path class="e" d="M559.956,445.7l2.407,1.631L565,445.7l2.034,1.3.429.529,2.7-1.833,2.339,1.439h.494l2.227-1.439,2.578,1.631,2.463-1.631,2.824,1.833V482.89H552.22V447.328l2.155-1.631,2.821,1.631Z" transform="translate(-551.669 -445.128)"/><path class="f" d="M199.824,76.3H168.953a.454.454,0,0,1-.453-.453V40.214a.457.457,0,0,1,.194-.372l2.573-1.785a.45.45,0,0,1,.516,0l2.314,1.6,2.314-1.6a.45.45,0,0,1,.516,0l2.314,1.6,2.314-1.6a.45.45,0,0,1,.516,0l2.314,1.6,2.314-1.6a.45.45,0,0,1,.516,0l2.314,1.6,2.314-1.6a.45.45,0,0,1,.516,0l2.314,1.6,2.314-1.6a.45.45,0,0,1,.516,0l2.573,1.785a.457.457,0,0,1,.194.372V51.585c0,9.1,0,20.1,0,24.265a.445.445,0,0,1-.133.319A.412.412,0,0,1,199.824,76.3Zm-30.418-.905h29.968c0-4.466,0-15.023,0-23.812V40.448l-2.12-1.471-2.314,1.6a.45.45,0,0,1-.516,0l-2.314-1.6-2.314,1.6a.45.45,0,0,1-.516,0l-2.314-1.6-2.314,1.6a.45.45,0,0,1-.516,0l-2.314-1.6-2.314,1.6a.45.45,0,0,1-.516,0l-2.314-1.6-2.314,1.6a.45.45,0,0,1-.516,0l-2.314-1.6-2.12,1.471V75.395Z" transform="translate(-168.5 -37.975)"/></g><g transform="translate(172.946 44.262)"><g transform="translate(0 13.622)"><path class="f" d="M367.694,830.605H345.753a.453.453,0,0,1,0-.905h21.941a.453.453,0,1,1,0,.905Z" transform="translate(-345.3 -829.7)"/><g transform="translate(0 4.335)"><path class="f" d="M352.817,1003.005h-7.064a.453.453,0,0,1,0-.905h7.064a.453.453,0,0,1,0,.905Z" transform="translate(-345.3 -1002.1)"/></g><g transform="translate(8.96 4.335)"><path class="f" d="M715.034,1003.005H702.053a.453.453,0,1,1,0-.905h12.981a.453.453,0,0,1,0,.905Z" transform="translate(-701.6 -1002.1)"/></g><g transform="translate(0 8.671)"><path class="f" d="M350.586,1175.405h-4.833a.453.453,0,1,1,0-.905h4.833a.453.453,0,0,1,0,.905Z" transform="translate(-345.3 -1174.5)"/></g><g transform="translate(6.953 8.671)"><path class="f" d="M637.24,1175.405H622.253a.453.453,0,0,1,0-.905h14.99a.453.453,0,1,1,0,.905Z" transform="translate(-621.8 -1174.5)"/></g><g transform="translate(0 13.006)"><path class="f" d="M358.915,1347.805H345.753a.453.453,0,1,1,0-.905h13.16a.453.453,0,0,1,0,.905Z" transform="translate(-345.3 -1346.9)"/><g transform="translate(15.285)"><path class="f" d="M960.209,1347.805h-6.656a.453.453,0,1,1,0-.905h6.656a.453.453,0,0,1,0,.905Z" transform="translate(-953.1 -1346.9)"/></g></g></g><g transform="translate(0.455 1.298)"><path class="f" d="M369.474,344.433a2.478,2.478,0,0,0-1.051-.832,10.781,10.781,0,0,0-1.806-.521.375.375,0,0,1-.05-.013,4.14,4.14,0,0,1-1.577-.571.926.926,0,0,1-.317-.722,1.074,1.074,0,0,1,.448-.865,2.283,2.283,0,0,1,1.426-.36h.02a2.185,2.185,0,0,1,1.4.395,1.483,1.483,0,0,1,.483.752.537.537,0,0,0,.548.382h0a.53.53,0,0,0,.468-.676,2.434,2.434,0,0,0-.3-.651,2.323,2.323,0,0,0-1.066-.86,4.052,4.052,0,0,0-1.537-.292H366.5a3.869,3.869,0,0,0-1.5.279,2.185,2.185,0,0,0-1.023.815,2.066,2.066,0,0,0-.35,1.154,1.867,1.867,0,0,0,.287,1.016,2.206,2.206,0,0,0,.87.759,7.385,7.385,0,0,0,1.574.508c.07.018.138.033.2.05a11.812,11.812,0,0,1,1.25.35,1.65,1.65,0,0,1,.734.48,1.062,1.062,0,0,1,.221.671,1.177,1.177,0,0,1-.231.7,1.487,1.487,0,0,1-.7.5,2.977,2.977,0,0,1-1.089.184c-.06,0-.121,0-.181-.005a3.037,3.037,0,0,1-1.071-.236,1.837,1.837,0,0,1-.82-.634,1.932,1.932,0,0,1-.257-.578.529.529,0,0,0-.553-.385h0a.529.529,0,0,0-.47.641,2.66,2.66,0,0,0,.375.873,2.6,2.6,0,0,0,1.174.971,4.481,4.481,0,0,0,1.625.319c.075,0,.153,0,.231,0a3.719,3.719,0,0,0,1.572-.319,2.456,2.456,0,0,0,1.071-.9,2.215,2.215,0,0,0,.372-1.227A2.05,2.05,0,0,0,369.474,344.433Z" transform="translate(-363.383 -339.6)"/></g><g transform="translate(3.216 0)"><path class="f" d="M473.653,289.748a.454.454,0,0,1-.453-.453v-.842a.453.453,0,0,1,.905,0v.842A.452.452,0,0,1,473.653,289.748Z" transform="translate(-473.2 -288)"/><g transform="translate(0 9.284)"><path class="f" d="M473.653,658.948a.454.454,0,0,1-.453-.453v-.842a.453.453,0,0,1,.905,0v.842A.451.451,0,0,1,473.653,658.948Z" transform="translate(-473.2 -657.2)"/></g></g><g transform="translate(9.531 1.622)"><g transform="translate(0.003)"><path class="f" d="M731.341,353.405h-6.488a.453.453,0,0,1,0-.905h6.488a.453.453,0,0,1,0,.905Z" transform="translate(-724.4 -352.5)"/></g><g transform="translate(0 3.83)"><path class="f" d="M737.163,505.705h-12.41a.453.453,0,0,1,0-.905H737.16a.453.453,0,0,1,0,.905Z" transform="translate(-724.3 -504.8)"/><g transform="translate(0 3.83)"><path class="f" d="M729.415,658.005h-4.662a.453.453,0,0,1,0-.905h4.66a.453.453,0,0,1,0,.905Z" transform="translate(-724.3 -657.1)"/></g><g transform="translate(6.584 3.83)"><path class="f" d="M992.379,658.005h-5.827a.453.453,0,0,1,0-.905h5.827a.453.453,0,0,1,0,.905Z" transform="translate(-986.1 -657.1)"/></g></g></g></g></g></g></svg>