<svg xmlns="http://www.w3.org/2000/svg" width="72.821" height="62.5" viewBox="0 0 72.821 62.5"><defs><style>.a{opacity:0.449;}.b{fill:#8981bd;opacity:0.182;}.c,.d,.e{fill:#6259a4;}.d,.e{stroke:#6259a4;}.e{stroke-width:0.4px;}</style></defs><g transform="translate(-541.42 -426.5)"><g class="a" transform="translate(156 18)"><path class="b" d="M-4331.122,37a27.824,27.824,0,0,1-9.7-1.759,26.353,26.353,0,0,1-5.195-2.578h15.527c0-.041.189-5.111,0-8.616-.258-4.8-.923-8.572-1.447-9.811-.712-1.691-4.573-1.811-6.879-1.883-.545-.017-1.016-.032-1.356-.063a1.358,1.358,0,0,1-1.138-.555,1.286,1.286,0,0,1,.012-1.063h-.006c-.306-.111-1.836-.7-1.917-1.408-.029-.256.139-.5.5-.726a2.5,2.5,0,0,1,1.119-.469.305.305,0,0,1,.254.1.478.478,0,0,1,.053.36l0-.008c.269-.449,1.672-2.717,2.964-3.217.425-.164.5-.659.575-1.184a2.749,2.749,0,0,1,.25-.943,6.732,6.732,0,0,1,1.433-1.59c.375-.332.669-.592.7-.8.118-.9-2.923-2.191-2.954-2.2a17,17,0,0,0,.825-5.44c-.026-.7-.941-1.529-2.449-2.23a12.383,12.383,0,0,0-5.031-1.145c-.128,0-.256,0-.38.008a14.3,14.3,0,0,0-6.779,2.388l-.776.564a27.76,27.76,0,0,1,9.456-7.812A27.214,27.214,0,0,1-4331.122-18a27.327,27.327,0,0,1,10.7,2.161,27.41,27.41,0,0,1,8.741,5.894,27.411,27.411,0,0,1,5.894,8.741,27.335,27.335,0,0,1,2.161,10.7,27.335,27.335,0,0,1-2.161,10.7,27.411,27.411,0,0,1-5.894,8.741,27.41,27.41,0,0,1-8.741,5.894A27.327,27.327,0,0,1-4331.122,37Z" transform="translate(4759.622 434)"/></g><path class="c" d="M48.453,31.986l-7.39-1.4c0-.041.012-.08.012-.122V28.768a7.188,7.188,0,0,0,3.6-6.217,2.154,2.154,0,0,0,.358-4.278l.41-.951a5.808,5.808,0,0,0-2.926-7.587l-2.007-.914a7.369,7.369,0,0,0-7.356.8l-1.111.833-.031.022A4.5,4.5,0,0,0,29.3,12.5a4.457,4.457,0,0,0-.165,4.308l.736,1.47a2.157,2.157,0,0,0,.423,4.272,7.188,7.188,0,0,0,3.6,6.217V30.46c0,.042.011.081.012.122l-2.888.549V29.741a2.16,2.16,0,0,0-2.157-2.157H10.157A2.16,2.16,0,0,0,8,29.741V39.807a2.16,2.16,0,0,0,2.157,2.157h7.19V47H8.719A.719.719,0,0,0,8,47.717v4.314a.719.719,0,0,0,.719.719H51.861a.719.719,0,0,0,.719-.719V36.936a5.029,5.029,0,0,0-4.127-4.951ZM21.662,41.965h.719V47h-.719Zm2.157,0h2.876V47H23.819Zm4.314,0H46.828V47H28.133Zm18.695-1.438H45.39V32.867l1.438.273ZM45.39,20.394a.72.72,0,0,1-.719.719V19.674A.72.72,0,0,1,45.39,20.394ZM30.53,13.241a3.058,3.058,0,0,1,2.608-1.476,3.357,3.357,0,0,1,2.8,1.5l.226.339,1.2-.8-.226-.339a4.785,4.785,0,0,0-2.711-1.959,5.911,5.911,0,0,1,5.488-.376l2.007.914a4.371,4.371,0,0,1,2.2,5.708l-.049.113-.913-1.827a.72.72,0,0,0-1.075-.254l-1.15.863a5.752,5.752,0,0,1-6.9,0l-1.15-.863a.72.72,0,0,0-1.075.254l-.975,1.949-.411-.823a3.028,3.028,0,0,1,.113-2.924Zm-.959,7.152a.72.72,0,0,1,.719-.719v1.438A.72.72,0,0,1,29.571,20.394Zm2.157,2.157V18.406l.976-1.954.462.346a7.191,7.191,0,0,0,8.629,0l.461-.346.976,1.954v4.145a5.752,5.752,0,1,1-11.5,0Zm5.752,7.19a7.18,7.18,0,0,0,2.157-.331V30.46a2.157,2.157,0,0,1-4.314,0V29.409A7.18,7.18,0,0,0,37.48,29.741Zm-3.245,2.24a3.575,3.575,0,0,0,6.49,0l3.226.613v7.932H31.009V32.594ZM10.157,40.526a.72.72,0,0,1-.719-.719V29.741a.72.72,0,0,1,.719-.719H28.852a.72.72,0,0,1,.719.719V40.526H21.662V34.774a.719.719,0,0,0-.719-.719H18.066a.719.719,0,0,0-.719.719v5.752Zm8.628-5.033h1.438V47H18.786ZM46.828,51.312H9.438V48.436h37.39Zm4.314,0H48.266V33.42a3.59,3.59,0,0,1,2.876,3.516Z" transform="translate(533.42 432.541)"/><g transform="translate(584.016 425.016)"><path class="d" d="M12.7,1.984a.133.133,0,0,0-.131.133V6.349a.132.132,0,1,0,.264,0h0V2.117a.133.133,0,0,0-.132-.133Z"/><path class="d" d="M12.7,18.918a.133.133,0,0,0-.131.133v4.232a.132.132,0,1,0,.264,0h0V19.051a.132.132,0,0,0-.132-.133Z"/><path class="d" d="M19.051,12.568a.133.133,0,0,0-.133.132h0a.133.133,0,0,0,.133.131h4.232a.132.132,0,1,0,0-.264H19.051Z"/><path class="d" d="M2.117,12.568a.133.133,0,0,0-.133.132h0a.133.133,0,0,0,.133.131H6.35a.132.132,0,1,0,0-.264H2.117Z"/><path class="d" d="M18,3.4a.133.133,0,0,0-.123.067L15.76,7.135a.132.132,0,0,0,.048.181h0a.132.132,0,0,0,.181-.048h0L18.1,3.6a.131.131,0,0,0-.046-.181h0A.123.123,0,0,0,18,3.4Z"/><path class="d" d="M9.533,18.066a.133.133,0,0,0-.123.067L7.293,21.8a.132.132,0,0,0,.048.181h0a.132.132,0,0,0,.181-.048h0l2.118-3.666a.133.133,0,0,0-.048-.181h0A.123.123,0,0,0,9.533,18.066Z"/><path class="d" d="M18.207,15.742a.133.133,0,0,0-.075.248h0L21.8,18.107a.132.132,0,0,0,.181-.048h0a.132.132,0,0,0-.047-.181h0L18.266,15.76A.123.123,0,0,0,18.207,15.742Z"/><path class="d" d="M3.543,7.275a.133.133,0,0,0-.075.248h0L7.135,9.64a.132.132,0,0,0,.181-.048h0a.133.133,0,0,0-.048-.182h0L3.6,7.293A.123.123,0,0,0,3.543,7.275Z"/><path class="d" d="M21.852,7.277a.136.136,0,0,0-.053.016L18.133,9.41a.133.133,0,0,0-.05.181h0a.133.133,0,0,0,.181.049h0l3.666-2.117a.133.133,0,0,0,.049-.181h0A.132.132,0,0,0,21.852,7.277Z"/><path class="d" d="M7.186,15.744a.127.127,0,0,0-.051.016L3.469,17.877a.132.132,0,0,0-.05.18h0a.133.133,0,0,0,.181.05h0L7.268,15.99a.133.133,0,0,0,.049-.181h0A.131.131,0,0,0,7.186,15.744Z"/><path class="d" d="M15.861,18.068a.137.137,0,0,0-.052.016.133.133,0,0,0-.05.181h0l2.117,3.666a.133.133,0,0,0,.181.05h0a.132.132,0,0,0,.047-.181h0L15.99,18.133A.132.132,0,0,0,15.861,18.068Z"/><path class="d" d="M7.395,3.4a.124.124,0,0,0-.053.018.132.132,0,0,0-.05.18h0L9.41,7.267a.133.133,0,0,0,.181.05h0a.133.133,0,0,0,.049-.181h0L7.523,3.469A.132.132,0,0,0,7.395,3.4Z"/></g><g transform="translate(567.048 440.005)"><path class="e" d="M258.3,86.745a.246.246,0,0,0,.175-.072l1.355-1.355a.247.247,0,0,0-.349-.349l-1.355,1.355a.247.247,0,0,0,.174.421Z" transform="translate(-220.386 -54.412)"/><path class="e" d="M198.687,30.806l.035,0a.247.247,0,0,0,.244-.212l.31-2.161a.247.247,0,0,0-.488-.076v.006l-.31,2.161a.247.247,0,0,0,.209.279Z" transform="translate(-163.257 0)"/><path class="e" d="M86.673,258.126a.247.247,0,0,0-.349,0l-1.355,1.355a.247.247,0,1,0,.349.349l1.355-1.354a.247.247,0,0,0,0-.349Z" transform="translate(-54.35 -220.447)"/><path class="e" d="M30.867,198.686a.247.247,0,0,0-.279-.209h0l-2.161.31a.247.247,0,0,0,.035.491l.035,0,2.161-.31a.247.247,0,0,0,.209-.279Z" transform="translate(0 -163.318)"/><path class="e" d="M87.983,88.676a.247.247,0,1,0,.349-.349h0l-1.541-1.541a.247.247,0,0,0-.349.349Z" transform="translate(-55.765 -56.156)"/><path class="e" d="M180.6,178.575l3.033-2.428a.674.674,0,0,0,.255-.6.656.656,0,0,0-.452-.548l-4.381-1.394a.247.247,0,0,0-.15.47l4.381,1.394a.165.165,0,0,1,.052.285l-3.261,2.61a.247.247,0,0,0-.039.347l.018.02L183.7,182.4l-1.291,1.291-3.668-3.644a.247.247,0,0,0-.174-.072h-.014a.247.247,0,0,0-.179.092l-2.61,3.261a.165.165,0,0,1-.285-.053l-3.641-11.447,7.379,2.343a.247.247,0,0,0,.15-.47l-7.38-2.343a.494.494,0,0,0-.621.62l3.642,11.447a.658.658,0,0,0,1.141.212l2.438-3.046,3.473,3.451a.494.494,0,0,0,.7,0l1.291-1.291a.494.494,0,0,0,0-.7Z" transform="translate(-137.241 -137.29)"/></g></g></svg>