<svg xmlns="http://www.w3.org/2000/svg" width="67.05" height="62.5" viewBox="0 0 67.05 62.5"><defs><style>.a{opacity:0.449;}.b{fill:#8981bd;opacity:0.182;}.c,.d,.f{fill:#6259a4;}.c,.d{stroke:#6259a4;}.d{stroke-width:0.4px;}.e{fill:#fff;}</style></defs><g transform="translate(-547.191 -426.5)"><g class="a" transform="translate(156 18)"><path class="b" d="M-4331.121-18a27.5,27.5,0,0,1,27.5,27.5,27.5,27.5,0,0,1-27.5,27.5,27.839,27.839,0,0,1-9.7-1.759,27.417,27.417,0,0,1-17.8-25.741A27.5,27.5,0,0,1-4331.121-18Z" transform="translate(4759.622 434)"/></g><g transform="translate(584.016 425.016)"><path class="c" d="M12.7,1.984a.133.133,0,0,0-.131.133V6.349a.132.132,0,1,0,.264,0h0V2.117a.133.133,0,0,0-.132-.133Z"/><path class="c" d="M12.7,18.918a.133.133,0,0,0-.131.133v4.232a.132.132,0,1,0,.264,0h0V19.051a.132.132,0,0,0-.132-.133Z"/><path class="c" d="M19.051,12.568a.133.133,0,0,0-.133.132h0a.133.133,0,0,0,.133.131h4.232a.132.132,0,1,0,0-.264H19.051Z"/><path class="c" d="M2.117,12.568a.133.133,0,0,0-.133.132h0a.133.133,0,0,0,.133.131H6.35a.132.132,0,1,0,0-.264H2.117Z"/><path class="c" d="M18,3.4a.133.133,0,0,0-.123.067L15.76,7.135a.132.132,0,0,0,.048.181h0a.132.132,0,0,0,.181-.048h0L18.1,3.6a.131.131,0,0,0-.046-.181h0A.123.123,0,0,0,18,3.4Z"/><path class="c" d="M9.533,18.066a.133.133,0,0,0-.123.067L7.293,21.8a.132.132,0,0,0,.048.181h0a.132.132,0,0,0,.181-.048h0l2.118-3.666a.133.133,0,0,0-.048-.181h0A.123.123,0,0,0,9.533,18.066Z"/><path class="c" d="M18.207,15.742a.133.133,0,0,0-.075.248h0L21.8,18.107a.132.132,0,0,0,.181-.048h0a.132.132,0,0,0-.047-.181h0L18.266,15.76A.123.123,0,0,0,18.207,15.742Z"/><path class="c" d="M3.543,7.275a.133.133,0,0,0-.075.248h0L7.135,9.64a.132.132,0,0,0,.181-.048h0a.133.133,0,0,0-.048-.182h0L3.6,7.293A.123.123,0,0,0,3.543,7.275Z"/><path class="c" d="M21.852,7.277a.136.136,0,0,0-.053.016L18.133,9.41a.133.133,0,0,0-.05.181h0a.133.133,0,0,0,.181.049h0l3.666-2.117a.133.133,0,0,0,.049-.181h0A.132.132,0,0,0,21.852,7.277Z"/><path class="c" d="M7.186,15.744a.127.127,0,0,0-.051.016L3.469,17.877a.132.132,0,0,0-.05.18h0a.133.133,0,0,0,.181.05h0L7.268,15.99a.133.133,0,0,0,.049-.181h0A.131.131,0,0,0,7.186,15.744Z"/><path class="c" d="M15.861,18.068a.137.137,0,0,0-.052.016.133.133,0,0,0-.05.181h0l2.117,3.666a.133.133,0,0,0,.181.05h0a.132.132,0,0,0,.047-.181h0L15.99,18.133A.132.132,0,0,0,15.861,18.068Z"/><path class="c" d="M7.395,3.4a.124.124,0,0,0-.053.018.132.132,0,0,0-.05.18h0L9.41,7.267a.133.133,0,0,0,.181.05h0a.133.133,0,0,0,.049-.181h0L7.523,3.469A.132.132,0,0,0,7.395,3.4Z"/></g><g transform="translate(567.048 440.005)"><path class="d" d="M258.3,86.745a.246.246,0,0,0,.175-.072l1.355-1.355a.247.247,0,0,0-.349-.349l-1.355,1.355a.247.247,0,0,0,.174.421Z" transform="translate(-220.386 -54.412)"/><path class="d" d="M198.687,30.806l.035,0a.247.247,0,0,0,.244-.212l.31-2.161a.247.247,0,0,0-.488-.076v.006l-.31,2.161a.247.247,0,0,0,.209.279Z" transform="translate(-163.257 0)"/><path class="d" d="M86.673,258.126a.247.247,0,0,0-.349,0l-1.355,1.355a.247.247,0,1,0,.349.349l1.355-1.354a.247.247,0,0,0,0-.349Z" transform="translate(-54.35 -220.447)"/><path class="d" d="M30.867,198.686a.247.247,0,0,0-.279-.209h0l-2.161.31a.247.247,0,0,0,.035.491l.035,0,2.161-.31a.247.247,0,0,0,.209-.279Z" transform="translate(0 -163.318)"/><path class="d" d="M87.983,88.676a.247.247,0,1,0,.349-.349h0l-1.541-1.541a.247.247,0,0,0-.349.349Z" transform="translate(-55.765 -56.156)"/><path class="d" d="M180.6,178.575l3.033-2.428a.674.674,0,0,0,.255-.6.656.656,0,0,0-.452-.548l-4.381-1.394a.247.247,0,0,0-.15.47l4.381,1.394a.165.165,0,0,1,.052.285l-3.261,2.61a.247.247,0,0,0-.039.347l.018.02L183.7,182.4l-1.291,1.291-3.668-3.644a.247.247,0,0,0-.174-.072h-.014a.247.247,0,0,0-.179.092l-2.61,3.261a.165.165,0,0,1-.285-.053l-3.641-11.447,7.379,2.343a.247.247,0,0,0,.15-.47l-7.38-2.343a.494.494,0,0,0-.621.62l3.642,11.447a.658.658,0,0,0,1.141.212l2.438-3.046,3.473,3.451a.494.494,0,0,0,.7,0l1.291-1.291a.494.494,0,0,0,0-.7Z" transform="translate(-137.241 -137.29)"/></g><g transform="translate(499.111 440.575)"><g transform="translate(48.08)"><g transform="translate(0)"><path class="e" d="M563.709,441.762s-13.063-1.289-15.676,15.013c3.567,9.845,5.285,12.438,15,27.109,8.693-8.947,19.674-24.831,15.413-32.247s-11.864-10.445-13.918-9.876" transform="translate(-547.191 -440.575)"/><path class="f" d="M64.6,0A16.537,16.537,0,0,0,48.08,16.518a19.058,19.058,0,0,0,1.4,6.36,26.638,26.638,0,0,0,1.909,3.571L62.716,43.609a2.154,2.154,0,0,0,3.764,0L77.807,26.449a26.527,26.527,0,0,0,1.909-3.571,19.053,19.053,0,0,0,1.4-6.36A16.537,16.537,0,0,0,64.6,0ZM77.925,22.124a24.407,24.407,0,0,1-1.74,3.255L64.858,42.54c-.223.339-.294.339-.518,0L53.013,25.379a24.419,24.419,0,0,1-1.74-3.256,17.3,17.3,0,0,1-1.25-5.6,14.575,14.575,0,1,1,29.15,0A17.313,17.313,0,0,1,77.925,22.124Z" transform="translate(-48.08)"/><path class="f" d="M120.825,64.008a8.745,8.745,0,1,0,8.745,8.745A8.755,8.755,0,0,0,120.825,64.008Zm0,15.547a6.8,6.8,0,1,1,6.8-6.8A6.81,6.81,0,0,1,120.825,79.555Z" transform="translate(-104.307 -56.234)"/></g></g></g></g></svg>