<svg xmlns="http://www.w3.org/2000/svg" width="63.514" height="62.5" viewBox="0 0 63.514 62.5"><defs><style>.a{opacity:0.449;}.b{fill:#8981bd;opacity:0.182;}.c,.d,.f,.g{fill:#6259a4;}.c,.d,.g{stroke:#6259a4;}.d{stroke-width:0.4px;}.e{fill:#fff;}.g{stroke-miterlimit:10;stroke-width:0.5px;}</style></defs><g transform="translate(-550.727 -426.5)"><g class="a" transform="translate(156 18)"><path class="b" d="M27.5,0a27.5,27.5,0,0,1,0,55,27.839,27.839,0,0,1-9.7-1.759A27.5,27.5,0,0,1,27.5,0Z" transform="translate(401 416)"/></g><g transform="translate(584.016 425.016)"><path class="c" d="M12.7,1.984a.133.133,0,0,0-.131.133V6.349a.132.132,0,1,0,.264,0h0V2.117a.133.133,0,0,0-.132-.133Z"/><path class="c" d="M12.7,18.918a.133.133,0,0,0-.131.133v4.232a.132.132,0,1,0,.264,0h0V19.051a.132.132,0,0,0-.132-.133Z"/><path class="c" d="M19.051,12.568a.133.133,0,0,0-.133.132h0a.133.133,0,0,0,.133.131h4.232a.132.132,0,1,0,0-.264H19.051Z"/><path class="c" d="M2.117,12.568a.133.133,0,0,0-.133.132h0a.133.133,0,0,0,.133.131H6.35a.132.132,0,1,0,0-.264H2.117Z"/><path class="c" d="M18,3.4a.133.133,0,0,0-.123.067L15.76,7.135a.132.132,0,0,0,.048.181h0a.132.132,0,0,0,.181-.048h0L18.1,3.6a.131.131,0,0,0-.046-.181h0A.123.123,0,0,0,18,3.4Z"/><path class="c" d="M9.533,18.066a.133.133,0,0,0-.123.067L7.293,21.8a.132.132,0,0,0,.048.181h0a.132.132,0,0,0,.181-.048h0l2.118-3.666a.133.133,0,0,0-.048-.181h0A.123.123,0,0,0,9.533,18.066Z"/><path class="c" d="M18.207,15.742a.133.133,0,0,0-.075.248h0L21.8,18.107a.132.132,0,0,0,.181-.048h0a.132.132,0,0,0-.047-.181h0L18.266,15.76A.123.123,0,0,0,18.207,15.742Z"/><path class="c" d="M3.543,7.275a.133.133,0,0,0-.075.248h0L7.135,9.64a.132.132,0,0,0,.181-.048h0a.133.133,0,0,0-.048-.182h0L3.6,7.293A.123.123,0,0,0,3.543,7.275Z"/><path class="c" d="M21.852,7.277a.136.136,0,0,0-.053.016L18.133,9.41a.133.133,0,0,0-.05.181h0a.133.133,0,0,0,.181.049h0l3.666-2.117a.133.133,0,0,0,.049-.181h0A.132.132,0,0,0,21.852,7.277Z"/><path class="c" d="M7.186,15.744a.127.127,0,0,0-.051.016L3.469,17.877a.132.132,0,0,0-.05.18h0a.133.133,0,0,0,.181.05h0L7.268,15.99a.133.133,0,0,0,.049-.181h0A.131.131,0,0,0,7.186,15.744Z"/><path class="c" d="M15.861,18.068a.137.137,0,0,0-.052.016.133.133,0,0,0-.05.181h0l2.117,3.666a.133.133,0,0,0,.181.05h0a.132.132,0,0,0,.047-.181h0L15.99,18.133A.132.132,0,0,0,15.861,18.068Z"/><path class="c" d="M7.395,3.4a.124.124,0,0,0-.053.018.132.132,0,0,0-.05.18h0L9.41,7.267a.133.133,0,0,0,.181.05h0a.133.133,0,0,0,.049-.181h0L7.523,3.469A.132.132,0,0,0,7.395,3.4Z"/></g><g transform="translate(567.048 440.005)"><path class="d" d="M258.3,86.745a.246.246,0,0,0,.175-.072l1.355-1.355a.247.247,0,0,0-.349-.349l-1.355,1.355a.247.247,0,0,0,.174.421Z" transform="translate(-220.386 -54.412)"/><path class="d" d="M198.687,30.806l.035,0a.247.247,0,0,0,.244-.212l.31-2.161a.247.247,0,0,0-.488-.076v.006l-.31,2.161a.247.247,0,0,0,.209.279Z" transform="translate(-163.257 0)"/><path class="d" d="M86.673,258.126a.247.247,0,0,0-.349,0l-1.355,1.355a.247.247,0,1,0,.349.349l1.355-1.354a.247.247,0,0,0,0-.349Z" transform="translate(-54.35 -220.447)"/><path class="d" d="M30.867,198.686a.247.247,0,0,0-.279-.209h0l-2.161.31a.247.247,0,0,0,.035.491l.035,0,2.161-.31a.247.247,0,0,0,.209-.279Z" transform="translate(0 -163.318)"/><path class="d" d="M87.983,88.676a.247.247,0,1,0,.349-.349h0l-1.541-1.541a.247.247,0,0,0-.349.349Z" transform="translate(-55.765 -56.156)"/><path class="d" d="M180.6,178.575l3.033-2.428a.674.674,0,0,0,.255-.6.656.656,0,0,0-.452-.548l-4.381-1.394a.247.247,0,0,0-.15.47l4.381,1.394a.165.165,0,0,1,.052.285l-3.261,2.61a.247.247,0,0,0-.039.347l.018.02L183.7,182.4l-1.291,1.291-3.668-3.644a.247.247,0,0,0-.174-.072h-.014a.247.247,0,0,0-.179.092l-2.61,3.261a.165.165,0,0,1-.285-.053l-3.641-11.447,7.379,2.343a.247.247,0,0,0,.15-.47l-7.38-2.343a.494.494,0,0,0-.621.62l3.642,11.447a.658.658,0,0,0,1.141.212l2.438-3.046,3.473,3.451a.494.494,0,0,0,.7,0l1.291-1.291a.494.494,0,0,0,0-.7Z" transform="translate(-137.241 -137.29)"/></g><g transform="translate(540.607 436.016)"><path class="e" d="M0,32.02V.294L24.659,0s.093,27.628,0,31.095a4.852,4.852,0,0,0,.672,2.679,3.78,3.78,0,0,1-.208-1.281c-.022-3.274,0-18.708,0-18.708h9.993V32.493s-1.061,3.167-4.038,3.167h-.289a9.731,9.731,0,0,1-4.323-.586,4.8,4.8,0,0,0,1.119.7s-18.7-.066-22.734,0h-.1A4.847,4.847,0,0,1,0,32.02Z" transform="translate(10.718 10.381)"/><path class="f" d="M36.685,63.146H21.779a.457.457,0,1,0,0,.914H36.685a.457.457,0,1,0,0-.914Z" transform="translate(-6.084 -28.865)"/><path class="f" d="M36.685,69.343H21.779a.457.457,0,0,0,0,.914H36.685a.457.457,0,0,0,0-.914Z" transform="translate(-6.084 -32.23)"/><path class="f" d="M36.685,75.539H21.779a.457.457,0,1,0,0,.914H36.685a.457.457,0,1,0,0-.914Z" transform="translate(-6.084 -35.595)"/><path class="f" d="M46.218,23.611H36.133V10.457A.456.456,0,0,0,35.676,10h-25.1a.456.456,0,0,0-.457.457V41.932a4.638,4.638,0,0,0,4.648,4.619H42.027a4.639,4.639,0,0,0,4.648-4.619V24.068A.456.456,0,0,0,46.218,23.611ZM14.768,45.637a3.724,3.724,0,0,1-3.734-3.7V10.914H35.219V41.464a.41.41,0,0,0,0,.053,5.005,5.005,0,0,0,2.171,4.119Zm30.993-3.7a3.723,3.723,0,0,1-3.734,3.7H40.388a.463.463,0,0,0-.127-.018,4.123,4.123,0,0,1-4.132-4.035.424.424,0,0,0,0-.048V24.525h9.629Z" transform="translate(0)"/><g transform="translate(16.685 19.015)"><g transform="translate(4.76 0)"><path class="g" d="M42.2,30.533l-3.385-3.385a.225.225,0,0,0-.316.32l3,3H33.962a.226.226,0,0,0-.228.224.229.229,0,0,0,.228.228h7.531l-3,3a.221.221,0,0,0,0,.316.212.212,0,0,0,.16.068.21.21,0,0,0,.156-.068L42.2,30.85A.228.228,0,0,0,42.2,30.533Z" transform="translate(-33.734 -27.084)"/></g><g transform="translate(0 2.146)"><path class="g" d="M20.41,34.437,23.8,37.822a.225.225,0,1,0,.316-.32l-3-3h7.531a.226.226,0,0,0,.228-.224.229.229,0,0,0-.228-.228H21.114l3-3a.221.221,0,0,0,0-.316.212.212,0,0,0-.16-.068.21.21,0,0,0-.156.068L20.41,34.12A.228.228,0,0,0,20.41,34.437Z" transform="translate(-20.346 -30.671)"/></g></g></g></g></svg>