<svg xmlns="http://www.w3.org/2000/svg" width="75.447" height="62.5" viewBox="0 0 75.447 62.5"><defs><style>.a{opacity:0.449;}.b{fill:#8981bd;opacity:0.182;}.c,.d,.e{fill:#6259a4;}.c,.d,.f{stroke:#6259a4;}.d{stroke-width:0.4px;}.f{fill:none;stroke-linecap:round;stroke-width:1.6px;}</style></defs><g transform="translate(-538.794 -426.5)"><g class="a" transform="translate(156 18)"><path class="b" d="M-4331.122,37a27.833,27.833,0,0,1-9.7-1.759c-.4-.146-.8-.3-1.2-.471l8.563-.7a19.407,19.407,0,0,0,3.347.361,4.586,4.586,0,0,0,2.077-.361c.59-.306.675-1.218.731-1.821l0-.008h0a2.494,2.494,0,0,1,.069-.483,2.865,2.865,0,0,0-.317-2.429,4.04,4.04,0,0,1-.484-1.533l-3.06-2.413h-1.245l-.278-.827a9.609,9.609,0,0,0,.457-1.088l0-.013a4.154,4.154,0,0,1,.261-.624,5.117,5.117,0,0,1,3.075-1.424,2.735,2.735,0,0,0,.785-.215,1.7,1.7,0,0,0,.908-1.236,2.207,2.207,0,0,1,.326-.831c.274-.421-.124-.734-.443-.986a1.232,1.232,0,0,1-.339-.331,10.266,10.266,0,0,1-.61-2.328,3.1,3.1,0,0,0-.109-.528,1.157,1.157,0,0,1,.012-.569,2.954,2.954,0,0,0-.922-2.862c-2.027-2.124-3.008-2.535-3.767-2.664-.139-.024-.28-.051-.416-.076l-.013,0a7.969,7.969,0,0,0-1.508-.185,5.2,5.2,0,0,0-2.844.935,8.348,8.348,0,0,0-1.554,1.626c-.181.245-.271.368-.425.368h-.039c-.25,0-.47.894-.724,1.93a13.73,13.73,0,0,1-.916,2.871l-.07.127c-.6,1.075-1.339,2.413-.953,3.022a4.641,4.641,0,0,0,1.39,2.355,2.86,2.86,0,0,1,.862,1.264,1.556,1.556,0,0,0,1.618,1.065,3.1,3.1,0,0,0,.811-.111l1.639,1.668-1.638-.331-2.008,1.573-.762-1.573q-.054,0-.107,0c-.763,0-1.107-.643-1.335-1.068l0-.005a1.782,1.782,0,0,0-.162-.269,3.574,3.574,0,0,0-.806-.6c-.14-.08-.224-.129-.225-.184s.049-.092.171-.169a.226.226,0,0,0,.118-.257c-.114-.5-1.555-1.274-2.35-1.362l-.062,0a1.056,1.056,0,0,0-.792.532c-.066.092-.122.181-.179.273l0,.005c-.093.148-.16.255-.21.255-.017,0-.031-.012-.043-.038l.444-2.082-1.3-.481a1.684,1.684,0,0,0-.288-1.681l0-.013a22.011,22.011,0,0,1,1.585-3.286c.106-.165.216-.338.327-.515l.02-.031a7.036,7.036,0,0,1,1.708-2.194l1.021-1.694.554-4.015c.474-.808-.08-1.31-.484-1.676-.212-.192-.4-.358-.375-.516.113-.858-1.264-3.252-1.422-3.522l-.006,0a3.373,3.373,0,0,1-1.685.777c-.6,0-.925-.485-.96-1.443-.027-.758-.474-1.209-1.29-1.775a6.054,6.054,0,0,0-3.564-.878c-.266,0-.556.007-.888.021a4.895,4.895,0,0,0-3.4,1.426,27.489,27.489,0,0,1,9.959-12.188A27.356,27.356,0,0,1-4331.122-18a27.326,27.326,0,0,1,10.7,2.161,27.4,27.4,0,0,1,8.741,5.894,27.41,27.41,0,0,1,5.894,8.741,27.326,27.326,0,0,1,2.161,10.7,27.326,27.326,0,0,1-2.161,10.7,27.41,27.41,0,0,1-5.894,8.741,27.4,27.4,0,0,1-8.741,5.894A27.326,27.326,0,0,1-4331.122,37Z" transform="translate(4759.622 434)"/></g><g transform="translate(584.016 425.016)"><path class="c" d="M12.7,1.984a.133.133,0,0,0-.131.133V6.349a.132.132,0,1,0,.264,0h0V2.117a.133.133,0,0,0-.132-.133Z"/><path class="c" d="M12.7,18.918a.133.133,0,0,0-.131.133v4.232a.132.132,0,1,0,.264,0h0V19.051a.132.132,0,0,0-.132-.133Z"/><path class="c" d="M19.051,12.568a.133.133,0,0,0-.133.132h0a.133.133,0,0,0,.133.131h4.232a.132.132,0,1,0,0-.264H19.051Z"/><path class="c" d="M2.117,12.568a.133.133,0,0,0-.133.132h0a.133.133,0,0,0,.133.131H6.35a.132.132,0,1,0,0-.264H2.117Z"/><path class="c" d="M18,3.4a.133.133,0,0,0-.123.067L15.76,7.135a.132.132,0,0,0,.048.181h0a.132.132,0,0,0,.181-.048h0L18.1,3.6a.131.131,0,0,0-.046-.181h0A.123.123,0,0,0,18,3.4Z"/><path class="c" d="M9.533,18.066a.133.133,0,0,0-.123.067L7.293,21.8a.132.132,0,0,0,.048.181h0a.132.132,0,0,0,.181-.048h0l2.118-3.666a.133.133,0,0,0-.048-.181h0A.123.123,0,0,0,9.533,18.066Z"/><path class="c" d="M18.207,15.742a.133.133,0,0,0-.075.248h0L21.8,18.107a.132.132,0,0,0,.181-.048h0a.132.132,0,0,0-.047-.181h0L18.266,15.76A.123.123,0,0,0,18.207,15.742Z"/><path class="c" d="M3.543,7.275a.133.133,0,0,0-.075.248h0L7.135,9.64a.132.132,0,0,0,.181-.048h0a.133.133,0,0,0-.048-.182h0L3.6,7.293A.123.123,0,0,0,3.543,7.275Z"/><path class="c" d="M21.852,7.277a.136.136,0,0,0-.053.016L18.133,9.41a.133.133,0,0,0-.05.181h0a.133.133,0,0,0,.181.049h0l3.666-2.117a.133.133,0,0,0,.049-.181h0A.132.132,0,0,0,21.852,7.277Z"/><path class="c" d="M7.186,15.744a.127.127,0,0,0-.051.016L3.469,17.877a.132.132,0,0,0-.05.18h0a.133.133,0,0,0,.181.05h0L7.268,15.99a.133.133,0,0,0,.049-.181h0A.131.131,0,0,0,7.186,15.744Z"/><path class="c" d="M15.861,18.068a.137.137,0,0,0-.052.016.133.133,0,0,0-.05.181h0l2.117,3.666a.133.133,0,0,0,.181.05h0a.132.132,0,0,0,.047-.181h0L15.99,18.133A.132.132,0,0,0,15.861,18.068Z"/><path class="c" d="M7.395,3.4a.124.124,0,0,0-.053.018.132.132,0,0,0-.05.18h0L9.41,7.267a.133.133,0,0,0,.181.05h0a.133.133,0,0,0,.049-.181h0L7.523,3.469A.132.132,0,0,0,7.395,3.4Z"/></g><g transform="translate(567.048 440.005)"><path class="d" d="M258.3,86.745a.246.246,0,0,0,.175-.072l1.355-1.355a.247.247,0,0,0-.349-.349l-1.355,1.355a.247.247,0,0,0,.174.421Z" transform="translate(-220.386 -54.412)"/><path class="d" d="M198.687,30.806l.035,0a.247.247,0,0,0,.244-.212l.31-2.161a.247.247,0,0,0-.488-.076v.006l-.31,2.161a.247.247,0,0,0,.209.279Z" transform="translate(-163.257 0)"/><path class="d" d="M86.673,258.126a.247.247,0,0,0-.349,0l-1.355,1.355a.247.247,0,1,0,.349.349l1.355-1.354a.247.247,0,0,0,0-.349Z" transform="translate(-54.35 -220.447)"/><path class="d" d="M30.867,198.686a.247.247,0,0,0-.279-.209h0l-2.161.31a.247.247,0,0,0,.035.491l.035,0,2.161-.31a.247.247,0,0,0,.209-.279Z" transform="translate(0 -163.318)"/><path class="d" d="M87.983,88.676a.247.247,0,1,0,.349-.349h0l-1.541-1.541a.247.247,0,0,0-.349.349Z" transform="translate(-55.765 -56.156)"/><path class="d" d="M180.6,178.575l3.033-2.428a.674.674,0,0,0,.255-.6.656.656,0,0,0-.452-.548l-4.381-1.394a.247.247,0,0,0-.15.47l4.381,1.394a.165.165,0,0,1,.052.285l-3.261,2.61a.247.247,0,0,0-.039.347l.018.02L183.7,182.4l-1.291,1.291-3.668-3.644a.247.247,0,0,0-.174-.072h-.014a.247.247,0,0,0-.179.092l-2.61,3.261a.165.165,0,0,1-.285-.053l-3.641-11.447,7.379,2.343a.247.247,0,0,0,.15-.47l-7.38-2.343a.494.494,0,0,0-.621.62l3.642,11.447a.658.658,0,0,0,1.141.212l2.438-3.046,3.473,3.451a.494.494,0,0,0,.7,0l1.291-1.291a.494.494,0,0,0,0-.7Z" transform="translate(-137.241 -137.29)"/></g><g transform="translate(539.929 384.918)"><path class="e" d="M176.588,386.03a.725.725,0,0,0-.725.725v3.819a.725.725,0,0,0,1.45,0v-3.819a.725.725,0,0,0-.725-.725Z" transform="translate(-158.864 -291.174)"/><path class="e" d="M321.492,386.03a.725.725,0,0,0-.725.725v3.819a.725.725,0,0,0,1.45,0v-3.819a.725.725,0,0,0-.725-.725Z" transform="translate(-289.731 -291.174)"/><path class="e" d="M60.126,92.324,57.7,91.35v-.62a4.812,4.812,0,0,0,1.265-1.016,4.357,4.357,0,0,0,4.5-6.063l-1.09-2.514a2.32,2.32,0,0,1-.168-.592,6.86,6.86,0,0,0-13.581,0,2.322,2.322,0,0,1-.168.592l-1.09,2.514a4.362,4.362,0,0,0,3.976,6.1,4.476,4.476,0,0,0,.523-.031,4.767,4.767,0,0,0,1.137.944v.69l-2.428.974a4.937,4.937,0,0,0-.463.215,6.331,6.331,0,0,0-1.975-2.194L44.977,88.17a1.331,1.331,0,0,0-.467-1.078L43.225,86a1.329,1.329,0,0,0-.4-.235V84.3a6.5,6.5,0,0,0,2.6-4.206H45.5a2.505,2.505,0,0,0,1.959-4.07l.518-3.685a4.917,4.917,0,0,0-4.135-5.533l-.1-.015A6.4,6.4,0,0,0,40,63.959l-.19-.054a7.39,7.39,0,0,0-6.135.971,11.82,11.82,0,0,0-2.2,2.339c-.622,1.054.868-.1.868-.1s-.041,1.3.346.787a24.953,24.953,0,0,1,1.8-1.824,5.942,5.942,0,0,1,4.933-.781l.19.054a5.011,5.011,0,0,1,3.635,5.117l-.492-.423a1.227,1.227,0,0,0-1.571-.024l-.645.521H36.854a4.337,4.337,0,0,0-4.332,4.332v.2a2.5,2.5,0,0,0-.559.065,8.463,8.463,0,0,1,.644-7.035.725.725,0,1,0-1.255-.727,9.921,9.921,0,0,0-.66,8.5,2.506,2.506,0,0,0,1.84,4.208h.077a6.5,6.5,0,0,0,2.6,4.206v1.468a1.328,1.328,0,0,0-.4.235l-1.285,1.091a1.33,1.33,0,0,0-.467,1.078L29.9,90.345a6.331,6.331,0,0,0-1.62,1.615,5.834,5.834,0,0,0-.873-.393l-2.147-.761v-.572a4.551,4.551,0,0,0,2.1-3.118h.325a2.306,2.306,0,0,0,1.753-3.8l.129-1.533a6.285,6.285,0,0,0-8.7-6.3l-1.445.608A4.415,4.415,0,0,0,16,81l.323,2.305a2.306,2.306,0,0,0,1.747,3.812H18.4a4.548,4.548,0,0,0,1.89,2.981v.709l-2.147.76a5.889,5.889,0,0,0-.88.4.725.725,0,1,0,.7,1.269,4.428,4.428,0,0,1,.663-.3l1.855-.657a2.484,2.484,0,0,0,4.584,0l1.855.657a4.371,4.371,0,0,1,.675.306,6.331,6.331,0,0,0-.442,2.324l-.165,5.027c0,.4.657.3,1.057.3s.558.1.558-.3V95.565a4.883,4.883,0,0,1,2.117-4.024l3.02-2.077,1.238,1.655a1.39,1.39,0,0,0,1.515.5l1.8-.548v9.1a.725.725,0,0,0,1.45,0v-9.1l1.8.548a1.39,1.39,0,0,0,1.515-.5L44.3,89.463l3.02,2.077a4.883,4.883,0,0,1,2.117,4.024v4.984c0,.4.325.043.725.043s.725.358.725-.043V95.565a6.334,6.334,0,0,0-.224-1.67,3.473,3.473,0,0,1,.458-.224l2.106-.845a2.345,2.345,0,0,0,4.257,0l2.106.845a3.476,3.476,0,0,1,2.192,3.241v3.638c0,.4.372.043.773.043s.678.358.678-.043V96.911a4.92,4.92,0,0,0-3.1-4.587ZM31.474,77.585a1.058,1.058,0,0,1,1.048-1.057v2.113A1.058,1.058,0,0,1,31.474,77.585Zm-3.8,8.081h-.262V83.952h.262a.857.857,0,0,1,0,1.714Zm-10.464-.857a.858.858,0,0,1,.857-.857h.262v1.714h-.262a.858.858,0,0,1-.857-.857Zm2-4.543a4.6,4.6,0,0,0-.855,2.235h-.288a2.314,2.314,0,0,0-.39.034L17.437,80.8a2.962,2.962,0,0,1,2.34-3.309.728.728,0,0,0,.137-.042l1.509-.634a4.834,4.834,0,0,1,6.693,4.847l-.074.872a2.31,2.31,0,0,0-.364-.029H27.41a1.222,1.222,0,0,0-1.214-1.1H24.4a5.919,5.919,0,0,1-3.556-1.2l-.205-.156a1.011,1.011,0,0,0-1.43.213Zm1.175.851h0Zm-.6,1.867a3.163,3.163,0,0,1,.368-1.488,7.381,7.381,0,0,0,4.253,1.359h1.561v3.513a3.091,3.091,0,1,1-6.182,0Zm2.987,9.368a1.035,1.035,0,0,1-1.034-1.034v-.553a4.551,4.551,0,0,0,2.068.049v.5A1.035,1.035,0,0,1,22.77,92.353ZM45.512,78.642V76.529a1.057,1.057,0,0,1,0,2.113Zm1.032-6.506-.425,3.019a2.5,2.5,0,0,0-.608-.077v-.059A5.652,5.652,0,0,0,44.5,71.786a6.385,6.385,0,0,0-.02-3.308A3.466,3.466,0,0,1,46.544,72.136Zm-12.571,6.9V74.877A2.885,2.885,0,0,1,36.854,72h3.937a.725.725,0,0,0,.456-.161l.7-.565.65.558a4.2,4.2,0,0,1,1.465,3.192v4.02a5.044,5.044,0,1,1-10.089,0Zm5.044,6.495a6.461,6.461,0,0,0,2.354-.443v.929l-2.354,1.154-2.354-1.154v-.929A6.462,6.462,0,0,0,39.017,85.534Zm-2.907,4.68-1.562-2.089,1.141-.968,2.6,1.276V89.55Zm5.814,0-2.182-.664V88.434l2.6-1.276,1.141.968Zm7.143-3.052a2.872,2.872,0,0,1-.365-2.934l1.09-2.514a3.765,3.765,0,0,0,.273-.963,5.41,5.41,0,0,1,10.71,0,3.768,3.768,0,0,0,.273.963l1.09,2.514a2.913,2.913,0,0,1-2.3,4.046,6.148,6.148,0,0,0,.313-1.486c.033-.4-.167-.165-.567-.2s-.851-.281-.884.118a3.453,3.453,0,0,1-3.284,3.166,3.287,3.287,0,0,1-3.284-3.284V83.111a4,4,0,0,1,.645-2.174,5.673,5.673,0,0,0,3.277,1.157l2.646.07V86.59c0,.4,1.45.4,1.45,0V81.967a1.242,1.242,0,0,0-1.216-1.248L56.1,80.644a4.213,4.213,0,0,1-2.534-.938l-.187-.152a1.06,1.06,0,0,0-1.5.16,5.456,5.456,0,0,0-1.192,3.4V86.59a4.706,4.706,0,0,0,.31,1.682,2.869,2.869,0,0,1-1.928-1.11Zm6.286,5.574a.9.9,0,0,1-.9-.9v-.615a4.737,4.737,0,0,0,.963.1,4.66,4.66,0,0,0,.829-.075v.592A.9.9,0,0,1,55.352,92.736Z" transform="translate(-14.274 0)"/><path class="e" d="M2.85,376.158a5.724,5.724,0,0,0-2.264,2.481A5.809,5.809,0,0,0,0,381.19v3.477c0,.4.378,0,.778,0s.672.4.672,0V381.19a4.527,4.527,0,0,1,2.1-3.795c1.308-.888-.7-.21-.7-.21S4.379,375.349,2.85,376.158Z" transform="translate(-0.037 -284.102)"/><line class="f" x2="49.822" transform="translate(-0.335 101.249)"/></g></g></svg>