<?xml version="1.0" encoding="UTF-8"?>
<svg width="20px" height="20px" viewBox="0 0 20 20" version="1.1" xmlns="http://www.w3.org/2000/svg" xmlns:xlink="http://www.w3.org/1999/xlink">
    <title>C3E5A14C-5E31-49F7-8595-FE7ED842D6A3</title>
    <g id="Page-1" stroke="none" stroke-width="1" fill="none" fill-rule="evenodd">
        <g id="transactions-review" transform="translate(-371, -113)" fill="#2D4190" fill-rule="nonzero">
            <g id="cart" transform="translate(36, 103)">
                <g id="icons/view" transform="translate(335, 10)">
                    <path d="M10,1.875 C14.9838248,1.875 19.1302338,5.44513889 20,10.15625 C19.1311581,14.8673611 14.9838248,18.4375 10,18.4375 C5.01617525,18.4375 0.869766152,14.8673611 0,10.15625 C0.868841852,5.44513889 5.01617525,1.875 10,1.875 Z M10,16.5972222 C13.8821738,16.5963844 17.2481979,13.9239339 18.1125797,10.15625 C17.2450467,6.39168432 13.8798237,3.72312495 10,3.72312495 C6.12017631,3.72312495 2.75495327,6.39168432 1.88742028,10.15625 C2.75180205,13.9239339 6.11782617,16.5963844 10,16.5972222 Z M10,14.296875 C7.70285482,14.296875 5.84065071,12.443054 5.84065071,10.15625 C5.84065071,7.86944596 7.70285482,6.015625 10,6.015625 C12.2971452,6.015625 14.1593493,7.86944596 14.1593493,10.15625 C14.1593493,12.443054 12.2971452,14.296875 10,14.296875 Z M10,12.4565972 C11.2761918,12.4565972 12.3107496,11.4266967 12.3107496,10.15625 C12.3107496,8.88580331 11.2761918,7.85590278 10,7.85590278 C8.72380823,7.85590278 7.68925039,8.88580331 7.68925039,10.15625 C7.68925039,11.4266967 8.72380823,12.4565972 10,12.4565972 L10,12.4565972 Z" id="Shape"></path>
                </g>
            </g>
        </g>
    </g>
</svg>