<?xml version="1.0" encoding="UTF-8"?>
<svg width="64px" height="64px" viewBox="0 0 64 64" version="1.1" xmlns="http://www.w3.org/2000/svg" xmlns:xlink="http://www.w3.org/1999/xlink">
    <title>icons/pending</title>
    <g id="icons/pending" stroke="none" stroke-width="1" fill="none" fill-rule="evenodd">
        <path d="M11.0815786,7.78564685 C16.8881564,2.75416986 24.3167101,-0.0106566771 31.9999381,3.08691704e-05 C49.6735039,3.08691704e-05 63.9998762,14.3264342 63.9998762,32 C63.9998762,38.8351868 61.8558803,45.1711745 58.2078874,50.3679645 L47.9999071,32 L57.5998885,32 C57.6007311,21.7406105 51.4765303,12.4716358 42.0388935,8.44844233 C32.6012567,4.42524885 21.6732794,6.42500843 14.2719724,13.5296357 L11.0815786,7.78564685 Z M52.9182976,56.2143531 C47.1117197,61.2458301 39.6831661,64.0106567 31.9999381,63.9999691 C14.3263723,63.9999691 0,49.6735658 0,32 C0,25.1648132 2.14399585,18.8288255 5.79198879,13.6320355 L15.999969,32 L6.39998762,32 C6.39914503,42.2593895 12.5233458,51.5283642 21.9609827,55.5515577 C31.3986195,59.5747511 42.3265968,57.5749916 49.7279038,50.4703643 L52.9182976,56.2143531 L52.9182976,56.2143531 Z" id="Shape" fill="#2D4190" fill-rule="nonzero"></path>
    </g>
</svg>