<svg xmlns="http://www.w3.org/2000/svg" width="79" height="61.618" viewBox="0 0 79 61.618"><defs><style>.a{fill:#fdd762;}.b{fill:#88929f;}.c{fill:#f2c53c;}.d{fill:#dce2ea;}.e{fill:#fcfcfc;}.f{fill:#fff;}.g{fill:#00b51c;font-size:32px;font-family:FontAwesome5FreeSolid, 'Font Awesome \35  Free';}</style></defs><g transform="translate(-16 -16.104)"><rect class="a" width="37.665" height="33.802" rx="3" transform="translate(38.057 41.92)"/><path class="b" d="M41.816,41.816V31.887a9.929,9.929,0,1,0-19.859,0v9.929H16V31.887a15.887,15.887,0,1,1,31.774,0v9.929Z" transform="translate(0 0.104)"/><path class="c" d="M176,288h11.915v17.873H176Z" transform="translate(-140.141 -238.24)"/><g transform="translate(35.859 49.76)"><path class="d" d="M176,328h11.915v1.986H176Z" transform="translate(-176 -323.035)"/><path class="d" d="M176,376h11.915v1.986H176Z" transform="translate(-176 -365.078)"/><path class="e" d="M317.953,298.475v-8.49a1.986,1.986,0,1,0-3.972,0v8.49a3.972,3.972,0,1,0,3.972,0Z" transform="translate(-295.116 -288)"/></g><g transform="translate(-662 -206.794)"><circle class="f" cx="15" cy="15" r="15" transform="translate(726 253.516)"/><text class="g" transform="translate(725 280.516)"><tspan x="0" y="0"></tspan></text></g></g></svg>