<svg xmlns="http://www.w3.org/2000/svg" width="838.427" height="787.497" viewBox="0 0 838.427 787.497"><defs><style>.a{fill:#faf8fd;}.b,.u{fill:#ccc8fe;}.b{opacity:0.377;}.c{fill:#d1caff;opacity:0.295;}.d{fill:#173d7a;}.e{fill:#d4ecff;}.f{fill:#fff;}.g{fill:#344e5d;}.h{fill:#596572;}.i{fill:#b2d3ea;}.j{fill:#7467d3;}.k{fill:#614fe8;}.l{fill:#6652ff;}.m{fill:#5842f7;}.n{fill:#6259a4;}.o{fill:#413a90;}.p{fill:#ea589c;}.q{fill:#e8a200;}.r{fill:#fdd762;}.s{fill:#f2b42a;}.t{fill:#eead00;}.u{stroke:rgba(0,0,0,0);stroke-miterlimit:10;opacity:0.302;}.v,.w{fill:#dbd4fe;}.w{opacity:0.338;}.x{fill:#f29130;}.y{fill:#f9b050;}.aa,.z{fill:#61a8e2;}.aa{opacity:0.6;}.ab{fill:#434a7a;}.ac{fill:#cee4ea;}.ad{fill:#dfeef2;}.ae{fill:#fdcc59;}</style></defs><g transform="translate(-598 19.497)"><rect class="a" width="768" height="768" transform="translate(598)"/><g transform="translate(466.816 112.81)"><path class="b" d="M482.925,386.812,358.119,314.755c-3.711-2.143-3.246-5.885,1.039-8.359L560.377,189.738c4.284-2.474,10.766-2.742,14.475-.6l124.806,72.057c3.711,2.143,3.246,5.885-1.038,8.357L497.4,386.211C493.117,388.684,486.635,388.954,482.925,386.812Z" transform="translate(33.882 81.58)"/><path class="c" d="M400.011,261.742l-43.524-26.8c-1.294-.8-1.132-2.189.363-3.109l70.171-43.384a5.3,5.3,0,0,1,5.048-.223l43.524,26.8c1.294.8,1.132,2.189-.362,3.108l-70.172,43.384A5.3,5.3,0,0,1,400.011,261.742Z" transform="translate(493.144 -44.173)"/><path class="c" d="M400.011,261.742l-43.524-26.8c-1.294-.8-1.132-2.189.363-3.109l70.171-43.384a5.3,5.3,0,0,1,5.048-.223l43.524,26.8c1.294.8,1.132,2.189-.362,3.108l-70.172,43.384A5.3,5.3,0,0,1,400.011,261.742Z" transform="translate(493.144 -66.857)"/><g transform="translate(378.726 42.19)"><path class="d" d="M546.562,110.345,437.177,44.637c-4.788-2.876-9.693-3.128-13.96-1.22v0l-10.4,3.778h7.931a29.929,29.929,0,0,0-3.491,9.074L359.419,321.547c-3.277,15.031,2.85,32.492,13.684,39l109.383,65.708a18.088,18.088,0,0,0,3.493,1.628l-4.317,6.586,9.166-3.19-.009,0c5.389-2.408,9.762-8.262,11.59-16.651l57.837-265.282C563.522,134.314,557.4,116.854,546.562,110.345Z" transform="translate(-343.206 -42.19)"/><path class="e" d="M472.665,432.265,363.28,366.557c-10.834-6.51-16.96-23.969-13.684-39L407.433,62.274c3.277-15.029,14.716-21.938,25.55-15.429l109.385,65.708c10.834,6.508,16.96,23.969,13.684,39L498.215,416.834C494.939,431.864,483.5,438.773,472.665,432.265Z" transform="translate(-348.713 -40.954)"/><path class="f" d="M470.7,421.8,363.887,357.632c-8.425-5.06-13.188-18.636-10.641-30.322L410.765,63.489c2.547-11.686,11.441-17.058,19.866-12l106.816,64.166c8.425,5.061,13.188,18.638,10.641,30.324L490.571,409.8C488.022,421.487,479.128,426.859,470.7,421.8Z" transform="translate(-346.556 -38.044)"/><path class="g" d="M519.964,55.234c26.942,15.539,25.825,14.455,26.442,16.308a1.08,1.08,0,0,1,.2.6,1.869,1.869,0,0,1,.067.6V74.36c-27.46-15.881-24.969-14.366-25.57-14.966a3.907,3.907,0,0,1-1.141-2.618Z" transform="translate(-398.026 -34.001) rotate(2)"/><path class="h" d="M519.606,54.929a.72.72,0,0,1,.47.2l.335.2a7.848,7.848,0,0,0,.135,2.483,4.239,4.239,0,0,0,1.744,2.281l24.832,14.362v.4a1.152,1.152,0,0,1-.067.47c-.067.2-.067.335-.2.4a.517.517,0,0,1-.268.268c-.338.169-.214.135-.805.135-.134-.068-.335-.135-.47-.2C519.53,61.057,519.2,61.158,518.8,59.963c-.707-1.061-.537-1.864-.537-3.758a1.839,1.839,0,0,1,.2-.94A.955.955,0,0,1,519.606,54.929Z" transform="translate(-398.472 -34.115) rotate(2)"/></g><g transform="translate(427.766 81.655)"><path class="e" d="M427.524,90.378l-12.186-7.036a3.487,3.487,0,0,1-1.487-3.608h0a1.7,1.7,0,0,1,2.608-1.245l12.186,7.036a3.487,3.487,0,0,1,1.487,3.61h0A1.7,1.7,0,0,1,427.524,90.378Z" transform="translate(-361.274 -61.456)"/><path class="e" d="M448.2,102.317l-17.97-10.375a3.482,3.482,0,0,1-1.486-3.608h0a1.7,1.7,0,0,1,2.606-1.245l17.97,10.375a3.482,3.482,0,0,1,1.486,3.608h0A1.7,1.7,0,0,1,448.2,102.317Z" transform="translate(-352.923 -56.635)"/><path class="e" d="M413.913,126.827l-12.186-7.037a3.486,3.486,0,0,1-1.487-3.608h0a1.7,1.7,0,0,1,2.608-1.245l12.186,7.037a3.483,3.483,0,0,1,1.487,3.608h0A1.7,1.7,0,0,1,413.913,126.827Z" transform="translate(-368.906 -41.021)"/><path class="e" d="M432.571,137.6,414.6,127.224a3.485,3.485,0,0,1-1.487-3.608h0a1.7,1.7,0,0,1,2.608-1.245l17.968,10.374a3.485,3.485,0,0,1,1.487,3.608h0A1.7,1.7,0,0,1,432.571,137.6Z" transform="translate(-361.687 -36.853)"/><path class="e" d="M402.847,83.516l-7.611-4.4a3.483,3.483,0,0,1-1.487-3.608h0a1.7,1.7,0,0,1,2.606-1.245l7.613,4.4a3.483,3.483,0,0,1,1.487,3.608h0A1.7,1.7,0,0,1,402.847,83.516Z" transform="translate(-372.546 -63.824)"/><path class="e" d="M423.5,102.824,400.242,89.4a3.488,3.488,0,0,1-1.487-3.608h0a1.7,1.7,0,0,1,2.608-1.245l23.26,13.43a3.482,3.482,0,0,1,1.486,3.608h0A1.694,1.694,0,0,1,423.5,102.824Z" transform="translate(-369.738 -58.062)"/><path class="e" d="M404.847,106.823l-7.613-4.395a3.489,3.489,0,0,1-1.487-3.61h0a1.7,1.7,0,0,1,2.608-1.244l7.613,4.395a3.487,3.487,0,0,1,1.487,3.608h0A1.7,1.7,0,0,1,404.847,106.823Z" transform="translate(-371.425 -50.756)"/><path class="e" d="M435.93,154.306,415.6,142.567a3.487,3.487,0,0,1-1.487-3.61h0a1.7,1.7,0,0,1,2.608-1.244l20.333,11.739a3.486,3.486,0,0,1,1.487,3.608h0A1.7,1.7,0,0,1,435.93,154.306Z" transform="translate(-361.129 -28.25)"/><path class="e" d="M399.113,118.28l-4.886-2.822a3.486,3.486,0,0,1-1.487-3.608h0a1.7,1.7,0,0,1,2.608-1.244l4.886,2.82a3.489,3.489,0,0,1,1.487,3.61h0A1.7,1.7,0,0,1,399.113,118.28Z" transform="translate(-373.111 -43.449)"/><path class="e" d="M397.286,131.995l-6.068-3.5a3.483,3.483,0,0,1-1.487-3.608h0a1.7,1.7,0,0,1,2.608-1.245l6.068,3.5a3.489,3.489,0,0,1,1.487,3.61h0A1.7,1.7,0,0,1,397.286,131.995Z" transform="translate(-374.798 -36.142)"/><path class="e" d="M415.98,142.788l-16-9.238a3.486,3.486,0,0,1-1.487-3.608h0A1.7,1.7,0,0,1,401.1,128.7l16,9.238a3.483,3.483,0,0,1,1.487,3.608h0A1.7,1.7,0,0,1,415.98,142.788Z" transform="translate(-369.885 -33.305)"/><path class="e" d="M401.217,141.649l-11.5-6.642a3.483,3.483,0,0,1-1.487-3.608h0a1.7,1.7,0,0,1,2.608-1.245l11.5,6.642a3.483,3.483,0,0,1,1.487,3.608h0A1.7,1.7,0,0,1,401.217,141.649Z" transform="translate(-375.641 -32.489)"/><path class="e" d="M442.459,158.107l-7.388-4.265a3.489,3.489,0,0,1-1.487-3.61h0a1.7,1.7,0,0,1,2.608-1.244l7.387,4.265a3.483,3.483,0,0,1,1.487,3.608h0A1.7,1.7,0,0,1,442.459,158.107Z" transform="translate(-350.211 -21.928)"/><path class="e" d="M427.561,119.937,407.228,108.2a3.487,3.487,0,0,1-1.487-3.608h0a1.7,1.7,0,0,1,2.608-1.245l20.333,11.739a3.483,3.483,0,0,1,1.487,3.608h0A1.7,1.7,0,0,1,427.561,119.937Z" transform="translate(-365.821 -47.52)"/><path class="e" d="M434.177,116.372,398.738,95.912a3.489,3.489,0,0,1-1.487-3.61h0a1.7,1.7,0,0,1,2.608-1.244L435.3,111.519a3.482,3.482,0,0,1,1.486,3.608h0A1.7,1.7,0,0,1,434.177,116.372Z" transform="translate(-370.582 -54.409)"/><path class="e" d="M416.063,120.684,395.73,108.944a3.489,3.489,0,0,1-1.487-3.61h0a1.7,1.7,0,0,1,2.608-1.244l20.333,11.739a3.486,3.486,0,0,1,1.487,3.608h0A1.7,1.7,0,0,1,416.063,120.684Z" transform="translate(-372.268 -47.102)"/><path class="e" d="M432.793,122.957l-7.388-4.265a3.487,3.487,0,0,1-1.487-3.608h0a1.7,1.7,0,0,1,2.608-1.245l7.388,4.265a3.483,3.483,0,0,1,1.486,3.608h0A1.7,1.7,0,0,1,432.793,122.957Z" transform="translate(-355.63 -41.636)"/><path class="e" d="M468.135,112.969l-7.388-4.265a3.483,3.483,0,0,1-1.486-3.608h0a1.7,1.7,0,0,1,2.606-1.245l7.388,4.265a3.486,3.486,0,0,1,1.487,3.608h0A1.7,1.7,0,0,1,468.135,112.969Z" transform="translate(-335.814 -47.237)"/><path class="e" d="M417.164,136.086l-24.442-14.112a3.483,3.483,0,0,1-1.487-3.608h0a1.7,1.7,0,0,1,2.608-1.244l24.442,14.11a3.486,3.486,0,0,1,1.486,3.61h0A1.7,1.7,0,0,1,417.164,136.086Z" transform="translate(-373.955 -39.796)"/><path class="e" d="M414.708,82.979,396.74,72.6A3.483,3.483,0,0,1,395.252,69h0a1.7,1.7,0,0,1,2.608-1.245l17.968,10.375a3.486,3.486,0,0,1,1.487,3.608h0A1.7,1.7,0,0,1,414.708,82.979Z" transform="translate(-371.702 -67.477)"/><path class="e" d="M402.51,149.779,381.7,137.764a3.489,3.489,0,0,1-1.487-3.61h0a1.7,1.7,0,0,1,2.608-1.244l20.81,12.016a3.481,3.481,0,0,1,1.487,3.608h0A1.7,1.7,0,0,1,402.51,149.779Z" transform="translate(-380.136 -30.943)"/></g><g transform="translate(396.37 237.937)"><path class="e" d="M407.407,190.514l-12.186-7.036a3.483,3.483,0,0,1-1.487-3.608h0a1.7,1.7,0,0,1,2.608-1.245l12.186,7.037a3.486,3.486,0,0,1,1.487,3.608h0A1.7,1.7,0,0,1,407.407,190.514Z" transform="translate(-341.157 -161.594)"/><path class="e" d="M428.085,202.453l-17.97-10.374a3.489,3.489,0,0,1-1.487-3.61h0a1.7,1.7,0,0,1,2.608-1.244L429.2,197.6a3.484,3.484,0,0,1,1.487,3.608h0A1.7,1.7,0,0,1,428.085,202.453Z" transform="translate(-332.806 -156.772)"/><path class="e" d="M393.8,226.962l-12.186-7.036a3.487,3.487,0,0,1-1.487-3.61h0a1.7,1.7,0,0,1,2.608-1.244l12.186,7.036a3.487,3.487,0,0,1,1.487,3.608h0A1.7,1.7,0,0,1,393.8,226.962Z" transform="translate(-348.789 -141.158)"/><path class="e" d="M412.454,237.735,394.486,227.36A3.484,3.484,0,0,1,393,223.751h0a1.7,1.7,0,0,1,2.606-1.245l17.97,10.375a3.486,3.486,0,0,1,1.487,3.608h0A1.7,1.7,0,0,1,412.454,237.735Z" transform="translate(-341.57 -136.99)"/><path class="e" d="M382.73,183.652l-7.613-4.395a3.486,3.486,0,0,1-1.486-3.61h0a1.7,1.7,0,0,1,2.606-1.244l7.613,4.395a3.486,3.486,0,0,1,1.487,3.608h0A1.7,1.7,0,0,1,382.73,183.652Z" transform="translate(-352.429 -163.961)"/><path class="e" d="M403.384,202.961l-23.259-13.43a3.486,3.486,0,0,1-1.487-3.608h0a1.7,1.7,0,0,1,2.608-1.245l23.259,13.43a3.483,3.483,0,0,1,1.487,3.608h0A1.7,1.7,0,0,1,403.384,202.961Z" transform="translate(-349.621 -158.2)"/><path class="e" d="M384.731,206.959l-7.613-4.395a3.484,3.484,0,0,1-1.487-3.608h0a1.7,1.7,0,0,1,2.608-1.245l7.611,4.395a3.487,3.487,0,0,1,1.487,3.61h0A1.7,1.7,0,0,1,384.731,206.959Z" transform="translate(-351.308 -150.893)"/><path class="e" d="M415.813,254.442,395.479,242.7a3.482,3.482,0,0,1-1.486-3.608h0a1.7,1.7,0,0,1,2.606-1.245l20.333,11.739a3.484,3.484,0,0,1,1.487,3.608h0A1.7,1.7,0,0,1,415.813,254.442Z" transform="translate(-341.012 -128.388)"/><path class="e" d="M379,218.417,374.11,215.6a3.484,3.484,0,0,1-1.487-3.608h0a1.7,1.7,0,0,1,2.608-1.245l4.885,2.822a3.481,3.481,0,0,1,1.487,3.608h0A1.7,1.7,0,0,1,379,218.417Z" transform="translate(-352.994 -143.586)"/><path class="e" d="M377.169,232.132l-6.068-3.5a3.487,3.487,0,0,1-1.487-3.61h0a1.7,1.7,0,0,1,2.606-1.244l6.07,3.5a3.482,3.482,0,0,1,1.486,3.608h0A1.7,1.7,0,0,1,377.169,232.132Z" transform="translate(-354.681 -136.279)"/><path class="e" d="M395.863,242.924l-16-9.238a3.486,3.486,0,0,1-1.487-3.608h0a1.7,1.7,0,0,1,2.608-1.245l16,9.238a3.484,3.484,0,0,1,1.487,3.608h0A1.7,1.7,0,0,1,395.863,242.924Z" transform="translate(-349.768 -133.443)"/><path class="e" d="M381.1,241.785l-11.5-6.641a3.486,3.486,0,0,1-1.486-3.61h0a1.7,1.7,0,0,1,2.606-1.244l11.5,6.641a3.488,3.488,0,0,1,1.487,3.608h0A1.7,1.7,0,0,1,381.1,241.785Z" transform="translate(-355.524 -132.626)"/><path class="e" d="M422.34,258.243l-7.387-4.265a3.484,3.484,0,0,1-1.487-3.608h0a1.7,1.7,0,0,1,2.608-1.245l7.387,4.265A3.484,3.484,0,0,1,424.948,257h0A1.7,1.7,0,0,1,422.34,258.243Z" transform="translate(-330.094 -122.066)"/><path class="e" d="M407.444,220.073l-20.333-11.739a3.483,3.483,0,0,1-1.487-3.608h0a1.7,1.7,0,0,1,2.608-1.245l20.333,11.739a3.487,3.487,0,0,1,1.487,3.608h0A1.7,1.7,0,0,1,407.444,220.073Z" transform="translate(-345.704 -147.658)"/><path class="e" d="M414.058,216.508l-35.437-20.461a3.483,3.483,0,0,1-1.487-3.608h0a1.7,1.7,0,0,1,2.608-1.245l35.437,20.461a3.484,3.484,0,0,1,1.487,3.608h0A1.7,1.7,0,0,1,414.058,216.508Z" transform="translate(-350.464 -154.546)"/><path class="e" d="M395.946,220.819,375.614,209.08a3.484,3.484,0,0,1-1.487-3.608h0a1.7,1.7,0,0,1,2.608-1.245l20.333,11.739a3.486,3.486,0,0,1,1.487,3.608h0A1.7,1.7,0,0,1,395.946,220.819Z" transform="translate(-352.151 -147.24)"/><path class="e" d="M412.674,223.093l-7.387-4.265a3.483,3.483,0,0,1-1.487-3.608h0a1.7,1.7,0,0,1,2.608-1.245l7.387,4.265a3.487,3.487,0,0,1,1.487,3.61h0A1.7,1.7,0,0,1,412.674,223.093Z" transform="translate(-335.513 -141.774)"/><path class="e" d="M397.046,236.223l-24.44-14.112a3.487,3.487,0,0,1-1.487-3.61h0a1.7,1.7,0,0,1,2.606-1.244l24.442,14.112a3.483,3.483,0,0,1,1.487,3.608h0A1.7,1.7,0,0,1,397.046,236.223Z" transform="translate(-353.838 -139.933)"/><path class="e" d="M394.591,183.115l-17.97-10.374a3.486,3.486,0,0,1-1.486-3.61h0a1.7,1.7,0,0,1,2.606-1.244l17.97,10.374a3.487,3.487,0,0,1,1.487,3.608h0A1.7,1.7,0,0,1,394.591,183.115Z" transform="translate(-351.585 -167.614)"/><path class="e" d="M382.392,249.915,361.582,237.9a3.484,3.484,0,0,1-1.487-3.608h0a1.7,1.7,0,0,1,2.608-1.245l20.81,12.016A3.484,3.484,0,0,1,385,248.67h0A1.7,1.7,0,0,1,382.392,249.915Z" transform="translate(-360.018 -131.081)"/></g><path class="i" d="M482.287,240.725l16.142-67.548-28.354-20.359a251.253,251.253,0,0,0-44.333-25.6l-30.029-13.35L379.57,181.422s-13.437,48.6,33.191,105.667C472.052,291.176,482.287,240.725,482.287,240.725Z" transform="translate(46.307 40.191)"/><g transform="translate(371.566 86.919)"><path class="j" d="M459.895,116.639a295.179,295.179,0,0,0-52.124-30.093l-35.306-15.7-11.313,4.406s4.966,2.655,9.1,4.869l-16.763,70.143s-15.8,57.141,39.025,124.237a97.438,97.438,0,0,0,27.769-1.79c-.165.659-.278,1.11-.278,1.11l10.18-3.983q1.421-.522,2.781-1.089l.215-.083-.014,0c34.1-14.287,41.088-48.675,41.088-48.675l18.978-79.417Z" transform="translate(-340.062 -70.85)"/><path class="k" d="M404.258,86.546l-35.306-15.7-11.313,4.406s4.966,2.655,9.1,4.869l-6.083,25.452L423.59,146.5l54.816-1.52,11.312-4.406-33.336-23.936A295.179,295.179,0,0,0,404.258,86.546Z" transform="translate(-336.549 -70.85)"/><path class="l" d="M420.9,105.324l11.382-4.346a282.941,282.941,0,0,0-28.025-14.432l-35.306-15.7-11.313,4.406s4.966,2.655,9.1,4.869l-.361,1.5C388.4,91.279,420.9,105.324,420.9,105.324Z" transform="translate(-336.549 -70.85)"/><path class="m" d="M407.332,86.916l-21.194,7.939L403.891,105.1l21.036-7.881Q416.216,91.721,407.332,86.916Z" transform="translate(-320.57 -61.842)"/><path class="n" d="M467,222.816,485.983,143.4l-33.338-23.936a295.359,295.359,0,0,0-52.122-30.093l-35.307-15.7-18.978,79.418s-15.8,57.143,39.025,124.238C454.97,282.132,467,222.816,467,222.816Z" transform="translate(-344.126 -69.267)"/><path class="o" d="M386.5,264.236c-24.77-31.449-33.041-60.08-35.584-78.8-2.84-20.916.645-34.355.67-34.451l16.582-69.363L393.744,93a287,287,0,0,1,50.555,29.2l28.51,20.47-17.6,73.638-.066.3a66.056,66.056,0,0,1-12.887,25.189C429.3,257.516,410.547,265.06,386.5,264.236Z" transform="translate(-340.943 -64.808)"/></g><g transform="translate(408.39 126.69)"><path class="p" d="M378.922,104.6a4.076,4.076,0,0,0,1.665,4.627,2.463,2.463,0,0,0,3.679-1.542,4.078,4.078,0,0,0-1.667-4.629A2.462,2.462,0,0,0,378.922,104.6Z" transform="translate(-361.543 -92.767)"/><path class="p" d="M373.413,101.421a4.08,4.08,0,0,0,1.665,4.629,2.463,2.463,0,0,0,3.678-1.544,4.077,4.077,0,0,0-1.665-4.627A2.462,2.462,0,0,0,373.413,101.421Z" transform="translate(-364.631 -94.55)"/><path class="p" d="M367.9,98.242a4.076,4.076,0,0,0,1.667,4.627,2.463,2.463,0,0,0,3.679-1.542,4.078,4.078,0,0,0-1.667-4.629A2.463,2.463,0,0,0,367.9,98.242Z" transform="translate(-367.72 -96.333)"/></g><g transform="translate(295.184 408.813)"><path class="i" d="M367.225,284.239c-16.481-9.516-43.2-9.516-59.68,0s-16.481,24.943,0,34.457,43.2,9.515,59.68,0S383.706,293.753,367.225,284.239Zm-30.864,17.553a16.96,16.96,0,0,1-15.348,0c-4.239-2.447-4.239-6.414,0-8.862a16.96,16.96,0,0,1,15.348,0C340.6,295.378,340.6,299.345,336.361,301.792Z" transform="translate(-295.184 -277.102)"/><path class="i" d="M353.8,298.855a39.64,39.64,0,0,1-8.167,6.13,58.426,58.426,0,0,1-10.617,4.715l8.067,4.657,12.158.626,6.013,3.473-2.453,1.417,4.553,2.628,4.908-2.834,7.955,4.593-7.992,4.613,5.874,3.391,5.7,3.29,7.1-4.1,10.521,6.073-4.017,2.319,6.759,3.9,4.017-2.319,3.171,1.831-3.195,6.354,10.224,5.9,37.572,0Z" transform="translate(-272.853 -264.906)"/></g><g transform="translate(295.184 394.054)"><path class="q" d="M379.584,299.313V287.9l-3.362,1.9a29,29,0,0,0-9-7.7c-16.481-9.516-43.2-9.516-59.68,0a27.514,27.514,0,0,0-9.9,9.029l-2.455-3.229v11.41c-.009,6.241,4.111,12.484,12.359,17.247,16.481,9.514,43.2,9.514,59.68,0C375.473,311.8,379.593,305.555,379.584,299.313Zm-43.367-7.437a16.96,16.96,0,0,1-15.348,0c-4.239-2.447-4.239-6.414,0-8.862a16.965,16.965,0,0,1,15.348,0C340.456,285.462,340.456,289.43,336.217,291.877Z" transform="translate(-295.183 -263.54)"/><path class="r" d="M333.851,303.66l-18.21-8.975-16.183-10.691a20.832,20.832,0,0,0-1.818,2.491l-2.455-3.229v11.41c-.009,6.241,4.111,12.484,12.359,17.247,7.341,4.237,16.713,6.583,26.307,7.045Z" transform="translate(-295.183 -258.892)"/><path class="r" d="M367.225,274.782c-16.481-9.515-43.2-9.515-59.68,0s-16.481,24.941,0,34.457,43.2,9.515,59.68,0S383.706,284.3,367.225,274.782Zm-30.864,17.553a16.96,16.96,0,0,1-15.348,0c-4.239-2.447-4.239-6.414,0-8.862a16.96,16.96,0,0,1,15.348,0C340.6,285.921,340.6,289.888,336.361,292.335Z" transform="translate(-295.184 -267.645)"/><path class="q" d="M337.291,276.078h-22.9a58.249,58.249,0,0,0-6.1,1.748v19.409h29Zm-8.423,15.176a16.96,16.96,0,0,1-15.348,0c-4.239-2.447-4.239-6.414,0-8.862a16.965,16.965,0,0,1,15.348,0C333.107,284.84,333.107,288.807,328.868,291.254Z" transform="translate(-287.835 -262.917)"/><path class="s" d="M361.889,275.787c-14.527-8.387-38.079-8.387-52.6,0s-14.525,21.985,0,30.371,38.079,8.387,52.6,0S376.414,284.172,361.889,275.787ZM334.563,291.3a16.96,16.96,0,0,1-15.348,0c-4.239-2.447-4.239-6.414,0-8.862a16.96,16.96,0,0,1,15.348,0C338.8,284.883,338.8,288.85,334.563,291.3Z" transform="translate(-293.386 -266.607)"/><path class="q" d="M309.281,278.936c14.525-8.387,38.078-8.387,52.6,0,6.567,3.792,10.155,8.651,10.784,13.611.76-6.009-2.828-12.167-10.784-16.76-14.527-8.387-38.079-8.387-52.6,0-7.958,4.595-11.546,10.752-10.784,16.76C299.124,287.586,302.712,282.727,309.281,278.936Z" transform="translate(-293.383 -266.607)"/><g transform="translate(62.16 37.046)"><path class="s" d="M353.8,296.666a39.637,39.637,0,0,1-8.167,6.13,58.319,58.319,0,0,1-10.617,4.715l8.067,4.657,12.158.626,6.013,3.473-2.453,1.417,4.553,2.628,4.908-2.834,7.955,4.593-7.992,4.615,5.874,3.39,5.7,3.29,7.1-4.1,10.521,6.074L393.4,337.66l6.759,3.9,4.017-2.319,3.171,1.831-3.195,6.354,10.224,5.9h37.572Z" transform="translate(-335.012 -288.419)"/><path class="r" d="M353.8,291.382a39.528,39.528,0,0,1-8.167,6.13,58.33,58.33,0,0,1-10.617,4.716l8.067,4.657,12.158.626,6.013,3.472L358.8,312.4l4.553,2.63,4.908-2.834,7.955,4.592-7.992,4.615,5.874,3.391,5.7,3.29,7.1-4.1,10.521,6.074-4.017,2.319,6.759,3.9,4.017-2.319,3.171,1.831-3.195,6.354,10.224,5.9,37.572,0Z" transform="translate(-335.012 -291.382)"/><rect class="q" width="37.571" height="8.246" transform="translate(79.361 56.666)"/><path class="q" d="M376.753,329.228v-8.246l4.017-2.319v8.246Z" transform="translate(-311.609 -276.086)"/><path class="t" d="M372.422,317.649v8.246l6.759,3.9v-8.246Z" transform="translate(-314.038 -276.654)"/><path class="q" d="M370.805,312.271v8.246l-7.1,4.1V316.37Z" transform="translate(-318.925 -279.67)"/><path class="t" d="M356.291,310.617v8.246l11.572,6.681V317.3Z" transform="translate(-323.082 -280.597)"/><path class="t" d="M379.335,323.947l-.023,8.185,10.224,5.9v-8.246Z" transform="translate(-310.175 -273.123)"/><path class="t" d="M354.8,307.478v8.246l-4.552-2.628v-8.246Z" transform="translate(-326.468 -283.831)"/><path class="q" d="M340.182,301.316v8.246l12.158.625v-8.246Z" transform="translate(-332.114 -285.812)"/><path class="q" d="M419.323,339.693l-71.857-41.523,3.993-2.306,75.805,43.8Z" transform="translate(-328.03 -288.869)"/><path class="s" d="M351.46,297.861l72.369,41.817,3.437-.011-75.805-43.8-3.993,2.305,1.729,1Z" transform="translate(-328.03 -288.869)"/><path class="q" d="M343.08,311.235v-8.246l-8.068-4.658v8.246Z" transform="translate(-335.013 -287.485)"/><path class="q" d="M358.079,304.718v8.246L353.17,315.8v-8.246Z" transform="translate(-324.832 -283.905)"/></g><path class="r" d="M349.8,275.787c-8.164-4.713-19.176-6.778-29.836-6.194v3.151c10.659-.584,21.672,1.48,29.836,6.193,6.567,3.792,10.155,8.651,10.784,13.611C361.34,286.539,357.752,280.382,349.8,275.787Z" transform="translate(-281.293 -266.607)"/></g><path class="b" d="M409.561,246.446,369.924,225.5c-1.376-.794-1.2-2.182.385-3.1l52-33.946a5.965,5.965,0,0,1,5.366-.223l39.638,20.95c1.376.794,1.2,2.182-.385,3.1l-52,33.947A5.964,5.964,0,0,1,409.561,246.446Z" transform="translate(233.295 305.562)"/><path class="u" d="M20567.2-36.94l-49.08-27.068c-1.379-.792-1.207-2.181.383-3.1l52-33.946a5.973,5.973,0,0,1,5.367-.223l3.33,1.837,19.029-12.812a4.134,4.134,0,0,1,3.832-.166l35.02,19.915c.984.585.859,1.606-.275,2.284l-18.412,12.394,6.557,3.615c1.377.8,1.207,2.181-.383,3.1l-52,33.946a6.213,6.213,0,0,1-3.035.762A4.73,4.73,0,0,1,20567.2-36.94Z" transform="translate(-20264.268 342.6)"/><path class="v" d="M395.519,226.107l-25.916-13.7c-.9-.519-.787-1.427.252-2.026l34-22.2a3.9,3.9,0,0,1,3.509-.146l25.916,13.7c.9.519.787,1.427-.252,2.026l-34,22.2A3.9,3.9,0,0,1,395.519,226.107Z" transform="translate(-143.529 -219.514)"/><path class="w" d="M411.251,248.893l-41.289-21.823c-1.433-.827-1.254-2.273.4-3.228l54.164-35.361a6.214,6.214,0,0,1,5.59-.232l41.289,21.823c1.433.827,1.254,2.273-.4,3.227l-54.164,35.361A6.212,6.212,0,0,1,411.251,248.893Z" transform="translate(301.672 -319.999)"/><g transform="translate(104.176 173.541)"><g transform="translate(144.635 44.045)"><path class="x" d="M157.447,141.9l47.545,27.449v34.314l-47.545-27.451Z" transform="translate(-153.881 -129.437)"/><path class="y" d="M144.637,143.963,148.2,141.9v34.312l-3.566,2.06Z" transform="translate(-144.635 -129.437)"/><path class="x" d="M204.993,137.03l-23.87-39.916L157.447,109.58Z" transform="translate(-153.881 -97.113)"/></g><g transform="translate(149.392 23.578)"><path class="f" d="M203.324,117.316,161.725,93.3V26.041l41.6,24.021Z" transform="translate(-161.724 -25.356)"/><path class="z" d="M223.855,88.955l-23.7-13.685v1.373l23.7,13.684Z" transform="translate(-189.46 -60.882)"/><path class="aa" d="M253.66,113.523l-12.2-7.066v.886l12.2,7.065Z" transform="translate(-219.265 -83.389)"/><path class="ab" d="M289.566,129.632a2.626,2.626,0,0,0,1.189,2.058c.657.379,1.189.072,1.189-.686a2.627,2.627,0,0,0-1.189-2.059C290.1,128.567,289.566,128.874,289.566,129.632Z" transform="translate(-253.983 -99.502)"/><g transform="translate(5.05 18.1)"><path class="z" d="M210.177,106.115,179.869,88.607v.883L210.177,107Z" transform="translate(-179.868 -88.607)"/><path class="z" d="M210.177,111.927,179.869,94.419V95.3l30.309,17.507Z" transform="translate(-179.868 -92.801)"/><path class="z" d="M210.177,117.739l-30.309-17.508v.883l30.309,17.507Z" transform="translate(-179.868 -96.996)"/><path class="z" d="M210.177,123.551l-30.309-17.508v.883l30.309,17.507Z" transform="translate(-179.868 -101.19)"/><path class="z" d="M210.177,129.363l-30.309-17.508v.883l30.309,17.507Z" transform="translate(-179.868 -105.384)"/></g><path class="ac" d="M311.185,177.817l1.19-.686V109.876l-1.189.686Z" transform="translate(-269.585 -85.856)"/><path class="ad" d="M161.724,24.264l1.188-.686,41.6,24.02-1.189.686Z" transform="translate(-161.724 -23.578)"/></g><g transform="translate(144.635 58.571)"><path class="ae" d="M144.635,183.613l47.545,27.45V176.751H168.414L144.637,149.3Z" transform="translate(-144.635 -149.3)"/><path class="ae" d="M144.635,247.969l23.779-9.492,23.767,36.943Z" transform="translate(-144.635 -213.656)"/><path class="y" d="M258.219,282.235l-20.8-34.314h-1.275Z" transform="translate(-210.674 -220.471)"/><path class="y" d="M144.635,247.684l22.087-8.817-.68-.785Z" transform="translate(-144.635 -213.37)"/><path class="y" d="M315.456,276.9l3.566-2.059V240.524l-3.566,2.06Z" transform="translate(-267.911 -215.133)"/></g></g></g></g></svg>