<svg xmlns="http://www.w3.org/2000/svg" width="800.5" height="800.5" viewBox="0 0 800.5 800.5"><defs><style>.a{fill:#faf8fd;}.b,.u{fill:#ccc8fe;}.b{opacity:0.377;}.c{fill:#d1caff;opacity:0.295;}.c,.u,.w{stroke:rgba(0,0,0,0);stroke-miterlimit:10;}.d{fill:#173d7a;}.e{fill:#d4ecff;}.f{fill:#fff;}.g{fill:#344e5d;}.h{fill:#596572;}.i{fill:#b2d3ea;}.j{fill:#7467d3;}.k{fill:#614fe8;}.l{fill:#6652ff;}.m{fill:#5842f7;}.n{fill:#6259a4;}.o{fill:#413a90;}.p{fill:#ea589c;}.q{fill:#e8a200;}.r{fill:#fdd762;}.s{fill:#f2b42a;}.t{fill:#eead00;}.u{opacity:0.302;}.v,.w{fill:#dbd4fe;}.w{opacity:0.338;}.x{fill:#f29130;}.y{fill:#f9b050;}.aa,.z{fill:#61a8e2;}.aa{opacity:0.6;}.ab{fill:#434a7a;}.ac{fill:#cee4ea;}.ad{fill:#dfeef2;}.ae{fill:#fdcc59;}</style></defs><g transform="translate(-597.999 0.502)"><rect class="a" width="800" height="800" transform="translate(597.999 -0.002)"/><g transform="translate(696.21 -0.002)"><path class="b" d="M488.23,395.108,358.224,320.049c-3.866-2.232-3.381-6.131,1.083-8.707l209.6-121.518c4.463-2.577,11.214-2.856,15.078-.626l130.006,75.059c3.866,2.232,3.381,6.131-1.081,8.706l-209.6,121.52C498.846,397.059,492.094,397.34,488.23,395.108Z" transform="translate(-184.75 210.311)"/><path class="c" d="M48.529,63.39a4.39,4.39,0,0,1-2.277-.562L.914,34.918A1.689,1.689,0,0,1,0,33.508,2.315,2.315,0,0,1,1.287,31.68L52.527,0V61.963L51.5,62.6A5.808,5.808,0,0,1,48.529,63.39Z" transform="translate(649.261 281.315)"/><path class="c" d="M48.533,63.393a4.417,4.417,0,0,1-2.281-.56L.914,34.918A1.689,1.689,0,0,1,0,33.512,2.318,2.318,0,0,1,1.287,31.68L52.527,0V61.968L51.5,62.6A5.809,5.809,0,0,1,48.533,63.393Z" transform="translate(649.261 257.684)"/><g transform="translate(159.646 161.46)"><path class="d" d="M554.4,113.184,440.454,44.739c-4.988-3-10.1-3.258-14.542-1.271v0L415.078,47.4h8.262a31.176,31.176,0,0,0-3.637,9.452L359.456,333.186c-3.414,15.657,2.969,33.846,14.254,40.625l113.941,68.445a18.839,18.839,0,0,0,3.638,1.7l-4.5,6.86,9.548-3.323-.01,0c5.614-2.508,10.169-8.606,12.072-17.345L568.65,153.809C572.063,138.152,565.682,119.965,554.4,113.184Z" transform="translate(-342.567 -42.19)"/><path class="e" d="M477.83,448.425,363.887,379.98c-11.286-6.781-17.667-24.968-14.254-40.625L409.88,63.019c3.414-15.656,15.329-22.853,26.614-16.072l113.942,68.445c11.286,6.779,17.667,24.968,14.254,40.623L504.444,432.352C501.032,448.007,489.115,455.2,477.83,448.425Z" transform="translate(-348.713 -40.811)"/><path class="f" d="M475.626,437.306,364.359,370.466c-8.776-5.271-13.737-19.413-11.084-31.586L413.191,64.068c2.653-12.173,11.918-17.769,20.694-12.5l111.267,66.839c8.776,5.272,13.737,19.414,11.084,31.587L496.321,424.809C493.666,436.982,484.4,442.578,475.626,437.306Z" transform="translate(-346.306 -37.563)"/><path class="g" d="M0,0C28.064,16.186,26.9,15.057,27.544,16.987a1.125,1.125,0,0,1,.21.629,1.946,1.946,0,0,1,.07.629v1.678C-.78,3.381,1.814,4.959,1.188,4.334A4.07,4.07,0,0,1,0,1.607Z" transform="translate(124.68 40.985) rotate(2)"/><path class="h" d="M1.417.075a.75.75,0,0,1,.49.21l.349.21A8.175,8.175,0,0,0,2.4,3.081,4.415,4.415,0,0,0,4.213,5.457L30.08,20.418v.42a1.2,1.2,0,0,1-.07.49c-.07.209-.07.349-.21.419a.539.539,0,0,1-.28.28c-.352.176-.223.14-.839.14-.139-.071-.349-.14-.49-.21C1.338,6.458.993,6.563.578,5.318-.159,4.213.019,3.377.019,1.4A1.915,1.915,0,0,1,.229.424,1,1,0,0,1,1.417.075Z" transform="translate(122.441 40.412) rotate(2)"/></g><g transform="translate(210.729 202.569)"><path class="e" d="M428.1,90.885,415.4,83.556a3.632,3.632,0,0,1-1.549-3.759h0a1.767,1.767,0,0,1,2.717-1.3l12.694,7.329a3.632,3.632,0,0,1,1.549,3.76h0A1.767,1.767,0,0,1,428.1,90.885Z" transform="translate(-359.087 -60.758)"/><path class="e" d="M449.016,102.963,430.3,92.155A3.627,3.627,0,0,1,428.75,88.4h0a1.766,1.766,0,0,1,2.715-1.3l18.718,10.808a3.628,3.628,0,0,1,1.548,3.759h0A1.766,1.766,0,0,1,449.016,102.963Z" transform="translate(-349.767 -55.377)"/><path class="e" d="M414.486,127.334,401.793,120a3.631,3.631,0,0,1-1.549-3.759h0a1.767,1.767,0,0,1,2.716-1.3l12.694,7.33a3.628,3.628,0,0,1,1.549,3.759h0A1.767,1.767,0,0,1,414.486,127.334Z" transform="translate(-367.603 -37.953)"/><path class="e" d="M433.384,138.243l-18.717-10.806a3.631,3.631,0,0,1-1.549-3.759h0a1.767,1.767,0,0,1,2.717-1.3l18.717,10.806a3.631,3.631,0,0,1,1.549,3.759h0A1.767,1.767,0,0,1,433.384,138.243Z" transform="translate(-359.547 -33.301)"/><path class="e" d="M403.229,83.913l-7.929-4.58a3.628,3.628,0,0,1-1.549-3.759h0a1.766,1.766,0,0,1,2.715-1.3l7.93,4.58a3.628,3.628,0,0,1,1.549,3.759h0A1.767,1.767,0,0,1,403.229,83.913Z" transform="translate(-371.665 -63.4)"/><path class="e" d="M424.537,103.6,400.308,89.609a3.634,3.634,0,0,1-1.549-3.759h0a1.767,1.767,0,0,1,2.717-1.3L425.7,98.543a3.627,3.627,0,0,1,1.548,3.759h0A1.765,1.765,0,0,1,424.537,103.6Z" transform="translate(-368.532 -56.97)"/><path class="e" d="M405.23,107.22l-7.93-4.578a3.635,3.635,0,0,1-1.549-3.76h0a1.767,1.767,0,0,1,2.717-1.3l7.93,4.578a3.632,3.632,0,0,1,1.549,3.759h0A1.767,1.767,0,0,1,405.23,107.22Z" transform="translate(-370.415 -48.816)"/><path class="e" d="M436.842,155.009l-21.18-12.229a3.632,3.632,0,0,1-1.549-3.76h0a1.767,1.767,0,0,1,2.717-1.3l21.18,12.229a3.631,3.631,0,0,1,1.549,3.759h0A1.767,1.767,0,0,1,436.842,155.009Z" transform="translate(-358.925 -23.701)"/><path class="e" d="M399.382,118.611l-5.09-2.939a3.631,3.631,0,0,1-1.549-3.759h0a1.766,1.766,0,0,1,2.717-1.3l5.09,2.938a3.635,3.635,0,0,1,1.549,3.76h0A1.767,1.767,0,0,1,399.382,118.611Z" transform="translate(-372.297 -40.662)"/><path class="e" d="M397.6,132.354l-6.321-3.65a3.628,3.628,0,0,1-1.549-3.759h0a1.767,1.767,0,0,1,2.717-1.3l6.321,3.65a3.635,3.635,0,0,1,1.549,3.76h0A1.767,1.767,0,0,1,397.6,132.354Z" transform="translate(-374.179 -32.508)"/><path class="e" d="M416.712,143.387l-16.665-9.623a3.631,3.631,0,0,1-1.549-3.759h0a1.767,1.767,0,0,1,2.717-1.3l16.665,9.623a3.628,3.628,0,0,1,1.549,3.759h0A1.767,1.767,0,0,1,416.712,143.387Z" transform="translate(-368.696 -29.342)"/><path class="e" d="M401.761,142.139,389.78,135.22a3.628,3.628,0,0,1-1.549-3.759h0a1.767,1.767,0,0,1,2.717-1.3l11.981,6.919a3.628,3.628,0,0,1,1.549,3.759h0A1.767,1.767,0,0,1,401.761,142.139Z" transform="translate(-375.12 -28.431)"/><path class="e" d="M442.832,158.5l-7.7-4.443a3.635,3.635,0,0,1-1.549-3.76h0A1.767,1.767,0,0,1,436.3,149L444,153.442a3.628,3.628,0,0,1,1.549,3.759h0A1.766,1.766,0,0,1,442.832,158.5Z" transform="translate(-346.74 -16.646)"/><path class="e" d="M428.473,120.64l-21.18-12.229a3.632,3.632,0,0,1-1.549-3.759h0a1.767,1.767,0,0,1,2.717-1.3l21.18,12.229a3.628,3.628,0,0,1,1.549,3.759h0A1.767,1.767,0,0,1,428.473,120.64Z" transform="translate(-364.161 -45.206)"/><path class="e" d="M435.719,117.438,398.8,96.125a3.635,3.635,0,0,1-1.549-3.76h0a1.767,1.767,0,0,1,2.717-1.3l36.915,21.313a3.627,3.627,0,0,1,1.548,3.759h0A1.766,1.766,0,0,1,435.719,117.438Z" transform="translate(-369.474 -52.893)"/><path class="e" d="M416.975,121.386,395.8,109.158a3.635,3.635,0,0,1-1.549-3.76h0a1.766,1.766,0,0,1,2.717-1.3l21.18,12.229a3.631,3.631,0,0,1,1.549,3.759h0A1.767,1.767,0,0,1,416.975,121.386Z" transform="translate(-371.356 -44.739)"/><path class="e" d="M433.166,123.348l-7.7-4.443a3.632,3.632,0,0,1-1.549-3.759h0a1.767,1.767,0,0,1,2.717-1.3l7.7,4.443a3.629,3.629,0,0,1,1.548,3.759h0A1.766,1.766,0,0,1,433.166,123.348Z" transform="translate(-352.789 -38.64)"/><path class="e" d="M468.508,113.36l-7.7-4.443a3.629,3.629,0,0,1-1.548-3.759h0a1.766,1.766,0,0,1,2.715-1.3l7.7,4.443a3.631,3.631,0,0,1,1.549,3.759h0A1.767,1.767,0,0,1,468.508,113.36Z" transform="translate(-330.674 -44.889)"/><path class="e" d="M418.248,136.888l-25.46-14.7a3.628,3.628,0,0,1-1.549-3.759h0a1.766,1.766,0,0,1,2.716-1.3l25.46,14.7a3.631,3.631,0,0,1,1.548,3.76h0A1.765,1.765,0,0,1,418.248,136.888Z" transform="translate(-373.238 -36.585)"/><path class="e" d="M415.521,83.625,396.8,72.817a3.628,3.628,0,0,1-1.549-3.759h0a1.767,1.767,0,0,1,2.717-1.3l18.717,10.808a3.631,3.631,0,0,1,1.549,3.759h0A1.767,1.767,0,0,1,415.521,83.625Z" transform="translate(-370.724 -67.477)"/><path class="e" d="M403.442,150.494l-21.679-12.516a3.635,3.635,0,0,1-1.549-3.76h0a1.767,1.767,0,0,1,2.717-1.3l21.677,12.516a3.626,3.626,0,0,1,1.549,3.759h0A1.766,1.766,0,0,1,403.442,150.494Z" transform="translate(-380.136 -26.706)"/></g><g transform="translate(178.025 365.362)"><path class="e" d="M407.98,191.021l-12.694-7.329a3.628,3.628,0,0,1-1.549-3.759h0a1.767,1.767,0,0,1,2.716-1.3l12.694,7.33a3.631,3.631,0,0,1,1.549,3.759h0A1.766,1.766,0,0,1,407.98,191.021Z" transform="translate(-338.97 -160.895)"/><path class="e" d="M428.9,203.1l-18.718-10.806a3.635,3.635,0,0,1-1.549-3.76h0a1.767,1.767,0,0,1,2.716-1.3l18.717,10.806a3.63,3.63,0,0,1,1.549,3.759h0A1.766,1.766,0,0,1,428.9,203.1Z" transform="translate(-329.65 -155.514)"/><path class="e" d="M394.369,227.469l-12.693-7.329a3.632,3.632,0,0,1-1.549-3.76h0a1.767,1.767,0,0,1,2.717-1.3l12.694,7.329a3.632,3.632,0,0,1,1.549,3.759h0A1.767,1.767,0,0,1,394.369,227.469Z" transform="translate(-347.486 -138.09)"/><path class="e" d="M413.267,238.381l-18.717-10.808A3.629,3.629,0,0,1,393,223.815h0a1.766,1.766,0,0,1,2.715-1.3l18.718,10.808a3.631,3.631,0,0,1,1.549,3.759h0A1.767,1.767,0,0,1,413.267,238.381Z" transform="translate(-339.43 -133.439)"/><path class="e" d="M383.112,184.049l-7.93-4.578a3.631,3.631,0,0,1-1.548-3.76h0a1.765,1.765,0,0,1,2.715-1.3l7.93,4.578a3.631,3.631,0,0,1,1.549,3.759h0A1.767,1.767,0,0,1,383.112,184.049Z" transform="translate(-351.549 -163.537)"/><path class="e" d="M404.419,203.735l-24.228-13.989a3.631,3.631,0,0,1-1.549-3.759h0a1.767,1.767,0,0,1,2.717-1.3l24.228,13.989a3.628,3.628,0,0,1,1.549,3.759h0A1.767,1.767,0,0,1,404.419,203.735Z" transform="translate(-348.415 -157.108)"/><path class="e" d="M385.113,207.355l-7.93-4.578a3.63,3.63,0,0,1-1.549-3.759h0a1.767,1.767,0,0,1,2.717-1.3l7.929,4.578a3.632,3.632,0,0,1,1.549,3.76h0A1.766,1.766,0,0,1,385.113,207.355Z" transform="translate(-350.298 -148.954)"/><path class="e" d="M416.726,255.145l-21.181-12.229A3.627,3.627,0,0,1,394,239.158h0a1.766,1.766,0,0,1,2.715-1.3l21.18,12.229a3.629,3.629,0,0,1,1.549,3.759h0A1.766,1.766,0,0,1,416.726,255.145Z" transform="translate(-338.808 -123.838)"/><path class="e" d="M379.265,218.749l-5.09-2.939a3.629,3.629,0,0,1-1.549-3.759h0a1.767,1.767,0,0,1,2.717-1.3l5.088,2.939a3.626,3.626,0,0,1,1.549,3.759h0A1.766,1.766,0,0,1,379.265,218.749Z" transform="translate(-352.18 -140.799)"/><path class="e" d="M377.487,232.491l-6.321-3.65a3.632,3.632,0,0,1-1.549-3.76h0a1.766,1.766,0,0,1,2.715-1.3l6.322,3.65a3.627,3.627,0,0,1,1.548,3.759h0A1.766,1.766,0,0,1,377.487,232.491Z" transform="translate(-354.062 -132.645)"/><path class="e" d="M396.595,243.523,379.93,233.9a3.631,3.631,0,0,1-1.549-3.759h0a1.767,1.767,0,0,1,2.717-1.3l16.665,9.623a3.63,3.63,0,0,1,1.549,3.759h0A1.767,1.767,0,0,1,396.595,243.523Z" transform="translate(-348.579 -129.48)"/><path class="e" d="M381.644,242.275l-11.983-6.917a3.631,3.631,0,0,1-1.548-3.76h0a1.765,1.765,0,0,1,2.715-1.3l11.983,6.917a3.633,3.633,0,0,1,1.549,3.759h0A1.767,1.767,0,0,1,381.644,242.275Z" transform="translate(-355.003 -128.568)"/><path class="e" d="M422.713,258.634l-7.694-4.443a3.63,3.63,0,0,1-1.549-3.759h0a1.767,1.767,0,0,1,2.716-1.3l7.694,4.443a3.629,3.629,0,0,1,1.549,3.759h0A1.767,1.767,0,0,1,422.713,258.634Z" transform="translate(-326.623 -116.784)"/><path class="e" d="M408.356,220.776l-21.18-12.229a3.628,3.628,0,0,1-1.549-3.759h0a1.767,1.767,0,0,1,2.717-1.3l21.18,12.229a3.632,3.632,0,0,1,1.549,3.759h0A1.767,1.767,0,0,1,408.356,220.776Z" transform="translate(-344.044 -145.343)"/><path class="e" d="M415.6,217.574l-36.913-21.313a3.628,3.628,0,0,1-1.549-3.759h0a1.767,1.767,0,0,1,2.717-1.3l36.913,21.313a3.629,3.629,0,0,1,1.549,3.759h0A1.767,1.767,0,0,1,415.6,217.574Z" transform="translate(-349.356 -153.031)"/><path class="e" d="M396.858,221.522l-21.18-12.229a3.63,3.63,0,0,1-1.549-3.759h0a1.767,1.767,0,0,1,2.716-1.3l21.18,12.229a3.631,3.631,0,0,1,1.549,3.759h0A1.767,1.767,0,0,1,396.858,221.522Z" transform="translate(-351.239 -144.877)"/><path class="e" d="M413.047,223.484l-7.694-4.443a3.628,3.628,0,0,1-1.549-3.759h0a1.767,1.767,0,0,1,2.717-1.3l7.694,4.443a3.632,3.632,0,0,1,1.549,3.76h0A1.767,1.767,0,0,1,413.047,223.484Z" transform="translate(-332.671 -138.777)"/><path class="e" d="M398.129,237.025l-25.459-14.7a3.632,3.632,0,0,1-1.549-3.76h0a1.766,1.766,0,0,1,2.715-1.3l25.46,14.7a3.628,3.628,0,0,1,1.549,3.759h0A1.767,1.767,0,0,1,398.129,237.025Z" transform="translate(-353.121 -136.722)"/><path class="e" d="M395.4,183.76l-18.718-10.806a3.631,3.631,0,0,1-1.548-3.76h0a1.766,1.766,0,0,1,2.715-1.3L396.572,178.7a3.632,3.632,0,0,1,1.549,3.759h0A1.767,1.767,0,0,1,395.4,183.76Z" transform="translate(-350.608 -167.614)"/><path class="e" d="M383.324,250.63l-21.677-12.516a3.63,3.63,0,0,1-1.549-3.759h0a1.767,1.767,0,0,1,2.717-1.3l21.677,12.516a3.629,3.629,0,0,1,1.549,3.759h0A1.767,1.767,0,0,1,383.324,250.63Z" transform="translate(-360.019 -126.844)"/></g><path class="i" d="M486.641,246.01l16.815-70.362L473.92,154.441a261.722,261.722,0,0,0-46.18-26.662l-31.28-13.906-16.815,70.364s-14,50.626,34.574,110.07C475.98,298.563,486.641,246.01,486.641,246.01Z" transform="translate(-170.884 164.122)"/><g transform="translate(152.188 208.052)"><path class="j" d="M464.416,118.547a307.477,307.477,0,0,0-54.3-31.347L373.344,70.85l-11.785,4.589s5.173,2.765,9.476,5.072l-17.462,73.066S337.117,213.1,394.224,282.99a101.5,101.5,0,0,0,28.926-1.865c-.172.686-.289,1.156-.289,1.156l10.6-4.149q1.48-.544,2.9-1.135l.224-.086-.015,0c35.525-14.882,42.8-50.7,42.8-50.7l19.769-82.726Z" transform="translate(-339.591 -70.85)"/><path class="k" d="M406.2,87.2,369.424,70.85l-11.785,4.589s5.173,2.765,9.476,5.072l-6.337,26.512,65.56,42.629,57.1-1.583,11.783-4.589L460.5,118.547A307.477,307.477,0,0,0,406.2,87.2Z" transform="translate(-335.67 -70.85)"/><path class="l" d="M423.537,106.76l11.856-4.528A294.73,294.73,0,0,0,406.2,87.2L369.424,70.85l-11.785,4.589s5.173,2.765,9.476,5.072l-.376,1.567C389.678,92.13,423.537,106.76,423.537,106.76Z" transform="translate(-335.67 -70.85)"/><path class="m" d="M408.215,86.916l-22.077,8.27,18.492,10.676,21.913-8.21Q417.469,91.922,408.215,86.916Z" transform="translate(-317.839 -60.797)"/><path class="n" d="M472.123,229.03l19.77-82.727L457.166,121.37a307.666,307.666,0,0,0-54.294-31.347l-36.778-16.35L346.326,156.4s-16.457,59.524,40.651,129.414C459.589,290.817,472.123,229.03,472.123,229.03Z" transform="translate(-344.126 -69.084)"/><path class="o" d="M388.029,271.844c-25.8-32.76-34.418-62.583-37.066-82.079-2.959-21.788.671-35.787.7-35.886l17.273-72.253L395.575,93.47a298.963,298.963,0,0,1,52.661,30.412l29.7,21.323L459.6,221.911l-.068.309a68.808,68.808,0,0,1-13.423,26.239C432.614,264.844,413.078,272.7,388.029,271.844Z" transform="translate(-340.574 -64.107)"/></g><g transform="translate(190.546 249.48)"><path class="p" d="M378.93,104.682a4.246,4.246,0,0,0,1.735,4.82A2.566,2.566,0,0,0,384.5,107.9a4.248,4.248,0,0,0-1.736-4.822A2.564,2.564,0,0,0,378.93,104.682Z" transform="translate(-360.826 -92.353)"/><path class="p" d="M373.421,101.5a4.25,4.25,0,0,0,1.735,4.822,2.565,2.565,0,0,0,3.832-1.608,4.247,4.247,0,0,0-1.735-4.82A2.565,2.565,0,0,0,373.421,101.5Z" transform="translate(-364.273 -94.343)"/><path class="p" d="M367.912,98.321a4.246,4.246,0,0,0,1.736,4.82,2.565,2.565,0,0,0,3.832-1.606,4.248,4.248,0,0,0-1.736-4.822A2.566,2.566,0,0,0,367.912,98.321Z" transform="translate(-367.72 -96.333)"/></g><g transform="translate(72.623 543.357)"><path class="i" d="M370.227,284.536c-17.167-9.912-45-9.912-62.167,0s-17.167,25.982,0,35.892,45,9.912,62.167,0S387.394,294.447,370.227,284.536Zm-32.15,18.284a17.667,17.667,0,0,1-15.987,0c-4.415-2.549-4.415-6.682,0-9.231a17.667,17.667,0,0,1,15.987,0C342.492,296.139,342.492,300.271,338.077,302.821Z" transform="translate(-295.184 -277.102)"/><path class="i" d="M354.58,298.855a41.293,41.293,0,0,1-8.507,6.386,60.86,60.86,0,0,1-11.06,4.911l8.4,4.851,12.664.652,6.264,3.617-2.556,1.476,4.742,2.738,5.113-2.952,8.286,4.784-8.325,4.806,6.119,3.533,5.935,3.427,7.4-4.269,10.959,6.326-4.185,2.416,7.041,4.066,4.185-2.416,3.3,1.907-3.328,6.618,10.65,6.148,39.137,0Z" transform="translate(-270.263 -263.491)"/></g><g transform="translate(72.623 527.983)"><path class="q" d="M383.1,300.328V288.442l-3.5,1.977a30.205,30.205,0,0,0-9.372-8.018c-17.167-9.912-45-9.912-62.167,0a28.66,28.66,0,0,0-10.317,9.4l-2.557-3.364v11.885c-.01,6.5,4.282,13,12.874,17.966,17.167,9.91,45,9.91,62.167,0C378.818,313.333,383.11,306.829,383.1,300.328Zm-45.173-7.746a17.667,17.667,0,0,1-15.987,0c-4.415-2.549-4.415-6.682,0-9.231a17.672,17.672,0,0,1,15.987,0C342.342,285.9,342.342,290.032,337.926,292.581Z" transform="translate(-295.183 -263.064)"/><path class="r" d="M335.462,304.51l-18.969-9.349-16.857-11.136a21.7,21.7,0,0,0-1.894,2.595l-2.557-3.364v11.885c-.01,6.5,4.282,13,12.874,17.966,7.647,4.414,17.41,6.857,27.4,7.338Z" transform="translate(-295.183 -257.877)"/><path class="r" d="M370.227,275.079c-17.167-9.912-45-9.912-62.167,0s-17.167,25.98,0,35.892,45,9.912,62.167,0S387.394,284.99,370.227,275.079Zm-32.15,18.284a17.667,17.667,0,0,1-15.987,0c-4.415-2.549-4.415-6.682,0-9.231a17.667,17.667,0,0,1,15.987,0C342.492,286.682,342.492,290.814,338.077,293.364Z" transform="translate(-295.184 -267.645)"/><path class="q" d="M338.5,276.078H314.642a60.682,60.682,0,0,0-6.35,1.821v20.217H338.5Zm-8.774,15.808a17.667,17.667,0,0,1-15.987,0c-4.415-2.549-4.415-6.682,0-9.231a17.672,17.672,0,0,1,15.987,0C334.141,285.2,334.141,289.337,329.725,291.886Z" transform="translate(-286.982 -262.369)"/><path class="s" d="M364.535,276.049c-15.132-8.737-39.666-8.737-54.8,0s-15.13,22.9,0,31.636,39.666,8.737,54.8,0S379.665,284.784,364.535,276.049ZM336.07,292.205a17.667,17.667,0,0,1-15.987,0c-4.415-2.549-4.415-6.682,0-9.231a17.667,17.667,0,0,1,15.987,0C340.486,285.524,340.486,289.656,336.07,292.205Z" transform="translate(-293.178 -266.487)"/><path class="q" d="M309.735,279.33c15.13-8.737,39.664-8.737,54.8,0,6.841,3.95,10.579,9.011,11.234,14.178.792-6.259-2.946-12.674-11.234-17.458-15.132-8.737-39.666-8.737-54.8,0-8.289,4.786-12.027,11.2-11.234,17.458C299.155,288.339,302.892,283.278,309.735,279.33Z" transform="translate(-293.174 -266.487)"/><g transform="translate(64.749 38.589)"><path class="s" d="M354.58,296.666a41.289,41.289,0,0,1-8.507,6.386,60.751,60.751,0,0,1-11.06,4.911l8.4,4.851,12.664.652,6.264,3.617-2.556,1.476,4.742,2.738,5.113-2.952,8.286,4.784-8.325,4.807,6.119,3.531,5.935,3.427,7.4-4.269,10.959,6.327-4.185,2.416,7.041,4.064,4.185-2.416,3.3,1.907-3.328,6.618,10.65,6.15h39.137Z" transform="translate(-335.012 -288.076)"/><path class="r" d="M354.58,291.382a41.175,41.175,0,0,1-8.507,6.386,60.761,60.761,0,0,1-11.06,4.913l8.4,4.851,12.664.652,6.264,3.617-2.556,1.475,4.742,2.739,5.113-2.952,8.286,4.783-8.325,4.807,6.119,3.533,5.935,3.427,7.4-4.271,10.959,6.327-4.185,2.416,7.041,4.066,4.185-2.416,3.3,1.907-3.328,6.618,10.65,6.148,39.137,0Z" transform="translate(-335.012 -291.382)"/><rect class="q" width="39.137" height="8.589" transform="translate(82.668 59.027)"/><path class="q" d="M376.753,329.669v-8.589l4.184-2.416v8.589Z" transform="translate(-308.895 -274.312)"/><path class="t" d="M372.422,317.649v8.589l7.04,4.065v-8.589Z" transform="translate(-311.605 -274.947)"/><path class="q" d="M371.1,312.271v8.589l-7.4,4.27v-8.589Z" transform="translate(-317.059 -278.311)"/><path class="t" d="M356.291,310.617v8.589l12.054,6.959v-8.589Z" transform="translate(-321.698 -279.346)"/><path class="t" d="M379.336,323.947l-.024,8.526,10.65,6.149v-8.589Z" transform="translate(-307.294 -271.006)"/><path class="t" d="M354.995,307.587v8.589l-4.742-2.738v-8.589Z" transform="translate(-325.477 -282.955)"/><path class="q" d="M340.182,301.316v8.589l12.664.651v-8.589Z" transform="translate(-331.778 -285.166)"/><path class="q" d="M422.317,341.519l-74.85-43.253,4.159-2.4,78.964,45.628Z" transform="translate(-327.22 -288.578)"/><path class="s" d="M351.626,297.944,427.01,341.5l3.58-.012-78.964-45.628-4.159,2.4,1.8,1.041Z" transform="translate(-327.22 -288.578)"/><path class="q" d="M343.416,311.773v-8.589l-8.4-4.852v8.589Z" transform="translate(-335.013 -287.034)"/><path class="q" d="M358.283,304.718v8.589l-5.114,2.953V307.67Z" transform="translate(-323.652 -283.038)"/></g><path class="r" d="M351.039,276.049c-8.5-4.91-19.975-7.06-31.079-6.452v3.282c11.1-.608,22.575,1.541,31.079,6.451,6.841,3.95,10.579,9.011,11.234,14.178C363.064,287.249,359.327,280.835,351.039,276.049Z" transform="translate(-279.682 -266.487)"/></g><path class="b" d="M411.252,248.894l-41.289-21.823c-1.433-.827-1.254-2.273.4-3.228l54.164-35.361a6.214,6.214,0,0,1,5.59-.232l41.289,21.823c1.433.827,1.254,2.273-.4,3.227l-54.164,35.361A6.212,6.212,0,0,1,411.252,248.894Z" transform="translate(23.529 443.625)"/><path class="u" d="M52.1,79.032.971,50.836c-1.436-.825-1.258-2.271.4-3.226L55.531,12.249a6.224,6.224,0,0,1,5.592-.232l3.469,1.913L84.414.584A4.308,4.308,0,0,1,88.406.412l36.479,20.745c1.025.61.895,1.673-.287,2.379l-19.18,12.911,6.83,3.766c1.434.831,1.258,2.271-.4,3.226L57.686,78.8a6.479,6.479,0,0,1-3.162.794A4.926,4.926,0,0,1,52.1,79.032Z" transform="translate(28.594 356.875)"/><path class="v" d="M396.624,227.707l-27-14.269c-.937-.541-.82-1.486.262-2.111l35.414-23.12a4.063,4.063,0,0,1,3.655-.152l27,14.269c.937.541.82,1.486-.262,2.11l-35.414,23.12A4.062,4.062,0,0,1,396.624,227.707Z" transform="translate(-368.995 -103.328)"/><path class="w" d="M46.543,44.026a5.123,5.123,0,0,1-2.521-.582L1.012,20.713A1.748,1.748,0,0,1,0,19.25a2.412,2.412,0,0,1,1.426-1.9L28,0h72.986l5.691,3.008a1.737,1.737,0,0,1,1.008,1.46,2.4,2.4,0,0,1-1.426,1.9L49.84,43.2A6.788,6.788,0,0,1,46.543,44.026Z" transform="translate(463.749)"/><g transform="translate(24.318 322.843)"><g transform="translate(0 21.32)"><path class="x" d="M157.447,141.9,206.973,170.5v35.743l-49.526-28.595Z" transform="translate(-153.732 -128.918)"/><path class="y" d="M144.637,144.048l3.713-2.144v35.742l-3.714,2.145Z" transform="translate(-144.635 -128.918)"/><path class="x" d="M206.973,138.693,182.109,97.113,157.447,110.1Z" transform="translate(-153.733 -97.113)"/></g><g transform="translate(4.954 0)"><path class="f" d="M205.057,121.119,161.725,96.1V26.041l43.333,25.021Z" transform="translate(-161.724 -25.327)"/><path class="z" d="M224.843,89.525,200.157,75.27V76.7l24.685,14.254Z" transform="translate(-189.014 -60.283)"/><path class="aa" d="M254.169,113.818l-12.711-7.36v.923l12.711,7.359Z" transform="translate(-218.34 -82.428)"/><path class="ab" d="M289.566,129.668a2.735,2.735,0,0,0,1.238,2.144c.684.395,1.238.075,1.238-.714a2.737,2.737,0,0,0-1.238-2.144C290.12,128.558,289.566,128.878,289.566,129.668Z" transform="translate(-252.501 -98.282)"/><g transform="translate(5.261 18.854)"><path class="z" d="M211.44,106.844,179.869,88.607v.919l31.572,18.237Z" transform="translate(-179.868 -88.607)"/><path class="z" d="M211.44,112.656,179.869,94.419v.919l31.572,18.237Z" transform="translate(-179.868 -92.734)"/><path class="z" d="M211.44,118.468l-31.571-18.237v.919l31.572,18.237Z" transform="translate(-179.868 -96.861)"/><path class="z" d="M211.44,124.28l-31.571-18.237v.919L211.44,125.2Z" transform="translate(-179.868 -100.988)"/><path class="z" d="M211.44,130.092l-31.571-18.237v.919l31.572,18.237Z" transform="translate(-179.868 -105.115)"/></g><path class="ac" d="M311.185,180.647l1.24-.715V109.876l-1.238.715Z" transform="translate(-267.851 -84.856)"/><path class="ad" d="M161.724,24.292l1.238-.714L206.3,48.6l-1.238.715Z" transform="translate(-161.724 -23.578)"/></g><g transform="translate(0 36.451)"><path class="ae" d="M144.635,185.043l49.526,28.594V177.894H169.4L144.637,149.3Z" transform="translate(-144.635 -149.3)"/><path class="ae" d="M144.635,248.364l24.769-9.888,24.757,38.482Z" transform="translate(-144.635 -212.621)"/><path class="y" d="M259.139,283.664l-21.667-35.743h-1.328Z" transform="translate(-209.613 -219.328)"/><path class="y" d="M144.635,248.084l23.007-9.184-.709-.818Z" transform="translate(-144.635 -212.341)"/><path class="y" d="M315.456,278.412l3.714-2.145V240.524l-3.715,2.145Z" transform="translate(-265.93 -214.075)"/></g></g></g></g></svg>