<svg width="57" height="18" viewBox="0 0 57 18" xmlns="http://www.w3.org/2000/svg">
    <g fill="none" fill-rule="evenodd">
        <path d="M22.862 18c-2.27 0-3.411-1.35-3.723-2.613-.118-.48-.111-.973-.105-1.45.004-.264.008-.538-.01-.8-.14-1.953-1.415-3.397-4.017-4.544-.288-.127-.604-.252-.939-.384-1.764-.7-3.961-1.569-4.442-3.693-.236-1.045-.061-2.018.506-2.814C10.88.652 12.259 0 13.729 0c1.479 0 2.74.681 3.375 1.822.422.76.463 1.596.502 2.404.034.688.065 1.337.31 1.956.434 1.097 1.316 2.033 2.552 2.708.63.344 1.311.62 1.97.887 1.064.432 2.164.877 3.111 1.626 1.028.812 1.563 1.966 1.469 3.166-.095 1.212-.839 2.303-1.99 2.917-.621.331-1.39.514-2.166.514" fill="#6259A4"/>
        <path d="M26.726 9.902a6.628 6.628 0 0 0-1.155-.792c-.63-.344-1.312-.62-1.971-.887-1.064-.431-2.163-.877-3.111-1.626-1.027-.811-1.563-1.965-1.468-3.165.095-1.213.839-2.303 1.99-2.917C21.632.183 22.4 0 23.177 0c2.27 0 3.41 1.35 3.723 2.612.144.585.134 1.116.123 1.732-.003.17-.007.347-.007.534v5.274l-.29-.25z" fill="#8981BD"/>
        <path d="M4.167 0c2.27 0 3.41 1.35 3.722 2.613.119.48.112.973.105 1.45a9.59 9.59 0 0 0 .011.8c.139 1.953 1.415 3.397 4.016 4.544.288.127.604.252.94.384 1.764.699 3.96 1.569 4.441 3.693.237 1.045.062 2.018-.505 2.814C16.147 17.348 14.77 18 13.3 18c-1.48 0-2.741-.681-3.375-1.822-.423-.76-.463-1.596-.503-2.404-.033-.688-.065-1.337-.31-1.956C8.68 10.72 7.796 9.785 6.561 9.11c-.63-.344-1.312-.62-1.97-.887-1.064-.432-2.164-.877-3.112-1.626C.452 5.785-.083 4.63.011 3.43.106 2.219.849 1.128 2 .514 2.62.183 3.39 0 4.166 0" fill="#413A90"/>
        <path d="M.303 8.098c.34.293.728.56 1.155.792.63.344 1.311.62 1.97.887 1.064.431 2.164.877 3.112 1.626 1.027.811 1.562 1.965 1.468 3.165-.095 1.213-.84 2.303-1.99 2.917-.622.332-1.391.515-2.167.515-2.269 0-3.41-1.35-3.722-2.612-.144-.585-.134-1.116-.123-1.732a28.9 28.9 0 0 0 .006-.534V7.848l.29.25z" fill="#EA589C"/>
        <path d="M30.089 10.49c.108.31.34.637.92.637.453 0 .8-.278.8-.739 0-1.086-1.84-.781-1.84-1.991 0-.493.38-.905 1.023-.905.633 0 .93.423 1.022.664l-.232.086a.845.845 0 0 0-.79-.504c-.492 0-.746.3-.746.664 0 .97 1.844.755 1.844 1.97 0 .557-.417 1.007-1.087 1.007-.698 0-1.022-.418-1.152-.803l.238-.086zM34.637 10.656l1.498-3.094h.346v3.747h-.265V7.963l-1.433 2.987h-.292l-1.433-2.987v3.346h-.265V7.562h.346zM37.817 9.966l-.514 1.343h-.281l1.45-3.747h.27l1.449 3.747h-.281l-.514-1.343h-1.58zm.79-2.094-.693 1.842H39.3l-.693-1.842zM40.732 7.562h.87c.736 0 1.13.47 1.13 1.017 0 .46-.28.824-.702.963l.962 1.767h-.308l-.914-1.713h-.762v1.713h-.276V7.562zm.881 1.788c.509 0 .828-.295.828-.771 0-.444-.303-.766-.844-.766h-.59V9.35h.606zM44.225 7.813h-1.087v-.251h2.45v.251h-1.087v3.496h-.276zM30.089 15.79c.108.31.34.636.92.636.453 0 .8-.278.8-.738 0-1.087-1.84-.782-1.84-1.992 0-.493.38-.905 1.023-.905.633 0 .93.423 1.022.664l-.232.086a.845.845 0 0 0-.79-.503c-.492 0-.746.3-.746.663 0 .97 1.844.755 1.844 1.97 0 .557-.417 1.007-1.087 1.007-.698 0-1.022-.418-1.152-.803l.238-.086zM34.475 12.791c1.07 0 1.914.846 1.914 1.944 0 1.102-.849 1.943-1.92 1.943-1.065 0-1.909-.824-1.909-1.943 0-1.109.85-1.944 1.915-1.944m0 3.63c.914 0 1.627-.712 1.627-1.686 0-.964-.713-1.687-1.627-1.687-.92 0-1.628.723-1.628 1.687 0 .974.708 1.686 1.628 1.686M37.076 12.86h.276v3.497h1.509v.251h-1.785zM39.353 15.291v-2.43h.276v2.425c0 .696.367 1.135 1.087 1.135.719 0 1.087-.439 1.087-1.135v-2.425h.275v2.43c0 .84-.492 1.387-1.362 1.387-.871 0-1.363-.546-1.363-1.387M43.717 13.113H42.63v-.252h2.45v.252h-1.087v3.495h-.276zM45.734 16.608h.276v-3.747h-.276zM48.611 12.791c1.07 0 1.914.846 1.914 1.944 0 1.102-.849 1.943-1.92 1.943-1.065 0-1.908-.824-1.908-1.943 0-1.109.849-1.944 1.914-1.944m0 3.63c.914 0 1.628-.712 1.628-1.686 0-.964-.714-1.687-1.628-1.687-.92 0-1.628.723-1.628 1.687 0 .974.709 1.686 1.628 1.686M51.212 12.86h.27l2.32 3.304v-3.303h.277v3.747h-.276L51.488 13.3v3.308h-.276zM54.993 15.79c.108.31.34.636.919.636.454 0 .8-.278.8-.738 0-1.087-1.838-.782-1.838-1.992 0-.493.378-.905 1.022-.905.632 0 .93.423 1.022.664l-.233.086a.845.845 0 0 0-.79-.503c-.491 0-.746.3-.746.663 0 .97 1.844.755 1.844 1.97 0 .557-.416 1.007-1.086 1.007-.698 0-1.023-.418-1.152-.803l.238-.086zM30.445 4.762c.126.328.398.65.909.65.418 0 .696-.23.696-.617 0-.972-2.089-.755-2.089-2.232 0-.716.538-1.24 1.393-1.24.882 0 1.26.616 1.373.938l-.61.27c-.106-.224-.319-.54-.776-.54-.411 0-.644.25-.644.565 0 .906 2.103.742 2.103 2.187 0 .768-.564 1.345-1.48 1.345-.947 0-1.359-.63-1.498-1.037l.623-.289zM35.665 1.322c1.386 0 2.387 1.044 2.387 2.383 0 1.353-1.001 2.383-2.394 2.383-1.386 0-2.387-1.024-2.387-2.383 0-1.346 1.008-2.383 2.394-2.383m0 4.084c.928 0 1.625-.716 1.625-1.7 0-.972-.697-1.701-1.625-1.701-.935 0-1.625.729-1.625 1.7 0 .985.69 1.7 1.625 1.7M38.769 1.407h.736v3.94h1.625v.656h-2.361zM42.575 4.664l-.484 1.34h-.743l1.692-4.597h.762l1.691 4.596h-.742l-.478-1.34h-1.698zm.85-2.469-.644 1.858h1.287l-.644-1.858zM46.05 1.407h1.247c.995 0 1.552.585 1.552 1.353 0 .532-.285.991-.756 1.182l1.128 2.061h-.816l-.975-1.897h-.643v1.897h-.736V1.407zm1.234 2.075c.464 0 .803-.256.803-.722 0-.427-.266-.716-.803-.716h-.497v1.438h.497zM49.784 4.316V1.407h.737V4.31c0 .677.37 1.103 1.06 1.103.684 0 1.062-.433 1.062-1.11V1.408h.73V4.31c0 1.044-.664 1.78-1.791 1.78-1.16 0-1.798-.71-1.798-1.773M54.646 4.762c.126.328.398.65.908.65.418 0 .697-.23.697-.617 0-.972-2.09-.755-2.09-2.232 0-.716.538-1.24 1.393-1.24.882 0 1.26.616 1.373.938l-.61.27c-.106-.224-.318-.54-.776-.54-.411 0-.643.25-.643.565 0 .906 2.102.742 2.102 2.187 0 .768-.564 1.345-1.479 1.345-.948 0-1.36-.63-1.499-1.037l.624-.289z" fill="#434343"/>
    </g>
</svg>
