<?xml version="1.0" encoding="UTF-8"?>
<svg width="87px" height="28px" viewBox="0 0 87 28" version="1.1" xmlns="http://www.w3.org/2000/svg" xmlns:xlink="http://www.w3.org/1999/xlink">
    <title>54DC9801-F8E1-4B0F-89C1-52669A49C2B9</title>
    <g id="Page-1" stroke="none" stroke-width="1" fill="none" fill-rule="evenodd">
        <g id="login" transform="translate(-640, -119)" fill="#FFFFFF">
            <g id="Group-4" transform="translate(640, 100)">
                <g id="logo/horizontal" transform="translate(0, 19)">
                    <path d="M34.8940033,27.4735884 C31.4301807,27.4735884 29.6881043,25.4138966 29.2126305,23.4861324 C29.031956,22.7537672 29.0423561,22.0009474 29.052369,21.2727168 C29.0579286,20.8689383 29.0637096,20.4512771 29.0353581,20.0514417 C28.8240088,17.0704198 26.8762534,14.8667249 22.9055352,13.1159869 C22.4665172,12.922504 21.9838794,12.7314034 21.4728903,12.529076 C18.7790918,11.462538 15.4264344,10.1351019 14.6930595,6.89285354 C14.3321254,5.29720851 14.5989052,3.81218772 15.4644944,2.59836059 C16.6073188,0.995787862 18.7111038,0.000197152097 20.9548202,0.000197152097 C23.2122283,0.000197152097 25.1377452,1.03962682 26.105593,2.78047984 C26.7505667,3.94055564 26.8126909,5.21654045 26.8728512,6.45054828 C26.9239391,7.49997247 26.9722056,8.49107249 27.3459739,9.43622512 C28.0079309,11.110156 29.3544705,12.5392348 31.2399911,13.5689986 C32.2011453,14.0937517 33.241711,14.5155751 34.2480062,14.9234883 C35.8712832,15.5814834 37.5498247,16.2618224 38.9963549,17.4048117 C40.5644228,18.6438852 41.3814688,20.4052749 41.2379139,22.2370918 C41.092976,24.0871451 39.9577857,25.7513827 38.2013539,26.6886218 C37.252453,27.1949467 36.0780133,27.4735884 34.8940033,27.4735884" id="Fill-69"></path>
                    <path d="M40.7921275,15.1132691 C40.2734212,14.666391 39.6803651,14.2599291 39.0293338,13.9052196 C38.0678478,13.3802474 37.0270884,12.9583419 36.0207103,12.5503192 C34.3976822,11.892324 32.7194173,11.211985 31.2726105,10.0698172 C29.7046532,8.83085318 28.8878008,7.06968254 29.0313558,5.2377562 C29.1764873,3.38718256 30.3120372,1.72275336 32.0689669,0.785404668 C33.0176464,0.278970218 34.1920861,0 35.3759025,0 C38.8388954,0 40.5815249,2.05982868 41.0578562,3.98745594 C41.277144,4.87913106 41.2624012,5.69052147 41.2453351,6.63006074 C41.2405776,6.8901646 41.2356817,7.1605368 41.2356817,7.44558587 L41.2355988,15.4952786 L40.7921275,15.1132691 Z" id="Fill-71"></path>
                    <path d="M6.36009729,9.30996016e-05 C9.82391994,9.30996016e-05 11.5660239,2.05981226 12.0414701,3.98754904 C12.222117,4.71991431 12.2117168,5.4727615 12.2017316,6.20096468 C12.1961443,6.60477051 12.1903911,7.02243175 12.2187425,7.42226716 C12.4300642,10.403289 14.3778472,12.6069566 18.3485377,14.3576672 C18.7875558,14.5511775 19.2702212,14.7423055 19.7811826,14.9445781 C22.4749811,16.0111161 25.8276662,17.3386069 26.5610134,20.5808279 C26.9219475,22.176473 26.6551677,23.6614938 25.7896062,24.8753209 C24.6467541,26.477921 22.5429968,27.4734569 20.2992527,27.4734569 C18.0418446,27.4734569 16.1163278,26.434082 15.1484799,24.6932016 C14.5035339,23.5331532 14.441382,22.2571684 14.3812494,21.0231606 C14.3301339,19.973709 14.281895,18.982609 13.9081267,18.0374837 C13.2461421,16.3635255 11.8996301,14.9344466 10.0140818,13.9046829 C9.05295532,13.3799297 8.01238957,12.9581338 7.00609445,12.5501932 C5.38281742,11.8922255 3.70424823,11.2118591 2.25774566,10.0688698 C0.689677807,8.82979622 -0.127368223,7.06840653 0.0161867011,5.23658972 C0.16112462,3.38653634 1.29631491,1.7223262 3.05277441,0.785059652 C4.0016199,0.278734731 5.17611492,9.30996016e-05 6.36009729,9.30996016e-05" id="Fill-73"></path>
                    <path d="M0.461964846,12.3604152 C0.980698765,12.8072932 1.5737272,13.2137551 2.22475846,13.5684646 C3.18627219,14.0934369 4.22703156,14.5153423 5.233382,14.923365 C6.85641009,15.5813328 8.53467502,16.2616992 9.98148184,17.4038396 C11.5494391,18.642831 12.3662915,20.4040017 12.2227642,22.2359554 C12.077605,24.0865016 10.9420551,25.7509308 9.18512543,26.6882795 C8.23644589,27.194714 7.06197853,27.4736842 5.87818978,27.4736842 C2.41522459,27.4736842 0.672567388,25.4138555 0.196236108,23.4862283 C-0.0230516447,22.5945531 -0.0083089136,21.7831354 0.00878490969,20.8436235 C0.013514754,20.5835196 0.0184105578,20.3131474 0.0184105578,20.0280983 L0.0185211974,11.9784056 L0.461964846,12.3604152 Z" id="Fill-75"></path>
                    <path d="M45.9250888,16.011253 C46.0902185,16.4852396 46.4451228,16.9836236 47.3283589,16.9836236 C48.0216269,16.9836236 48.5499035,16.5587882 48.5499035,15.855941 C48.5499035,14.1972347 45.7435845,14.6629791 45.7435845,12.8163212 C45.7435845,12.0645419 46.3212893,11.4354076 47.3035204,11.4354076 C48.269266,11.4354076 48.7232758,12.0808343 48.8635668,12.4486873 L48.5086902,12.5794101 C48.3683715,12.2770554 48.0133842,11.811311 47.3035204,11.811311 C46.5524432,11.811311 46.164513,12.268786 46.164513,12.8245906 C46.164513,14.3033956 48.9791576,13.9766708 48.9791576,15.8315434 C48.9791576,16.681269 48.3435606,17.3676047 47.3201163,17.3676047 C46.2553481,17.3676047 45.7600698,16.7302284 45.5619695,16.1420032 L45.9250888,16.011253 Z" id="Fill-77"></path>
                    <polygon id="Fill-80" points="52.8668932 16.2644785 55.1532889 11.5415631 55.6815655 11.5415631 55.6815655 17.2614383 55.2771223 17.2614383 55.2771223 12.1543775 53.0898321 16.7139031 52.644065 16.7139031 50.4567748 12.1543775 50.4567748 17.2614383 50.0523316 17.2614383 50.0523316 11.5415631 50.5805805 11.5415631"></polygon>
                    <path d="M57.7203967,15.2105061 L56.9362659,17.2614356 L56.5070948,17.2614356 L58.719113,11.5415603 L59.1319095,11.5415603 L61.3439276,17.2614356 L60.9147565,17.2614356 L60.1306258,15.2105061 L57.7203967,15.2105061 Z M58.9255665,12.0155742 L57.869041,14.8263607 L59.9820921,14.8263607 L58.9255665,12.0155742 Z" id="Fill-81"></path>
                    <path d="M62.1695565,11.5415658 L63.4984492,11.5415658 C64.6209989,11.5415658 65.2235147,12.2607602 65.2235147,13.0941112 C65.2235147,13.7969584 64.7942606,14.352544 64.1505315,14.5648659 L65.6197152,17.261441 L65.1492478,17.261441 L63.754331,14.6466566 L62.590485,14.6466566 L62.590485,17.261441 L62.1695565,17.261441 L62.1695565,11.5415658 Z M63.5149345,14.2707533 C64.2908226,14.2707533 64.7778029,13.821356 64.7778029,13.0941112 C64.7778029,12.4158532 64.3155782,11.9257386 63.4902065,11.9257386 L62.590485,11.9257386 L62.590485,14.2707533 L63.5149345,14.2707533 Z" id="Fill-82"></path>
                    <polygon id="Fill-84" points="67.5018751 11.9257331 65.8428338 11.9257331 65.8428338 11.5415603 69.5818449 11.5415603 69.5818449 11.9257331 67.922776 11.9257331 67.922776 17.2614356 67.5018751 17.2614356"></polygon>
                    <path d="M45.9250888,24.0994178 C46.0902185,24.5734043 46.4451228,25.0717884 47.3283589,25.0717884 C48.0216269,25.0717884 48.5499035,24.646953 48.5499035,23.9441058 C48.5499035,22.2853995 45.7435845,22.7511166 45.7435845,20.904486 C45.7435845,20.1526793 46.3212893,19.523545 47.3035204,19.523545 C48.269266,19.523545 48.7232758,20.1689991 48.8635668,20.5368521 L48.5086902,20.6675749 C48.3683715,20.3651928 48.0133842,19.8994758 47.3035204,19.8994758 C46.5524432,19.8994758 46.164513,20.3569508 46.164513,20.9127554 C46.164513,22.3915604 48.9791576,22.0648082 48.9791576,23.9197356 C48.9791576,24.7694338 48.3435606,25.4557695 47.3201163,25.4557695 C46.2553481,25.4557695 45.7600698,24.8183932 45.5619695,24.230168 L45.9250888,24.0994178 Z" id="Fill-85"></path>
                    <path d="M52.6192651,19.523556 C54.2535785,19.523556 55.5412578,20.8146284 55.5412578,22.4896545 C55.5412578,24.1729501 54.2453358,25.4557531 52.6109948,25.4557531 C50.9850348,25.4557531 49.6973554,24.197512 49.6973554,22.4896545 C49.6973554,20.7983086 50.9932774,19.523556 52.6192651,19.523556 M52.6192651,25.0635299 C54.0142649,25.0635299 55.1037334,23.9769481 55.1037334,22.4896545 C55.1037334,21.0188999 54.0142649,19.9157791 52.6192651,19.9157791 C51.2161056,19.9157791 50.1348522,21.0188999 50.1348522,22.4896545 C50.1348522,23.9769481 51.2161056,25.0635299 52.6192651,25.0635299" id="Fill-87"></path>
                    <polygon id="Fill-90" points="56.5897039 19.629747 57.0106324 19.629747 57.0106324 24.9656412 59.3135134 24.9656412 59.3135134 25.3495949 56.5897039 25.3495949"></polygon>
                    <path d="M60.0647786,23.3395608 L60.0647786,19.6297334 L60.4857071,19.6297334 L60.4857071,23.3313188 C60.4857071,24.3935304 61.0470096,25.0635464 62.1447484,25.0635464 C63.2425425,25.0635464 63.8038726,24.3935304 63.8038726,23.3313188 L63.8038726,19.6297334 L64.2248011,19.6297334 L64.2248011,23.3395608 C64.2248011,24.6223912 63.473724,25.4557695 62.1447484,25.4557695 C60.8158557,25.4557695 60.0647786,24.6223912 60.0647786,23.3395608" id="Fill-91"></path>
                    <polygon id="Fill-93" points="66.7259815 20.013887 65.0669402 20.013887 65.0669402 19.6297416 68.8059236 19.6297416 68.8059236 20.013887 67.1468824 20.013887 67.1468824 25.3495894 66.7259815 25.3495894"></polygon>
                    <polygon id="Fill-94" points="69.8047534 25.3495949 70.2256542 25.3495949 70.2256542 19.629747 69.8047534 19.629747"></polygon>
                    <path d="M74.195938,19.523556 C75.8301684,19.523556 77.1178201,20.8146284 77.1178201,22.4896545 C77.1178201,24.1729501 75.8219258,25.4557531 74.1876124,25.4557531 C72.5616247,25.4557531 71.2739453,24.197512 71.2739453,22.4896545 C71.2739453,20.7983086 72.5698674,19.523556 74.195938,19.523556 M74.195938,25.0635299 C75.5908549,25.0635299 76.680351,23.9769481 76.680351,22.4896545 C76.680351,21.0188999 75.5908549,19.9157791 74.195938,19.9157791 C72.7926956,19.9157791 71.7114421,21.0188999 71.7114421,22.4896545 C71.7114421,23.9769481 72.7926956,25.0635299 74.195938,25.0635299" id="Fill-95"></path>
                    <polygon id="Fill-97" points="78.1662966 19.629747 78.5789824 19.629747 82.1199762 24.6713369 82.1199762 19.629747 82.5409047 19.629747 82.5409047 25.3495949 82.1199762 25.3495949 78.5872251 20.299763 78.5872251 25.3495949 78.1662966 25.3495949"></polygon>
                    <path d="M83.9361009,24.0994178 C84.1011476,24.5734043 84.4560242,25.0717884 85.3392604,25.0717884 C86.032556,25.0717884 86.5608049,24.646953 86.5608049,23.9441058 C86.5608049,22.2853995 83.7544859,22.7511166 83.7544859,20.904486 C83.7544859,20.1526793 84.3322738,19.523545 85.3144494,19.523545 C86.2801951,19.523545 86.7342049,20.1689991 86.8744683,20.5368521 L86.5195916,20.6675749 C86.3792176,20.3651928 86.0243133,19.8994758 85.3144494,19.8994758 C84.5633723,19.8994758 84.1753868,20.3569508 84.1753868,20.9127554 C84.1753868,22.3915604 86.990059,22.0648082 86.990059,23.9197356 C86.990059,24.7694338 86.354462,25.4557695 85.3310177,25.4557695 C84.2661666,25.4557695 83.7709712,24.8183932 83.5728986,24.230168 L83.9361009,24.0994178 Z" id="Fill-98"></path>
                    <path d="M46.4693722,7.2686446 C46.6616915,7.76965737 47.0767285,8.260703 47.8561294,8.260703 C48.4938009,8.260703 48.918906,7.90996395 48.918906,7.31872671 C48.918906,5.83578697 45.7304101,6.16648223 45.7304101,3.91182894 C45.7304101,2.81960632 46.5503604,2.01790922 47.8561294,2.01790922 C49.2023371,2.01790922 49.7792951,2.95991289 49.9513397,3.45098591 L49.0201689,3.86174683 C48.8581925,3.52094752 48.5342673,3.04000593 47.8358546,3.04000593 C47.2083066,3.04000593 46.8540109,3.4207833 46.8540109,3.90188919 C46.8540109,5.28466471 50.0626709,5.03408987 50.0626709,7.23863367 C50.0626709,8.41097671 49.2023371,9.29273947 47.8054564,9.29273947 C46.3580411,9.29273947 45.7304101,8.33088367 45.517899,7.70963551 L46.4693722,7.2686446 Z" id="Fill-100"></path>
                    <path d="M54.4356609,2.0179147 C56.551229,2.0179147 58.0796602,3.61115008 58.0796602,5.65531613 C58.0796602,7.71958074 56.551229,9.29274495 54.4255097,9.29274495 C52.3100523,9.29274495 50.781621,7.72971216 50.781621,5.65531613 C50.781621,3.60121033 52.3201758,2.0179147 54.4356609,2.0179147 M54.4356609,8.25076873 C55.8527333,8.25076873 56.9155929,7.15854611 56.9155929,5.65531613 C56.9155929,4.17237639 55.8527333,3.06008259 54.4356609,3.06008259 C53.0084373,3.06008259 51.9558118,4.17237639 51.9558118,5.65531613 C51.9558118,7.15854611 53.0084373,8.25076873 54.4356609,8.25076873" id="Fill-102"></path>
                    <polygon id="Fill-105" points="59.1732112 2.14827604 60.2967014 2.14827604 60.2967014 8.16056617 62.7766334 8.16056617 62.7766334 9.1625917 59.1732112 9.1625917"></polygon>
                    <path d="M64.9835539,7.11840101 L64.2446195,9.16259444 L63.1108675,9.16259444 L65.6921178,2.14827878 L66.8561297,2.14827878 L69.4372693,9.16259444 L68.303545,9.16259444 L67.5748171,7.11840101 L64.9835539,7.11840101 Z M66.2791993,3.35060537 L65.2973279,6.18652877 L67.2609601,6.18652877 L66.2791993,3.35060537 Z" id="Fill-106"></path>
                    <path d="M70.2878281,2.14827604 L72.1907192,2.14827604 C73.7090822,2.14827604 74.5593478,3.04000593 74.5593478,4.21251327 C74.5593478,5.02415012 74.1240361,5.72549132 73.4053487,6.0162359 L75.1261546,9.1625917 L73.8811268,9.1625917 L72.393162,6.26661907 L71.4113183,6.26661907 L71.4113183,9.1625917 L70.2878281,9.1625917 L70.2878281,2.14827604 Z M72.1705551,5.31470302 C72.8790913,5.31470302 73.3953082,4.9239859 73.3953082,4.21251327 C73.3953082,3.56108988 72.9904224,3.12029065 72.1705551,3.12029065 L71.4113183,3.12029065 L71.4113183,5.31470302 L72.1705551,5.31470302 Z" id="Fill-107"></path>
                    <path d="M75.9867539,6.58737184 L75.9867539,2.14827331 L77.1103547,2.14827331 L77.1103547,6.57724041 C77.1103547,7.60946855 77.6771615,8.26072765 78.7298977,8.26072765 C79.7724826,8.26072765 80.3494406,7.59933713 80.3494406,6.56732804 L80.3494406,2.14827331 L81.4628902,2.14827331 L81.4628902,6.57724041 C81.4628902,8.17050318 80.4506205,9.29273673 78.7298977,9.29273673 C76.9584741,9.29273673 75.9867539,8.21064554 75.9867539,6.58737184" id="Fill-109"></path>
                    <path d="M83.4067013,7.2686446 C83.5990483,7.76965737 84.0140576,8.260703 84.7934861,8.260703 C85.4311577,8.260703 85.8562628,7.90996395 85.8562628,7.31872671 C85.8562628,5.83578697 82.6677669,6.16648223 82.6677669,3.91182894 C82.6677669,2.81960632 83.4877172,2.01790922 84.7934861,2.01790922 C86.1396939,2.01790922 86.7166519,2.95991289 86.8886965,3.45098591 L85.9575257,3.86174683 C85.7955216,3.52094752 85.4715965,3.04000593 84.7731838,3.04000593 C84.1456634,3.04000593 83.79134,3.4207833 83.79134,3.90188919 C83.79134,5.28466471 87,5.03408987 87,7.23863367 C87,8.41097671 86.1396939,9.29273947 84.7427855,9.29273947 C83.2953979,9.29273947 82.6677669,8.33088367 82.4552558,7.70963551 L83.4067013,7.2686446 Z" id="Fill-111"></path>
                </g>
            </g>
        </g>
    </g>
</svg>