<svg xmlns="http://www.w3.org/2000/svg" width="337.876" height="90.45" viewBox="0 0 337.876 90.45">
    <defs>
        <style>
            .cls-1{fill:#123180}.cls-2{fill:#d7428b}
        </style>
    </defs>
    <g id="Group_161452" data-name="Group 161452" transform="translate(-242.007 -242.413)">
        <g id="Group_161443" data-name="Group 161443">
            <path id="Path_475" data-name="Path 475" class="cls-1" d="m379.893 277.722-.071-.056c-3.751-2.986-10.174-4.437-19.646-4.437a55.763 55.763 0 0 0-10.757.891 18.263 18.263 0 0 0-7.211 2.813l-.229.2a14.707 14.707 0 0 0-3.231 5.549 27.414 27.414 0 0 0-1.442 8.14l-.079 2.041h11.608v-3.42c0-1.6 0-6.47 12.791-6.47 5.7 0 8.227.962 9.338 1.765l.481.513a7.614 7.614 0 0 1 1.568 3.451 33.594 33.594 0 0 1 .631 7.314v3.2c-3.9-2.585-9.126-3.893-15.6-3.893a47.276 47.276 0 0 0-10.6 1.033 18.653 18.653 0 0 0-7.242 3.136l-.1.079a14.252 14.252 0 0 0-3.924 6.068 26.994 26.994 0 0 0-1.261 8.8c0 8.409 3.893 18.425 22.444 18.425a34.837 34.837 0 0 0 11.435-1.726 21.627 21.627 0 0 0 4.878-2.411l-.323 3.286h11.821V294.3c.001-8.059-1.724-13.481-5.279-16.578zm-21 44.975c-6.817 0-9.149-1.056-9.9-1.663-1.332-1.119-2.033-3.728-2.033-7.534 0-3.42.693-5.729 1.962-6.651a9.823 9.823 0 0 1 3.633-1.182 41.784 41.784 0 0 1 7.274-.521 39.351 39.351 0 0 1 7.471.607 14.166 14.166 0 0 1 4.24 1.372 5.623 5.623 0 0 1 1.686 2.451 12.49 12.49 0 0 1 .757 4.6c0 2.114 0 8.524-15.092 8.524z"/>
        </g>
        <g id="Group_161444" data-name="Group 161444">
            <path id="Path_476" data-name="Path 476" class="cls-1" d="M445.447 294.9c.054 1.919.047 3.842.038 5.758l-.137 31.353h-11.586l.04-29c.006-4.129.012-8.263-.338-12.377-.158-1.864-.466-3.885-1.824-5.173a7.531 7.531 0 0 0-4.1-1.615 43.4 43.4 0 0 0-13.613 0 7.523 7.523 0 0 0-4.094 1.608c-1.363 1.289-1.673 3.315-1.831 5.185-.349 4.121-.344 8.262-.338 12.4l.041 28.973h-11.657l.077-36.59c.009-3.927.028-7.927 1.224-11.668 3.253-10.167 14.08-10.612 23.164-10.566a73.79 73.79 0 0 1 11.191.7c3.323.527 6.747 1.547 9.092 3.961a14.9 14.9 0 0 1 3.418 6.86 46.882 46.882 0 0 1 1.233 10.191z"/>
            <path id="Path_477" data-name="Path 477" class="cls-1" d="M407.775 295.359v36.653h-.086v-34.549c0-.733.023-1.435.086-2.104z"/>
        </g>
        <g id="Group_161445" data-name="Group 161445">
            <path id="Path_478" data-name="Path 478" class="cls-1" d="M505.52 300.19c0-11.081-1.718-18.118-5.264-21.515-3.444-3.665-10.292-5.446-20.931-5.446-9.725 0-16.235 2.034-19.915 6.234-3.42 3.988-5.083 11.49-5.083 22.949 0 12.31 1.694 20.269 5.17 24.312 3.546 4.13 10.458 6.139 21.112 6.139 9 0 15.179-1.158 18.914-3.57 3.98-2.648 6-7.187 6-13.492v-3.845h-11.7v3.585c0 2.948-.709 4.878-2.135 5.753-.836.528-3.428 1.4-11.372 1.4-7.715 0-10.545-1.537-11.577-2.861-.828-1-2.183-4.082-2.348-13.492h39.129zm-14.272-14.73a7.218 7.218 0 0 1 1.7 3.389 40.509 40.509 0 0 1 .874 6.959v.709h-27.2a36.018 36.018 0 0 1 .772-6.076 14.2 14.2 0 0 1 1.599-4.441 8.515 8.515 0 0 1 3.751-1.781 28.975 28.975 0 0 1 7.392-.827c7.873.008 10.34 1.296 11.112 2.068z"/>
        </g>
        <g id="Group_161447" data-name="Group 161447">
            <g id="Group_161446" data-name="Group 161446">
                <path id="Path_479" data-name="Path 479" class="cls-1" d="M278.547 298.737v33.273h-.181v-37.473c.118 1.221.181 2.616.181 4.2z"/>
            </g>
        </g>
        <g id="Group_161449" data-name="Group 161449">
            <g id="Group_161448" data-name="Group 161448">
                <path id="Path_480" data-name="Path 480" class="cls-1" d="M326.357 294.64c.029 1.1.035 2.2.035 3.283l.022 34.088H314.8l-.055-39.59c0-2.4-.12-5.092-1.85-6.763a8.087 8.087 0 0 0-4.259-1.795 36.812 36.812 0 0 0-8.83-.552c-3.443.2-7.308 1.2-8.926 4.251a11.8 11.8 0 0 0-.919 5.554l-.094 38.894h-11.3l-.094-38.9a11.785 11.785 0 0 0-.915-5.544c-1.617-3.054-5.49-4.061-8.939-4.262a36.7 36.7 0 0 0-8.823.553 8.077 8.077 0 0 0-4.254 1.793c-1.733 1.671-1.85 4.361-1.853 6.768l-.055 39.588h-11.63l.1-35.391c.013-4.878.09-10.007 2.512-14.241 5.121-8.957 17.2-9.883 26.388-9.2a24.782 24.782 0 0 1 13.273 4.558c4.417-3.868 10.731-4.556 16.6-4.628a41.826 41.826 0 0 1 11.944 1.21 18.329 18.329 0 0 1 9.914 6.451c2.872 3.935 3.49 8.935 3.622 13.875z"/>
                <path id="Path_481" data-name="Path 481" class="cls-1" d="M290.076 294.537v37.473h-.181v-33.273c0-1.584.063-2.979.181-4.2z"/>
            </g>
        </g>
        <g id="Group_161451" data-name="Group 161451">
            <g id="Group_161450" data-name="Group 161450">
                <path id="Path_482" data-name="Path 482" class="cls-2" d="M534.608 314.281c-6.218 9.3-11.12 16.637-11.38 17.038l-.583.9H508.68s9.331-13.886 18.772-27.969a161.799 161.799 0 0 1 7.156 10.031z"/>
                <path id="Path_483" data-name="Path 483" class="cls-2" d="m568.96 266.823-16.352 24.462q-2.848-2.849-5.848-5.564a148.34 148.34 0 0 0-2.679-2.387c5.445-8.133 9.685-14.517 10.331-15.557l.576-.954z"/>
            </g>
            <path id="Path_484" data-name="Path 484" class="cls-2" d="M579.883 332.253h-26.637a140.013 140.013 0 0 0-8.146-14.863 113.384 113.384 0 0 0-1.986-3.073c-2.269-3.46-4.665-6.8-7.155-10.032-29.892-38.789-72.716-61.116-74.182-61.872.244.071.473.157.717.244.166.055.355.126.576.205.094.032.189.063.283.1s.189.071.292.1a248.093 248.093 0 0 1 81.376 47.678c.915.8 1.8 1.592 2.68 2.388q2.991 2.72 5.847 5.564a173.289 173.289 0 0 1 17.283 20.033q4.84 6.554 9.052 13.528z"/>
        </g>
    </g>
</svg>
