<?xml version="1.0" encoding="utf-8"?>
<!-- Generator: Adobe Illustrator 25.3.1, SVG Export Plug-In . SVG Version: 6.00 Build 0)  -->
<svg version="1.1" id="Layer_1" xmlns="http://www.w3.org/2000/svg" xmlns:xlink="http://www.w3.org/1999/xlink" x="0px" y="0px"
	 viewBox="0 0 369.9 127.8" enable-background="new 0 0 369.9 127.8" xml:space="preserve">
<g>
	
		<linearGradient id="SVGID_1_" gradientUnits="userSpaceOnUse" x1="-3036.9106" y1="-540.9572" x2="-3036.9106" y2="-614.7122" gradientTransform="matrix(1 0 0 1 483.474 0)">
		<stop  offset="0" style="stop-color:#9D9FA1"/>
		<stop  offset="1" style="stop-color:#F1F2F2"/>
	</linearGradient>
	<polygon fill="url(#SVGID_1_)" points="-2506.2,-541 -2534.2,-541 -2600.7,-614.7 -2572.6,-614.7 -2572.6,-614.6 -2572.5,-614.4 	
		"/>
	
		<linearGradient id="XMLID_4_" gradientUnits="userSpaceOnUse" x1="-3052.2317" y1="-597.4722" x2="-3034.5847" y2="-572.9067" gradientTransform="matrix(1 0 0 1 483.474 0)">
		<stop  offset="0" style="stop-color:#9D9FA1;stop-opacity:0"/>
		<stop  offset="8.328746e-02" style="stop-color:#8E8F91;stop-opacity:0.1585"/>
		<stop  offset="0.2508" style="stop-color:#767779;stop-opacity:0.4773"/>
		<stop  offset="0.4031" style="stop-color:#68696B;stop-opacity:0.7671"/>
		<stop  offset="0.5255" style="stop-color:#636467"/>
		<stop  offset="0.6634" style="stop-color:#666769;stop-opacity:0.7093"/>
		<stop  offset="0.7697" style="stop-color:#6F7072;stop-opacity:0.4854"/>
		<stop  offset="0.8653" style="stop-color:#7F8082;stop-opacity:0.2839"/>
		<stop  offset="0.9542" style="stop-color:#96989A;stop-opacity:9.655511e-02"/>
		<stop  offset="1" style="stop-color:#A7A9AB;stop-opacity:0"/>
	</linearGradient>
	<polygon id="XMLID_14_" fill="url(#XMLID_4_)" points="-2559.4,-569.3 -2588.5,-601.6 -2560.8,-601.5 -2531.7,-569.3 	"/>
	
		<linearGradient id="SVGID_2_" gradientUnits="userSpaceOnUse" x1="-3113.5276" y1="-579.8256" x2="-2951.7476" y2="-579.8256" gradientTransform="matrix(1 0 0 1 483.474 0)">
		<stop  offset="0" style="stop-color:#047EAD"/>
		<stop  offset="1" style="stop-color:#00527B"/>
	</linearGradient>
	<path fill="url(#SVGID_2_)" d="M-2469.1-618.5c-0.2,0-0.4,0-0.7,0.1c0,0,0.1,0,0.1,0c-91.4,8-150.2,51.9-150.2,51.9l-10.2,25.5
		h10.6l25.1,0c5.5-7.6,11.7-14.6,18.3-21c44.1-42.1,107.8-56.6,107.8-56.6C-2468.6-618.6-2468.9-618.6-2469.1-618.5z M-2485.7-616.2
		c0.5-0.1,1-0.2,1.6-0.3C-2484.7-616.3-2485.2-616.2-2485.7-616.2z M-2470.8-618.4c0.2,0,0.5-0.1,0.7-0.1
		C-2470.3-618.4-2470.6-618.4-2470.8-618.4z"/>
</g>
<linearGradient id="XMLID_5_" gradientUnits="userSpaceOnUse" x1="-1122.9355" y1="575.0492" x2="-386.2282" y2="575.0492" gradientTransform="matrix(-1 0 0 1 -1527.6272 0)">
	<stop  offset="0" style="stop-color:#00527B"/>
	<stop  offset="1" style="stop-color:#047EAD"/>
</linearGradient>
<path id="XMLID_1_" fill="url(#XMLID_5_)" d="M-1067.5,575.2c-1.1-0.1-2.2-0.2-3.3-0.3C-1070.8,574.9-1069.6,575-1067.5,575.2z"/>
<linearGradient id="XMLID_6_" gradientUnits="userSpaceOnUse" x1="-1989.8154" y1="-68.6308" x2="-1253.1082" y2="-68.6308" gradientTransform="matrix(-1 0 0 1 -1527.6272 0)">
	<stop  offset="0" style="stop-color:#00527B"/>
	<stop  offset="1" style="stop-color:#047EAD"/>
</linearGradient>
<path id="XMLID_3_" fill="url(#XMLID_6_)" d="M-200.6-68.5c-1.1-0.1-2.2-0.2-3.3-0.3C-203.9-68.8-202.8-68.7-200.6-68.5z"/>
<g>
	<path fill="#333F91" d="M-0.2,94.2c0-6.5,0.9-13.5,2.7-20l15.2-2.8c-2,7.2-3.1,14.6-3.1,21.5c0,17.1,8,21.6,15.9,21.6
		c9.7,0,15.6-5.1,15.6-21.1V54.5h14.7v22c0,8.3,1.9,13,8.5,13c6.5,0,8.3-4.8,8.3-12.9V50h14.1v26.3c0,9.3,2.5,12.4,12.3,12.4h3.9
		c0.4-4.5,0.8-10.1,0.8-13.4c0-11.2-1.3-21.5-3.2-29.9l14.4-2c2.1,8.9,3.6,19.9,3.6,31c0,4.5-0.2,9.5-0.6,14.4h11v11.6h-32.9
		c-9.7,0-15.6-2.2-18.1-8.3c-1.8,5.8-7,9.2-13.3,9.2c-4.9,0-8.2-1.8-10.1-4.6c0.2,0.8,0.4,1.7,0.4,2.7c0,7.9-3.8,26.7-30.6,26.7
		C11.4,126-0.2,116.6-0.2,94.2z"/>
	<path fill="#333F91" d="M192.2,88.6h21V47.7h14.7v40.9H239v11.6h-46.8V88.6z M201.7,124.6c-4.1,0-7.4-3.4-7.4-7.6
		c0-4.1,3.2-7.6,7.4-7.6c4.2,0,7.5,3.4,7.5,7.6C209.1,121.2,205.9,124.6,201.7,124.6z M220.2,124.6c-4.1,0-7.4-3.4-7.4-7.6
		c0-4.1,3.2-7.6,7.4-7.6s7.4,3.4,7.4,7.6C227.6,121.2,224.3,124.6,220.2,124.6z"/>
	<path fill="#333F91" d="M237.2,88.6h11.2c2.4,0,4.4-2,4.4-4.4V47.7h14.7v35.9c0,9.2-7.4,16.6-16.6,16.6h-13.8V88.6z M252.5,30.7
		c0-4.8,4.3-8.5,9.3-7.6c3,0.6,5.4,3,6,6c1,4.9-2.8,9.3-7.6,9.3C256,38.4,252.5,35,252.5,30.7z"/>
	<path fill="#333F91" d="M281,21.5h14.7v63.1c0,2.2,1.8,4.1,4.1,4.1h7.1v11.6H294c-7.2,0-13-5.8-13-13V21.5z"/>
	<path fill="#333F91" d="M344.6,100.3c-13.2,0-19.7-3.1-23-8.6c-2.8,5.8-8,8.6-14.7,8.6h-1.7V88.6h2.2c5.4,0,8.4-3.2,8.4-13.4
		c0-16,9.7-28.9,28.5-28.9c18,0,25.8,10.3,25.8,26.6v1.9C370.1,88.9,358.7,100.3,344.6,100.3L344.6,100.3z M355.7,74.6
		c0-11.7-4.2-16.6-12.4-16.6s-13,6.5-13,16c0,9.8,4.2,14.7,15.8,14.7l0,0c5.3,0,9.6-4.3,9.6-9.6V74.6z"/>
	<g>
		<g>
			<path fill="#E55A9C" d="M173.9,80.6c6.8,10.2,12.2,18.2,12.5,18.7l0.6,1h15.3c0,0-10.2-15.2-20.6-30.6
				C179,73.1,176.4,76.8,173.9,80.6z"/>
			<path fill="#E55A9C" d="M136.3,28.6c0,0,8.5,12.8,17.9,26.8c2.1-2.1,4.2-4.1,6.4-6.1c1-0.9,1.9-1.7,2.9-2.6
				c-6-8.9-10.6-15.9-11.3-17l-0.6-1H136.3z"/>
		</g>
		<path fill="#E55A9C" d="M124.3,100.3h29.2c2.7-5.6,5.7-11.1,8.9-16.3c0.7-1.1,1.4-2.3,2.2-3.4c2.5-3.8,5.1-7.5,7.8-11
			c32.7-42.5,79.7-67,81.3-67.8c-0.3,0.1-0.5,0.2-0.8,0.3c-0.2,0.1-0.4,0.1-0.6,0.2c-0.1,0-0.2,0.1-0.3,0.1c-0.1,0-0.2,0.1-0.3,0.1
			c-39,13.8-68.5,34.1-89.2,52.2c-1,0.9-2,1.7-2.9,2.6c-2.2,2-4.3,4-6.4,6.1c-6.9,6.8-13.2,14.2-18.9,21.9
			C130.7,90.2,127.4,95.2,124.3,100.3z"/>
	</g>
</g>
</svg>
