<?xml version="1.0" encoding="UTF-8"?>
<svg width="102px" height="34px" viewBox="0 0 102 34" version="1.1" xmlns="http://www.w3.org/2000/svg" xmlns:xlink="http://www.w3.org/1999/xlink">
    <title>manex-logo-ar</title>
    <g id="manex-logo-ar" stroke="none" stroke-width="1" fill="none" fill-rule="evenodd">
        <g id="logos/ar-alpha" transform="translate(-0, 0)" fill-rule="nonzero">
            <g id="logo-ar" transform="translate(0, 0)">
                <path d="M0,25.2743363 C0,23.4963797 0.247907102,21.5816573 0.743721307,19.8037007 L4.93059681,19.0378117 C4.37969214,21.0072405 4.07669457,23.0313757 4.07669457,24.918745 C4.07669457,29.5961384 6.28031326,30.8270314 8.45638671,30.8270314 C11.1282744,30.8270314 12.7534432,29.4320193 12.7534432,25.0555109 L12.7534432,14.4151247 L16.8025925,14.4151247 L16.8025925,20.4328238 C16.8025925,22.7031376 17.3259519,23.9887369 19.1439373,23.9887369 C20.9343775,23.9887369 21.4301917,22.6757844 21.4301917,20.460177 L21.4301917,13.1842317 L25.3140697,13.1842317 L25.3140697,20.3781175 C25.3140697,22.921963 26.0027005,23.7699115 28.7021334,23.7699115 L29.7763975,23.7699115 C29.8865784,22.5390185 29.9967594,21.0072405 29.9967594,20.1045857 C29.9967594,17.0410298 29.6386713,14.2236525 29.1153119,11.9259855 L33.0818255,11.378922 C33.6602755,13.8133548 34.073454,16.8222043 34.073454,19.8584071 C34.073454,21.0893001 34.0183635,22.456959 33.9081826,23.7972647 L36.9381583,23.7972647 L36.9381583,26.9702333 L27.8757764,26.9702333 C25.2038887,26.9702333 23.57872,26.3684634 22.8900891,24.6999195 C22.3942749,26.2864039 20.9619228,27.2164119 19.226573,27.2164119 C17.8768566,27.2164119 16.9678639,26.7240547 16.4445045,25.9581657 C16.4995949,26.1769912 16.5546854,26.4231698 16.5546854,26.6967015 C16.5546854,28.8576026 15.5079665,34 8.12584391,34 C3.1952471,33.9726468 0,31.4014481 0,25.2743363 Z" id="Path" fill="#2D4190"></path>
                <path d="M52.9970294,23.7425583 L58.7815285,23.7425583 L58.7815285,12.5551086 L62.8306778,12.5551086 L62.8306778,23.7425583 L65.8881988,23.7425583 L65.8881988,26.915527 L52.9970294,26.915527 L52.9970294,23.7425583 Z M55.6138266,33.5897023 C54.484472,33.5897023 53.5754793,32.6596943 53.5754793,31.5108608 C53.5754793,30.3893805 54.4569268,29.4320193 55.6138266,29.4320193 C56.7707264,29.4320193 57.6797191,30.3620274 57.6797191,31.5108608 C57.6521739,32.6596943 56.7707264,33.5897023 55.6138266,33.5897023 Z M60.7096948,33.5897023 C59.5803403,33.5897023 58.6713476,32.6596943 58.6713476,31.5108608 C58.6713476,30.3893805 59.552795,29.4320193 60.7096948,29.4320193 C61.8665947,29.4320193 62.7480421,30.3620274 62.7480421,31.5108608 C62.7480421,32.6596943 61.8390494,33.5897023 60.7096948,33.5897023 Z" id="Shape" fill="#2D4190"></path>
                <path d="M65.3923846,23.7425583 L68.4774507,23.7425583 C69.1385363,23.7425583 69.689441,23.1954948 69.689441,22.5390185 L69.689441,12.5551086 L73.7385903,12.5551086 L73.7385903,22.3748994 C73.7385903,24.8913918 71.700243,26.915527 69.1660816,26.915527 L65.3648393,26.915527 L65.3648393,23.7425583 L65.3923846,23.7425583 Z M69.6068053,7.90506838 C69.6068053,6.59211585 70.7912503,5.58004827 72.168512,5.82622687 C72.994869,5.99034594 73.6559546,6.6468222 73.821226,7.46741754 C74.0966784,8.80772325 73.0499595,10.0112631 71.7277883,10.0112631 C70.5708885,10.0112631 69.6068053,9.08125503 69.6068053,7.90506838 Z" id="Shape" fill="#2D4190"></path>
                <path d="M77.4571969,5.38857603 L81.5063462,5.38857603 L81.5063462,22.6484312 C81.5063462,23.2502011 82.0021604,23.7699115 82.6357008,23.7699115 L84.5914124,23.7699115 L84.5914124,26.9428801 L81.0380772,26.9428801 C79.0548204,26.9428801 77.4571969,25.3563958 77.4571969,23.386967 L77.4571969,5.38857603 Z" id="Path" fill="#2D4190"></path>
                <path d="M94.9759654,26.9428801 C91.3399946,26.9428801 89.5495544,26.0949316 88.6405617,24.5905068 C87.8692952,26.1769912 86.436943,26.9428801 84.5914124,26.9428801 L84.1231434,26.9428801 L84.1231434,23.7425583 L84.7291385,23.7425583 C86.2165812,23.7425583 87.0429382,22.8672566 87.0429382,20.0772325 C87.0429382,15.7007241 89.7148258,12.1721641 94.8933297,12.1721641 C99.8514718,12.1721641 102,14.9895414 102,19.4481094 L102,19.9678198 C102,23.8246179 98.8598434,26.9428801 94.9759654,26.9428801 L94.9759654,26.9428801 Z M98.0334864,19.9131134 C98.0334864,16.7127916 96.8765866,15.3724859 94.6178774,15.3724859 C92.3591682,15.3724859 91.036997,17.1504425 91.036997,19.7489944 C91.036997,22.4296058 92.1938968,23.7699115 95.3891439,23.7699115 L95.3891439,23.7699115 C96.8490413,23.7699115 98.0334864,22.5937249 98.0334864,21.1440064 L98.0334864,19.9131134 L98.0334864,19.9131134 Z" id="Shape" fill="#2D4190"></path>
                <g id="Group" transform="translate(34.2938, 0)" fill="#E35C9C">
                    <path d="M13.6624359,21.5543041 C15.5355117,24.3443282 17.0229544,26.5325825 17.1055901,26.6693484 L17.2708615,26.9428801 L21.4852822,26.9428801 C21.4852822,26.9428801 18.6756684,22.7851971 15.8109641,18.5728077 C15.0672428,19.5028158 14.3510667,20.5148833 13.6624359,21.5543041 Z" id="Path"></path>
                    <path d="M8.23602484,14.6613033 C8.81447475,14.0868866 9.39292466,13.539823 9.99891979,12.9927595 C10.2743721,12.7465809 10.5222792,12.5277554 10.7977316,12.2815768 C9.14501755,9.84714401 7.87793681,7.93242156 7.68512017,7.6315366 L7.51984877,7.35800483 L3.30542803,7.35800483 C4.8663246,9.67390721 6.50985687,12.10834 8.23602484,14.6613033 Z" id="Path"></path>
                    <path d="M0,26.9428801 L8.04320821,26.9428801 C8.78692952,25.4111022 9.61328652,23.9066774 10.494734,22.4843121 C10.6875506,22.1834272 10.8803673,21.8551891 11.1007291,21.5543041 C11.78936,20.5148833 12.5055361,19.5028158 13.2492574,18.5454545 C22.2565487,6.92035398 35.2028085,0.218825422 35.6435323,0 C35.5608966,0.0273531778 35.5058061,0.0547063556 35.4231704,0.0820595334 C35.3680799,0.109412711 35.3129895,0.109412711 35.257899,0.136765889 C35.2303538,0.136765889 35.2028085,0.164119067 35.1752633,0.164119067 C35.1477181,0.164119067 35.1201728,0.191472245 35.0926276,0.191472245 C24.3499865,3.96621078 16.2241426,9.51890587 10.5222792,14.4698311 C10.2468269,14.7160097 9.97137456,14.9348351 9.72346746,15.1810137 C9.11747232,15.7280772 8.53902241,16.2751408 7.96057251,16.8495575 C6.05995139,18.7095736 4.32460167,20.7337088 2.75452336,22.8399035 C1.76289495,24.1802092 0.853902241,25.5478681 0,26.9428801 Z" id="Path"></path>
                </g>
            </g>
        </g>
    </g>
</svg>