<?xml version="1.0" encoding="UTF-8"?>
<svg width="102px" height="34px" viewBox="0 0 102 34" version="1.1" xmlns="http://www.w3.org/2000/svg" xmlns:xlink="http://www.w3.org/1999/xlink">
    <title>manex-logo-en</title>
    <g id="manex-logo-en" stroke="none" stroke-width="1" fill="none" fill-rule="evenodd">
        <rect id="bounding-box" x="0" y="0" width="102" height="34"></rect>
        <g id="logos/ar-alpha" transform="translate(0, 4)" fill-rule="nonzero">
            <g id="logo-en">
                <g id="Group_161443" transform="translate(28.0467, 9.1965)" fill="#2D4190">
                    <path d="M13.5796721,1.34280538 L13.5582384,1.32609007 C12.4258744,0.43480591 10.4868785,0.00170031318 7.62744068,0.00170031318 C6.53883693,-0.0136859434 5.4512908,0.0753820433 4.3800829,0.26765282 C3.60211709,0.390535251 2.85982149,0.676846582 2.20320301,1.10729861 L2.13407176,1.16699614 C1.68952841,1.64132532 1.35646282,2.20690649 1.15868708,2.82330418 C0.890204093,3.60678807 0.74343051,4.42599658 0.723371476,5.25299374 L0.699522702,5.86220706 L4.2037831,5.86220706 L4.2037831,4.84137926 C4.2037831,4.363799 4.2037831,2.91016409 8.06517135,2.91016409 C9.7859057,2.91016409 10.5487646,3.19730922 10.8841568,3.43699481 L11.0293627,3.59011898 C11.2724469,3.88853474 11.435277,4.24287524 11.5027156,4.6201999 C11.6466792,5.33884748 11.7105566,6.07093039 11.6932039,6.80333866 L11.6932039,7.75849917 C10.5158593,6.98690857 8.93821762,6.59648671 6.98382566,6.59648671 C5.90883055,6.57976352 4.83536667,6.68319895 3.78386355,6.90482446 C2.99593763,7.05910051 2.25051026,7.37826185 1.59762528,7.84088177 L1.56743696,7.86446229 C1.02176074,8.35755587 0.61378353,8.98134799 0.382847205,9.67568542 C0.110011506,10.5244309 -0.0186240863,11.4120285 0.00217246684,12.3023768 C0.00217246684,14.8123596 1.17740384,17.802012 6.77763942,17.802012 C7.94931079,17.8216422 9.11606148,17.6475137 10.229674,17.2868223 C10.7492208,17.1091932 11.243998,16.8673953 11.7022604,16.5671685 L11.6047521,17.547999 L15.1733137,17.547999 L15.1733137,6.29113383 C15.1736155,3.88562176 14.6528669,2.26722166 13.5796721,1.34280538 L13.5796721,1.34280538 Z M7.24012451,14.767288 C5.18218661,14.767288 4.47819495,14.452085 4.25148065,14.270903 C3.8493722,13.9368953 3.63775207,13.158141 3.63775207,12.0220969 C3.63775207,11.0012691 3.84695714,10.3120611 4.23004694,10.0368555 C4.56875146,9.84941455 4.94137838,9.72954367 5.32678868,9.68404308 C6.05277214,9.56902689 6.78753607,9.51699139 7.52268721,9.528531 C8.27859509,9.51783067 9.03381013,9.57849983 9.77805673,9.70971301 C10.2238984,9.77859436 10.6559044,9.91681264 11.0580416,10.1192381 C11.2910496,10.3135008 11.4668611,10.5662097 11.5670167,10.8508313 C11.7296684,11.2902756 11.8071937,11.7560687 11.7955423,12.2238746 C11.7955423,12.8548775 11.7955423,14.7681834 7.23952075,14.7681834 L7.24012451,14.767288 Z" id="Path_475"></path>
                </g>
                <g id="Group_161444" transform="translate(46.5033, 9.1839)">
                    <path d="M14.9127291,6.4827958 C14.9290308,7.05559362 14.9269176,7.62958539 14.9242007,8.20148775 L14.8828427,17.5599714 L11.3852237,17.5599714 L11.397299,8.90382922 C11.3991103,7.67137367 11.4009216,6.43742567 11.2952625,5.20944743 C11.247565,4.65306643 11.1545849,4.04982287 10.7446275,3.66537076 C10.3898909,3.38626262 9.95886149,3.21838881 9.50690632,3.18331319 C8.14558936,2.96957183 6.75868702,2.96957183 5.39737006,3.18331319 C4.94624052,3.21799265 4.51587225,3.38512706 4.16146017,3.66328135 C3.74999334,4.04803194 3.65640954,4.65276795 3.60871199,5.21093987 C3.50335475,6.44100753 3.50486417,7.67704493 3.50667547,8.91218688 L3.51905268,17.5602699 L0,17.5602699 L0.0232450078,6.63860636 C0.0259619568,5.46644531 0.0316977379,4.27249467 0.392750067,3.15585232 C1.37477618,0.12112827 4.64326578,-0.0116987397 7.38557294,0.00203169271 C8.51542768,-0.013143069 9.64481252,0.0567056602 10.763948,0.210973056 C11.767106,0.368276053 12.8007541,0.672733468 13.5086703,1.39328268 C14.0273111,1.97518595 14.383025,2.68108122 14.5405071,3.44090804 C14.7768174,4.43834258 14.9016394,5.45841852 14.9127291,6.4827958 L14.9127291,6.4827958 Z" id="Path_476" fill="#2D4190"></path>
                    <path d="M3.5401845,6.61980164 L3.5401845,17.5602699 L3.51422255,17.5602699 L3.51422255,7.24781967 C3.51422255,7.02902822 3.52116586,6.81948988 3.5401845,6.61980164 L3.5401845,6.61980164 Z" id="Path_477" fill="#333F91"></path>
                </g>
                <g id="Group_161445" transform="translate(64.0968, 9.1982)" fill="#2D4190">
                    <path d="M15.4543076,8.04752584 C15.4543076,4.73998406 14.9356722,2.63952639 13.8651943,1.6255638 C12.8255085,0.531606525 10.7582123,1.33226763e-15 7.5464767,1.33226763e-15 C4.6106624,1.33226763e-15 2.64540264,0.607123903 1.5344724,1.86077208 C0.502031792,3.05114088 0,5.29039531 0,8.71076542 C0,12.3851485 0.511390172,14.7608118 1.56073624,15.9675975 C2.63121413,17.2003515 4.71783094,17.8000132 7.93409475,17.8000132 C10.6510437,17.8000132 12.5163801,17.4543645 13.6439139,16.7344123 C14.8454092,15.9440169 15.4552133,14.5891814 15.4552133,12.7072167 L15.4552133,11.5595317 L11.9231796,11.5595317 L11.9231796,12.6296099 C11.9231796,13.5095516 11.7091444,14.0856327 11.2786589,14.3468094 C11.0262846,14.5044109 10.2438033,14.7646922 7.84564297,14.7646922 C5.51661394,14.7646922 4.66228443,14.3059166 4.35074095,13.910719 C4.10078164,13.6122313 3.69172988,12.6922923 3.64191915,9.88352345 L15.4543076,9.88352345 L15.4543076,8.04752584 Z M11.1458303,3.65080259 C11.405009,3.9367521 11.582189,4.28599269 11.6590318,4.66237727 C11.8075508,5.34592486 11.8958302,6.04092098 11.9228777,6.73955291 L11.9228777,6.95118066 L3.71165417,6.95118066 C3.73711821,6.34119753 3.81508464,5.73446742 3.94470802,5.13756963 C4.02969194,4.67217597 4.19284922,4.22412629 4.42741928,3.81198592 C4.75472332,3.54510674 5.1437444,3.36247452 5.55978324,3.2803794 C6.28980846,3.10364496 7.03982701,3.02067842 7.79130399,3.0335301 C10.1680306,3.035918 10.9127765,3.42037011 11.1458303,3.65080259 L11.1458303,3.65080259 Z" id="Path_478"></path>
                </g>
                <g id="Group_161446" transform="translate(10.8535, 15.5584)" fill="#333F91">
                    <path d="M0.5905,1.25364818 L0.5905,11.1852281 L0.4095,11.1852281 L0.4095,0 C0.5275,0.364453435 0.5905,0.780843722 0.5905,1.25364818 Z" id="Path_479"></path>
                </g>
                <g id="Group_161448" transform="translate(0, 9.1287)">
                    <path d="M25.4647551,6.46045746 C25.4735097,6.78879389 25.475321,7.11713031 25.475321,7.44039245 L25.4819625,17.6152399 L21.9758908,17.6152399 L21.9592872,5.79811334 C21.9592872,5.08174295 21.9230612,4.27821416 21.4008032,3.77944128 C21.0340693,3.48098091 20.5872448,3.29478027 20.1150826,3.24365593 C19.2364699,3.08297671 18.3414648,3.02765555 17.4494538,3.07889074 C16.4100699,3.13858827 15.2432912,3.43707593 14.7548442,4.34776179 C14.528453,4.87013853 14.4332675,5.43892424 14.4774135,6.00556226 L14.4490365,17.6149414 L11.0377561,17.6149414 L11.0093791,6.00377134 C11.0535934,5.43821365 10.9588255,4.87047193 10.733156,4.34895574 C10.2450108,3.43737442 9.07581708,3.13679735 8.03462186,3.07680133 C7.14329996,3.02550661 6.24897485,3.08092982 5.37110622,3.241865 C4.89949262,3.29292997 4.45319001,3.47892428 4.08689501,3.77705338 C3.56373139,4.27582626 3.52841106,5.07875807 3.52750541,5.79721787 L3.51090183,17.6137474 L0,17.6137474 L0.0301883219,7.04997059 C0.0341128037,5.59394778 0.0573578115,4.06300456 0.788518967,2.7992078 C2.33446293,0.125653818 5.98091033,-0.150745756 8.75461334,0.0531213165 C10.194926,0.115415365 11.5863578,0.587863947 12.7615093,1.41362808 C14.0949275,0.259077803 16.0010181,0.0537182918 17.7727707,0.0322271802 C18.9859803,-0.0194440511 20.2003842,0.102198678 21.3784639,0.393397251 C22.5638848,0.690591728 23.6163321,1.36771213 24.3713341,2.31894115 C25.2383427,3.4934901 25.4249065,4.98592841 25.4647551,6.46045746 L25.4647551,6.46045746 Z" id="Path_480" fill="#2D4190"></path>
                    <path d="M14.5121301,6.42971323 L14.5121301,17.6149414 L14.4574892,17.6149414 L14.4574892,7.68336141 C14.4574892,7.21055695 14.4765079,6.79416666 14.5121301,6.42971323 Z" id="Path_481" fill="#333F91"></path>
                </g>
                <g id="Group_161451" transform="translate(66.3458, 0)" fill="#E35C9C">
                    <g id="Group_161450" transform="translate(14.1592, 7.2861)">
                        <path d="M7.82722809,14.1656274 C5.95011824,16.9415627 4.4702867,19.1315667 4.39179706,19.2512602 L4.21579915,19.5198991 L0,19.5198991 C0,19.5198991 2.81687231,15.3750994 5.66695178,11.1714977 C6.42523224,12.142058 7.14584676,13.1408253 7.82722809,14.1656274 L7.82722809,14.1656274 Z" id="Path_482"></path>
                        <path d="M18.1975204,0 L13.261126,7.30160517 C12.6879504,6.73467761 12.0994794,6.18108249 11.495713,5.64081983 C11.2290463,5.40010797 10.9594448,5.16259392 10.6869678,4.92832978 C12.3307219,2.50072963 13.6107068,0.595184397 13.8057234,0.284757229 L13.9796081,0 L18.1975204,0 Z" id="Path_483"></path>
                    </g>
                    <path d="M35.6542194,26.8161315 L27.6129561,26.8161315 C26.8846026,25.2895798 26.0633848,23.8080588 25.1538154,22.3797094 C24.9589715,22.07079 24.7590988,21.7649993 24.5542753,21.4624568 C23.8693023,20.4296895 23.1459901,19.4327407 22.3943009,18.4680286 C13.3704077,6.88999069 0.442560798,0.225656672 0,0 C0.0736595053,0.021192624 0.142790762,0.0468625629 0.216450268,0.0728309894 C0.266562882,0.0892478108 0.32361881,0.110440435 0.390335002,0.13402096 C0.418712024,0.143572565 0.44739093,0.152825683 0.475767952,0.163869726 C0.504144975,0.17491377 0.532823881,0.18506235 0.563917852,0.193718492 C9.59760692,3.34069493 17.936953,8.17174011 25.1299666,14.4250132 C25.4061898,14.6638033 25.6733564,14.9002056 25.9390137,15.1378018 C26.5409688,15.6790594 27.1293392,16.2326545 27.7041248,16.7985871 C29.5948507,18.6574096 31.3390825,20.6564358 32.9215725,22.7781904 C33.895649,24.0823825 34.8065313,25.4283629 35.6542194,26.8161315 L35.6542194,26.8161315 Z" id="Path_484"></path>
                </g>
            </g>
        </g>
    </g>
</svg>