<svg xmlns="http://www.w3.org/2000/svg" width="187.439" height="59.736" viewBox="0 0 187.439 59.736"><defs><style>.a{fill:#5a5b5e;}.b{fill:#585da6;}.c{fill:#8283be;}.d{fill:#333e92;}.e{fill:#e65a9c;}</style></defs><g transform="translate(-975.851 -1148.33)"><path class="a" d="M2794.422,1580.1l4.921-10.269h1.137v12.437h-.871v-11.1l-4.708,9.914h-.96l-4.708-9.914v11.1h-.871v-12.437h1.137Z" transform="translate(-1704.601 -396.404)"/><path class="a" d="M3026.931,1570.859l-2.274,6.112h4.548Zm-2.594,6.947-1.688,4.459h-.924l4.761-12.437h.889l4.761,12.437h-.924l-1.687-4.459Z" transform="translate(-1924.069 -396.403)"/><path class="a" d="M3362.815,1570.664h-3.571v-.835h8.048v.835h-3.571v11.6h-.906Z" transform="translate(-2241.493 -396.404)"/><path class="a" d="M3334.764,1866.044h-3.571v-.835h8.048v.835h-3.571v11.6h-.906Z" transform="translate(-2215.113 -674.198)"/><rect class="a" width="0.906" height="12.437" transform="translate(1126.278 1191.01)"/><path class="a" d="M3804.779,1865.209h.888l7.622,10.962v-10.962h.906v12.437h-.906l-7.6-10.98v10.98h-.906Z" transform="translate(-2660.503 -674.198)"/><path class="a" d="M3118.114,1226.785h2.418v13.072h5.338v2.179h-7.756Z" transform="translate(-2014.72 -73.784)"/><path class="a" d="M3267.293,1229.4l-2.113,6.166h4.227Zm-2.789,8.192-1.591,4.445h-2.44l5.556-15.251h2.506l5.556,15.251h-2.44l-1.568-4.445Z" transform="translate(-2148.604 -73.784)"/><path class="b" d="M1545.222,1208.072c-7.456,0-11.205-4.478-12.229-8.67a19.061,19.061,0,0,1-.345-4.812c.012-.878.024-1.786-.037-2.656-.455-6.482-4.647-11.273-13.194-15.079-.945-.421-1.984-.836-3.084-1.276-5.8-2.319-13.015-5.205-14.593-12.255a11.43,11.43,0,0,1,1.66-9.337,14.494,14.494,0,0,1,11.818-5.649c4.859,0,9,2.26,11.087,6.045,1.388,2.522,1.522,5.3,1.652,7.98a20.089,20.089,0,0,0,1.018,6.492,17.973,17.973,0,0,0,8.382,8.986,62.177,62.177,0,0,0,6.475,2.945c3.494,1.431,7.107,2.91,10.221,5.4a11.855,11.855,0,0,1-1.711,20.186,15.244,15.244,0,0,1-7.119,1.707" transform="translate(-494.263 -0.007)"/><path class="c" d="M2050.2,1181.19a21.763,21.763,0,0,0-3.794-2.627,62.245,62.245,0,0,0-6.476-2.946c-3.494-1.431-7.106-2.91-10.22-5.393a11.855,11.855,0,0,1,1.714-20.187,15.24,15.24,0,0,1,7.118-1.708c7.454,0,11.2,4.479,12.23,8.67a21.566,21.566,0,0,1,.4,5.746c-.01.566-.021,1.153-.021,1.773v17.5Z" transform="translate(-986.544 0)"/><path class="d" d="M989.542,1148.333c7.456,0,11.206,4.479,12.229,8.67a19.057,19.057,0,0,1,.345,4.813c-.012.878-.024,1.786.037,2.655.455,6.482,4.647,11.273,13.194,15.079.945.421,1.984.836,3.084,1.276,5.8,2.319,13.015,5.205,14.593,12.255a11.431,11.431,0,0,1-1.661,9.337,14.493,14.493,0,0,1-11.818,5.649c-4.859,0-9-2.26-11.087-6.045-1.388-2.522-1.522-5.3-1.651-7.98a20.088,20.088,0,0,0-1.018-6.492,17.972,17.972,0,0,0-8.382-8.986,62.212,62.212,0,0,0-6.474-2.945c-3.494-1.431-7.107-2.91-10.221-5.395a11.855,11.855,0,0,1,1.711-20.186,15.245,15.245,0,0,1,7.119-1.707" transform="translate(-0.001 -0.003)"/><path class="e" d="M976.846,1586.612a21.763,21.763,0,0,0,3.794,2.627,62.209,62.209,0,0,0,6.476,2.946c3.494,1.43,7.106,2.91,10.22,5.393a11.855,11.855,0,0,1-1.714,20.187,15.239,15.239,0,0,1-7.118,1.708c-7.454,0-11.2-4.479-12.23-8.67a21.581,21.581,0,0,1-.4-5.746c.01-.566.021-1.153.021-1.773v-17.5Z" transform="translate(0 -411.408)"/><path class="a" d="M2626.8,1575.9a2.9,2.9,0,0,0,3.02,2.114,2.418,2.418,0,0,0,2.629-2.452c0-3.606-6.041-2.594-6.041-6.609a3.055,3.055,0,0,1,3.358-3,3.477,3.477,0,0,1,3.358,2.2l-.764.284a2.778,2.778,0,0,0-2.594-1.67,2.191,2.191,0,0,0-2.452,2.2c0,3.215,6.058,2.505,6.058,6.538a3.322,3.322,0,0,1-3.571,3.34,3.723,3.723,0,0,1-3.784-2.665Z" transform="translate(-1551.924 -392.758)"/><path class="a" d="M2626.476,1233.441a3.076,3.076,0,0,0,2.985,2.157,2.027,2.027,0,0,0,2.288-2.048c0-3.224-6.863-2.505-6.863-7.408,0-2.375,1.765-4.118,4.575-4.118a4.618,4.618,0,0,1,4.51,3.116l-2,.893a2.749,2.749,0,0,0-2.549-1.787,1.891,1.891,0,0,0-2.113,1.874c0,3.007,6.906,2.462,6.906,7.255,0,2.549-1.852,4.466-4.859,4.466a4.955,4.955,0,0,1-4.924-3.442Z" transform="translate(-1550.426 -69.306)"/><path class="a" d="M2822.6,1235.576a5.652,5.652,0,1,0-5.338-5.643,5.342,5.342,0,0,0,5.338,5.643m0-13.552a7.909,7.909,0,1,1-7.865,7.909,7.693,7.693,0,0,1,7.865-7.909" transform="translate(-1729.398 -69.306)"/><path class="a" d="M3524,1233.67a2.356,2.356,0,0,0,2.636-2.4c0-1.416-.872-2.375-2.636-2.375h-1.634v4.771Zm-4.053-6.885h4.1c3.268,0,5.1,1.939,5.1,4.488a4.113,4.113,0,0,1-2.484,3.922l3.7,6.841h-2.68l-3.2-6.3h-2.113v6.3h-2.418Z" transform="translate(-2392.628 -73.784)"/><path class="a" d="M3725.981,1236.437v-9.652h2.418v9.63c0,2.244,1.22,3.66,3.486,3.66,2.244,0,3.486-1.438,3.486-3.682v-9.608h2.4v9.63a5.518,5.518,0,0,1-5.882,5.9c-3.813,0-5.9-2.353-5.9-5.882" transform="translate(-2586.396 -73.784)"/><path class="a" d="M3961.888,1233.441a3.076,3.076,0,0,0,2.985,2.157,2.027,2.027,0,0,0,2.288-2.048c0-3.224-6.863-2.505-6.863-7.408,0-2.375,1.765-4.118,4.575-4.118a4.618,4.618,0,0,1,4.51,3.116l-2,.893a2.749,2.749,0,0,0-2.549-1.787,1.891,1.891,0,0,0-2.113,1.874c0,3.007,6.907,2.462,6.907,7.255,0,2.549-1.852,4.466-4.859,4.466a4.955,4.955,0,0,1-4.924-3.442Z" transform="translate(-2806.332 -69.306)"/><path class="a" d="M3229.339,1575.762a2.452,2.452,0,0,0,2.719-2.558,2.483,2.483,0,0,0-2.771-2.54h-1.937v5.1Zm-2.9-5.934h2.86a3.372,3.372,0,0,1,3.713,3.376,3.3,3.3,0,0,1-2.309,3.2l3.162,5.863h-1.013l-3-5.685h-2.505v5.685h-.906Z" transform="translate(-2116.599 -396.403)"/><path class="a" d="M3150.348,1873.275v-8.066h.906v8.048c0,2.31,1.208,3.766,3.571,3.766s3.571-1.457,3.571-3.766v-8.048h.906v8.066c0,2.789-1.617,4.6-4.477,4.6s-4.477-1.812-4.477-4.6" transform="translate(-2045.034 -674.198)"/><path class="a" d="M2626.8,1871.28a2.9,2.9,0,0,0,3.02,2.114,2.418,2.418,0,0,0,2.629-2.452c0-3.606-6.041-2.594-6.041-6.609a3.055,3.055,0,0,1,3.358-3,3.477,3.477,0,0,1,3.358,2.2l-.764.284a2.778,2.778,0,0,0-2.594-1.67,2.191,2.191,0,0,0-2.452,2.2c0,3.215,6.058,2.5,6.058,6.538a3.322,3.322,0,0,1-3.571,3.34,3.723,3.723,0,0,1-3.784-2.665Z" transform="translate(-1551.924 -670.551)"/><path class="a" d="M2781.819,1873.376a5.6,5.6,0,1,0-5.348-5.6,5.358,5.358,0,0,0,5.348,5.6m0-12.046a6.452,6.452,0,1,1-6.289,6.449,6.293,6.293,0,0,1,6.289-6.449" transform="translate(-1692.532 -670.551)"/><path class="a" d="M4001.028,1871.28a2.9,2.9,0,0,0,3.02,2.114,2.418,2.418,0,0,0,2.63-2.452c0-3.606-6.041-2.594-6.041-6.609a3.055,3.055,0,0,1,3.357-3,3.477,3.477,0,0,1,3.358,2.2l-.764.284a2.777,2.777,0,0,0-2.594-1.67,2.191,2.191,0,0,0-2.452,2.2c0,3.215,6.059,2.5,6.059,6.538a3.322,3.322,0,0,1-3.571,3.34,3.723,3.723,0,0,1-3.785-2.665Z" transform="translate(-2844.332 -670.551)"/><path class="a" d="M3024.712,1865.209h.906v11.6h4.957v.835h-5.863Z" transform="translate(-1926.878 -674.198)"/><path class="a" d="M3561.886,1873.376a5.6,5.6,0,1,0-5.348-5.6,5.358,5.358,0,0,0,5.348,5.6m0-12.046a6.451,6.451,0,1,1-6.29,6.449,6.293,6.293,0,0,1,6.29-6.449" transform="translate(-2426.156 -670.551)"/></g></svg>